<?xml version="1.0" standalone="no"?>
<!DOCTYPE svg PUBLIC "-//W3C//DTD SVG 1.1//EN" "http://www.w3.org/Graphics/SVG/1.1/DTD/svg11.dtd" >
<svg>
<metadata>
Created by FontForge 20090622 at Mon Apr  3 16:23:56 2017
 By deploy user
Copyright (c) 2017 by Octotype. All rights reserved.
</metadata>
<defs>
<font id="WashingtonBasketball" horiz-adv-x="185" >
  <font-face 
    font-family="Washington Basketball"
    font-weight="400"
    font-stretch="normal"
    units-per-em="1000"
    panose-1="0 0 0 0 0 0 0 0 0 0"
    ascent="750"
    descent="-250"
    x-height="267"
    cap-height="426"
    bbox="-312 -218.4 835.143 596"
    underline-thickness="50"
    underline-position="-50"
    unicode-range="U+0020-U+FB02"
  />
<missing-glyph horiz-adv-x="247" 
 />
    <glyph glyph-name=".notdef" horiz-adv-x="247" 
 />
    <glyph glyph-name="one" unicode="1" horiz-adv-x="477" 
d="M381 396q-2 -1 -9 -9l-18 -20q-24 -8 -40.5 -14.5t-26.5 -11.5q5 1 8 1.5t6 0.5h6q-5 -2 -11.5 -5t-34.5 -14q-8 -4 -17.5 -7t-13.5 -4q-5 -2 -4 -0.5t-2 3.5q-4 2 -2.5 5t-0.5 11q-2 7 0 7t2 6t-1 8.5t-1 6.5q1 4 2 4.5t-1 2.5q-1 2 1 3t3 1q5 2 16 6l27 10
q70 28 137 42q7 -4 6 -5t-5 -4.5l-9 -8l-10 -9t-7 -6.5zM464 418q1 -4 2.5 -3t-1.5 -4l-6 -9t-9 -12q-10 -11 -16 -16q-7 -5 -12.5 -8.5t-7.5 -5.5l-15.5 -16l-37.5 -39.5l-51.5 -56l-56.5 -65.5l-53.5 -68t-41.5 -63q7 7 13 12q5 5 10 8.5t7 5.5q1 1 -2 -2.5t-7.5 -9.5
l-9 -12t-6.5 -9t-5.5 -10t-8 -14.5l-8 -13.5t-4.5 -7q-3 -5 -7 1q-1 1 -1.5 2t-1.5 2t-3 1q-4 2 -7 4t-5 3.5t-3 2.5q0 1 -0.5 5t-0.5 8t-1 7.5t-2 3.5q-3 0 0.5 5.5t5.5 9.5q1 4 2.5 7.5t3.5 6.5q44 77 89.5 128.5l77.5 89.5q20 23 20 21l25.5 30.5l24.5 28.5l18 20t9 9
q2 2 7 6.5l10 9l9 8t5 4.5t-6 5q-4 4 -2 6q2 1 4 1q5 0 6 -1q2 -2 2.5 -1.5t4.5 0.5q1 -1 3 -1l4 -2t7 -3q6 -2 7 0t8 -2q6 -4 9.5 -3.5t4.5 -4.5zM245 -9q2 -6 -3 -6q-1 0 -7.5 0.5t-14 1.5l-15 2t-10.5 1h-9.5t-13 -0.5t-11 -1t-2.5 0.5q2 0 7 1.5t11 3.5l16 4
q-16 0 -35.5 -2.5t-37 -5.5l-29.5 -5t-13 -2q-2 0 -3.5 -1l-4.5 -3l20 -3q4 -1 9 -2q-3 0 -5.5 -0.5t-7 -1t-13 -1l-24.5 -1.5q-8 -2 -18 -2h-14q-5 0 -4 1.5t-1 3.5q-3 3 -1 5.5t3 10.5q0 7 1.5 7t3.5 5q2 6 2 9t2 6t2.5 3.5t-0.5 3.5q0 1 1 2h2q4 0 11 1.5t20.5 3
t34.5 2.5t53 1h4h4q18 0 40 -2t42 -9q7 -4 7 -6v-9v-8v-3q0 -4 1 -5zM253 375q12 2 22 5l16 4t10 3q5 1 13.5 5l10.5 5q2 2 6 4.5t9 2.5t11.5 1.5t8.5 2.5l7.5 5t9.5 5q-6 -2 -19 -5.5t-30 -9t-36.5 -12.5t-38.5 -16z" />
    <glyph glyph-name="two" unicode="2" horiz-adv-x="478" 
d="M10 36q0 1 0.5 1.5t0.5 1.5q0 3 1 4l1 1l1 2h1l40 27q3 2 9 7t11 10l8.5 8.5t2.5 1.5q-2 -2 -5 -7.5t-8 -10.5q-5 -6 -11 -14q28 19 63 49l71 64l70.5 68.5l61.5 62.5l43.5 45.5t17.5 18.5l3 4q-23 -2 -56 -6q-44 -6 -78 -15t-59.5 -20t-43 -22t-27.5 -20l45 8t25 5
l-9 -3t-9.5 -3.5t-2 -2t13.5 1.5l36 5l9 3q5 2 6.5 2h4.5q3 -1 5 0.5t8 1.5h5l3 -2l25 4q3 0 0 -1.5t-7.5 -3t-8 -3t0.5 -1.5q5 0 1 -2t-9 -5l-1.5 -3t-2.5 -4l-5 -10q-1 -2 -3 -4q-1 -1 -2 -1q-2 0 -3 -1q-3 -1 -4 -4q-3 -3 -5 -3l-6 -6q-5 -3 -12 -4.5t-15 -3.5
q-5 -2 -11 -2.5t-11 -1.5q-6 -1 -13 -1q-13 -2 -18.5 -2t-7.5 0.5t-2 1.5t-3 1q-5 0 -11 -1.5t-11 -1.5l-1 -1h-2h-6h-1l-29 2q-2 17 -3 32q-1 13 0 25.5t6 18.5q4 5 26 21.5t64 34t105 31.5t149 13l4 4q5 4 4.5 2.5t3.5 -2.5q4 0 4 -4l2 -4t3 -5q4 -7 2.5 -8t0.5 -7
q2 -5 4 -7.5t3 -5.5q1 -4 0.5 -5t1.5 -3q3 -2 1 -8v-2q-2 -2 -4 0.5t-4 5.5q-4 2 -4 1v-1q-3 -4 -12.5 -15.5t-12.5 -16.5q-1 -2 -9 -10l-20 -20l-25.5 -26.5l-26.5 -27.5q-1 -2 -4 -5q-2 -2 -6.5 -6t-9.5 -10l-41.5 -41l-54 -51.5t-63.5 -55.5t-68 -52h1q6 -1 12.5 -1h12.5
q2 0 3 -0.5t3 -0.5h12q5 0 9 -0.5t9 -0.5h37.5t31.5 1h26q11 0 17.5 0.5t7.5 0.5h1v1q0 2 1 3l2 2h-13q-9 -2 -14 0l-1 1h-16l2 1h3q1 0 1 1h4l10 2h2q1 0 1.5 0.5t1.5 0.5h3q1 0 2 1h4q2 1 6 1q3 1 6 1h3v1l5 4q1 0 2 1q1 0 1 -0.5t1 -0.5h11q-1 0 -2 1l-1 1q-1 0 -2 1
q0 1 1 1l1 -1h1q1 -1 4 -1h5q1 0 1.5 0.5t1.5 0.5h8q2 0 3 -0.5t3 -0.5q1 -1 -1 -3h1l1 1h5q-1 0 -1 -1v-8q0 -1 -1 -2v-2q0 -1 -1 -1v-3q-2 -10 -2 -15q0 -1 -0.5 -1.5t-0.5 -1.5v-2q0 -1 -0.5 -1t-0.5 -1v-7h1v-3l-3 -5l-3 -3v-4l-1 -1v-10q0 -1 -0.5 -1t-0.5 -1v-2
q-2 -4 -2 -5v-1l-2 -1q-2 0 -3 1l1 1q0 2 1 3v3q0 1 0.5 1t0.5 1v3q-1 1 -3 1q-1 0 -2 1q-1 0 -1.5 0.5t-1.5 0.5q-2 2 -4 2l-1 1q0 2 0.5 3t0.5 2q2 8 -2 13l-1 1q-2 0 -4 0.5t-4 0.5h-4l-12 -4v-19q-6 0 -10 -1h-28q-2 1 -4 1h-9q-2 0 -4.5 0.5t-4.5 0.5h-3h-12.5t-13.5 1
h-22q-2 0 -2.5 0.5t-2.5 0.5h-35q-2 0 -3 0.5t-3 0.5h-41q2 0 3 -0.5t3 -0.5h7q1 0 2 -0.5t2 -0.5h9l58 -4q2 0 3 -0.5t2 -0.5q3 0 5 -0.5t4 -0.5h3h-68q-1 0 -1 0.5t-1 0.5h-23q-2 0 -3.5 0.5t-3.5 0.5h-15q-3 1 -7 1h-10q-3 0 -6 0.5t-6 0.5h-8q-1 0 -2 0.5t-2 0.5h-11
q-1 -1 -2 -1v2l-4 17q0 1 -0.5 1.5t-0.5 1.5l-2 10q0 1 -0.5 1.5t-0.5 1.5v8zM284 -7l10 8l16 -5v-1q3 0 5 -2q1 0 1.5 -0.5t1.5 -0.5l1 -1h-22.5t-22.5 1q4 1 10 1z" />
    <glyph glyph-name="three" unicode="3" horiz-adv-x="402" 
d="M388 387q2 -4 2.5 -9.5t0.5 -10.5q-1 -5 -3 -10t-7 -15l-1 -2q-4 -9 -22.5 -32.5t-67.5 -58.5q9 7 31.5 28t45.5 49l-22 -21l-25 -22.5l-21 -18.5t-11 -9l-11 -7t-17 -10l-17 -9.5t-11 -5.5q1 0 7.5 0.5t14.5 1.5t15 1.5t10 0.5q5 0 14.5 -1.5t16.5 -3.5q6 -2 11 -8
q3 -4 5 -7q5 -2 11.5 -4t10.5 -10t2.5 -23.5t-12.5 -43.5q-26 -44 -63 -69.5t-71.5 -39t-60 -18t-28.5 -5.5q-5 -2 -8 -2t-8 -1q-4 0 -15.5 -2.5t-19.5 -2.5q-9 0 -12 2.5l-9 7.5q-7 4 -8 4t-3 4q-2 3 -2 4.5t-2 4.5t2.5 1.5t3.5 0.5l-4 12q-2 5 -1.5 5.5t-2.5 3.5l-9 8
q-5 4 -4 7t-1 9q-1 4 -0.5 2.5t2.5 -3.5l11 -3.5t21 -4t31 -0.5t40 7q-10 -4 -22 -7q-11 -2 -24.5 -4t-28.5 -2q1 0 1.5 -0.5t1.5 -0.5q5 -1 7.5 -1h6.5t10.5 -0.5t11.5 1.5q2 0 16 1.5t34 5.5t43 11t43 18t38 26t31 30.5t20 29t7 21.5q0 7 -10 7.5t-25 -1.5
q-59 -10 -95.5 -19.5t-57.5 -17.5l33.5 9t26.5 6l25 5q-17 -3 -34.5 -9l-31.5 -11q-17 -6 -33 -13l-11 2v1l5 7q1 3 1 6q1 4 8 6l3 10q2 5 5 8t3 5q1 2 3 3t4 4q2 4 7 6t7 5l9 9l7 7q24 14 55 36.5t58 44.5l64 53q0 1 1 3t1 3t1 3t-2 1.5t-3 1.5t-26 1t-64 -9
q-14 -2 -32 -7.5t-37 -13l-37.5 -15.5l-34.5 -15l44 8q-4 -1 -8.5 -2.5t-6.5 -2.5t0 -1.5t12 1.5l37 5l8 3q6 2 7.5 2h4.5q3 -1 4.5 0.5t7.5 1.5t5.5 0t3.5 -2l25 4q3 0 0 -1.5t-8 -3t-8 -3t0 -1.5q6 0 2 -2.5t-9 -4.5l-4 -8q-2 -3 -3 -5l-2 -4t-3 -4q-1 -1 -2 -1
q-2 0 -3 -1q-3 -1 -4 -4q-3 -3 -5 -3l-6 -6q-5 -4 -12 -5t-16 -3q-5 -2 -10.5 -2.5t-10.5 -1.5q-6 -1 -13 -1q-13 -2 -18.5 -2.5t-7.5 0.5t-2 2t-3 1q-5 0 -11.5 -1.5t-11.5 -2.5h-9q-12 0 -18 6.5t-8 15.5q-2 10 -1 20.5t2 16.5q1 5 5.5 10.5t10.5 10t12.5 7.5t9.5 4
q0 1 1 1l19 8q7 3 17.5 9t9.5 5q-2 -1 1 0.5t6 2.5q1 0 6 3q3 1 6.5 2.5t7.5 3.5t8 3q46 18 79 25.5t54.5 9t34 -2t18.5 -6.5q5 -1 8.5 -1.5t4.5 -0.5q2 -2 4 -5.5t2 -7.5q0 -8 5 -3q2 2 6.5 -0.5t6.5 -7.5zM156 319q-1 -1 -4 -1q2 0 2.5 0.5t1.5 0.5zM286 247l2 1
q-1 0 -1 -0.5t-1 -0.5zM288 248l2 1q-1 0 -1 -0.5t-1 -0.5z" />
    <glyph glyph-name="four" unicode="4" horiz-adv-x="479" 
d="M245 -2q2 -2 0.5 -4t-3.5 -2q-1 0 -7 0.5t-13.5 1.5l-15 2t-10.5 1h-10t-13.5 -0.5t-11 -0.5t-2.5 1q2 0 7.5 1.5t11.5 3.5l16 4q-11 -1 -23.5 -2t-25.5 -3q-7 -9 -7 -11q-2 -2 -4 -1.5t-3 2.5l-4 4q-2 1 -3 1q0 1 -1 1q-2 0 -2 1q-17 -2 -29 -4.5t-14 -2.5t-7 -5
q6 -1 11 -1t9 -1t9 -2l-50 -5q-9 -1 -18.5 -1h-14.5t-4 1t-1 4q-2 2 -0.5 5t2.5 10q1 8 2.5 7.5t3.5 5.5q2 5 1.5 8t1.5 7q2 3 3 3.5t0 2.5q-2 2 1 2l2 1q6 1 22.5 3.5t57.5 3.5q2 4 2 5q4 10 7 14q14 25 28.5 47l28.5 42q-22 -1 -38.5 -1h-21.5l-1 1h-1q-7 0 -9 1h-9l-1 1
q-6 0 -11 1l-53 6l-2 5v2l-12 50q33 25 64 44t59.5 34l54.5 27.5l47 23.5q26 13 27 12l35 18l33 17l36 17q5 1 17 6t18 7q-6 2 -3 5h1q1 0 1.5 0.5t2.5 0.5q-1 1 -1 2q-3 5 0 6q2 -1 4 -1q5 -2 5 -3q1 -2 2 -2t4 -2q1 0 1.5 -0.5t1.5 -0.5l2 -4l8 -3q6 -2 7 0t7 -2
q7 -4 10.5 -3.5t4.5 -3.5q0 -4 2 -3.5t-2 -4.5q-3 -7 -15 -20q-5 -5 -9 -10t-7 -7q-6 -5 -12 -8.5t-8 -5.5q0 -1 -12 -13l-31 -32l-43.5 -46.5t-49.5 -56.5q27 2 41 3.5t15 1.5t3 6q-5 1 -13.5 -1t-13.5 -1t-10 0.5t-7 -0.5l46 11h3q2 3 4 5t7 1h11q-8 4 -7 4q5 -2 14 0
q8 2 14 0q1 0 0 -3q0 1 2 1q1 0 2 0.5t2 0.5v-3q0 -8 -1 -10q0 -3 -0.5 -9.5t-1.5 -9.5q0 -10 1 -14q1 -3 -1.5 -7t-3.5 -8v-10q0 -2 -0.5 -4t-0.5 -4q-1 -2 -1 -4q-1 -1 -2 -1q-3 0 -2 1q0 2 0.5 6t-0.5 6q-4 2 -8 2q-3 2 -5 2t-7 -1q-5 0 -17.5 -3t-37.5 -4h-64v-1h58
q-13 -2 -29 -3l-33 -2l-43 -56.5t-34 -51.5q7 7 13 12q5 5 10 9t7 6q1 1 -0.5 -2t-5.5 -7.5t-8 -9.5l-7 -9q17 -1 35.5 -3.5t35.5 -7.5l6 -6q0 -1 0.5 -4t0.5 -6v-8v-3v-5zM339 339l-58.5 -27l-69.5 -34t-72 -38t-66 -39q43 -2 78.5 -2t64.5 1l69 77q5 6 9 10t6 7q3 3 4 5z
M145 149q6 1 11 1h10.5t10.5 1l3 3h12l1 1h-13l2 2l-48 1zM180 155q-3 0 -5.5 -0.5t-5.5 -0.5h11v1zM151 152h1q1 0 2 0.5t3 0.5q-1 -1 -4 -1h-2z" />
    <glyph glyph-name="five" unicode="5" horiz-adv-x="458" 
d="M449 429q-1 -2 -1 -5q0 -2 1 -3v-18q0 -1 -3 -3.5t-6.5 -5t-6 -5.5t-1.5 -4q2 -2 -4.5 -2t-10.5 -2q-8 -3 -15 -3q-29 -4 -52 -5.5t-44 -1.5t-40.5 1.5t-40.5 3.5q-1 -2 -2 -2.5t-2 -1.5q-7 -5 -12.5 -8.5t-7.5 -5.5q-1 -1 -8.5 -8t-20.5 -21q29 0 57.5 -17.5t47.5 -48.5
q1 -3 6 -12.5t9.5 -24.5t7.5 -34t1 -41q0 8 -1 17l-2 16.5t-3 16.5q2 -14 1.5 -27.5t-2.5 -23.5q-5 -23 -12.5 -34.5t-8.5 -12.5q-6 -7 -24.5 -25.5t-44 -37.5t-56 -33.5t-61.5 -14.5h-6l-10 2q-10 2 -17 6q-14 7 -21.5 20t-10.5 21l-4 10q0 3 -2 9q-3 20 -2 37v4q2 22 7 40
t7 26q0 1 0.5 1.5t0.5 1.5t1 1v-1q0 -1 -0.5 -1.5t-0.5 -1.5q-2 -5 -3.5 -14l-3.5 -22q13 34 32 66q4 8 7 12q8 16 13 23.5t7 11.5l1 1v1h3q2 -2 2.5 -1.5t4.5 1.5q2 0 4 -1q2 0 4 -1t6 -1q6 -1 6.5 0.5t7.5 -0.5q8 -2 11 -1t5 -3q1 -3 2.5 -2t-0.5 -4q-2 -4 -5.5 -13
t-8.5 -17l-23 -44l2 8t2 9t3 11l-5 -3q-1 0 -1 -1q-1 -1 -1 -2q-2 -3 -1.5 -2.5t-1.5 -4.5q-2 -7 -6 -12q-2 -4 -4 -5.5t-4 -4.5q-2 -2 -5.5 -7.5l-6.5 -10.5q-5 -12 -7.5 -22.5l-4.5 -19.5q0 -1 -0.5 -1t-0.5 -1v-3q-2 -18 1 -30q6 -21 17 -32q3 -4 8 -5q2 -1 7.5 -1.5
t15.5 4.5q26 16 60.5 47.5t68.5 67.5q17 17 16.5 40.5t-10 45.5t-23.5 39.5t-25 22.5t-26.5 6t-29.5 1h-25t-13 2q-7 7 -4 14.5t4 8.5l40 47l18 20t9 9l19 18q-2 2 -3 2q-1 1 6 5q3 3 3 4q2 0 3 -0.5t3 -0.5q1 1 -6 5q-4 4 -2 6q2 1 4 1q5 0 6 -1q2 -2 2.5 -1.5t4.5 0.5
q1 0 1.5 -0.5t1.5 -0.5l4 -2t7 -3q6 -2 7 0t8 -2q5 -3 8 -3t5 -2q39 -2 74 -2.5t67 3.5l-18 4q-7 2 -13 3t-8 2q-2 0 2.5 0h12h15.5h11t11.5 1l17 2t15.5 2t8 1q6 0 4 -6z" />
    <glyph glyph-name="six" unicode="6" horiz-adv-x="414" 
d="M400 358q3 -20 2 -37v-4l-2 -13q-2 -14 -4 -21q-3 -15 -7 -23l-5 -10l-4 -6l-4.5 -4.5t-5.5 -4.5q-6 -4 -10 0q-5 -5 -13 -9.5t-16 2.5q-4 -4 -5 -3q-2 2 -0.5 3t-3.5 3h-1q-4 2 -5.5 1.5t-3.5 0.5q-1 0 -1 1q-1 2 3 11q2 3 0 3t-1 4q2 4 1.5 5.5t1.5 6.5q0 1 0.5 1.5
t0.5 2.5l-5 46l6 -21q2 -8 5 -17.5t5 -14.5v-4q0 -1 1 -1q3 3 11 17t14 40q1 4 1.5 7t0.5 6q0 1 0.5 1t0.5 1v3q2 18 -1 30l-3 12q-5 17 -12 24q-3 3 -9 4.5t-12 -0.5q-25 -11 -62 -43.5t-73 -70.5q14 5 27.5 7.5t27.5 1.5q3 1 7 0q5 -1 13 -6q10 -5 15 -11q3 -2 6 -5t4 -8
q7 -12 8 -17q2 -2 2.5 -5t1.5 -5q2 -6 2 -9q2 -10 2 -15q1 -5 1 -11v-11v-4q-2 -24 -7 -43t-7 -25q-1 -1 -1 -2v1q4 10 7 39q-6 -26 -13.5 -40t-18.5 -25t-29.5 -28t-42 -33.5t-51 -28.5t-54.5 -12h-6l-10 2t-9.5 2.5t-7.5 3.5q-14 7 -22 20t-11 21l-3 10q-2 6 -2 9
q-2 9 -2.5 18.5t0.5 18.5v4q2 24 6.5 43t6.5 25l-5 -38q14 38 33.5 70.5t39.5 57.5q22 29 47 53q33 32 67 58q29 22 65 39t71 15q2 1 6 0q5 -1 13 -6q5 -2 8 -5l6 -6q9 -3 10 -14q3 -5 4.5 -9t3.5 -7l4 -10q0 -3 2 -9zM217 273q-23 -11 -56 -39.5t-67 -63.5l-4 -8
q-2 -4 -4.5 -5.5t-4.5 -4.5q-2 -2 -5 -7.5t-7 -10.5q-9 -24 -12 -42v-2q0 -1 -0.5 -1.5t-0.5 -1.5q-1 -15 2 -30q4 -20 16 -32q3 -4 8 -5q2 -1 8 -1.5t15 4.5q23 14 54 41t61 59q2 4 5.5 7.5l5.5 5.5l12 19l2 4q4 11 6.5 20.5t3.5 17.5q0 1 1 2v4q1 15 -2 30l-3 12
q-2 8 -5 14t-7 9q-8 8 -22 5zM25 169l1 1z" />
    <glyph glyph-name="seven" unicode="7" horiz-adv-x="387" 
d="M366 373l-2 -2l-1 -1q-5 -5 -9 -10t-7 -7q-7 -4 -12.5 -8t-7.5 -6l-15.5 -15.5l-37.5 -39l-51 -56.5l-56.5 -66t-54 -68t-41.5 -63q7 7 13 12q5 5 10 9t7 6q1 1 -2 -3t-7.5 -9.5l-9 -11.5t-5.5 -9q-2 -3 -6 -10l-8.5 -14.5t-8 -14t-3.5 -7.5q-4 -4 -8 1q-1 1 -1.5 2
t-1.5 2t-3 1q-4 2 -7 5q-2 2 -4.5 3.5t-2.5 2.5q-1 1 -1 4.5t-0.5 8t-1 8t-2.5 3.5q-3 0 1 5t5 9t2.5 7.5t3.5 6.5q22 39 44.5 70.5t44.5 58l42 48.5l37 41q5 6 9 10t6 7q3 3 4 5l50 58q5 6 10 11t8 10q-42 -2 -91.5 -1.5t-107.5 10.5q-3 1 -7 1.5t-8 2.5t-10.5 2t-4.5 3
q2 2 -6.5 9t-9.5 9v10q0 4 1 8v3v5q-2 6 4 6q1 0 8 -1t15.5 -2.5t17 -2.5t11.5 -2t10.5 -1h15t12.5 -0.5t3 -0.5q-2 -1 -8.5 -1.5t-13.5 -2.5q-8 -2 -18 -3q44 -7 102.5 -7.5t115.5 2.5l1 1q2 1 4 1q5 0 6 -1q1 0 1 -1q2 0 3 0.5t3 -0.5q2 0 3 -1q2 -1 4.5 -2l7.5 -3t6 0
t8 -2t10.5 -3.5t3.5 -3.5q1 -4 2.5 -3.5t-1.5 -4.5zM127 409q14 -5 27 -5t22 -2l6 -1.5t3.5 -1t4.5 0l9 1.5q13 1 14.5 1t9.5 -1q4 -1 10.5 0l12.5 2l14 2q-23 -1 -46 -0.5t-43 1.5q-23 1 -44 3z" />
    <glyph glyph-name="eight" unicode="8" horiz-adv-x="409" 
d="M372 409q8 -6 13 -15q5 -8 7.5 -19.5t0.5 -28.5q-2 -14 -11.5 -29.5t-23.5 -28.5t-31.5 -22t-36.5 -10l2 -7q2 -2 2.5 -5t1.5 -5l3 -9l2 -15v-26q-2 -24 -7 -43t-7 -25q-1 -1 -1 -2v1q4 10 7 39q-6 -26 -13.5 -40t-17.5 -25q-11 -11 -29.5 -28t-42.5 -33.5t-51.5 -28.5
t-54.5 -12h-6l-10 2t-9.5 2.5t-7.5 3.5q-14 7 -21.5 20t-10.5 21q-2 2 -2.5 5t-1.5 5q-2 6 -2 9q-3 20 -2 37v4q2 25 7 44t7 24q0 -2 -2 -13t-4 -25q7 19 16.5 35t19.5 31q13 16 29.5 31.5t19.5 17.5q16 12 30.5 19.5t25.5 12.5l24 9q9 3 17.5 5t17.5 3q-6 13 -4.5 31.5
t19.5 44.5q5 7 13 14q7 6 16.5 13t21.5 13q7 3 16 6q17 5 35 5q5 0 11 -1l11.5 -4.5t13.5 -7.5zM255 203q2 19 -2 30l-3 12q-2 8 -5 14t-7 9q-8 8 -21 5q-23 -11 -56.5 -39.5t-67.5 -63.5l-4 -8q-2 -4 -4.5 -5.5t-4.5 -4.5l-11 -18q-10 -22 -13 -42v-2q0 -2 -1 -3
q-1 -15 2 -30q4 -20 16 -32q2 -2 4 -3t5 -2q2 -1 7.5 -1.5t14.5 4.5q23 14 54 41t62 59q2 4 5.5 7.5l5.5 5.5q1 2 4.5 8l6.5 11l2 4q5 11 7 20.5t4 17.5v6zM337 329q11 15 12.5 27t-0.5 21q-3 10 -8 18q-4 6 -10 6q-3 0 -6 -2q-11 -7 -21 -16q-8 -8 -17 -19t-15 -26
q-5 -10 -9 -20q-3 -8 -4 -16t2 -12q0 -1 1 -1l2 -2q10 -4 32 5.5t41 36.5zM245 368q2 2 4.5 5t4.5 6q2 4 7 7t8 5q2 1 4 1.5t6 4.5l12 9q-18 -6 -30 -16.5t-20 -21.5q-9 -12 -15 -25z" />
    <glyph glyph-name="nine" unicode="9" horiz-adv-x="414" 
d="M400 357q2 -10 2.5 -19t-0.5 -19v-4q-2 -25 -7.5 -43.5t-7.5 -23.5q1 3 3 12.5t4 25.5q-14 -38 -34.5 -71.5t-39.5 -57.5q-23 -29 -46 -52q-33 -32 -67 -58q-29 -22 -65 -39.5t-71 -15.5q-2 0 -6 1q-3 1 -6.5 2t-6.5 4q-5 2 -8 4.5t-6 5.5q-9 5 -10 14q-3 5 -4.5 9
t-3.5 7l-4 11q-1 2 -1 4t-1 5q-3 20 -2 37v4l2 12l3 22q2 7 4 12.5t4 9.5l5 11h-1q1 2 4 5q2 2 5 4.5t6 4.5q5 5 10 1q5 5 13 9.5t16 -3.5q2 2 2.5 3.5t2.5 -0.5q2 -1 0.5 -2.5t3.5 -3.5h1q5 -1 9 -1l1 -2t-3 -10q-2 -4 -4.5 -4t-3.5 -4l-6 -2q-1 1 -1 0v-2
q-4 -2 -11.5 -16.5t-13.5 -40.5q-2 -8 -2 -12q-1 -1 -1 -2v-4q-2 -18 1 -29l3 -13q2 -7 5 -13t7 -10q7 -9 21 -5q12 6 28 17.5t34 27t36.5 33.5l36.5 37q-27 -11 -55 -9q-3 -1 -7 0q-3 1 -6.5 2t-7.5 4q-7 3 -14 10q-3 2 -6 5.5t-4 8.5q-6 10 -8 16q-3 5 -4 11q-2 4 -2 9
l-3 15v26q2 23 7 42.5t7 25.5l1 2v-2q-4 -10 -7 -38q6 25 13.5 39.5t17.5 25.5h1q10 11 29 28t42.5 33.5t51 28t54.5 11.5h6q5 0 10 -1q10 -2 17 -6q14 -7 22 -20t10 -21q2 -5 4 -11q2 -4 2 -8zM358 330q1 15 -2 30q-4 19 -16 31q-4 3 -8 5q-2 1 -8 2t-15 -4
q-23 -14 -54 -41t-62 -59q-2 -4 -5 -7.5t-5 -6.5q-2 -2 -5.5 -7.5l-6.5 -10.5l-2 -4q-4 -11 -6.5 -21t-3.5 -18q-1 0 -1 -2v-3q-1 -15 2 -30l3 -12q5 -17 12 -24q4 -3 9.5 -4.5t12.5 0.5q23 11 56 39.5t67 63.5l4 8q2 4 4.5 5.5t4.5 3.5q1 2 4.5 7.5t7.5 10.5q5 13 7.5 23
t4.5 19v3q0 1 0.5 1.5t0.5 1.5z" />
    <glyph glyph-name="A" unicode="A" horiz-adv-x="431" 
d="M665 280q-1 1 -1.5 2t-2.5 2l-2 1q-1 0 -4 3q-4 2 -7 3q-5 0 -10 -1.5t-10 -0.5t-6.5 2t-6.5 0q-4 0 -12.5 1t-14.5 2q-3 -1 -6.5 -1t-6.5 -1h-3q-14 -3 -43.5 -8.5t-61.5 -12.5l-1 -1q28 6 60 11.5t55 7.5q4 1 8 1t8 -0.5t9 -1.5h-10.5t-24 -2.5t-44 -8.5t-70.5 -17
l-48.5 -56.5l-48.5 -57.5l-42 -53t-29 -41q7 7 13 12q5 5 10 8.5t7 5.5q2 1 -1 -2.5t-7.5 -9.5t-9.5 -12t-6 -9q-2 -3 -6 -10l-8.5 -14.5l-8 -13.5t-3.5 -7q-1 -2 -3.5 -1.5t-3.5 2.5l-4 4q-2 1 -3 1q-4 2 -7 4q-2 2 -4.5 3.5t-2.5 2.5q-1 1 -1 5v8t-1 7.5t-2 3.5
q-4 0 0 5.5t5 9.5q2 4 3.5 7.5t3.5 6.5q1 1 10.5 17t27 41t41 55.5t51.5 61.5l-42.5 -9.5t-24.5 -6.5q-11 -3 -19 -6t-19 -10q-7 -4 -22 -8l-28 -28.5l-23 -24l-16 -16.5t-5 -5q0 1 5.5 7.5l14.5 16.5l19.5 22.5l21.5 24.5q-4 -2 -8 -2l-47.5 -53l-45 -52l-34.5 -39.5
t-15 -16.5q-2 -2 -3.5 -5t-5.5 -9q-4 -5 -4 -7t-3 -8q-2 -5 -4.5 -13t-4.5 -12q-2 -5 -0.5 -8.5t0.5 -6.5q-1 -2 -0.5 -3.5t0.5 -2.5v-2l4 -7q-3 0 -6 1q-4 0 -8 2t-9.5 2.5t-7.5 2.5t-7 4t-10 6q-5 5 -9 12.5t-4 17.5q0 8 5 20q0 2 2 4q5 11 8 16q1 3 16 19l29 34.5
l32.5 36.5l32.5 34.5l28 28.5v1l9 9h-2q-5 2 -13.5 2.5t-10.5 2.5t-9 10t-13 19q-11 19 -8 35t13.5 30.5t27 27l34.5 26.5q46 36 90 49.5t84 21.5q14 3 31.5 4.5t33.5 2t29 0t19 -1.5h9h3q1 0 3 1l2 2q-3 3 -1 3l15 -3.5l33.5 -7.5t34 -8t17.5 -4q2 -1 1.5 -2l-1.5 -3l1 -1
q0 -4 2 -3.5t-2 -4.5l-5.5 -8l-8 -11t-9.5 -11t-8 -7q-6 -5 -12.5 -6.5t-8.5 -3.5q-3 -3 -27 -30q28 8 51 12t37 6q31 3 50 -3q17 -5 24.5 -19.5t-9.5 -46.5zM265 369q-15 -8 -29 -21l-28 -27q25 21 53.5 38t54 30t46.5 21t33 12q-5 0 -8 -1q-22 -5 -48 -17.5t-40 -18.5
q-14 -7 -17.5 -9l-8.5 -5q-3 -3 -6 -3q-1 0 -2 1zM223 250l52 43.5l59 46t59.5 42.5t54.5 32h1l1 1q7 3 13.5 5.5t12.5 4.5h-8q-7 0 -21.5 -1t-21.5 -1q-7 -1 -11 -2t-9 -1h-3h-1q-64 -23 -106 -46.5t-68 -44.5t-38.5 -36.5l-18.5 -22.5l-5.5 -11.5t-3.5 -15.5
q1 -9 7.5 -12.5t31.5 2.5l4 2l9.5 7.5zM439 305l24 29.5l22 26l17 19t8 8.5q5 4 14.5 13l14.5 14h-1q-2 2 -8 2.5t-11 0.5q-5 1 -12 -1.5t-12 -3.5q-2 -1 -8 -5l-15 -10l-35 -27l-41.5 -33.5l-42.5 -35.5t-37 -34l60 18.5z" />
    <glyph glyph-name="B" unicode="B" horiz-adv-x="468" 
d="M101 63q1 1 -2 -3t-7.5 -9.5l-9 -11.5t-5.5 -9q-2 -3 -6 -10.5t-8.5 -15l-8 -13.5t-3.5 -7q-2 -2 -4 -1.5t-3 2.5l-4 4q-2 1 -3 1q-4 2 -7 5q-2 2 -4.5 3.5t-2.5 2.5q-1 1 -1 4.5t-0.5 8t-1 8t-2.5 3.5q-3 0 1 5t5 9q4 10 7 14q1 2 11.5 16.5l26.5 35.5l34.5 44.5
t35.5 42.5q16 19 18.5 21t-2 -4l-11 -14.5t-7.5 -10.5t-2 -3.5t-2 -3.5l-2 -4l58 66l21.5 24l19.5 22l14.5 16.5t7.5 7.5q2 2 7 6.5l10 9l9 8t5 4.5t-1 2t-4 2.5t-3.5 3t0.5 3.5q2 1 4 1q5 0 6 -1q2 -2 2.5 -1.5t4.5 -0.5q4 0 6 -1.5t8 -3.5t7 0t8 -2q6 -5 9.5 -4.5
t4.5 -3.5t2.5 -3.5t-1.5 -4.5t-13.5 -18.5t-17.5 -17.5q-7 -5 -13.5 -6.5t-8.5 -3.5q-1 -1 -14.5 -16.5l-35 -39l-46.5 -51.5l-48.5 -54.5l-42 -48t-25.5 -31.5q7 7 13 12q5 5 10 9t7 6zM510 394q4 -9 -1 -22q-1 -6 -3.5 -11t-8.5 -16l-2 -2q-6 -11 -28 -37t-78 -67l30 26
q14 12 30 27.5t32 34.5q-11 -11 -25.5 -23.5l-28 -24l-23.5 -20.5t-12 -11q-3 -3 -12.5 -9t-20.5 -12l-26 -15q10 1 20 3l15.5 2t9.5 1q6 0 15.5 -2t14.5 -4q7 -2 10 -8q2 -4 3 -8l11 -4.5t8.5 -11.5t-1 -26.5t-18.5 -48.5q-31 -45 -71 -73t-76 -43.5t-61.5 -21.5t-28.5 -7
q-5 -2 -8.5 -2t-7.5 -1q-4 0 -15.5 -3t-19.5 -3q-9 0 -11 3t-8 7q-6 5 -6.5 5.5t-2.5 3.5q-2 5 -1 6.5t-1 4.5t2.5 1t2.5 1q0 4 -0.5 6t-1.5 7q0 2 -0.5 1t-1 -2.5t-1 -2.5t-1.5 1q-2 3 -3.5 4t-4.5 6q-3 4 -2 7.5t1 9.5q-2 4 -1.5 3t1.5 -4q6 -3 30.5 -8.5t69.5 6.5
q-10 -4 -22 -7q-11 -2 -24.5 -4t-27.5 -2q1 -1 3 -1q5 -2 13 -2h10.5t10.5 1q2 0 12 1.5t26 5.5t37 11.5t45 20.5q22 12 44.5 30.5t41.5 38t31 37t13 26.5q1 7 -7 8t-20 -1v1q-60 -11 -98.5 -22t-60.5 -20q18 6 34 10t27 7l25 5q-17 -4 -35 -9.5t-33 -11.5q-18 -7 -34 -15
l-11 3h-1l3.5 3.5l3.5 3.5l2 8q2 4 4 4.5t4 1.5q2 2 3 5.5t3 5.5q2 6 5.5 9t4.5 5q0 2 2 3.5t5 4.5q3 5 6.5 10t5.5 7q2 4 11 8l10 4q26 16 59 41.5l63 49.5l71 58l4 10q2 3 -1.5 2.5t-2.5 1.5q0 2 -25.5 0.5t-63.5 -9.5q-19 -4 -46.5 -14.5t-54.5 -22.5l-50.5 -23
l-33.5 -16t-27 -16l-33 -22t-27 -19.5t-10 -6.5q1 1 7 5.5t10 8.5t3 4.5t-12 -6.5q-8 -5 -16.5 -11t-17.5 -11q-3 -4 -7 -7q-5 -5 -6.5 -5.5l-4.5 -1.5q-3 -2 -4.5 -3.5t-7.5 -5.5l-5 -2l-4 1q-8 -6 -14 -9.5t-8 -4.5q-3 -2 0 0.5t6.5 6.5l6 7t-0.5 1q-5 -2 -1.5 1.5
t7.5 8.5q1 4 1 9q1 5 2 7.5t1 5.5t2 5q1 1 1 2q2 1 3 2t3 6q1 5 4 6l2 4t2 5q5 6 11 10t14 10l9.5 7t10.5 7q6 4 12 7q12 8 17 10.5t7 2.5t2.5 -0.5t2.5 0.5q6 3 12 7t10 7l14 7l26 13l26.5 13t15.5 8q4 1 9.5 3.5t10 5.5t7.5 4.5t2 1.5q-2 0 2 1t6 2l5 3q3 2 7 3t8 3l8 4
q47 20 80 28.5t54.5 9.5t33.5 -2.5t17 -6.5q11 -2 12 -3q2 -1 3 -5.5t0 -8.5q-1 -8 5 -3q2 2 6 -1t5 -8zM470 425q-20 5 -44 2t-45 -9q-25 -7 -49 -18q3 0 6 1q2 1 4 1t4 1q2 2 6 2.5t7 1.5q5 2 8.5 1.5t11.5 0.5q8 0 9.5 1t6.5 3q6 3 15 5t14 4q3 1 8 1.5t11 0.5h11t7 1h9z
" />
    <glyph glyph-name="C" unicode="C" horiz-adv-x="318" 
d="M391 409q7 -2 12 -8.5t2 -21.5q-2 -16 -15 -43t-30 -52q-4 -6 -10 -12l-1 -2l-5 -5q-10 -12 -19 -18q-1 -1 -0.5 -1.5t-0.5 -2.5l-3.5 -3.5t-7.5 -4.5q-2 -2 -5.5 -4.5t-7.5 -4.5q-5 -2 -10 -6q-5 -3 -9.5 -6.5t-9.5 -5.5q-1 0 -5 -2q-8 -5 -15 -8t-13 -3
q-2 -1 -4.5 -0.5t-4.5 0.5q-1 -1 -7 0t-8 -1h-4q-2 0 -3 1q-2 0 -2.5 0.5t-2.5 0.5q-1 1 -5 3q-3 2 -4.5 2.5t-3.5 1.5q-5 -1 -10 -2.5t0 3.5q3 2 -1 1t-9 -2.5t-8.5 -3t-0.5 0.5q2 2 9 6l15 9q2 5 1.5 4t4.5 4q6 4 8.5 4t4.5 2q3 3 4.5 4t6.5 3q2 2 4.5 2t5.5 2q5 2 10 5
q2 1 3.5 2t3.5 3q10 4 31 15.5t43 28.5q23 18 39.5 42t17.5 53q0 19 -14 17t-37 -17.5t-52.5 -41.5t-59.5 -56l-58.5 -61t-49.5 -57q-1 -2 -1 -3t-1 -3q-3 -6 -5 -7.5t-3 -4.5q-2 -4 -1.5 -3.5t-2.5 -4.5q-2 -5 -3.5 -7t-4.5 -7q-2 -3 -5 -4.5t-5 -5.5q-2 -2 -6 -8l-8 -12
q-6 -14 -10 -25t-7 -22v-2q0 -1 -0.5 -1.5t-0.5 -1.5q-2 -10 -2.5 -18t0.5 -16q3 -24 12 -36l6.5 -5t8.5 -3q18 -5 40 2q9 2 18.5 7.5t17.5 11.5q-25 -11 -43 -14q-11 -3 -19 -3q25 7 47.5 19l31.5 17q7 5 16 10.5t13 7.5q8 6 8 4t2 -2t6 2t7.5 4.5l6.5 4.5q2 3 18 15
l35.5 26.5l38 27.5t26.5 16q1 0 1 -1t-4 -5q-2 -2 -5.5 -4.5t-8.5 -5.5l-5 -5q-3 -4 1 -1.5l9 5.5q2 1 4.5 2.5t3.5 1.5t5 3t8.5 5.5t7.5 4t1 -0.5q-4 -5 -13 -12t-14 -12q-2 -2 -3 -2q-3 -2 -5.5 -3t-5.5 -4q-2 -2 -2 -3q2 0 -4 -7v-1h-1q-1 0 -1 -0.5t-1 -0.5l-5.5 -5.5
t-7.5 -6.5l-26 -20.5l-30 -22.5l-27.5 -20.5t-18.5 -13.5l-2 -2q-24 -17 -44.5 -29t-33.5 -15q-2 -1 -3 -1t-2 -1q-20 -5 -36 -3.5t-28 6.5q-12 0 -20.5 5.5t-14 13.5t-9 16.5t-4.5 14.5q-2 8 -2 12q-2 6 -1 10q-3 18 2 41v3v1q6 32 14 54q4 12 9 23l-4 -12t-3.5 -13.5
l-3.5 -17.5q18 42 42.5 78.5t47.5 63.5q26 32 54 59q36 37 75 65q32 24 71.5 43t74.5 17q5 0 10 -2q10 -3 17 -15zM250 381q1 1 1.5 1t1.5 1q1 0 1 1q-1 -1 -1.5 -1t-2.5 -2q-5 -3 -15 -10.5l-23.5 -18l-29 -23.5t-30.5 -27l18 12l13 9t8 6q4 2 10 8.5t8 8.5l5.5 5.5
t7.5 5.5t9 5t7 5t5.5 6.5t6.5 7.5z" />
    <glyph glyph-name="D" unicode="D" horiz-adv-x="469" 
d="M175 220q15 22 17 23.5t-2.5 -5t-10.5 -17t-7 -12.5t-2 -4.5t-2 -4.5q-1 -3 -2 -5l28 43l20.5 30.5t12.5 15.5q2 2 6 7l8.5 10.5t8.5 9.5t5 4q2 2 -3 6t-3 8q2 1 4 1q4 0 4 -2q2 -2 2.5 -1.5t3.5 -0.5t5 -3t7 -4q4 -3 5 -1.5t6 -3.5t8 -5t2 -5q1 -5 2 -4.5t-2 -5.5
q-1 -2 -4.5 -8t-8 -13t-9 -12.5t-7.5 -7.5q-6 -5 -11.5 -6.5t-6.5 -3.5t-13.5 -18.5l-29 -39l-34 -47t-27.5 -41.5q7 7 12 13q5 5 9.5 10t6.5 7q1 1 -2 -3t-7.5 -11l-9 -14t-5.5 -10l-6 -12l-8.5 -17l-8 -16t-3.5 -8q-4 -4 -6 1q-1 2 -1 2.5t-1 2.5q-1 1 -2 3l-5 5
q-6 6 -6 9v5.5t0.5 9.5t0 9t-1.5 4q-2 0 1.5 6.5t4.5 11.5q2 4 3.5 8t3.5 8t15.5 29t45.5 70zM503 369q5 -19 4.5 -55t-23.5 -90q-11 -24 -30.5 -55.5t-52.5 -66.5q17 21 33 44q14 20 27.5 44.5t22.5 50.5q-2 -5 -7 -15q-28 -58 -65 -101t-75.5 -73.5t-74.5 -49.5t-62 -29
h-1q-1 0 -1.5 -0.5t-1.5 -0.5q-29 -11 -49 -14.5t-22 -4.5q-7 -2 -10 -2.5t-7 -0.5q-5 -1 -16 -3.5t-20 -2.5q-8 0 -11 2.5l-9 7.5q-7 5 -8 5.5t-3 3.5q-2 4 -2 6t-2 6q-2 2 2.5 0t3.5 2q-2 2 -2 4.5t-2 7.5t-1.5 6t-2.5 4q-4 3 -5 4l-5 5q-4 5 -3.5 8t-1.5 10
q-1 5 -0.5 3.5t2.5 -4.5q3 -1 11 -4t21 -4.5t31 0t41 7.5q-11 -4 -23 -7l-24 -4.5t-28 -2.5q2 0 3 -2q5 -1 13 -1q4 0 11 -0.5t11 1.5q2 0 12 2t27 4q30 6 77 22t94 51t89 82.5t65 98.5q12 25 14.5 52t-3.5 38t-18.5 15t-27 4t-28 -2.5t-21.5 -5.5q-3 -1 -8.5 -2t-8.5 -2
q-19 -5 -45.5 -15.5t-53 -22.5l-49 -23l-32.5 -16t-25.5 -16l-30.5 -22.5l-25.5 -20t-9.5 -6.5q1 1 6 5.5t8.5 8.5t2.5 4.5t-11 -6.5l-15 -11l-16 -12q-4 -4 -7 -6q-5 -5 -6 -5.5t-4 -1.5q-3 -2 -4 -4t-7 -5q-5 -3 -5 -2.5t-3 1.5q-8 -6 -14 -10t-8 -5q-3 -2 -0.5 0.5t6 6.5
t5.5 7t-1 2q-5 -3 -2 1t6 9q0 2 0.5 4t0.5 5q0 5 0.5 7.5t0.5 4.5q0 3 1 5q1 1 2 3l2 2l2 6q1 4 3 6q1 2 1.5 4t2.5 5q3 6 9 10t13 10l9 7t10 7q5 4 11 8q11 8 16 10.5t7 2.5t2.5 -0.5t3.5 0.5q5 2 10.5 6.5t9.5 7.5q2 1 13 7l24.5 13l25.5 13t15 8q8 3 18.5 9.5t9.5 5.5
q-2 0 1.5 1t5.5 2q2 0 6 4q3 1 6.5 2.5t7.5 3.5l8 4q46 20 79 28.5t55 9.5t34 -2.5t18 -6.5q7 -4 16 -17q6 1 13.5 -3.5t13.5 -19.5l2 -6t2 -8zM401 422q5 2 18 1.5t18 0.5l-6 2t-7 2q-13 1 -26.5 -1.5t-26.5 -4.5q-14 -4 -25 -7.5t-19 -6.5q-10 -4 -18 -8q3 0 6 1q2 1 4 1
t4 1q2 2 5.5 2t7.5 1q4 2 8 1.5t12 1.5h6q3 1 4 1.5l5 2.5q6 2 15.5 4.5t14.5 4.5z" />
    <glyph glyph-name="E" unicode="E" horiz-adv-x="372" 
d="M610 364q-2 -2 -1 -3t-4 -2q-4 -1 -13.5 -1t-17.5 1q-16 0 -24.5 0.5t-13.5 0.5h-7.5h-5.5q2 1 6 2q3 1 6 1.5t8 1.5q-21 2 -69.5 0.5t-131.5 -18.5l-18.5 -4l-18.5 -4q-3 -2 -3 -4q0 -1 -9.5 -11t-24.5 -27.5l-35 -40.5t-41 -50q16 3 32.5 5t29 4t20.5 2.5t7 0.5
q-2 0 -8 -2t-10.5 -4t-3.5 -2.5t13 1.5q7 1 16 2t19 3l9 3q5 2 6.5 2h4.5q4 -1 5.5 0.5t6.5 1.5h5l3 -2q9 2 16 2.5t9 2.5q3 0 0 -1.5t-7.5 -3.5l-8 -3.5t0.5 -1.5q5 0 1.5 -2.5t-8.5 -4.5q-2 -3 -2.5 -4.5t-2.5 -3.5q-2 -4 -2.5 -6t-1.5 -4q-2 -4 -3 -5t-2 -1t-2 -1
t-2.5 -1.5t-2.5 -2.5q-2 -3 -4 -3q-4 -4 -7 -6q-5 -5 -12 -6t-15 -3q-5 -2 -11 -2.5t-11 -1.5q-6 -1 -12 -1q-18 -3 -40 -3q-17 -2 -36 -4t-36 -3q-26 -33 -48 -66.5t-38 -62.5l13 13q5 5 10 9t7 6q1 1 -2 -3l-7.5 -10l-9 -12.5t-5.5 -9.5h-1q8 2 15 3t15 2l36 5t49.5 5.5
t59 4t64.5 0.5q2 0 4 -0.5t1 -2.5q-1 -3 0.5 -3t3.5 -5q2 -4 2 -7.5t3 -11.5q3 -6 4.5 -6t3.5 -8q2 -10 4.5 -13t-0.5 -8q-2 -3 -1 -4t-5 -2q-5 -1 -16.5 -1.5t-22.5 0.5h-27.5t-17 0.5t-10.5 1t-8 0.5l12 2q5 1 11.5 2t14.5 3q-8 6 -9 5h-22t-48 -0.5t-57 -1.5t-48 -2h1h-2
q-2 -1 -7.5 -1t-7.5 -2q-2 0 -7.5 -1t-7.5 -1l-7 -2h-1q-1 -1 -2 -1t-2 -1q-5 -1 -7.5 -1h-4.5q-2 -1 -3.5 -0.5t-3.5 0.5v4v2q-1 3 -1 6q0 2 -0.5 5t-0.5 5q0 1 -0.5 5t-0.5 8.5t-1 8t-2 3.5q-3 0 1 5.5t5 9.5q1 5 2.5 8.5t3.5 6.5q17 33 34 61t34 51q-7 2 -14 6.5t-3 9.5
q11 17 16 17h4q-1 9 -1 21v25q-6 8 -7 18t1.5 20t6 18t5.5 11q0 1 0.5 1.5t0.5 1.5q3 3 16.5 12t36.5 20.5t55.5 25t71.5 25.5l14 14t10 9q2 2 -4.5 5.5t-3.5 6.5q2 1 4 1q5 0 6 -1q2 -2 2.5 -1.5t4.5 0.5q4 -1 6.5 -3t8.5 -4t6.5 0.5t7.5 -2.5q5 -4 8 -4t5 -2
q43 10 91.5 15t100.5 4h1h45h3t2 -2q-1 -3 0 -3t3 -5q2 -3 2 -6t2 -8q2 -6 3.5 -6t2.5 -7q2 -8 3.5 -11t-0.5 -6zM217 309q-53 -23 -79.5 -42.5t-28.5 -26.5q-3 -9 -3 -17q0 -7 3.5 -13.5t14.5 -9.5l51 66q16 20 18 22t-2 -4.5t-10.5 -16t-7.5 -11.5q-2 -3 -4 -7l-2 -4z
M478 411h-4q-6 -1 -19.5 -2.5l-31 -3.5t-37.5 -6t-40 -9q12 0 23 1q9 1 17 1.5t10 0.5q4 0 13 2.5t11 3.5q2 2 6.5 3.5t9.5 0.5t11.5 -0.5t9.5 1.5q2 1 7 3l10 4h4z" />
    <glyph glyph-name="F" unicode="F" horiz-adv-x="449" 
d="M419 121q2 -7 -3 -7q-1 0 -7.5 0.5t-14 1.5l-15 2t-10.5 2t-10.5 0.5t-15.5 -2.5l-42 -56.5t-35 -52.5q7 7 14 13q5 5 11 9t8 6q1 1 -2 -3t-8.5 -10t-10.5 -13t-6 -10q-2 -3 -6 -10.5l-8.5 -15.5l-8.5 -14.5t-5 -7.5q-1 -2 -3.5 -1.5t-3.5 2.5l-4 4q-2 1 -3 2l-6 4
q-2 2 -4.5 3.5t-2.5 3.5v5v8.5t-1 8t-2 3.5q-3 0 0.5 6t4.5 10q2 5 4 8.5t4 6.5q15 27 29.5 50l28.5 44q-26 -4 -44.5 -6.5t-20.5 -2.5q-1 0 -2.5 -1.5t-4.5 -3.5q5 -1 10 -1.5t9 -1.5t8 -3q-3 0 -5.5 -0.5t-7 -1t-13 -1t-23.5 -1.5q-8 -2 -18 -2h-14q-5 1 -4 2t-1 3
q-2 4 0 6.5t3 10.5t2.5 8t3.5 5q2 7 2.5 10t2.5 6q2 5 2.5 5t-0.5 3q-1 2 1.5 2h3.5q11 0 46 3q11 2 35.5 4t38.5 3h6h5h5t8 1l40 49.5l36 43.5t19 22.5t-2.5 -4.5l-11.5 -15.5t-8 -11.5l-2 -4l-2 -4l-2 -4q20 22 38 44l33 39.5l30 35.5q-23 2 -72 0.5t-131 -18.5
q-60 -13 -102.5 -29.5t-69.5 -31.5t-40.5 -27t-14.5 -16q2 -1 6 -1h6.5t8.5 1h1q12 1 29 4t31.5 6.5t24.5 5.5t9 2q-2 -1 -8 -3t-10.5 -4t-4 -3t12.5 1q8 1 17 2.5t19 3.5l4 2t5 2q5 1 6.5 1h4.5q4 0 6 1t7 1l5 1l3 -2q9 1 16 2t9 1t0 -1q16 5 34 12.5t35 17.5l-31 -22
q-14 -9 -31 -17.5t-33 -13.5h-2q-4 -8 -5 -11q-1 -2 -3 -4l-2 -2q-1 -1 -2 -1q-1 -1 -2.5 -1t-2.5 -2q-2 -2 -3 -2.5t-2 -1.5q-4 -4 -7 -6q-5 -4 -12 -5.5t-15 -3.5q-5 -2 -11 -2.5t-11 -1.5q-6 -1 -13 -2q-5 -1 -12 -1q-23 -4 -48.5 -6t-48.5 -1q-9 2 -15 5q-5 2 -8.5 5.5
t-0.5 7.5q8 13 15 16q0 7 -0.5 17.5t-0.5 21t1.5 19.5t5.5 14q3 4 23 16t53.5 27.5t78.5 31.5t100 28t117 17.5t130 -0.5q2 3 -4 6t-3 6q2 1 4 1q5 0 6 -1q2 -2 3 -1.5t5 0.5q4 -1 6 -2.5t8 -3.5q5 -2 6.5 0t6.5 -2q7 -5 10.5 -4.5t4.5 -3.5t2.5 -4t-1.5 -5q-2 -3 -6.5 -8.5
l-9.5 -11.5l-9.5 -11.5t-7.5 -7.5q-7 -5 -13.5 -9t-8.5 -6q0 -1 -14 -15.5l-36 -39l-50 -56.5l-57 -66l18 -4t17 -4q7 -5 7 -6q0 -2 -0.5 -5.5t-0.5 -6.5v-8v-3v-5zM424 404h-4q-13 -1 -50.5 -5t-79.5 -15q12 0 23 1q9 0 17 0.5t10 0.5q5 0 14.5 2.5t11.5 3.5t6.5 3.5
t8.5 1.5q5 -2 11.5 -2t9.5 2q2 1 7.5 3l10.5 4h4zM368 128h-7.5t-9.5 -1l-5 -5z" />
    <glyph glyph-name="G" unicode="G" horiz-adv-x="390" 
d="M465 -97q-1 -8 0.5 -11t-0.5 -5q-3 -2 -2.5 -3.5t-4.5 -0.5q-4 0 -13.5 2t-17.5 4q-31 8 -44 11t-19 5q7 0 13 -1q5 -1 10.5 -1.5t10.5 -0.5q-20 8 -68.5 17t-134.5 11h-30l-20 -23l-17.5 -20t-13 -15t-6.5 -7q-3 -2 -7.5 -6.5t-9.5 -9l-9 -8t-5 -4.5q-2 -2 4.5 -5
t3.5 -6q-2 -1 -4 -1t-3.5 -0.5t-2.5 1.5q-2 2 -3 1.5t-5 -0.5l-1 1q-34 2 -58 6.5t-40.5 10.5t-26.5 12.5t-15 11.5q-16 15 -16.5 27t6 21t15 14.5l11.5 7.5q4 2 34 13t87 18q-16 -3 -32 -7l-30.5 -9t-30.5 -10q26 8 71.5 18.5t103.5 12.5l25.5 28.5t27.5 31.5
q-38 -27 -60 -33q-1 -1 -2 -1t-3 -1q-18 -5 -34 -3.5t-28 6.5q-12 0 -21 5t-15 12t-10 15t-6 13q-1 2 -1 4q0 1 -1 2h1q-2 2 -3 4q0 3 -2 9q-2 10 -2 21v16v3v1q1 14 3.5 26t5.5 22q4 11 7 21q-1 -5 -3 -11q-4 -13 -5 -28q14 38 34.5 70t39.5 57q22 28 46 53q32 32 66 58
q29 22 65 39t71 15q5 0 10 -2q10 -3 18 -13q5 -2 11.5 -7.5t4.5 -19.5t-11.5 -38.5t-23.5 -46.5q-2 -2 -3.5 -5t-3.5 -6l-2 -2q-1 -1 -1.5 -2t-2.5 -2q-4 -5 -8 -9t-8 -7l-2 -4q-1 -1 -2.5 -3t-5.5 -4q-2 -2 -5 -4t-8 -4q-5 -3 -9 -6q-4 -2 -8.5 -5t-8.5 -5q-2 0 -4 -2
l-14 -7t-13 -3q-2 -1 -4 -0.5t-4 0.5q-2 -1 -6 0h-1q-5 1 -7 -1h-1h-3q-3 0 -4 1q-1 0 -2 0.5t-2 0.5l-3 1.5l-3 1.5q-2 2 -8 3q-5 -1 -9.5 -2t0.5 3q3 2 -1 1t-8.5 -2.5t-8 -2.5t-0.5 1q2 2 8 5t14 8q1 4 0.5 3.5t4.5 3.5t7 4t4 2t3.5 3t6.5 3q3 2 5 2t4 1q3 1 9 5
q2 1 3.5 2t3.5 2q9 4 28.5 14t39.5 26t33.5 37.5t10.5 47.5q-2 16 -16 15t-35 -15t-47.5 -37.5t-53 -50.5t-51 -55t-42.5 -51q0 -1 -2 -5q-2 -5 -3.5 -6.5t-2.5 -4.5q-2 -3 -1.5 -2.5t-1.5 -4.5t-3 -6.5t-3 -5.5q-2 -3 -4 -4.5t-4 -4.5q-2 -2 -5.5 -7.5l-6.5 -10.5
q-10 -22 -13 -42v-2v-3q-2 -18 1 -30q2 -11 6.5 -19t9.5 -13q2 -1 4 -3h1h1q3 -2 10 -4t17.5 -2t25 4t33.5 15q17 8 44 28q23 16 53 41q0 1 1 1l37.5 50.5t30.5 46.5l-14 -12q-5 -5 -9.5 -9t-6.5 -5q-2 -2 1 2l7.5 10l9 12t6.5 9q1 3 5.5 10l9 14.5l8 13.5t3.5 7
q1 2 3.5 1.5t3.5 -2.5q1 -3 4 -4q1 -1 3 -1q4 -2 7 -4q2 -2 4 -3.5t3 -2.5q0 -1 0.5 -5t0.5 -8t0.5 -7.5t2.5 -3.5q4 0 0 -5.5t-5 -9.5q-2 -4 -3.5 -7.5t-3.5 -6.5q-43 -77 -84 -127.5l-73 -88.5q45 -1 93 -6.5t99 -17.5q4 1 5.5 1.5t3.5 -0.5q2 0 4 -1t5 -1q3 -1 5 -0.5
t6 -0.5q7 0 8 -2q2 -2 2 -1t2 -1q1 -2 4 -2t3 -2v-1q2 0 4 -0.5t1 -2.5q-2 -2 -1 -2.5t2 -4.5q2 -4 1 -6.5t0 -8.5t3 -6t1 -7zM235 390q-5 -3 -14.5 -9.5t-21.5 -16l-25.5 -21t-26.5 -24.5l16 11q6 5 12 8t8 5q3 2 8.5 7.5l7.5 7.5t4 5t6 5t8.5 4.5t6.5 4.5t4.5 6t6.5 7
q1 0 1 0.5t1 0.5l1 1q-1 -1 -1.5 -1t-1.5 -1zM75 -99q0 1 7 7.5t18 18.5q-76 -7 -115 -22.5t-43 -21.5l-1 -2q-2 -5 6.5 -8t22 -5t30.5 -3t33 -1q5 7 11 14t10 9q7 5 13 8.5t8 5.5z" />
    <glyph glyph-name="H" unicode="H" horiz-adv-x="620" 
d="M733 409q1 -4 2.5 -3.5t-1.5 -4.5l-14.5 -18.5t-16.5 -18.5q-7 -4 -13 -8t-8 -6l-28 -29t-65 -71q11 -2 18.5 -2.5t12.5 -1.5h3t1 -2q-1 -3 0 -3.5t3 -3.5q1 -4 0.5 -6.5t1.5 -8.5t3.5 -5.5t1.5 -7.5t2 -10.5t-1 -5.5q-2 -2 -1.5 -3t-4.5 -1q-4 0 -13.5 0.5t-18.5 2.5
q-15 2 -23.5 3.5t-13.5 2.5l-7.5 1.5t-5.5 0.5q2 0 6 1q3 0 6 0.5t8 0.5q-3 1 -7.5 2t-9.5 2q-18 -21 -40.5 -52l-44.5 -63.5l-41 -62t-29 -47.5l14 12q5 5 10 9t7 6q1 1 -2 -3t-7.5 -9.5l-9 -11.5t-6.5 -9t-5.5 -10t-8 -14.5t-8 -14t-4.5 -7.5q-3 -5 -7 1q-1 1 -1.5 2
t-1.5 2t-3 1q-4 2 -7 5q-3 2 -5 3.5t-3 2.5q0 1 -0.5 4.5t-0.5 8t-1 8t-2 3.5q-3 0 0.5 5t5.5 9q1 4 2.5 7.5t3.5 6.5q13 24 31.5 55l37.5 61.5t37 56.5t30 41q-25 2 -56.5 1.5t-71.5 -3.5q-17 -1 -32 -2.5t-29 -3.5l-43 -51.5t-38 -50.5q-1 -1 -1 -3q-1 -4 -1 -10
q0 -2 2 -3t1 -3q1 1 -0.5 -1l-5.5 -7q-1 -2 -1.5 -4.5t-2.5 -4.5q-3 -4 -8 -13t-6 -11q0 -2 -2.5 -8.5t-4.5 -9.5q-1 -4 -3.5 -7t-2.5 -5q0 -3 1.5 -5.5t1.5 -4.5q0 -3 -4 -3h-3q-4 0 -8 1q-8 2 -8 3l-1 2q-1 1 -1.5 2t-1.5 2t-3 1q-4 2 -7 5q-3 2 -5 3.5t-3 2.5
q0 1 -0.5 4.5t-0.5 8t-1 8t-2 3.5q-3 0 0.5 5t5.5 9q1 4 2.5 7.5t3.5 6.5q22 40 39.5 65t40.5 52q-46 -12 -73 -25t-37 -21q-2 -1 -3.5 -1.5t-2.5 -1.5t-1 -0.5t-2 -1.5q-1 -1 -1.5 -1t-1.5 -1v-2q0 -2 -0.5 -2t-0.5 -2q-2 -3 -6 -1l-1 1q-2 2 -2.5 1t-2.5 2t-5 6t-3 8v1
q2 14 9 25.5t11 16.5q0 1 0.5 1t0.5 1v1q3 3 16 8.5t35 13t52 15.5t67 15l15 15.5t13 15.5q11 12 15 17t5 5l32 37l29 33q-14 2 -40 1.5t-72 -6.5q-61 -8 -103 -22.5t-68.5 -29.5t-39.5 -28t-14 -17h22q13 1 29.5 4l31.5 6l25 5t9 2q-2 -1 -8 -3l-10.5 -3.5t-4 -2.5t12.5 1
q8 2 17 2.5t19 2.5q2 2 9 4q5 2 6.5 2t4.5 -1q4 0 5.5 1.5t7.5 1.5h5l3 -2q9 1 16 2t9 1q3 1 0 -0.5t-7.5 -3.5l-8 -3.5t0.5 -1.5q5 1 1.5 -1.5t-8.5 -4.5q-2 -3 -2.5 -4t-2.5 -4q-2 -4 -2.5 -5.5t-1.5 -3.5t-2 -2.5t-2 -1.5t-2 -1t-2 -1t-2.5 -1.5t-2.5 -2.5t-2 -2.5
t-2 -1.5q-2 -1 -3.5 -2t-3.5 -3q-5 -4 -12 -5t-15 -3q-5 -2 -11 -2.5t-11 -1.5q-6 -1 -13 -2q-3 0 -6 -0.5t-5 -0.5q-23 -3 -49 -5.5t-49 -1.5q-9 2 -15 5q-5 2 -9 5.5t-1 7.5q5 5 8 9t6 6q-1 6 -2 16t-1 19.5t1.5 18t4.5 13.5q5 6 31 24.5t76 37.5t125 31t177 5q1 1 -1 2
t-4 2.5t-3.5 2.5t0.5 3q2 1 4 1q5 0 6 -1q2 -2 2.5 -1t4.5 0t6 -2.5t8 -3.5t7 0t8 -2q6 -4 9.5 -3.5t4.5 -3.5t2.5 -3.5t-1.5 -4.5l-14.5 -18.5t-16.5 -18.5q-7 -4 -13 -8t-8 -6l-26.5 -27.5l-62.5 -67.5q42 5 87 6t94 -4q5 5 8.5 9.5l7.5 9.5q16 19 18.5 20.5t-2 -4.5
l-11 -14.5t-7.5 -10.5q-3 -8 -6 -11q1 1 18 20.5l37.5 43.5l38 44.5t20.5 22.5q5 4 16.5 15l13.5 13q1 1 -0.5 2t-3.5 2.5t-3.5 2.5t0.5 3q2 1 4 1q4 0 6 -1q2 -2 2.5 -1t4.5 0t6 -2.5t8 -3.5t7 0t8 -2q6 -4 9.5 -3.5t4.5 -3.5zM373 414h-4q-6 0 -19.5 -1t-31.5 -2.5
t-38.5 -3.5t-41.5 -6h50q5 0 14 2t12 3q2 1 6.5 2.5t9.5 0.5q5 -2 11 -2t10 1q2 1 7.5 3t10.5 3h4z" />
    <glyph glyph-name="I" unicode="I" horiz-adv-x="300" 
d="M238 -14v-5q4 -6 -3 -6q-1 0 -7 0.5t-13.5 1.5l-15 2t-10.5 1h-10t-13.5 -0.5t-11 -0.5t-2.5 0q2 1 7.5 2t11.5 3l16 4q-16 0 -35.5 -2.5t-37 -5t-29.5 -4.5t-13 -2q-3 0 -8 -5l20 -3q4 -1 9 -2h-5.5t-7 -0.5l-13 -1.5t-24.5 -2q-9 -1 -18.5 -1.5t-13.5 0.5q-5 0 -4 1
t-2 4q-2 2 0 4.5t2 10.5q1 8 2.5 7.5t3.5 5.5q2 5 1.5 8t1.5 6q2 4 3 4.5t0 2.5q0 2 1 2h2q6 2 22.5 4t57.5 4q-2 8 -3 8q-4 0 0 5t6 9q1 4 2.5 7.5t3.5 6.5q43 77 88.5 128.5l78.5 89.5q11 12 15 17t5 5l36 41.5l30 34.5h-56q-8 -1 -15.5 -1t-14.5 -1q-5 0 -12 -4
q-6 -5 -11.5 -2.5t-8.5 1.5h-8q-2 -1 -4 -1.5t-6 -0.5q-1 -1 -4 2q-1 1 -1 3h1q0 4 1.5 7t0.5 4q-1 2 -1 7v7q-1 4 -1 7q-1 2 0 3t1 3q0 1 3 3q1 1 3 2q37 5 79 7t88 0q-2 3 -1 4q2 1 4 1q5 0 7 -1q2 -2 2.5 -1t4.5 0l4.5 -1.5t5.5 -2.5q47 -3 95 -12h1l28.5 -5t16.5 -3
q1 0 3.5 -0.5t0.5 -2.5q-1 -2 0 -2.5t2 -4.5q2 -3 1 -6t1 -9q2 -5 3.5 -5t1.5 -8q-1 -8 1 -10.5t-1 -4.5q-3 -3 -2 -4t-4 -1q-4 0 -14 1.5t-18 3.5q-15 3 -23.5 4.5t-13 2.5t-7 1.5t-5.5 1.5h5q2 0 6 0.5t9 0.5q-11 3 -30 7t-47 6l-3.5 -3.5l-3.5 -3.5q-7 -4 -13 -8t-8 -6
l-15.5 -15.5t-37 -39l-51 -56.5l-57 -66t-53.5 -68t-42 -63l14 12q5 5 10 9t7 6q1 1 -2 -3t-7.5 -9.5l-9.5 -11.5t-6 -9q-1 -2 -3 -5t-4 -7q18 -1 40 -3t41 -8q2 -2 4 -3.5t3 -2.5v-18v-3zM348 416q11 -1 22 -3q8 -2 16.5 -3t10.5 -1q5 -1 14.5 -0.5t11.5 1.5t7 2t9 -1
q5 -2 11.5 -3t9.5 -1q2 1 7.5 2t10.5 1q-6 1 -19.5 2.5t-31 2.5t-38 1.5t-41.5 -0.5z" />
    <glyph glyph-name="J" unicode="J" horiz-adv-x="272" 
d="M464 419q1 -4 2.5 -3.5t-1.5 -4.5l-14.5 -18.5t-16.5 -18.5q-7 -4 -13 -8t-8 -6l-13 -13.5l-33.5 -35.5l-46.5 -51l-53 -60l-69 -81l-65 -76l-11 -13q-3 -4 -6 -7.5t-6 -6.5l-33 -39q45 -1 93 -6.5t99 -17.5q5 1 9 1q6 -2 10 -2q4 -1 10 -1q7 -2 8 -2q2 -2 2.5 -1t1.5 -1
t4.5 -2t2.5 -2v-1h1q1 -1 3 -1t1 -2q-1 -3 -0.5 -3.5t2.5 -3.5q1 -4 0 -7t0 -8q2 -6 3.5 -6t0.5 -8q-1 -7 1 -10t-1 -5t-2 -3.5t-4 -1.5q-4 1 -14 3t-18 4q-31 8 -44 11t-18 5l12 -2q5 -1 10.5 -1h10.5q-20 7 -68.5 16.5t-133.5 11.5h-30l-20 -23l-18 -20l-13.5 -15t-6.5 -7
q-3 -2 -7.5 -6.5t-9.5 -9t-9 -8.5l-5 -5q-2 -2 4.5 -4.5t3.5 -5.5q-2 -1 -4 -1t-3.5 -0.5t-2.5 1.5q-2 2 -2.5 1t-4.5 0h-2q-33 2 -57.5 7t-41 11t-26.5 12t-15 12v-1q-16 15 -16.5 27.5t6 21.5t15 14.5t11.5 6.5q4 2 34 13.5t87 18.5q-16 -3 -32 -7l-30 -9t-30 -10
q26 7 71 17.5t103 13.5l36 40l39 44l-1 -1l161 182l1 1q2 2 4 4.5t4 4.5l16.5 19t15.5 17q11 12 15 17t5 5l32 37t28 33q-13 2 -39 1.5t-72 -6.5q-61 -8 -96 -20t-53 -24t-23.5 -22.5t-6.5 -14.5h22q13 1 29.5 4l31.5 6l25 5t9 2q-2 -1 -8 -3l-10.5 -3.5t-4 -2.5t12.5 1
q8 2 17 2.5t20 2.5q2 1 3.5 2t4.5 2q6 2 7.5 2t4.5 -1q3 0 4.5 1t7.5 2q6 0 5.5 0t2.5 -2q10 1 16.5 2t8.5 1q4 1 0.5 -0.5l-8 -3.5t-7.5 -3.5t0 -1.5q6 0 2 -2t-9 -5q-1 -2 -2 -3t-2 -4q-2 -4 -3 -5.5t-2 -3.5t-3 -4q-1 -1 -2 -1q-2 0 -3 -1q-3 -1 -4 -4q-2 -2 -5 -4
q-2 -2 -3 -2.5t-3 -2.5q-5 -4 -12 -5.5l-16 -3.5q-5 -1 -10.5 -1.5t-10.5 -1.5q-6 -1 -13 -2q-5 -1 -12 -1q-23 -4 -49 -6t-49 -1q-9 2 -15 5q-5 2 -9 5t-1 7q9 13 14 16q-1 6 -2 15.5t-1 19.5t1.5 18.5t5.5 12.5q4 6 23 22.5t60 32.5t108.5 25.5t169.5 2.5q1 1 -5 4t-3 6
q2 1 4 1q5 0 6 -1q2 -2 3 -1t5 0t6 -2.5t8 -3.5t7 0t7 -2q7 -4 10.5 -3.5t4.5 -3.5zM350 424h-5q-6 0 -19.5 -1t-31.5 -2.5t-38.5 -3.5t-40.5 -6h50q5 0 14 2t11 3t7 2.5t10 0.5q5 -2 11 -2t9 1t8 3t10 3h5zM-62 -98l7 7q3 3 7.5 8t10.5 11q-76 -8 -114.5 -23t-43.5 -21
l-1 -2q-1 -5 7.5 -8t22 -5t30 -3t32.5 -1q5 7 11 13.5t11 9.5q6 5 12 8.5t8 5.5z" />
    <glyph glyph-name="K" unicode="K" horiz-adv-x="509" 
d="M579 -90q3 2 4 2t-3 -2q-5 -3 -6 -5.5t-6 -4.5q-5 -1 -7 -0.5t-6 -0.5t-4 -2t-4 -3t-6 -3.5t-4 -3.5t2 -2.5t1 -2.5l-3 -3t-5 -2q-4 -2 -4.5 -1.5t-8.5 0.5q-8 1 -11.5 0.5t-11.5 4.5q-7 5 -14.5 13.5t-10.5 11.5q-3 2 -5.5 4t-6.5 7l-16 16.5t-31 39.5q-2 0 -2 2l-1 1v1
q-12 16 -26 40.5t-27.5 54.5t-24 66t-14.5 77q-14 -10 -26 -19.5t-21 -17.5l-37 -45.5t-33 -44.5q0 -1 -0.5 -1.5t-0.5 -1.5q-1 -4 -1 -10q0 -2 2 -3t1 -3q2 1 0 -1t-5 -7q-2 -6 -5 -9l-14 -24q0 -2 -2 -8.5t-4 -9.5q-2 -4 -4.5 -7t-2.5 -5q0 -3 1.5 -5.5t1.5 -4.5
q0 -3 -4 -3h-3q-4 0 -8 1q-8 2 -8 3v2h-1q-1 1 -1.5 2t-1.5 2t-3 1q-4 2 -7 5q-3 2 -5 3.5t-3 2.5q0 1 -0.5 4.5t-0.5 8t-1 8t-2 3.5q-3 0 0.5 5t5.5 9q1 4 2.5 7.5t3.5 6.5q22 39 44.5 70.5t44.5 58l42 48.5l37 41q5 6 9 10t6 7q3 3 4 5l32 37l29 33q-13 2 -39 1.5
t-73 -6.5q-61 -8 -103 -22.5t-68.5 -29.5t-39.5 -28t-14 -17h22q13 1 29.5 4l31.5 6l25 5t9 2q-2 -1 -8 -3l-10.5 -3.5t-4 -2.5t12.5 1q8 2 17 2.5t20 2.5q3 3 8 4q6 2 7.5 2t4.5 -1q3 0 4.5 1.5t7.5 1.5t5.5 0t2.5 -2q10 1 16.5 2t8.5 1q4 1 0.5 -0.5l-8 -3.5t-7.5 -3.5
t0 -1.5q5 1 1.5 -1.5t-8.5 -4.5q-1 -3 -2 -4t-2 -4q-2 -4 -3 -5.5t-2 -3.5t-3 -4q-1 -1 -2 -1q-2 0 -3 -1q-3 -1 -4 -4q-2 -2 -5 -4q-2 -1 -3.5 -2t-3.5 -3q-5 -4 -11.5 -5t-15.5 -3q-5 -2 -10.5 -2.5t-10.5 -1.5q-6 -1 -13 -2q-4 0 -7 -0.5t-5 -0.5q-23 -3 -49 -5.5
t-49 -1.5q-9 2 -15 5q-5 2 -9 5.5t-1 7.5q5 5 8 9t6 6q-1 6 -2 16t-1 19.5t1.5 18t5.5 13.5q4 6 30 24.5t76 37.5t125 31t177 5q1 1 -5 4t-3 6q2 1 4 1q5 0 6 -1q2 -2 2.5 -1t4.5 0t6.5 -2.5t8.5 -3.5q5 -2 6 0t8 -2t10.5 -3.5t3.5 -3.5q1 -4 2.5 -3.5t-1.5 -4.5
t-13.5 -18.5t-17.5 -18.5q-7 -4 -12.5 -8t-7.5 -6q-1 0 -10 -9t-23 -25q47 26 104.5 50.5t124.5 41.5v1q32 7 45 11q1 1 3 1.5t2 -1.5q0 -3 1 -3t4 -3q2 -2 3 -5t4 -8q4 -5 5.5 -4t4.5 -6t6 -8.5t1 -5.5q-2 -3 -0.5 -3.5t-3.5 -2.5q-3 -2 -12.5 -4.5t-18.5 -4.5
q-15 -4 -23.5 -6l-13 -3t-7 -1.5t-5.5 -1.5q2 1 5 3t13 7q-22 -3 -69 -17.5t-124 -52.5q-50 -25 -86 -48q4 -32 11.5 -64.5t18.5 -61.5q15 -38 36 -70q-1 1 -1 2l2 -4q17 -26 34 -46.5t30 -34.5q11 -11 19 -17.5t9 -8.5q2 -3 8 -7l9 -6q6 -5 12 -7q1 -1 3 -1q-25 19 -39 36
q-8 9 -14 18q29 -35 53.5 -47t30.5 -13zM363 414h-4q-6 0 -19.5 -1t-31.5 -2.5t-38.5 -3.5t-40.5 -6h49q5 0 14.5 2t11.5 3t6.5 2.5t9.5 0.5q5 -2 11.5 -2t9.5 1q2 1 7.5 3t10.5 3h4z" />
    <glyph glyph-name="L" unicode="L" horiz-adv-x="415" 
d="M577 -11v-3q0 -2 -0.5 -5t-0.5 -5l-1 -1v-3l-1 -2q0 -2 -0.5 -3.5t-0.5 -3.5q-1 -1 -0.5 -1.5t-0.5 -2.5v-2q-1 -3 -1 -6.5v-6.5v-2q0 -1 -1 -2l-2 -4q-1 -2 -2 -3t-1 -3v-1v-1v-2q-1 -3 -1 -7t-2 -8q0 -1 -1 -2v-1h-1l-1 -1h-1h-1v1q0 2 0.5 3t0.5 3q0 1 0.5 1.5
t0.5 1.5v3l-8 3l-3 2q-2 1 -3.5 0.5t-5.5 -0.5q-2 0 -4.5 -0.5t-6.5 -0.5q-10 -2 -21 -2q-5 -1 -11 -0.5t-13 0.5q-2 0 -2.5 0.5t-2.5 0.5q-5 0 -13 0.5t-18 0.5q-5 1 -10 1h-10q-12 1 -25 1.5t-27 0.5q-3 0 -5.5 0.5t-5.5 0.5h-17t-16 1h-31h9.5t9.5 -1h8q4 -1 13 -1l38 -3
q6 -1 11.5 -1.5t10.5 -0.5q3 -1 8 -1q5 -1 7.5 -1h4.5q1 0 1 -0.5t1 -0.5h1h-18q-4 0 -7.5 0.5t-7.5 0.5l-72 3q-5 1 -9 1h-8q-2 0 -4.5 0.5t-5.5 0.5q-8 0 -16 0.5t-14 1.5q-3 0 -5.5 0.5t-4.5 0.5h-7h-3v-1l-1 1h-1q-1 0 -1 0.5t-1 0.5q-2 0 -6 -2h-1q-2 1 -4 1l-3 2l-1 1
l-1 1q-4 0 -7 1q-2 0 -2.5 0.5t-1.5 0.5t-1 1h-3q-2 1 -6 1h-2l-2 1q-2 0 -4 0.5t-5 0.5q-1 1 -4 1l-12 2q-6 2 -8 2l-13 -15q-3 -2 -8.5 -7.5l-11.5 -11.5l-10.5 -10.5l-5.5 -5.5h-1l-3 -2q-4 0 -7 3q-3 0 -6.5 1t-7.5 2q-2 -1 -3 -0.5l-5 2.5q-7 4 -10.5 3.5t-4.5 3.5
q-2 2 -5.5 8.5t-7 14t-6.5 15t-4 10.5q0 1 -0.5 1.5t-0.5 1.5q-5 1 -6 4.5t-1 5.5t-2.5 5t-4.5 8q-3 7 -3 12v1l-2 4l16 7q4 6 11 12t17 2q1 -1 6 -2t10 -3q6 -2 14 -3q2 0 6 -0.5t9 -1.5q1 0 1 -0.5t1 -0.5h5q1 0 1.5 -0.5t1.5 -0.5q7 -1 14 -1.5t15 -2.5l45.5 50.5
l55.5 62.5l59 68l57.5 69t49.5 64t35 53v1q0 2 1 3l-29.5 -18.5l-25 -16.5l-17 -11t-5.5 -3t8 6t12.5 9.5t6.5 6t-9 -4.5l-32 -19q-2 -3 -6 -6q-5 -4 -6 -4.5t-4 -1.5t-4.5 -3t-6.5 -4l-5 -2h-3q-8 -5 -14 -8l-8 -4q-3 -2 -0.5 0.5l6 6t5.5 6t-1 1.5q-5 -2 -2 1t7 8
q0 2 0.5 3.5t0.5 4.5q0 5 0.5 6.5t0.5 4.5t1 4q0 1 1 2l2 2q1 1 3 6q1 3 3 5l4 7q3 5 8.5 9t13.5 9l8 5.5t10 6.5q5 4 12 7q11 7 16 9t7 2t2.5 -1t3.5 0q5 2 10 6t9 6l8 4l14 1q1 0 5 0.5t10 0.5q3 2 5 0q7 -1 14 -4t12 -10q6 -8 6.5 -15.5t-2.5 -14t-6.5 -11.5t-4.5 -6
q0 -1 -1 -1q-2 -6 -4 -8q-43 -77 -84 -127.5l-74 -88.5q-17 -20 -19 -21.5t2.5 4.5l11 14.5t7.5 10.5q2 7 5 10l-143 -169q53 -6 100 -9q26 -2 50.5 -3t46.5 -2q14 -1 27 -1h25h33h6h31l1 1h1q1 1 1 2t2 3h-1q-1 0 -1 0.5t-1 0.5q-5 1 -12 0t-12 0h-1q-1 0 -2 1h-16l2 1
q2 0 5 0.5t8 1.5q2 0 4.5 0.5t4.5 0.5l10 2h4q1 0 1.5 0.5t1.5 0.5h7h3q0 1 1 2l2 2q2 2 5 2q1 0 1.5 -0.5t1.5 -0.5h2h1q1 0 1.5 -0.5t2.5 -0.5h4q-3 2 -5.5 3.5t-0.5 0.5h3q2 0 5 -0.5t6 -0.5q4 1 14 -1l-1 -3q0 1 1 1h1h4zM97 -49q4 2 6 4l-11 2q-1 0 -1 0.5t-1 0.5
l-20 4q2 -4 2 -6q3 -6 4.5 -10t5.5 -10q8 10 15 15zM106 -43q1 0 2 1q-1 0 -2 1q-10 2 -19 4.5t-18 5.5q0 -2 0.5 -3t0.5 -3h4l1 -1q5 -1 11 -2t14 -2q2 -1 6 -1zM167 -52q6 0 9 -1h6q2 0 4 -0.5t4 -0.5h9h4q2 0 1 1l-4 2h-5q-3 1 -11 1q-7 0 -12 1h-2zM283 -71q2 0 2.5 0.5
t1.5 0.5q-2 0 -4 -0.5t-3 -0.5h-2h5zM90 8l-4 -2zM193 -6l2 1z" />
    <glyph glyph-name="M" unicode="M" horiz-adv-x="541" 
d="M724 401q1 -4 2.5 -3.5t-1.5 -4.5l-5.5 -8l-8 -11t-9.5 -11t-8 -7q-7 -5 -12.5 -8.5t-7.5 -5.5l-15.5 -16l-37.5 -39.5l-51.5 -56l-56.5 -65.5l-53.5 -68t-41.5 -63q7 7 13 12q5 5 10 9t7 6q1 1 -2 -3l-7.5 -10l-9 -11.5t-6.5 -8.5t-5.5 -10.5t-8 -15l-8 -13.5t-4.5 -7
q-3 -5 -7 1q-1 1 -1.5 2t-1.5 2t-3 1q-4 2 -7 5q-3 2 -5 3.5t-3 2.5q0 1 -0.5 4.5t-0.5 8t-1 8t-2 3.5q-3 0 0.5 5t5.5 9q1 4 2.5 7.5t3.5 6.5q43 77 84.5 128l73.5 89q16 19 18.5 20.5t-2 -4.5l-11 -14.5t-7.5 -10.5q-1 -3 -3 -7l-2 -4l33 39l29 35t28 32l-58 -45.5
t-70 -61.5q-60 -57 -105 -106.5t-74 -86.5l-7.5 -13t-5.5 -9q-3 -5 -3.5 -3t-4.5 1q-3 -1 -4.5 2.5t-7.5 8.5t-4.5 6t-2.5 6t-6.5 6.5t-4.5 4.5q-2 4 -1.5 5t-2.5 1q-1 0 -3 5q-1 2 -1 5q2 4 7 -1t6 -2q0 1 2 6l4.5 11.5t4.5 12.5l3 9t12.5 27.5l25.5 53.5l36 76q1 2 3 5
t6 11l-51 -53l-59 -66l-64 -77t-64 -86v-10q0 -2 2 -3t0 -3q2 2 0 -0.5l-5 -6.5q-1 -2 -1.5 -5t-2.5 -5q-4 -4 -9 -12.5t-5 -11.5q-1 -2 -3 -8.5t-4 -9.5t-4 -6.5t-2 -5.5t1 -5t1 -5q0 -3 -4 -3h-3q-3 0 -7 1q-8 2 -8 3q-1 0 -1 2v1q-1 1 -2 1.5t-2 1.5q-2 1 -3 2q-4 2 -7 4
q-2 2 -4.5 3.5t-2.5 2.5q-1 1 -1 5v8t-1 7.5t-2 3.5q-4 0 0 5t5 9q3 10 7 15q21 38 53.5 83t66 87l64 77t48.5 53q7 7 4.5 2.5t-9 -12.5l-14 -17.5l-10.5 -13.5l25.5 28l32.5 35l33 35.5l27 29.5q-14 2 -39.5 1.5t-71.5 -6.5q-61 -8 -103 -22.5t-68.5 -29.5t-39.5 -28
t-14 -17h21q13 1 30 4t32 6l24.5 5t8.5 2q-2 -1 -8 -3l-10.5 -3.5t-3.5 -2.5t13 1q8 2 17 2.5t19 2.5q2 2 9 4q5 2 6.5 2t4.5 -1q3 0 5 1.5t8 1.5h5l3 -2q9 1 15.5 2t9.5 1q3 1 0 -0.5t-7.5 -3.5l-8 -3.5t0.5 -1.5q5 1 1 -1.5t-9 -4.5q-1 -3 -1.5 -4t-2.5 -4q-2 -4 -3 -5.5
t-2 -3.5t-3 -4q-1 -1 -2 -1q-2 0 -3 -1q-3 -1 -4 -4q-2 -2 -5 -4q-2 -1 -6 -5q-5 -4 -12 -5t-15 -3q-5 -2 -11 -2.5t-11 -1.5q-6 -1 -13 -2q-13 -2 -18.5 -2t-7.5 0.5t-2 1.5t-3 1q-5 0 -11.5 -1t-11.5 -2h-8l-19 16l-38 2q-3 17 -4 32q-1 13 0 25.5t6 18.5t31 24.5
t75.5 37.5t124.5 31t177 5q1 1 -5 4t-3 6q2 1 4 1q5 0 6 -1q2 -2 2.5 -1t4.5 0q5 -1 7 -2.5t8 -3.5t7 0t7 -2q7 -4 10.5 -3.5t4.5 -3.5q0 -2 1 -2.5t1 -1.5h1q-21 -33 -42 -72l-40 -77t-34 -71l-25 -55l57 59l70 70.5l69 67t54 48.5l25 18l19 13.5t14 8.5q9 3 17 2q2 1 4 1
q5 0 6 -1l1 -1h2h4q7 0 9 -4q2 -1 2.5 -1t2.5 -1q6 -2 7 0t8 -2q6 -4 9.5 -3.5t4.5 -3.5zM363 414h-5q-6 0 -19.5 -1t-31.5 -2.5t-38.5 -3.5t-40.5 -6h50q5 0 14 2t11 3t7 2.5t10 0.5q5 -2 11 -2t9 1t8 3t10 3h5z" />
    <glyph glyph-name="N" unicode="N" horiz-adv-x="466" 
d="M632 375q-3 -5 -13.5 -18t-17.5 -18q-6 -5 -12 -8.5t-8 -5.5l-15.5 -16l-37.5 -39.5l-51 -56l-56.5 -65.5t-54 -68t-41.5 -63q1 0 -1 -5.5t-5 -13l-6 -15t-4 -12.5q0 1 -5 -4l-10 -2h-1h8q3 0 4 -0.5t-1 -0.5q-2 -2 -5 0q-10 0 -18 7q-8 6 -8 13.5t2 13.5q0 7 -3 7t1 5.5
t5 9.5q4 10 7 14q43 77 84 127.5l74 88.5q16 19 18.5 21t-2 -4l-11 -14.5t-7.5 -10.5t-2 -3.5t-2 -3.5l-2 -4l41 48l34 39.5l28 31.5q-30 -17 -76 -46t-97 -66q-33 -24 -64.5 -50l-59.5 -50l-51.5 -46l-40.5 -38q-7 -9 -13.5 -18.5l-12.5 -18.5q-1 -4 -1 -10q0 -2 2 -3t1 -3
q1 1 -6 -7q-1 -2 -1.5 -5t-2.5 -5q-3 -4 -8 -12.5t-6 -11.5q-1 -2 -3 -8.5t-4 -9.5t-4 -6.5t-2 -5.5t1.5 -5t1.5 -5q0 -3 -4 -3h-3q-4 0 -8 1q-8 2 -8 3q-1 0 -1 2v1q-1 1 -2 1.5t-2 1.5q-2 1 -3 2q-4 2 -7 4q-2 2 -4.5 3.5t-2.5 2.5t-0.5 5t-0.5 8t-1 7.5t-2 3.5q-4 0 0 5
t5 10q2 4 3.5 7.5t3.5 6.5q21 38 53.5 83t66 87l64 77t48.5 53q7 7 4.5 3t-9 -12.5l-14 -18l-10.5 -13.5l25.5 28l32.5 35l33 35.5l27 29.5q-14 2 -39.5 1.5t-71.5 -6.5q-61 -8 -103 -22.5t-68.5 -29.5t-39.5 -28t-14 -17h21q13 1 30 4t32 6l24.5 5t8.5 2q-1 -1 -7.5 -3
l-11 -3.5t-3.5 -2.5t13 1q8 2 17 2.5t19 2.5q2 2 9 4q5 2 6.5 2t4.5 -1q3 0 5 1.5t8 1.5h5l3 -2q18 3 25 3q3 1 0 -0.5t-7.5 -3.5l-8 -3.5t0.5 -1.5q5 1 1 -1.5t-9 -4.5q-1 -3 -1.5 -4t-2.5 -4q-2 -4 -2.5 -5.5t-2.5 -3.5q-1 -2 -3 -4q-1 -1 -2 -1t-2 -1t-2.5 -1.5
t-2.5 -2.5q-2 -2 -5 -4q-3 -3 -6 -5q-5 -4 -12 -5t-15 -3q-5 -2 -11 -2.5t-11 -1.5q-6 -1 -13 -2q-13 -2 -18.5 -2t-7.5 0.5t-2 1.5t-3 1q-5 0 -11.5 -1t-11.5 -2h-8l-18 16h-1l-38 2q-3 17 -4 32q-1 13 0 25.5t6 18.5t31 24.5t75.5 37.5t124.5 31t177 5q2 2 -4.5 4.5
t-3.5 5.5q2 1 4 1q5 0 6 -1q2 -2 3 -1t5 0t6 -2.5t8 -3.5t7 0t7 -2q7 -4 10.5 -3.5t4.5 -3.5t2.5 -3.5t-1.5 -4.5l-14.5 -18.5t-16.5 -18.5q-7 -4 -13 -8t-8 -6q0 -1 -13 -12.5t-34.5 -32.5l-50 -51l-61.5 -67l60 47l62.5 48l57 42t44.5 30q15 7 27 14q11 5 21 10.5t15 7.5
q8 4 19 0q-2 2 0 4q2 1 4 1q5 0 6 -1q2 -2 2.5 -1.5t4.5 0.5q4 -1 6.5 -2.5t8.5 -3.5t7 0t7 -2q7 -4 10.5 -4t4.5 -4q0 -4 2 -3.5t-2 -4.5zM361 424h-5q-6 0 -19.5 -0.5t-31 -2t-38 -4t-41.5 -6.5h50q5 0 14 2t11 3t7 2.5t10 0.5q5 -2 11 -2t9 1t8 3t10 3h5z" />
    <glyph glyph-name="O" unicode="O" horiz-adv-x="396" 
d="M416 311q1 -3 1 -6t1 -7q-2 -28 -12 -59q-8 -26 -25.5 -60.5t-49.5 -69.5q-10 -9 -18.5 -18t-18.5 -18q-32 -31 -70.5 -56t-73.5 -44q0 -1 -1 -1q-9 -4 -17.5 -7t-16.5 -8q-14 -6 -26 -10t-20 -5h-5q-20 -2 -35 2.5t-25 10.5q-11 2 -18.5 9t-11.5 15.5t-6 17.5t-2 15v7h1
q0 2 -0.5 2.5t0.5 2.5q-2 4 0 9q1 7 2.5 14t2.5 14q3 7 3 12l2 2v1v1l6 12t7 11l9.5 20.5t9.5 17.5l10 15q-1 -4 -4 -8q-6 -9 -10 -21q17 28 34 45q-1 2 -1 5q-2 2 -3 4t4 7q3 5 2.5 5t0.5 2q0 2 1.5 4t3.5 7q0 2 3 4q8 27 24.5 62.5t44 67.5t68.5 55.5t98 26.5
q11 1 27.5 0.5t34 -5.5t33 -15.5t24.5 -28.5q3 -6 4.5 -13t2.5 -14q2 -6 3 -13t2 -15v-3v-2v1zM306 416q-21 0 -39.5 -3t-32.5 -7q-17 -4 -31 -10q5 2 8.5 2t7.5 1q5 1 8.5 2t8.5 1t11 2.5t8 4.5q3 1 7.5 0.5t9.5 0.5q7 -1 10 0.5t8 3.5q2 0 5 0.5t5 0.5q3 0 6 1zM323 175
q33 42 46 81t11.5 69t-17 48t-39.5 18q-45 0 -81 -17t-64 -42.5t-48.5 -54.5t-32.5 -52q5 4 8.5 6t4.5 3l3 2q4 2 9 6l10.5 8t9.5 7.5t5 4.5q1 2 -4.5 5.5t-1.5 6.5h5q3 0 5 -2t2.5 -1t4.5 -1q0 -1 1 -1q3 -1 5 -2.5t8 -3.5t7 -1t7 -4q4 -5 8 -4.5t3 -4.5q-1 -3 0.5 -3.5
t1.5 -1.5q1 0 -4 -4q-2 -3 -6.5 -8t-10.5 -10.5l-12 -10.5t-10 -7q-5 -3 -10.5 -3.5t-9.5 -2.5l-3 -2q-1 0 -7 -5.5t-16 -13.5q-14 -11 -22 -18t-13.5 -13t-10 -11.5t-10.5 -14.5q-27 -38 -37 -60q0 -2 -1 -2q-1 -2 -1 -4q-5 -8 -6.5 -15.5t-1.5 -14.5q0 -25 5 -34
q2 -2 6.5 -8t14.5 -9q5 0 7 -1q19 -3 46 5q-8 -2 -15.5 -2h-12.5q-6 0 -12 1q12 1 25 5t25 9.5t22 11.5l15 9q9 4 15 8t11 7h1q33 20 71.5 52t90.5 97z" />
    <glyph glyph-name="P" unicode="P" horiz-adv-x="427" 
d="M547 370q9 -3 14.5 -12.5t-9.5 -31.5q-1 0 -1 -1q-3 -4 -22.5 -23t-51 -44.5t-73.5 -53t-90 -48.5t-76 -28.5t-41.5 -6.5t-16.5 6.5t-3 11.5v3q-29 -35 -56 -71t-45 -68q7 7 13 12q5 5 10 9t7 6q1 1 -2 -3t-7.5 -9.5l-9 -11.5t-5.5 -9q-2 -3 -6 -10.5t-8.5 -15l-8 -13.5
t-3.5 -7q-5 -5 -7 1l-4 4q-2 1 -3 1q-4 2 -7 5q-2 2 -4.5 3.5t-2.5 2.5q-1 1 -1 4.5t-0.5 8t-1 8t-2.5 3.5q-3 0 1 5t5 9q4 10 7 14q21 39 39.5 67t35.5 50.5t33 41.5l33 38q16 19 18.5 21t-2 -4l-11 -14.5t-7.5 -10.5q-2 -3 -4 -7l-2 -4l54 63l38 44.5t21 22.5q4 3 14 12.5
t15 13.5h-3q-25 -6 -63 -19q-59 -18 -97 -40.5t-61 -43t-32.5 -36.5t-10.5 -20q7 1 14 3q6 2 12 3t11 3l22 6l-42 -20q-2 -1 -4 -3q-3 -4 -4.5 -4.5t-4.5 -3.5q-2 -3 -3 -1.5t-3 -1.5t-3.5 -5.5t-3.5 -2.5q-2 -1 -3 1.5t-5 5.5l-1 1q-3 3 -4 1t-3 -1q-2 2 0 6
q-10 3 -10.5 12t1.5 16q-5 1 -5 6t1 10q1 6 4 13q4 7 24.5 29.5t62.5 50t107.5 54t159.5 41.5q3 0 7 1l20 3h1q17 2 39.5 3t44.5 -0.5t39 -7.5t23 -19zM309 394q2 1 6.5 4t9.5 5q1 0 2 0.5t2 0.5h1q-2 0 -2.5 -0.5t-2.5 -0.5q-6 -2 -18.5 -5t-30 -8t-37 -11.5t-38.5 -14.5
q12 3 22 5q8 2 16 3t10 2q5 1 13.5 4.5t10.5 5.5t6.5 4t9.5 2t11 1t9 3zM403 257q42 28 67 49t37 36t14.5 24t0.5 11t-12.5 2.5t-26.5 0t-36.5 -2t-42.5 -4.5l-25 -4t-26 -5q-5 -1 -9 -2t-9 -2h2q6 -2 6.5 0t7.5 -2t10.5 -4t3.5 -4q1 -4 2.5 -3t-1.5 -4l-5.5 -8l-8 -11
t-9.5 -11t-8 -7q-6 -5 -12 -8.5t-8 -5.5q0 -1 -9 -10l-23.5 -24l-33.5 -35.5l-40 -44.5q2 2 4 2q8 1 9.5 4t6.5 1q2 1 5 1h3l54 15q-7 -3 -15 -6q-7 -3 -15.5 -6t-16.5 -7h1q1 -1 3 -1q1 0 1.5 -0.5t1.5 -0.5l9 3q3 3 8 3q3 2 9 4l6 3q24 10 54.5 25.5t65.5 38.5z" />
    <glyph glyph-name="Q" unicode="Q" horiz-adv-x="423" 
d="M314 42q-20 -17 -42.5 -33t-43.5 -28q6 -29 15.5 -51.5t15.5 -38.5q8 -17 12 -26.5t5 -10.5q2 -5 7 -11t7 -10q2 -5 9 -12q1 0 1 -1q-9 14 -15.5 27t-10.5 24q-4 12 -7 24q17 -47 35.5 -66.5t25.5 -23.5q4 0 5 0.5t-3 -1.5q-7 -2 -9 -5t-7 -2t-6.5 1h-4.5q-4 1 -4.5 0.5
t-5.5 -1.5q-4 -2 -6 -2.5t-7 -1.5q-2 -1 2.5 -4t1.5 -3q-5 0 -6 -1.5t-5 -2.5t-4.5 0.5t-7.5 3.5q-8 5 -11.5 5t-8.5 8t-10 19t-8 16q-2 3 -2.5 6.5t-2.5 9.5q-1 3 -10.5 22.5t-19.5 53.5q-1 0 -1 1v2v2q-2 6 -3.5 12t-3.5 13q-2 0 -3 -0.5t-3 -0.5q0 -1 -1 -1
q-10 -4 -18 -6t-16 -6q-14 -6 -25 -8.5t-21 -4.5l-1 1q-1 0 -1.5 0.5t-1.5 0.5q-20 1 -34 7.5t-25 14.5q-11 4 -18 12t-11 17.5t-6 18.5t-2 15v8v6v9q2 11 4.5 23.5t4.5 17.5v2l1 1l1 2q2 6 5 11t8 12q5 11 9.5 20t8.5 16q4 8 9 14q-2 -3 -4 -7l-4.5 -9t-6.5 -12l19 24.5
t16 19.5v6q-3 5 0 11q5 4 4.5 4.5t0.5 2.5q0 3 1.5 5l4.5 6q0 2 0.5 3t0.5 3q8 27 24.5 62.5t43.5 66t66.5 50t95.5 15.5q36 -2 65 -18q24 -14 44.5 -43.5t19.5 -84.5q-2 -29 -12 -60q-8 -26 -25.5 -59t-48.5 -66q-14 -20 -35 -36zM325 404q-20 2 -37.5 1t-31.5 -4
q-16 -4 -30 -8q4 2 8 2h9q4 -1 7 0.5t7 0.5q5 -1 11.5 1.5t8.5 3.5t6.5 0.5t11.5 -0.5q9 -2 15 2q3 1 10 1h5zM157 -7l7 4.5l7 4.5q-5 39 -6 88.5t7 104.5q-3 -1 -6 -1t-5 -1q-3 0 -3 -1q-2 -2 -6 -5q-3 -2 -7 -5.5t-9 -6.5h-1q-13 -10 -21 -17t-13 -12.5t-9.5 -11.5
t-11.5 -14q-13 -17 -22 -31.5t-14 -26.5q0 -1 -1 -2q0 1 -2 -5l-4 -15.5t-2 -15.5q-2 -24 3 -36q2 -3 7 -9t15 -12q5 0 8 -2q8 -2 19.5 -2t25.5 4q-8 -1 -15.5 -0.5t-12.5 1.5q-6 1 -11 2q12 -1 24.5 2t24 7t20.5 8t14 6zM216 27q27 17 57.5 45t67.5 76q33 40 46.5 79.5
t12 71t-16.5 52.5t-39 24q-44 6 -79.5 -8t-62.5 -37.5t-46 -51.5t-31 -51q4 4 6.5 5.5t3.5 2.5l2 2l20 13l15 10q1 1 -4 6t-2 7h4q4 0 6 -4q2 -2 2.5 -1t3.5 0q1 -1 2 -1q3 -2 4.5 -4t6.5 -6q5 -3 6.5 -1t7.5 -5q6 -5 9.5 -6t3.5 -7q0 -2 1 -2.5t0 -1.5v-1q0 1 -3 -2
q-6 -36 -8.5 -72.5t-1.5 -70.5q1 -31 6 -61z" />
    <glyph glyph-name="R" unicode="R" horiz-adv-x="427" 
d="M541 370q8 -3 13.5 -12.5t-9.5 -31.5v-1q-3 -4 -22.5 -23t-51 -44.5t-73.5 -53t-90 -48.5q-32 -14 -54.5 -21.5t-37.5 -10.5q3 -10 7 -16q23 -51 55 -88.5t55 -57.5q12 -11 20 -17t9 -8q3 -3 9 -6.5t9 -5.5t5.5 -3t6.5 -3q2 0 2 -0.5t1 -0.5q-13 8 -22.5 16.5t-17.5 16.5
q-9 9 -16 17q32 -33 56.5 -42.5t30.5 -10.5q3 1 4 1.5t-2 -2.5q-5 -4 -6 -6t-6 -4t-6.5 -1.5t-5.5 -0.5q-4 -2 -4 -2.5t-4 -3.5q-4 -2 -6 -3.5t-4 -3.5t2.5 -2.5t1.5 -2.5t-3.5 -3t-4.5 -3t-4.5 -1.5t-8.5 0.5t-11.5 -1t-11.5 4t-16 13t-11 10t-5.5 4t-6.5 7q-2 2 -17 15.5
t-34 36.5q-2 2 -2 3h-1v1q-20 25 -45.5 66.5t-43.5 96.5q-28 -33 -52.5 -66.5t-41.5 -63.5q7 7 13 12q5 5 10 9t7 6q1 1 -2 -3t-7.5 -9.5l-9 -11.5t-6.5 -9t-5.5 -10.5t-8 -15l-8 -13.5t-4.5 -7q-3 -5 -7 1q-1 1 -1.5 2t-1.5 2t-3 1q-4 2 -7 5q-3 2 -5 3.5t-3 2.5
q0 1 -0.5 4.5t-0.5 8t-1 8t-2 3.5q-3 0 0.5 5t5.5 9q1 4 2.5 7.5t3.5 6.5q22 39 40.5 67t35.5 50.5l32.5 41.5l32.5 38q16 19 18.5 21t-2 -4l-11 -14.5t-7.5 -10.5t-2 -3.5t-2 -3.5l-2 -4l54 63l39 44.5t21 22.5q4 3 13.5 12.5t14.5 13.5h-2q-13 -3 -28.5 -7.5t-34.5 -11.5
q-59 -18 -97 -40.5t-61 -43t-32.5 -36.5t-10.5 -20q7 1 14 3q6 2 12 3t11 3l21 6l-41 -20q-2 -1 -4 -3q-3 -4 -5 -4.5t-4 -3.5t-3 -1.5t-3 -1.5q-6 -8 -8 -8q-2 -1 -2.5 1.5t-4.5 5.5l-1 1q-4 3 -4.5 1t-2.5 -1q-2 2 0 6q-11 3 -11 12t2 16q-5 1 -6 6t1 10q1 6 5 13
t24.5 29.5t62 50t107 54t159.5 41.5q3 0 7 1l20 3h2q17 2 39.5 3t44 -0.5t39 -7.5t23.5 -19zM298 390q5 0 11 1t9 3q3 1 7.5 4t9.5 5q1 0 1.5 0.5t1.5 0.5h1q-1 0 -2 -0.5t-2 -0.5q-6 -2 -19 -5t-30.5 -8t-37 -11.5t-38.5 -14.5q11 3 22 5q8 2 16.5 3t10.5 2q4 1 13 4.5
t11 5.5t6 4t9 2zM397 257q42 28 67 49t37 36t14.5 24t-0.5 11q-2 2 -12 2.5t-26.5 0t-37 -2t-42.5 -4.5q-11 -2 -24 -4t-26 -5q-5 -1 -9 -2t-9 -2h1q6 -2 7 0t8 -2q6 -4 9.5 -4t4.5 -4t2.5 -3t-1.5 -4q-2 -3 -6 -8l-8.5 -11t-9 -11t-7.5 -7q-7 -5 -13 -8.5t-8 -5.5
q0 -1 -9 -10l-24 -25l-34.5 -37l-40.5 -45q13 5 33.5 11.5t51.5 14.5q-19 -7 -36 -14l-28 -12t-19 -8q24 6 55 17q26 10 61.5 27.5t78.5 45.5z" />
    <glyph glyph-name="S" unicode="S" horiz-adv-x="416" 
d="M470 343q4 -2 2.5 -7t-4.5 -10q-4 -6 -10 -14q-19 -14 -42 -26.5l-45 -23.5q-2 -1 -4.5 -2t-6.5 -3q-6 -3 -11 -6q-10 -5 -20 -9q-8 -2 -15 -5t-13 -3q-3 0 -5 0.5t-4 0.5h-2.5t-3.5 2h-5q-2 0 -3 -1h-2q-2 0 -4 2q-4 1 -10 5q-2 2 -3.5 2t-3.5 2q-6 0 -10.5 -0.5
t0.5 2.5q3 2 -0.5 2t-9 -1t-9 -2t-0.5 0q5 2 24 12q2 3 1.5 3t4.5 2q5 4 7 3.5t4 1.5q3 3 4.5 4t7.5 3q3 1 9 1q9 4 17 8.5t16 8.5q11 6 11 7t-5 -0.5l-11.5 -3.5t-7.5 -2t8.5 3.5t23.5 9.5l30 13t27 13q4 2 7.5 4.5l6.5 4.5q4 2 6 4q-4 3 -21.5 6.5t-48 2t-74.5 -13
t-100 -38.5q-33 -16 -54 -28.5t-33 -21.5t-17 -15t-6 -8v-1q-3 -6 -3 -12q0 -5 2.5 -10.5t12.5 -7.5q7 -2 29 -5t51 -7.5l61.5 -9.5t60.5 -11t48.5 -13t25.5 -14q0 -1 1 -3l3 -6q5 -1 9.5 -5.5t2.5 -18.5q1 -8 -4.5 -24t-24.5 -30q-15 -15 -49.5 -37t-95.5 -42q18 8 36 18
l32.5 17.5t31.5 19.5l-55.5 -28t-65.5 -28.5t-68 -17.5t-62 5q-5 0 -10 4q-5 3 -10 8t-11 15q-8 1 -10.5 6t-3.5 10q-1 6 1 14q3 15 14 32q9 14 25 30.5t45 30.5q4 1 8 5q4 2 14 6q1 0 1.5 0.5t2.5 0.5l8 4t3 -1q0 -2 3.5 -2.5t8 -0.5t8 -0.5t4.5 -0.5q3 -3 6 -9l4 -8
q0 -2 1 -3q1 -3 4 -4q2 -1 2 -4t-2 -4q-1 0 -7.5 -3.5l-14 -7.5l-14.5 -8t-10 -5l-9.5 -6.5l-12.5 -9t-10.5 -7.5t-2.5 -1q1 1 5 5.5t8.5 9t8 8.5t5.5 6l-24 -17t-22.5 -18.5t-15 -18t-1.5 -14.5q5 -11 37.5 -8t75 17t86.5 39t72 58q2 2 -10 5.5t-31.5 7.5t-44 8t-48 7
t-43 5t-28.5 3q-14 1 -24.5 4.5t-17.5 7.5q-8 4 -13 9l-15 28l-12.5 22t-9.5 18q-6 10 -6 18q-1 4 0 6q83 66 153.5 98t123 43.5t85 9.5t40.5 -4q5 -2 10.5 -8.5t11 -15.5t10 -18l7.5 -15q4 1 8.5 -1t11.5 -4zM323 398q-20 -3 -40.5 -8.5t-37.5 -10.5t-30 -9.5t-19 -7.5
l-4 -2h1q1 0 3 2q5 1 11 1h8q3 1 9 3.5t11 5.5q4 2 9.5 2.5t7.5 0.5q2 1 11.5 2t14.5 3z" />
    <glyph glyph-name="T" unicode="T" horiz-adv-x="226" 
d="M579 362q-16 0 -24.5 0.5t-13.5 0.5h-7.5h-5.5q1 1 5 2q2 1 6 1.5t9 1.5q-20 2 -62.5 1.5t-113.5 -13.5q-2 -2 -3 -2.5t-2 -1.5q-7 -5 -13 -8.5t-8 -5.5q-1 -1 -16.5 -17.5l-40.5 -43l-55.5 -60.5l-61 -70t-57 -71.5t-43.5 -64.5q7 7 13 12q5 5 10 8.5t7 5.5q2 1 -1 -2.5
t-7.5 -9.5t-9.5 -12t-6 -9q-2 -3 -6 -10l-8.5 -14.5l-8 -13.5t-3.5 -7q-1 -2 -3.5 -2t-3.5 2l-4 4q-2 1 -3 1q-4 2 -7 5q-2 2 -4.5 3.5t-2.5 2.5t-0.5 4.5t-0.5 8t-1 8t-2 3.5q-4 0 0 5t5 9q2 4 3.5 8t3.5 7q43 77 84 127.5l74 88.5q16 19 18.5 21t-2 -4l-11 -14.5
t-7.5 -10.5t-2 -3.5t-2 -3.5l-2 -4l34 39l31 36l32 36q-49 -13 -92 -29t-75 -30.5t-51.5 -25.5t-20.5 -14v-1q0 -5 7 -7q23 -5 27 -5q2 -1 7.5 -1h7.5q3 0 5 -0.5t5 0.5q1 1 3 1q-11 0 -20.5 2t-17.5 4q-9 3 -16 5q32 -9 51 -6.5t24 4.5q1 2 1.5 2.5t-0.5 -1.5
q-2 -5 -1.5 -7t-2.5 -4l-7 -7q-2 -2 -1.5 -2.5t-1.5 -3.5t-2 -4.5t-1 -3.5q-2 -2 1.5 -1t2.5 -1q-2 -2 -1.5 -3t-1.5 -4q-2 -2 -2.5 -2t-5.5 -3t-7 -5t-9 -1q-4 0 -9 1t-9 2q-3 1 -8 1q-2 1 -4.5 1t-6.5 2q-1 0 -3.5 0.5l-7.5 1.5l-6 2t-5 2q-11 6 -14 16.5t-2.5 21.5
t3 19.5t3.5 11.5q2 8 5.5 14t5.5 9q0 1 0.5 1.5t0.5 1.5q3 4 28.5 16.5t67 28.5t97 33t119.5 30q4 4 5 4q2 2 -4.5 5t-3.5 6q2 1 4 1q5 0 6 -1q2 -2 3 -1.5t5 0.5q4 -1 6 -2.5t8 -3.5q5 -2 6 -0.5t6 -0.5q41 7 83 10.5t85 2.5h1h45h4t1 -2q0 -2 0.5 -2.5t2.5 -3.5q2 -4 2 -7
t2 -8t4 -5t3 -7q1 -8 3 -10.5t0 -5.5q-2 -2 -1 -3t-4 -2q-4 0 -14 -0.5t-18 0.5zM273 371q2 1 6.5 4t9.5 5h4q1 0 1 1q-2 0 -2.5 -0.5t-2.5 -0.5q-6 -2 -19 -5t-30.5 -7.5t-37 -11t-38.5 -14.5l22 4q8 2 16.5 3.5t10.5 2.5q5 1 13.5 4.5t10.5 4.5q2 2 6.5 4t9.5 2t11 1t9 3z
" />
    <glyph glyph-name="U" unicode="U" horiz-adv-x="462" 
d="M633 389q1 -4 2.5 -3.5t-1.5 -4.5l-14.5 -18.5t-16.5 -18.5l-13 -7.5t-8 -5.5q0 -1 -13 -14.5l-34 -35.5q0 -1 1 -1q8 -3 1 -7t-16 -7l-50 -55.5l-54 -63.5l-51 -65t-40 -60q-1 -6 -4.5 -13.5l-7 -14.5l-6.5 -12.5t-3 -6.5l-1 -1q-1 -1 -2 -1.5t-2 -1.5l3 3v1
q-1 -1 1 -1.5t-3 -1.5q-3 -2 -6 0h-6.5t-6.5 4q-8 6 -7.5 14t2.5 14q-2 7 -3 7q-4 0 0 5t6 9q1 4 2.5 7.5t3.5 7.5q17 31 34 55l-63.5 -50t-49.5 -36l-27 -16l-21 -11.5t-14 -7.5q-8 -3 -18 -0.5t-16 3.5q-12 0 -10 10q-3 2 -7 5t-5 5t-1 12.5t-3 10.5q-4 0 0 5.5t5 9.5
q2 4 3.5 7.5t3.5 6.5q21 38 47 75t52 69.5t50 59t42 44.5q7 7 4 3t-9.5 -12l-14 -17.5l-10.5 -13.5l26 28l32.5 35l32.5 35.5l27 29.5q-13 2 -39 1.5t-72 -6.5q-61 -8 -103 -23t-68.5 -30t-39.5 -27.5t-14 -16.5h22q13 1 29.5 4l31.5 6l25 5t9 2q-2 -1 -8 -3l-10.5 -3.5
t-4 -2.5t12.5 1q8 1 17 2t20 3q2 1 3.5 2t4.5 2q5 1 6.5 1h5.5q3 0 4.5 1t7.5 1l5 1l3 -2q10 1 16.5 2t8.5 1q4 0 0.5 -1.5t-8 -3t-7.5 -3t0 -1.5q5 0 1.5 -2l-8.5 -5q-2 -2 -2.5 -3t-1.5 -4q-2 -4 -3 -5.5t-2 -4.5q-1 -2 -3 -4q-1 -1 -2 -1q-1 -1 -3 -1q-5 -2 -5 -3
q-1 -2 -2 -2.5t-2 -1.5t-7 -5q-5 -4 -11.5 -5.5l-15.5 -3.5q-5 -2 -11 -2.5t-11 -1.5q-6 -1 -13 -1q-13 -2 -18 -2t-7 0.5t-2.5 1.5t-3.5 1q-5 0 -11 -1.5t-11 -1.5q-4 0 -9 -1l-18 17h-1l-38 2q-2 17 -3 32q-1 13 0 25t6 18q4 6 30 25t76 38t125 31t177 5q1 1 -5 4t-3 6
q2 1 4 1q5 0 6 -1q2 -2 2.5 -1.5t4.5 0.5q4 -1 6.5 -2.5t7.5 -3.5q6 -2 7 0t8 -2q6 -4 9.5 -3.5t4.5 -3.5t2.5 -3.5t-1.5 -4.5l-5.5 -8l-8 -11t-9.5 -11t-8 -7q-7 -5 -12.5 -8.5t-7.5 -5.5q-1 -1 -23.5 -20t-58.5 -56t-82.5 -91t-95.5 -125q-1 -4 -1 -9q0 -2 2 -3t1 -3
q1 1 -1 -1.5l-5 -6.5q-1 -2 -1.5 -4.5t-2.5 -4.5l-8 -13.5t-6 -10.5q0 -2 -2 -6q27 16 77 49t107 78l33 26.5t31 26.5l28.5 34l25.5 30q16 19 18.5 20.5t-2 -4.5l-11 -14.5t-7.5 -10.5t-2 -3.5t-2 -3.5t-2 -3l54 63l20 23.5l18.5 21l14 15.5t6.5 7q3 2 7.5 6.5t9.5 9l9 8
t5 4.5q2 2 -4.5 4.5t-3.5 6.5q2 1 4 1q5 0 7 -1q2 -2 2.5 -1.5t4.5 -0.5q4 0 6 -2t8 -4t7 0t8 -2q6 -4 9.5 -3.5t4.5 -3.5zM358 429q1 0 1.5 0.5t1.5 0.5h1q-3 0 -4 -1q-13 0 -51 -2t-79 -10h49q5 0 14.5 1.5t11.5 2.5t6.5 3t9.5 0q5 -1 11.5 -1t9.5 1q2 1 7.5 3t10.5 2z
" />
    <glyph glyph-name="V" unicode="V" horiz-adv-x="444" 
d="M638 399q2 -2 2 -6q0 -2 -1 -4q-2 -2 -3.5 -0.5t-3 3.5t-3 3.5t-2.5 0.5t-4 -5.5l-7 -10l-8 -10.5t-6 -7q-8 -9 -28 -28.5l-43 -41.5l-46.5 -44l-39.5 -36q0 -1 -1 -1l-33 -30.5l-40.5 -38l-45.5 -41.5l-46 -41l-40 -35l-33 -28q-17 -14 -30 -26q-2 -2 -5 -4
q-6 -4 -10 -4q0 -1 -0.5 -1t-0.5 -1q-2 -1 -4 -1t-3.5 -0.5t-2.5 1.5q-2 2 -2.5 1.5t-5.5 0.5q-4 0 -6.5 2t-9.5 4q-6 2 -6.5 0t-7.5 2q-8 4 -11.5 3.5t-5.5 3.5q-1 4 -2.5 3.5t0.5 4.5t9.5 18.5t13.5 17.5q5 5 10.5 8.5t6.5 5.5q0 1 20 23t54.5 63.5t80 103t98.5 142.5h-1
q-2 1 -3.5 1t-3.5 1q-2 0 -3 1h-1q-13 2 -39 1.5t-73 -7.5q-61 -8 -103 -22.5t-68.5 -29.5t-39.5 -28t-14 -17h7h6.5t8.5 1q13 1 29.5 4l31.5 6l25 5t9 1q-2 0 -8 -2l-10.5 -3.5t-4 -2.5t12.5 1q8 1 17 2t19 3l9 3q5 2 6.5 2h5.5q3 -1 4.5 0.5t7.5 1.5h5l3 -2q9 2 16 2.5
t9 1.5q3 0 0 -1.5t-7.5 -3t-8 -3t0.5 -1.5q5 0 1.5 -2l-8.5 -5q-2 -2 -2.5 -3t-2.5 -4q-2 -4 -2.5 -6t-1.5 -4t-3 -4q-1 -1 -2 -1t-3 -1q-4 -2 -5 -4q-2 -3 -4 -3q-4 -4 -7 -6q-5 -3 -12 -4.5t-15 -3.5q-5 -2 -11 -2.5t-11 -1.5q-6 -1 -13 -1q-13 -2 -18.5 -2t-7.5 0.5
t-2 1.5t-3 1q-5 0 -11.5 -1.5t-10.5 -1.5q-1 -1 -9 -1l-18 17l-1 -1l-38 3q-3 17 -4 32q-1 13 0 25t6 18t30 24t72.5 36.5t119 31.5t169.5 7h2q4 0 10.5 -2.5t12 -8t8 -15t-1.5 -25.5q-1 -5 -5 -13q-22 -38 -46.5 -75l-48 -69.5l-44 -59l-34.5 -44.5q-6 -7 -4 -3l6.5 12.5
l9.5 18l7 13.5l-15.5 -22.5l-19.5 -28.5l-20.5 -30l-19.5 -28l24 19.5t27 23.5q24 19 48 42q2 2 3 4l78 74l62 60l17 16.5t11 11.5q3 4 7 8q2 3 11 12l33 36.5l25 27.5l-30.5 -31l-30.5 -31l-34 -34l31 35.5l36.5 41l34.5 38l25 27.5q6 8 16.5 17t14.5 12q5 4 4.5 2t3.5 -2
t4 -4t4 -10q5 -6 3.5 -7t0.5 -7t4 -8t3 -6t0.5 -4.5t1.5 -2.5zM359 416h-4q-6 0 -19.5 -0.5t-31.5 -2t-38.5 -4t-41.5 -6.5h23h27q5 0 14.5 2t11.5 3t6.5 2.5t9.5 0.5q11 -2 21 0q2 0 7.5 2t10.5 3h4z" />
    <glyph glyph-name="W" unicode="W" horiz-adv-x="574" 
d="M752 373q-8 -9 -28 -28.5l-43 -41.5l-46.5 -44l-38.5 -36h-1q0 -1 -1 -1l-33.5 -30.5l-41 -38l-43.5 -41.5t-41 -41l-41 -44.5l-30 -32.5q-4 -5 -7.5 -11t-5.5 -7q-1 -1 1.5 -2t5 -2.5t5 -3.5t1.5 -3q-2 -1 -4 -1t-3 -0.5t-3 1.5q-3 2 -3 1.5t-4 -0.5q-5 1 -8 2.5t-9 3.5
q-7 2 -7.5 0t-8.5 3q-8 4 -11.5 3.5t-5.5 3.5t-4 3.5t-1 4.5t5.5 18.5t9.5 17.5q5 5 9.5 8.5t5.5 5.5q0 1 6.5 15t19 37.5l30 54t39.5 63.5q9 14 17 29l15 28l-36.5 -28.5l-37.5 -30.5l-32.5 -27t-20.5 -18q-23 -23 -44.5 -48.5t-39.5 -50.5l-32.5 -47t-24.5 -39q7 -4 6 -6
q-2 -1 -4 -1t-3.5 -0.5t-2.5 1.5q-2 2 -3 1.5t-5 0.5q-4 0 -1.5 2t-5.5 4q-6 2 -6 0t-8 2t-12.5 3.5t-6.5 3.5t-3.5 3.5t0.5 4.5t6.5 18.5t9.5 17.5q4 5 8.5 8.5t4.5 5.5q1 3 63 86t168 246h-1h-1q-2 1 -3.5 1t-3.5 1q-2 0 -3 1q-13 2 -39 1.5t-74 -7.5q-61 -8 -103 -22.5
t-68.5 -29.5t-39.5 -28t-14 -17h7h6.5t8.5 1q13 1 29.5 4l31.5 6l25 5t9 1q-2 0 -8 -2l-10.5 -3.5t-4 -2.5t12.5 1q8 1 17 2t20 3q4 2 8 3q6 2 7.5 2h4.5q3 -1 4.5 0.5t7.5 1.5t5.5 0t2.5 -2q10 2 16.5 2.5t8.5 1.5q4 0 0.5 -1.5t-8 -3t-7.5 -3t0 -1.5q6 0 2 -2t-9 -5
q-1 -2 -2 -3t-2 -4l-3 -6l-2 -4t-3 -4q-1 -1 -2 -1q-2 0 -3 -1q-3 -1 -4 -4q-3 -3 -5 -3q-4 -4 -7 -6q-5 -3 -11.5 -4.5l-15.5 -3.5q-5 -2 -10.5 -2.5t-10.5 -1.5q-6 -1 -13 -1q-13 -2 -18.5 -2t-7.5 0.5t-2 1.5t-3 1q-5 0 -11.5 -1.5t-11.5 -1.5q-1 -1 -9 -1l-18 17v-1
l-39 3q-2 17 -3 32q-1 13 0 25t6 18q4 6 29 24t73 36.5t119 31.5t169 7h2q4 0 10.5 -2.5t12 -8t8.5 -15t-1 -25.5q-2 -5 -6 -13q-9 -16 -24 -37l-32 -43.5l-34 -44.5l-31 -40l-22.5 -29.5t-7.5 -13.5q0 -1 14 10.5l34.5 29l44 38.5l44.5 39.5l35.5 32t15.5 15.5l4 9
q0 2 2.5 1.5t4.5 -2.5q1 -2 3 -3t3 -2l12 -2t10 -2q6 0 9 -4.5t1 -8.5q-2 -3 -2.5 -2.5t-9.5 -4.5q1 -5 2 -8.5t3 -3.5q3 0 0 -5t-4 -9q0 -7 -5 -14l-6 -12.5l-6 -13.5q-20 -39 -38.5 -71.5t-26.5 -51.5q-2 -2 -4 -6l13.5 13.5t12.5 14.5q1 1 1 1.5t2 2.5l36 34.5l37.5 36.5
l35.5 34.5l29 28.5l17 16.5t11 11.5q2 3 4 4.5t3 3.5l5 5t6 7q18 20 37 36.5t29 27.5l-31.5 -31t-33.5 -31q-18 -17 -38 -34q13 15 32.5 35.5l39.5 41l37 38t26 27.5q7 8 17 17t14 12q5 4 4.5 2t3.5 -2t4 -4t5 -10q4 -6 2.5 -7t0.5 -7t4 -8t3 -6t0.5 -4.5t1.5 -2.5t2 -6
q0 -2 -1 -4q-2 -2 -3.5 -0.5t-3 3.5t-3 3.5t-2.5 0.5t-4 -5.5l-7 -10l-8 -10.5t-6 -7zM358 426h-4q-6 0 -19.5 -0.5t-31.5 -2t-38.5 -4t-40.5 -6.5h22h27q5 0 14.5 2t11.5 3t6.5 2.5t9.5 0.5t11.5 -1t9.5 1q2 0 7.5 2t10.5 3h4zM177 -20q0 2 -0.5 3t0.5 3q-3 -2 -3 -3
q0 -2 3 -3z" />
    <glyph glyph-name="X" unicode="X" horiz-adv-x="486" 
d="M624 391q5 -5 8.5 -5.5t3.5 -4.5t2 -3.5t-3 -4.5q-2 -2 -7.5 -6.5l-11.5 -9l-12 -9t-10 -5.5q-6 -3 -13 -5.5t-9 -4.5q-1 0 -15 -10l-37.5 -26l-54 -38l-64.5 -46q1 -13 1.5 -27.5t2.5 -31.5q4 -54 13 -94.5t19 -70t20 -47t16 -24.5q0 -4 4 -6q0 -2 1 -2q1 -1 1 -1.5
t2 -1.5h2q2 0 2 -0.5t2 -0.5q3 -2 1 -6l-2 -1q-1 -2 0 -2.5t-2 -2.5t-6 -5.5t-8 -3.5q-14 0 -26.5 6t-17.5 10q-1 1 -2 1q-3 4 -13.5 25t-22 57t-21.5 85t-14 109q-51 -38 -96.5 -76t-73.5 -68q9 5 17 9l12.5 7t7.5 5q2 1 -2 -2t-10 -8l-12 -10t-8 -8l-9 -9t-12 -13t-11 -12
l-6 -6q-1 -2 -3.5 -1t-3.5 3q0 1 -3 4l-2 2q-3 3 -5 6q-2 2 -3.5 4t-1.5 4q-1 2 2 12.5t0 11.5q-3 0 1.5 4.5t6.5 8.5t5.5 7t5.5 6q21 24 46.5 47.5l52 46l53 43l50.5 38.5q0 26 2 54.5t6 57.5q1 5 1 9.5t1 9.5q-15 0 -35 -1.5t-48 -5.5q-62 -8 -105.5 -22.5t-71.5 -29.5
t-41.5 -28t-14.5 -17h21q13 1 30.5 4t32.5 6l24.5 5t8.5 2q-2 -1 -8 -3l-10.5 -3.5t-4 -2.5t13.5 1q16 4 36 5q2 2 9 4q5 2 6.5 2t4.5 -1q3 0 5 1.5t8 1.5h5l3 -2q18 3 25 3q3 1 0 -0.5t-7.5 -3.5l-8 -3.5t0.5 -1.5q5 1 0.5 -1.5t-9.5 -4.5q-1 -2 -1.5 -3.5t-2.5 -4.5
q-2 -4 -3 -5.5t-3 -3.5q-1 -2 -2 -2.5t-2 -1.5t-2 -1q-2 0 -3 -1q-3 -1 -4 -4q-2 -2 -5 -4q-4 -1 -6 -5q-6 -4 -13 -5t-16 -3q-5 -2 -11 -2.5t-11 -1.5q-6 -1 -13 -2q-13 -2 -18.5 -2t-7.5 0.5t-2 1.5t-3 1q-5 0 -11.5 -1t-11.5 -2h-8l-16 16h-1l-38 2q-1 17 -1 32
q0 13 2 25.5t7 18.5q5 5 28.5 21.5t66.5 34t106 31t147 13.5q2 1 4 1q8 3 10 5t10 0q7 -1 12 -0.5t7 -1.5q1 -2 3.5 -1.5t3.5 -3.5q2 -3 -1 -11q-1 -5 -1 -12t-2 -13l-3 -24.5l-1.5 -13t-1 -7t-0.5 -5.5q0 1 -1 5q-2 6 -2 15q-4 -12 -5.5 -29.5t-3.5 -43.5q6 4 10 7.5t9 6.5
q21 16 23.5 17t-3.5 -4l-14.5 -12.5t-9.5 -9.5l-9 -9l69 52l48.5 36.5t25.5 18.5q3 1 8.5 4.5l11.5 7.5t11 7t7 3q2 1 -3.5 5.5t-1.5 6.5q2 1 4 1q4 0 6 -2q1 -3 2 -2.5t3 -0.5q5 -2 6.5 -4t7.5 -4q5 -3 6.5 -1.5t6.5 -3.5zM342 406h-4q-6 0 -19.5 -1.5l-31.5 -3.5
t-38.5 -5.5t-41.5 -7.5q11 1 22 1h17t11 1q5 0 14 2t11 3t7 3t9 1q5 -1 11.5 -1t9.5 1t8 3t11 4h4z" />
    <glyph glyph-name="Y" unicode="Y" horiz-adv-x="510" 
d="M672 372q0 -4 2 -3t-2 -4l-5.5 -8l-8 -11t-9.5 -11t-8 -7q-6 -5 -12 -8.5t-8 -5.5q0 -1 -11 -12l-29 -30l-41 -43.5l-47 -52.5l-32 -38l-37 -44l-64 -75l-12 -14q-3 -3 -5.5 -6.5l-5.5 -7.5q-5 -5 -9.5 -11t-9.5 -11q-4 -4 -7.5 -8t-6.5 -8q45 -2 93 -7.5t99 -17.5
q4 1 5.5 1.5t3.5 -0.5q2 0 4 -0.5t5 -1.5q6 0 11 -1q7 0 8 -2q2 -1 2 -0.5t2 -1.5q1 -2 4 -1.5t3 -1.5v-2q2 0 4 -0.5t1 -2.5q-2 -2 -1 -2.5t2 -4.5q2 -3 1 -6t0 -9t3 -5.5t1 -7.5t0.5 -11t-0.5 -5q-3 -2 -2.5 -3.5t-4.5 -0.5q-4 1 -13.5 2.5t-17.5 4.5q-31 8 -44 10.5
t-19 4.5q7 -1 13 -1q5 -1 10.5 -1h10.5q-20 7 -68.5 16.5t-134.5 11.5h-30l-37.5 -44t-19.5 -22q-3 -2 -7.5 -6.5t-9.5 -9l-9 -8t-5 -4.5q-2 -2 4.5 -4.5t3.5 -6.5q-2 -1 -4 -1t-3.5 -0.5t-2.5 1.5q-2 2 -3 1.5t-5 0.5h-1q-68 5 -98.5 17.5t-41.5 23.5q-16 15 -16.5 27.5
t6 21.5t15 14.5t10.5 6.5l35 13.5t87 18.5l-32 -8l-30.5 -8.5t-30.5 -9.5q26 7 71.5 17.5t103.5 13.5l36 39.5l38 44.5v-1l12 14l-42.5 -32.5l-33.5 -24.5q-14 -9 -26 -16l-21 -11l-14 -7q-9 -4 -18.5 -1t-15.5 3q-5 0 -8.5 3.5t-1.5 7.5l-7 4.5t-5 4.5q-1 1 -1 4.5t-0.5 8
t-1 8t-2.5 3.5q-3 0 1 5t5 9q4 10 7 14q21 39 47 76t52 69.5t49.5 59t41.5 44.5q7 7 4.5 3t-9 -12.5l-14 -18l-10.5 -13.5l26 28l32.5 35l32.5 35.5l27 29.5q-13 2 -39 1.5t-72 -6.5q-61 -8 -103 -22.5t-68.5 -29.5t-39.5 -28t-14 -17h22q13 1 29.5 4l31.5 6l24.5 5t8.5 2
q-1 -1 -7.5 -3l-11 -3.5t-3.5 -2.5t13 1q8 2 17 3t19 2q2 2 9 4q5 2 6.5 2t4.5 -1q3 0 5 1.5t8 1.5h5l3 -2q18 3 25 3q3 1 0 -0.5t-7.5 -3.5l-8 -3.5t0.5 -1.5q5 1 1 -1.5t-9 -4.5q-1 -2 -1.5 -3.5t-2.5 -4.5q-2 -4 -2.5 -5.5t-2.5 -3.5q-1 -2 -3 -4q-1 -1 -2 -1t-2 -1
t-2.5 -1.5t-2.5 -2.5q-2 -2 -5 -4q-3 -3 -6 -5q-5 -4 -12 -5t-15 -3q-5 -2 -11 -2.5t-11 -1.5q-6 -1 -13 -2q-13 -2 -18.5 -2t-7.5 1t-2 2t-3 1q-5 -1 -11.5 -2t-11.5 -2h-8l-18 17l-1 -1l-38 2q-3 17 -4 32q-1 13 0 25.5t6 18.5t31 24.5t75.5 37.5t124.5 31t178 5
q1 1 -5.5 4t-3.5 7q2 1 4 1q5 0 7 -1q2 -2 2.5 -1.5t4.5 -0.5t6 -2.5t8 -3.5t7 0t8 -2q6 -4 9.5 -3.5t4.5 -3.5t2.5 -3.5t-1.5 -4.5l-14.5 -18.5t-16.5 -18.5l-13 -7.5t-8 -5.5q-1 -2 -23 -21t-58.5 -55.5t-83 -90.5t-95.5 -125v-10q0 -2 2 -3t0 -3q2 1 0 -1t-5 -7
q-2 -6 -4 -9q-4 -4 -9 -13t-5 -11l-2 -6l77 50t107 78l32.5 26l31.5 27q14 18 28 33.5l26 29.5q16 19 18.5 21t-2 -4l-11 -14.5t-7.5 -10.5t-2 -3.5t-2 -3.5l-2 -4l54 63l20 23.5l18.5 21l14 15.5t6.5 7q3 2 7.5 6.5t9.5 9l9 8t5 4.5q2 2 -4.5 5t-3.5 6q2 1 4 1q5 0 6 -1
q2 -2 2.5 -1.5t4.5 0.5q4 -1 6.5 -2.5t8.5 -3.5t7 0t7 -2q7 -4 10.5 -3.5t4.5 -4.5zM401 413h-5q-6 0 -19.5 -0.5t-31 -2t-38 -4t-41.5 -6.5h50q5 0 14 2t11 3t7 2.5t10 0.5q5 -2 11 -2t9 1t8 3t10 3h5zM165 -123q0 1 7 8t18 19q-76 -8 -115 -23.5t-43 -21.5l-1 -1
q-2 -5 6.5 -8t22 -5t30.5 -3l33 -2q5 7 11 14t10 10l13 7.5t8 5.5z" />
    <glyph glyph-name="Z" unicode="Z" horiz-adv-x="339" 
d="M-42 -24q0 1 -0.5 1.5t-0.5 1.5q0 2 0.5 3.5t0.5 3.5q1 1 1 3l3 5q3 6 7 10.5t6 6.5l43 33.5l54.5 43l56 44.5l47.5 37h-5q-13 -1 -19 -1h-13q-7 1 -11.5 2t-9.5 -1q-6 -1 -10.5 4.5t-2.5 13.5q3 6 5 6q0 -1 1 -1h4q5 -1 8.5 1t6.5 2q3 -1 7.5 0t6.5 1h10.5t20 -0.5
t20 -1t11.5 -0.5h1l64.5 51.5l58.5 48.5l48.5 42t35.5 33l-101 -4.5t-125 6.5q-10 -1 -17.5 -1h-13.5q-7 0 -13 -1q4 2 8 3q8 2 11 1q2 0 5 -0.5t7 -0.5l-20 3q-3 1 -7 1.5t-8 2.5t-10.5 2t-4.5 3q1 1 -1 3.5t-5.5 5.5l-6.5 5.5t-3 3.5v10q0 4 1 8q1 1 1 3q0 3 -1 5t0.5 4.5
t3.5 1.5q1 0 8 -1t15.5 -2.5t17 -2.5t11.5 -2q3 0 10.5 -0.5t15 -0.5h12.5t3 -1t-8.5 -1.5t-13.5 -1.5q-8 -1 -18 -3q28 -5 63 -6.5t72 -1.5t74 1.5t70 3.5h1q5 5 7 -2q0 -2 2 -4q1 -1 3 -2q2 -3 5 -6q2 -2 3.5 -4.5t2.5 -3.5q0 -1 -0.5 -5l-1 -8t-1 -7.5t1.5 -3.5
q3 -1 -2 -5.5t-7 -7.5q-2 -4 -5 -7l-5 -5q-29 -31 -66.5 -67.5l-75.5 -71.5h12q3 0 0 0.5t-8 0.5h-9t-2 0q3 0 6 0.5t7 -0.5q4 0 4.5 0.5t2.5 -4.5q2 -4 6.5 -5.5t5.5 -3.5l3.5 -3.5t1.5 -4.5t0.5 -3t-4.5 -2t-6.5 -1.5t-5.5 -2.5t-3 -3.5t-6 -1.5h-11q-12 2 -31 0
l-39 -33.5l-45.5 -38.5l-41.5 -34.5t-27 -21.5q-21 -15 -23 -16t3.5 3.5l14 11.5t9.5 9q1 1 2.5 2t2.5 3t2 3l-96 -70q62 -4 108.5 -3.5t69.5 1.5h18h1q2 0 2 4q0 1 0.5 1t0.5 1h-2q-5 1 -12 0t-12 0l-1 1h-4h-9h-5h2l2 1h3l8 2l20 3q1 0 1.5 0.5t1.5 0.5h4q1 0 1.5 0.5
t1.5 0.5h3h3v1l2 2q2 2 3 2t1 1h5l1 -1h10q-4 2 -6 2l-1 1l-1 1h1l1 -1h2q1 0 2 -0.5t2 -0.5h4q1 0 1.5 0.5t1.5 0.5q4 1 12 -1h3q0 -1 -0.5 -1.5t-0.5 -1.5l2 1h4v-3q0 -2 -0.5 -5t-0.5 -5q0 -1 -1 -1q0 -3 -1 -5q0 -3 -1 -5q0 -2 -0.5 -4t-0.5 -4q-1 -2 -1 -6v-8
q0 -3 -1 -4l-2.5 -5t-1.5 -5q0 -1 -1 -1v-9v-2q0 -1 -0.5 -1t-0.5 -1q0 -3 -2 -7v-1h-1q-1 -1 -3 -1v2v1q1 2 1 5v5l-7 0.5t-15 0.5t-16 0.5t-10 0.5h-27q-2 0 -2.5 0.5t-2.5 0.5l-85 3h-24q-20 1 -38.5 1h-31.5q7 0 15 -0.5t17 -0.5l26 -2h6.5t6.5 -1q6 0 12 -0.5t11 -0.5
q2 0 3.5 -0.5t3.5 -0.5q6 0 11 -0.5t8 -0.5q1 0 1.5 -0.5t1.5 -0.5h1q-17 -1 -40.5 -0.5t-47 1.5l-45 2t-34.5 2h-2q-2 5 -3.5 10.5t-2.5 12.5q0 1 -0.5 1t-0.5 1q0 4 -1 6v4zM295 201q-2 -1 -17.5 -3.5t-50.5 -5.5l3 -2h2q2 0 3.5 -0.5t5.5 -0.5q7 -1 20 -1t19 1t21 1t19 1
q2 0 -2.5 0.5t-9.5 1t-9 0.5t-1 0q5 1 9.5 0t6.5 1q2 1 5 4t-3 3q-6 -1 -12 -0.5t-9 0.5zM313 401q4 -1 10 0l12 2q7 1 14 3q-22 -2 -45 -2t-43 1q-23 1 -44 3q14 -5 26.5 -5t21.5 -2q4 0 6 -1t3.5 -1h4.5t9 1q13 2 15 1.5t10 -0.5z" />
    <glyph glyph-name="a" unicode="a" horiz-adv-x="238" 
d="M252 119q-3 -5 -6.5 -6t-5.5 -4q-1 -1 -1 -2t-1 -2q4 2 -1 -6h-1q0 -1 -1 -2q-5 -7 -17.5 -20.5l-26.5 -28t-27.5 -27t-19.5 -18.5q-11 -10 -18 -10q-8 -5 -11 -2q-2 5 -6.5 8t-10.5 9l-12.5 10t-5.5 8q0 1 0.5 1t0.5 1q1 23 13.5 49t27.5 48q18 26 40 50
q-41 -54 -56 -86t-19 -47l19.5 37t20.5 37l23.5 36t13.5 19q2 3 3.5 7.5t3.5 7.5q-1 1 -1 2q-4 -3 -10 -6t-7 -5q0 -1 -16.5 -18l-38 -39.5l-41 -44.5t-25.5 -31q-11 -19 -20 -27t-14 -13q-8 -12 -14 -10q-2 2 -2.5 4t-2.5 4q-2 3 -2 4t-5 6t-7.5 8.5t-7.5 8.5t-6.5 7.5
t-1.5 6.5q0 1 3 14.5t12 35.5t26 50t45 60q18 19 34 33q14 12 28 21t24 6q19 -7 21.5 -8t2.5 -4t2 -2.5t4 -1.5t6 -2.5t6 -2.5q1 -1 3 -2.5t4 -3.5q3 -2 5 -4q0 -2 5 -2l-2 -2h1l2 1l2.5 2.5l3.5 3.5t3.5 4t2.5 4l1 1q1 1 2 1l-1 2q-2 2 -3.5 5t0.5 2q2 0 4.5 -1.5t5.5 -2.5
h1q7 -2 7 -5q1 -2 3 -2.5t5 -2.5l3 -3t3 -2t2 -0.5t7 -1.5q6 -2 6.5 -2t3.5 -2l3 -3q0 -1 -0.5 -1.5t-0.5 -1.5q-1 -2 -0.5 -2t-0.5 -1v-3q-2 -4 -2 -5l-3.5 -4.5l-8 -10l-8 -10t-3.5 -5.5t-7 -9t-10 -12l5.5 8.5l7.5 11.5t6.5 10.5t2.5 6.5l-1 1q-2 -2 -3 -3.5t-3 -3.5
q2 -2 3 -1l-16.5 -21t-12.5 -18q2 1 3 1q2 0 3 -1q0 -3 3 -2t-1 -4q-2 -3 -10 -14l-17.5 -24.5l-18 -25t-10.5 -14.5t-5 -10l-6 -13.5l-5 -11t0 -4.5q4 2 9.5 8.5t5.5 2.5q1 -4 8 1t10 10q1 2 13.5 15l28 28l30.5 29t22 18h1q0 -1 0.5 -2t-1.5 -3q-4 -4 -8.5 -8t-7.5 -9
q-2 -2 0 -1t5 3.5l6 5t4 2.5t4.5 3l7 6l6 5t1.5 0q-3 -5 -10 -12t-10 -12zM166 212q7 8 1.5 7.5t-10.5 0.5t-7 0t-8 -1q-5 -1 -7.5 -3t-9.5 -7q-7 -4 -9 -6.5t-7 -5.5q-4 -4 -4 -2.5v6.5q0 4 -6 0q-3 -2 -6 -6q-5 -5 -18 -22l-28.5 -37.5l-29 -40t-18.5 -30.5t-5.5 -15.5
t0 -5.5t2.5 0.5t3 3.5q2 4 6.5 3t7.5 3q1 2 6.5 8.5l11.5 14l11.5 14t7.5 8.5q5 4 6.5 4.5t4.5 2.5q2 1 2.5 0.5t0.5 -2t0.5 -1.5t3.5 3q2 3 18 20l34 36z" />
    <glyph glyph-name="b" unicode="b" horiz-adv-x="233" 
d="M185 136q-5 -8 -12 -16.5t-11 -11.5q-3 -3 -5 -3q-26 -29 -57 -58t-71 -44q14 8 28 18q12 8 27 20l31 26v2q-26 -23 -52 -41t-57 -26q-5 -3 -11 -5q-5 -2 -12 -2t-15 3q-14 5 -16 18.5t3 21.5q-2 4 -2 5l1 2q1 20 9.5 39.5t19.5 36.5l-11 -16.5t-9 -12.5l-8 -12
q10 18 23.5 38l26 37.5l21.5 30.5t11 17q3 6 6 9v2q0 4 3 8q1 1 4 3t4 4h-1h1v1h1l16.5 20.5l28 35.5t33 40.5t32.5 35.5l-33 -42l-28 -35l-22 -29q1 1 1 0q-1 -2 9.5 10.5l25.5 29.5l30 35l23 28q16 19 26 26.5t14 11.5t4.5 5l2.5 5q0 2 1 4l2 4q-2 2 -5 4t-5 3q-1 1 0 2
q1 0 3 1q1 -1 3 -2t3.5 -1.5t3.5 -2.5q2 -1 3.5 -2t3.5 -3l1 -1q3 -2 8 -2.5t7 -3.5q3 -5 10 -8l8.5 -5.5t7.5 -5.5q2 -1 4.5 -2.5t4.5 -3.5l1 -1l1 -1q-2 -2 -3 -2l-2 -2q4 0 3 -1q-6 -8 -10 -11q-5 -5 -9 -11q-1 -2 0 1t2 7q-3 -3 -4.5 -5.5t-2.5 -3.5q-4 -6 -11 -4l-3 -3
q-2 -2 -7.5 -6.5t-12.5 -9.5l-18 -13l5 5q5 5 7 8q2 5 8.5 10t9.5 10q0 1 1 1q-7 2 -8 1l-9.5 -10.5l-25 -27l-35 -37l-38.5 -42.5q10 6 22 12.5t22.5 11t19 5.5t12.5 -4q5 -5 8 -10.5t5 -10.5q4 -2 7 -5t4 -7q2 -5 1.5 -16t-2.5 -16v-1q0 -1 -1 -2q0 -3 -6 -13q0 -3 -1 -5
q-1 -3 -8 -11q0 -1 -1 -2q-1 -3 -5.5 -8t-6.5 -10zM-8 25v3q-1 -1 -1 -3h1zM-6 136q4 6 7 9q0 1 2 3zM188 223q0 8 -2 12q-2 6 -5 6q-1 0 -10.5 -4t-23 -10.5l-29.5 -14.5t-29 -17q-19 -22 -32 -43h-1h1l-1 -2q-1 -1 -1 -4l-1 -1q3 0 -1 -4q-2 -3 -8 -13.5l-13.5 -22.5
l-13.5 -22.5t-8 -13.5q-4 -6 -7 -11.5t-3 -10.5q-1 0 -1 -1q0 -2 -0.5 -4t-0.5 -6q-1 -3 -2 -2.5t-1 -4.5v-3q3 2 7 3.5t11 4.5t19 13.5l26.5 24l28.5 27.5t25 24q-2 1 -0.5 2.5t0.5 3.5q0 4 1 4.5t3 3.5t4 5t6 8q3 5 6.5 6t6.5 6q4 5 5.5 5t2.5 2t4.5 4.5l7.5 5.5
q3 7 9.5 14.5t8.5 9.5q1 2 5.5 9t5.5 11z" />
    <glyph glyph-name="c" unicode="c" horiz-adv-x="200" 
d="M204 118q2 3 6 8.5t8 10t6 6t1 -2.5q-4 -8 -11 -16.5l-26 -30.5q-3 -4 -17 -16t-32.5 -25.5t-38 -26t-32.5 -18.5q-27 -12 -53 -13.5t-38 6.5q-11 7 -17 18t-4 23q4 23 19 48l11.5 23t17.5 29q8 14 21.5 27l22.5 22q9 10 14 12.5t7 4.5q2 3 14 12.5t22 16.5q8 5 12 7t6 5
q-16 -8 -32.5 -19.5t-30.5 -22.5q-17 -13 -33 -27q33 33 63.5 54t39.5 26l1 2q0 1 1 2l-2 2l-1 1q-4 0 -4 4q-2 1 -1 2t2 1q0 1 5 -2.5t7 -3.5l1 -1l9 -3q8 -2 13 -5t7 -5q1 -1 4.5 -1.5t7 -2t6.5 -4t3 -7.5q1 -10 -3 -30t-24 -44l-5.5 -5.5t-6.5 -5.5l-2 -1q2 0 6 2
q2 1 4 1q-2 -2 -2.5 -3t-2.5 -2t-3 -2q-3 -4 -6.5 -4.5t-8.5 -5.5q-8 -6 -16 -6.5t-13 -2.5t-4.5 -1.5t-6.5 0.5q-7 -1 -6 0t-2 0t-4 -0.5t-3 0.5q-1 0 -0.5 0.5t1.5 0.5q20 12 33.5 22.5t16.5 14.5l14.5 12.5t13.5 14.5q5 6 4.5 13.5t-4.5 7.5q-3 0 -12.5 -7.5t-32.5 -22.5
q-13 -8 -26 -20.5t-24 -25.5l-26 -31l-6 -8q-2 -4 -5.5 -9t-6.5 -11q-11 -17 -16 -30q-5 -11 -4.5 -20.5t11.5 -11.5q17 -2 41.5 8t51 27t51 37t41.5 37q11 11 16 15.5t7 6.5q2 1 0 -1l-10 -18q-4 -6 -6 -10.5t1 -0.5zM101 31q11 7 25 17l26 19l28 22q-5 -3 -14 -9l-18 -12
t-16.5 -10.5t-9.5 -5.5z" />
    <glyph glyph-name="d" unicode="d" horiz-adv-x="255" 
d="M270 130q1 0 4.5 3t7.5 6l6 4.5t1 -0.5q-2 -4 -9.5 -11.5t-10.5 -12.5t-6 -5.5t-5 -3.5q-1 -2 -3 -4q3 0 -1 -6l-2 -2q-5 -7 -17 -20.5t-26.5 -28l-27.5 -27t-20 -18.5q-10 -10 -17 -10q-8 -5 -11 -2q-3 5 -12 8.5t-15 8.5l-12.5 10t-5.5 8l1 2q1 23 12.5 49t25.5 48
q16 26 36 50q-20 -27 -32.5 -48t-20 -37.5t-10.5 -28.5t-5 -19q8 15 17.5 39.5t18.5 39.5l33 51q3 4 4 6.5t-1 -0.5q-3 -4 -4.5 -2t-1.5 0l-17 -17.5l-38 -39.5t-40 -44t-25 -31q-12 -19 -21 -27t-14 -13q-4 -5 -8 -8t-6 -2q-2 2 -2.5 4t-2.5 4q-2 3 -1.5 4t-4.5 6t-8 8.5
t-8 8.5q-8 8 -8 14q0 1 3 14.5t12 35t26 49.5t45 60q17 19 33 33q14 12 28 21t24 6q19 -7 21.5 -7.5t2.5 -4.5q0 -3 2 -2.5t4 -1.5t6.5 -2.5t6.5 -2.5l2.5 -2.5l3.5 -3.5t5 -4q2 -2 5 -2q4 5 18 20.5l31.5 35.5l36.5 40.5l34 35.5l-36 -42l-30.5 -35t-23.5 -29q1 1 1.5 1
t-0.5 -1q0 -2 11.5 10.5l27 29.5l31.5 35t24 28l3 3l1 1l1 1l3 3q0 1 1 1q0 1 2 3l1 1l3 3l3 3q9 8 14.5 12.5t8.5 6.5q4 6 5 7q1 0 1 3q1 2 1.5 4t2.5 4q-2 2 -5 4t-5 3q-1 1 0 2q1 0 2 1l4 -2q2 -1 3.5 -1.5t3.5 -2.5q1 -1 2 -1.5t2 -1.5q2 -2 3 -2l1 -1q3 -2 7.5 -2.5
t6.5 -3.5q5 -5 11 -8l8.5 -5.5t7.5 -5.5q1 0 1 -0.5t1 -0.5q1 -1 1.5 -1t1.5 -1l3 -3q1 0 1 -1q1 0 2 -1l-4 -2l-2 -2q4 0 3 -1l-4 -6t-5 -5q-7 -5 -9 -11q-1 -2 -0.5 1t2.5 7q-7 -7 -7 -9q-3 -6 -12 -4q0 -2 -2 -2q-2 -2 -8 -7t-13 -10l-18 -13l5 5q5 5 7 8q3 5 9.5 10.5
t9.5 10.5q-6 2 -7 1q0 -1 -10 -11l-25.5 -26.5l-35 -38l-38.5 -43t-36 -43t-28 -37.5q1 0 3 1q3 0 3 -1q1 -2 3.5 -1.5t-0.5 -4.5q-2 -2 -10 -13.5l-17.5 -24.5l-18 -24.5t-10.5 -14.5t-5 -10l-6 -13.5l-5 -11t0 -4.5q4 1 5 -5q0 -2 5 1t12 8t13 10.5t8 7.5q1 2 13.5 15
l28 28l30.5 29t22 18h1q0 -2 -2 -5q-3 -4 -8 -8t-8 -9q-2 -3 0 -1.5t5 3.5t6 5t4 3zM174 212q6 9 0.5 8t-10.5 0t-7 0t-7 -1q-5 -1 -8 -3l-9 -6q-7 -5 -9.5 -7t-6.5 -6q-5 -4 -4.5 -2t0.5 7q0 4 -6 0q-3 -2 -6 -6q-5 -5 -18 -22l-28.5 -37.5t-29 -40.5t-17.5 -30
q-5 -11 -6 -15.5t0 -5.5t3 0.5t3 3.5q2 4 6 3t7 3q1 2 6.5 8.5l11.5 13.5l11.5 13.5t7.5 8.5q5 5 6.5 5.5t4.5 2.5q4 2 3 -2t4 2q2 3 18 20l34 36zM226 73q2 3 8 11l-13 -9.5t-7 -6.5t-6 -7.5t-11 -13l-13 -15.5t-13 -14q9 7 18.5 16.5l17 17.5l13 14t6.5 7z" />
    <glyph glyph-name="e" unicode="e" horiz-adv-x="180" 
d="M165 91q-3 -4 -16 -16t-30.5 -25.5t-35.5 -25.5t-31 -18q-26 -12 -46.5 -13.5t-33.5 5.5q-12 8 -19 19t-5 22q3 22 15 48q3 8 10 23t15 29t20 27t20 23q9 9 14 12t6 5t13 12t21 16q8 5 11.5 7.5t5.5 5.5q-15 -8 -30.5 -20l-29.5 -23q-16 -13 -31 -27q15 16 30.5 30t29 24
t23.5 16.5t14 9.5l2 2v1v1l-2 2q-1 0 -1 1q-1 1 -2.5 2t-2.5 2q-2 2 -1 3t2 1l6 -4q4 -3 7 -3h1l9 -3q9 -2 14 -5.5t7 -5.5q1 -1 4.5 -1.5t7 -2t6.5 -4t4 -7.5q2 -9 0 -29.5t-21 -44.5q-9 -12 -24.5 -23.5t-31 -21l-28.5 -17l-18 -10.5q-10 -5 -22 -9q-6 -2 -13 -3
q-9 -20 -13 -34q-4 -13 -3.5 -22t11.5 -7t33 13t46.5 27t48.5 34t39 35q11 11 14 14.5t4 2.5q0 -1 -2 -6q-1 -5 -2 -8q-2 -7 2 -2q4 7 6.5 8.5t-0.5 -6.5q-1 -4 -2.5 -6t-4 -5t-7.5 -8.5t-13 -16.5zM94 182q-11 -8 -23 -20.5t-23 -25.5l-24 -31q17 7 32 16t27 18l20 15.5
t11 9.5q5 6 13 13t12 14q5 6 3.5 13.5t-4.5 7.5t-12 -7t-32 -23zM82 30q11 6 24 16l24 19l27 22q-5 -3 -13 -9t-17 -11.5t-16 -10.5t-9 -6z" />
    <glyph glyph-name="f" unicode="f" horiz-adv-x="171" 
d="M324 375q2 0 3 -1v-1l-2 -2l-3 -3l-4 -6q-1 0 -1 -1l-4 -3l-3 -4q-1 -1 -1 -2q-1 -1 -1 0t2 7l-7 -8l-2 -2q0 -1 -1 -1q0 -1 -1 -1t-1 -1h-2h-4q-2 0 -2 -2l-1 -1q-1 0 -1 -0.5t-1 -0.5l-10 -8l-6 -4t-5 -4l-3 -3l-3 -2l-4 -3l-2 -1h1q0 1 0.5 1t0.5 1l3 3q2 2 4 6l1 1
q0 1 1 2q2 2 9 8l3.5 3.5l3.5 3.5q0 1 1 2h-2q-5 2 -6 1q0 -1 -5 -6l-13 -13q-4 -7 -9 -10q-2 -3 -4.5 -6t-5.5 -6l-31 -32l-14 -15l-21 -23q-7 -8 -14 -15t-14 -15l-17 -18q5 1 1.5 1t-1.5 0q4 0 7 1t7 0t4.5 -0.5t2.5 -3.5q2 -5 6 -6t6 -4q1 -2 2.5 -3.5t1.5 -4.5t1 -3
t-4 -2t-6.5 -1.5t-5.5 -2.5t-3 -3.5t-6 -1.5q-6 0 -13.5 -0.5t-21.5 0.5q-1 -11 -3 -24t-6 -23q-6 -17 -17 -39l-19 -39l-12 -23.5t-20 -30.5l-8 -13l-14 -19q-8 -11 -12.5 -15.5t-6.5 -7.5l-4 -4l-12 -12l-8 -9l-3.5 -3.5l-3.5 -3.5l-31 -31.5t-22 -20.5q-11 -10 -17 -10
q-9 -6 -11 -2q-3 5 -7.5 8.5t-9.5 8.5q-3 3 -9 7q0 1 -0.5 1t-0.5 1l-4 3l-2 2q-2 2 -2 3v1v2q0 2 0.5 2.5t0.5 2.5q2 21 13 43.5t24 42t25 34t17 19.5l3 4l3 4l4 5q0 1 0.5 1.5t0.5 1.5q0 2 -1 1q0 -1 -0.5 -1t-0.5 -1h-1l-1 -1q-14 -16 -29.5 -36.5l-27.5 -37.5l-11 -17
q-3 -4 -4.5 -6.5t-3.5 -4.5q-2 -3 -3 -5l19 31.5l20 31.5l18.5 28l14.5 22q2 2 2 4l4 6q0 2 1 2q1 3 5 7v2v3v1l1 1q0 1 1 2l1 1q1 1 3.5 2.5t3.5 3.5v1l1 1l7 8l3 3l3 4q1 2 2 2.5t3 2.5q0 1 2 3l26 29l33 36l3 4q-3 0 -3.5 0.5t-5.5 -0.5q-6 -1 -10.5 4.5t-2.5 13.5
q1 2 3 4q1 1 1 2h1q1 0 2 -0.5t3 -0.5q3 0 4 1q1 0 1 1t2 1q3 -1 8 0t7 1h3.5t6.5 -1q1 1 5 1l23 26l18 20l19 20.5t17 19.5l9 9q8 10 16 18t15 16l33 36q-5 -4 -9 -9l-9 -11l-11 -13l-76 -86l-40 -45q2 0 3 1l14 15l28 30l36 40l8 9l39 43l10 11l9 11q1 2 5 6l12 12
q3 4 7 7l6 6l8 7l7 5q1 2 2 2.5t2 1.5l6 5q2 2 3.5 3t2.5 3q0 1 1 3v1v2l3 6q-1 0 -1 0.5t-1 0.5l-7 5h-1l-1 1v1l3 2h1q1 0 2 -1t3 -2l5 -3h1q0 -1 2 -3l1 -1q2 -2 3 -2h2q2 -2 4 -2q1 -1 3 -1l6 -2q0 -1 1 -1q2 -3 10 -9l1 -1l5 -3l6 -4t5 -2l5 -4l2 -2h1v-1h1l1 -1l-3 -3
q-1 0 -1 -0.5t-1 -0.5zM-84 -117l2 3q0 1 3 4q0 2 2 2l4 4l5 5q13 15 28 35l28.5 38.5l24 34t14.5 22.5l12 21.5t15.5 29.5l13.5 28t8 18l2 10l-9 -10l-22 -24l-43 -49l-3 -4q-4 -4 -10 -12q-5 -5 -9.5 -10.5l-8.5 -10.5q-9 -10 -12 -16l-6 -7q-5 -5 -6 -9q2 0 3 1q2 0 3 -1
v-1q1 -1 2.5 -0.5t1.5 -0.5l-2 -4q-2 -2 -7 -8.5t-12 -16.5l-5 -7l-4 -5l-7 -11l-13 -18q-3 -4 -4.5 -6.5t-2.5 -4.5q-4 -4 -7 -12l-2 -4q-4 -8 -7 -15t-1 -8h1q3 2 8.5 8.5t5.5 2.5q0 -3 5 0l3 2l4 3zM120 186q2 -1 4 -1q1 0 1 -0.5t-4 -0.5l-9 -9h3q4 2 3.5 2.5t4.5 1.5
q6 0 10 -1t6 1q2 1 5 4.5t-3 2.5t-12 0t-9 0zM31 155q-1 1 -2 1l-4 -4l-3 -3l-13 -15l-4 -5q-2 -1 -2.5 -2t-1.5 -2l-6 -7l-3 -4l8 8l2 3l24 25zM-31 90q1 0 2 1l2 2q0 1 1 2zM99 188h-12h8h4zM251 314l1 1l2 2q0 -2 -2 -2z" />
    <glyph glyph-name="g" unicode="g" horiz-adv-x="236" 
d="M250 119q-3 -5 -6.5 -6t-5.5 -4l-2 -4q4 2 -1 -6l-2 -2q-5 -7 -17.5 -20.5l-26.5 -28t-27.5 -27t-19.5 -18.5q-11 -10 -18 -10q-8 -5 -11 -2q-2 5 -6.5 8t-10.5 9l-9 7l-7 -9q9 4 9 1q0 -2 -3 -5.5t-7 -7.5t-9 -10v-1q-1 -1 -2 -2.5t-3 -3.5l-6 -6q9 -2 22.5 -2.5
t32.5 -2.5q17 -3 36.5 -5.5t35.5 -5.5q-10 1 -21 3q-10 2 -22 2.5t-26 2.5q4 0 6 -1q25 -2 54.5 -8.5t48.5 -15.5l1 -1q0 -1 1 -1q2 0 -1.5 -9t-1.5 -13q0 -3 3 -4v-5q-1 -2 -2 -3l-1 -1v-1q1 0 -1 -1l1 -1q0 -1 -0.5 -2.5t-2.5 -0.5q-3 -2 -3 2q-2 1 0 3l-2 1h-2
q-1 1 -3 1.5t-2 1.5q-1 0 -4 1t-5 1q-2 3 -9 3l-1 1q0 1 -4 1.5t-9 2.5q0 -1 -2 -1t-5 1t-8 3q-4 1 -6.5 1h-4.5q-3 1 -21.5 5.5t-35.5 6.5q-7 2 -14 3t-12 2q-4 1 -8 1q-7 1 -4 1t0 2h1q1 0 3 -1l-33 2l-28.5 -33t-24.5 -24q0 -1 -0.5 -1t-0.5 -1q-5 -6 -16.5 -15
t-25.5 -17t-28 -14t-24 -6q-10 2 -16 7h-1q-4 0 -7.5 2.5t-5.5 4.5t-6.5 8t-5.5 11t-2.5 7t-3.5 6q-2 2 -2 5v2l4 -2q4 -2 6 -2q1 0 5 -2q1 9 5 21.5t9.5 24t13 20.5t17.5 13q14 5 45 11t67 6q26 28 48.5 56l44.5 55q9 18 20 34.5t22 29.5q11 15 24 28q-16 -21 -28 -38.5
t-20 -31.5l25 30l15 23.5t9 12.5l7 15q0 1 -0.5 1t-0.5 1q-4 -3 -10 -6t-7 -5q0 -1 -16.5 -18l-37.5 -39.5l-40.5 -44.5t-25.5 -31q-12 -19 -21 -27t-14 -13q-8 -12 -14 -10q-2 2 -2.5 4t-2.5 4q-2 3 -1.5 4t-4.5 6t-8 8.5t-8 8.5q-8 8 -8 14q0 1 3 14.5t12 35.5t26 50
t45 60q18 19 34 33q14 12 28 21t24 6q19 -7 21.5 -8t2.5 -4t2 -2.5t4 -1.5t6 -2.5t6 -2.5q1 -1 3 -2.5t4 -3.5q3 -2 5 -4q0 -2 5 -2l-2 -2h1l2 1q3 1 6 6q2 2 3.5 4t2.5 4l1 1q1 1 2 1l-1 2q-2 2 -3.5 5t0.5 2q2 0 4.5 -1.5t5.5 -2.5h1q7 -2 7 -5q1 -2 3.5 -2.5t4.5 -2.5
l3 -3t3 -2t2.5 -0.5t6.5 -1.5t6.5 -2t3.5 -2q2 -1 2 -1.5t1 -1.5q0 -2 -1 -3q-1 -2 -0.5 -2t-0.5 -1q1 -2 0 -3q-2 -4 -2 -5l-3.5 -4.5l-7.5 -10l-7.5 -10t-3.5 -5.5q-1 -1 -6.5 -7.5l-9.5 -11.5l12.5 20t7.5 15l-1 1l-6 -7q0 -2 2 -2l-15.5 -20.5t-12.5 -17.5q2 1 3 1
q2 0 3 -1q0 -3 3 -2t-1 -4q-2 -3 -10 -14l-17.5 -24.5l-17.5 -25l-10 -14.5t-5.5 -10l-6.5 -13.5t-4.5 -11t0.5 -4.5q3 2 8.5 8.5t5.5 2.5q1 -4 8 1t10 10q1 2 13.5 15t28.5 28l31 29t21 18h1q0 -1 0.5 -2t-1.5 -3q-4 -4 -8.5 -8t-7.5 -9q-2 -2 0 -1t5 3.5l6 5t4 2.5t4.5 3
t7.5 6t6 5t1 0q-3 -5 -10 -12t-10 -12zM164 212q7 8 1.5 7.5t-10.5 0.5t-7 0t-8 -1q-5 -1 -7.5 -3t-9.5 -7q-6 -4 -8.5 -6.5t-7.5 -5.5q-4 -4 -3.5 -2.5t0.5 6.5q0 2 -2.5 2t-4.5 -2q-3 -2 -6 -6q-5 -5 -18 -22l-28.5 -37.5l-29 -40t-17.5 -30.5q-5 -11 -6 -15.5t-0.5 -5.5
t2.5 0.5t4 3.5q2 4 6 3t7 3l37 45q5 4 6.5 4.5t4.5 2.5q2 1 2.5 0.5t0.5 -2t0.5 -1.5t3.5 3t18.5 20l33.5 36zM-115 -125q11 -3 34.5 16.5t53.5 51.5q-22 -3 -44 -9q-10 -2 -19 -5q-8 -3 -14.5 -7t-8.5 -10q-5 -12 -4.5 -22.5t2.5 -14.5zM202 163l-2 -2zM118 -67
q11 -4 26.5 -7.5l29.5 -6.5q16 -4 33 -6q-6 1 -15.5 3.5t-19 5.5l-17.5 5.5t-10 2.5h-6t-9 1z" />
    <glyph glyph-name="h" unicode="h" horiz-adv-x="233" 
d="M224 99l-2 -1q-5 -7 -17.5 -20.5l-26.5 -28t-27.5 -27t-19.5 -18.5q-10 -10 -17 -10q-8 -5 -11 -2q-3 5 -7 8.5l-10 8.5l-12.5 10t-5.5 8l1 2q1 24 14.5 50.5t28.5 48.5q5 10 7 13l3 4.5t2 3.5t3 4t4 5q7 5 8 9q3 3 7 9q3 5 6.5 8.5l5.5 5.5h1q5 3 10 7.5t8 7.5l6 6
q-3 -2 -5.5 -3.5t-4.5 -2.5l-1 -1q-3 -2 -7.5 -6t-8.5 -8t-7 -7.5t-7 -7.5q-4 -3 -7 -6q0 -2 -5 -7q-9 -11 -17 -23l-15 -23q-8 -12 -14 -24l16 31t15.5 25.5t21 27l31.5 36.5l-6 -4t-7 -4l-18 -11.5l-22 -14.5q-42 -29 -73.5 -63.5t-46.5 -53.5q-5 -9 -9 -19t-2 -12
q-1 0 -1 -2q-3 -5 -3 -9q0 -2 -1 -5.5t0 -5.5t0 -4t0 -4q0 -1 -1.5 -2t-0.5 -2q4 -2 5 -4t2.5 -3t-0.5 -3t-4 0l-4 4q-1 0 -2 1q-1 0 -2 1q0 1 -1 1q-1 1 -3 2t-2 0.5t-5 2.5t-5 3.5t-2 3.5q-2 2 -2 3.5t-2 4.5q-5 5 -9.5 8.5t-3.5 5.5l1 2q1 21 11.5 44.5t24 43.5t26 35.5
t17.5 20.5q3 3 5.5 6.5l4.5 6.5q2 5 0 4q0 -2 -3 -3q-13 -14 -27 -32.5t-25 -35.5l-26 -39q10 18 22.5 38l24 37.5l20 30.5t10.5 17q2 3 3.5 5t3.5 4v2q0 4 2 8q1 1 3.5 2.5t3.5 3.5l1 1v1q4 4 18 20l31.5 36l36.5 40.5l33 35.5q-16 -20 -32 -38l-28 -33.5t-25 -28.5
q-2 -2 -4 -3l-2 -2l-1 -1q0 -2 11.5 10.5l27 29.5l31.5 35t24 28q16 19 26.5 26.5t13.5 11.5l5 5t2 5q1 2 3 8q-2 2 -4.5 4t-4.5 3q-1 1 0 2q1 0 2 1l4 -2q2 -1 3.5 -1.5t3.5 -2.5q1 -1 7 -5q0 -1 1 -1q3 -2 7.5 -2.5t6.5 -3.5q5 -5 11 -8l8.5 -5.5t7.5 -5.5q2 -1 4 -2.5
t4 -3.5q1 0 1 -1q1 0 1 -0.5t1 -0.5q-2 -2 -4 -2l-2 -2q4 0 3 -1l-4 -6t-5 -5q-7 -5 -9 -11q-1 -2 1 8q-6 -8 -7 -9q-2 -6 -11 -4q0 -1 -2 -3t-8 -6.5l-13 -9.5l-18 -13l5 5q5 5 7 8q3 5 9.5 10t9.5 10v1q-6 2 -7 1q0 -1 -19.5 -21l-46.5 -49l-55 -62t-46 -58q44 36 78.5 57
t57.5 32q31 14 38 14h3q1 0 1 -0.5t1 -0.5q5 -1 13 -6q8 -2 10.5 -3t4.5 -3q2 -3 4 -3t4 -2t2.5 -8t-3.5 -10t-5.5 -5t-6.5 -5q-3 -2 -6 -5q-1 -2 -2 -2.5t-2 -1.5q-4 -5 -12 -11t-16 -14q-5 -5 -13.5 -15.5l-15.5 -18.5q0 -2 -1 -4q-2 -2 -10 -13.5t-18 -24.5t-18 -24.5
l-10 -14.5t-5.5 -10l-6.5 -13.5t-4.5 -11t0.5 -4.5q3 1 8.5 8t6.5 3q0 -4 7 1t10 10l14.5 15l28 28l30.5 29t21 18h1q0 -1 0.5 -2t-1.5 -3q-3 -4 -8 -8t-8 -9q-2 -3 0 -1.5t5 3.5t6 5t4 3t4.5 3t7.5 6l6 4.5t1 -0.5q-3 -4 -10 -11.5t-10 -12.5t-6.5 -5.5t-5.5 -3.5
q0 -2 -2 -4q3 0 -1 -6v-1zM348 298q0 -1 -0.5 -1t-0.5 -1q0 1 -1 2h2z" />
    <glyph glyph-name="i" unicode="i" horiz-adv-x="130" 
d="M-61 27l1 2q1 24 14 50.5t29 48.5q5 10 7 13l3 4.5t2 3.5t3 4t4 5l4.5 4.5t3.5 4.5q3 3 7 9q7 10 12 14h1q5 3 10 7.5t8 7.5l6 6q-3 -2 -5.5 -3.5t-4.5 -2.5l-1 -1q-3 -2 -7.5 -6t-8.5 -8t-7 -7.5t-7 -7.5q-4 -3 -7 -6q-1 -1 -2 -3t-3 -4q-3 -4 -2.5 -3t-2.5 -3l-2 -2
l2 4q1 2 2 3.5t1 3.5l9 11l8.5 10.5l11 13l17.5 19.5q0 1 2 1q4 5 10 10t11 10l10.5 8.5t5.5 5.5l2 2l3 6q-3 5 -10 7q-2 1 0 3q1 1 3 1q1 -1 3 -2t3.5 -2t3.5 -2q2 -2 4 -3h2h3q1 0 1 -0.5t1 -0.5q7 -2 13 -6q8 -2 10.5 -3t4.5 -3q2 -3 4 -3t4 -2q1 -2 1.5 -8t-3.5 -10
l-5 -5t-6 -5q-3 -2 -6 -5l-4 -4q-4 -5 -12 -11t-16 -14q-5 -5 -14 -15.5t-15 -18.5q0 -2 -2 -4t-10 -13.5l-17.5 -24.5l-17.5 -24.5l-10 -14.5t-5.5 -10l-6.5 -13.5t-4.5 -11t0.5 -4.5q3 1 10 6t8 1q0 -2 6 1.5t13 8.5t13.5 10.5t8.5 7.5t13.5 12.5t26 22.5l28.5 23t20 15h1
q0 -1 0.5 -2t-1.5 -3q-4 -4 -2 -3.5t-1 -4.5t-1.5 -2.5t3.5 3.5q1 0 4.5 3t7.5 6l6 4.5t1 -0.5q-3 -4 -10 -11.5t-10 -12.5t-6.5 -5.5t-5.5 -3.5l-2 -4q3 0 -1 -6v-1l-2 -1l-27 -21.5l-34 -27l-31.5 -25t-19.5 -16.5q-10 -10 -17 -10q-9 -6 -11 -2q-3 5 -7 8.5l-10 8.5
l-12.5 10t-5.5 8zM156 315q1 1 -3 -1q-3 -2 -10.5 -5t-21.5 -11v2q4 4 8.5 7.5t8.5 7.5q6 6 10.5 9.5t5.5 5.5q2 2 3 2t4 5v1l7 2h3q1 -1 2 -1q5 -1 13 -6q8 -2 10.5 -3t4.5 -3q2 -3 4 -3t4 -2q2 -3 2.5 -8.5t-3.5 -9.5t-5.5 -5t-6.5 -6q-3 -1 -6 -4q-1 -2 -2 -2.5t-1 -1.5
q-5 -5 -13 -11t-16 -14q0 -1 -2 -3q-13 -4 -17 2q-5 5 -5 11t-8 14q-1 1 -1 1.5t-1 1.5q2 2 4.5 3.5t4.5 3.5q2 1 5.5 4.5l7.5 7.5t10 9z" />
    <glyph glyph-name="j" unicode="j" horiz-adv-x="109" 
d="M125 130q1 0 4.5 3l7 6t6 4.5t1.5 -0.5q-3 -4 -10 -11.5t-10 -12.5t-6.5 -5.5t-5.5 -3.5l-2 -4q3 0 -1 -6v-1l-2 -1q-5 -7 -17.5 -20.5l-26.5 -28t-27.5 -27t-19.5 -18.5q-10 -10 -17 -10q-4 -2 -15.5 -3t-12.5 1q-3 5 -7 8.5l-10 8.5q-6 4 -8 7l-8 -10q9 4 9 1
q0 -2 -3 -5.5t-7 -7.5t-9 -10l-3 -3q-2 -2 -4 -4.5t-4 -4.5l-5 -6l51 -6q17 -3 36.5 -5.5t35.5 -5.5q-9 1 -20 3q-9 2 -21.5 2.5t-25.5 2.5q2 0 3.5 -0.5t3.5 -0.5q25 -2 53.5 -7.5t47.5 -13.5l1 -1q0 -1 1 -1q2 0 2 -2t2 -6q0 -3 3 -4v-5q-1 -2 -2 -3l-1 -1v-1q1 0 -1 -1
l1 -1q0 -1 -0.5 -2.5t-2.5 -0.5q-3 -2 -3 2q-2 1 0 3l-2 1h-2q-1 1 -3 1.5t-2 1.5q-1 0 -4 1t-5 1q-2 3 -9 3l-1 1l-8 2h-2q-1 0 -4.5 1t-8.5 3q-5 1 -9.5 1.5t-6.5 0.5q-3 1 -21 2t-35 3q-7 2 -13.5 2t-11.5 1q-4 1 -8 1q-7 1 -4 1t0 2q-1 0 -0.5 0.5t2.5 0.5q1 0 3 1
l-27 3l-32.5 -36t-28.5 -27q0 -1 -0.5 -1t-0.5 -1q-6 -6 -17.5 -15t-25 -17t-27.5 -14t-24 -6q-10 2 -16 7h-1q-4 0 -7.5 2.5t-5.5 4.5t-6.5 8t-5.5 11t-2.5 7t-3.5 6q-2 2 -2 5v2l4 -2q4 -2 6 -2q1 0 5 -2q1 9 5 21.5t9.5 24t13 20.5t17.5 13q14 5 40 8.5t61 3.5l42.5 50.5
l40 50.5l33.5 44l24 32l3 5q0 3 5 6q0 1 0.5 1t0.5 1l1 1h1q6 6 7 9l7 9q7 10 12 14h1q5 3 10 7.5t8 7.5l6 6q-3 -2 -6 -3.5l-5 -2.5v-1q-3 -2 -7.5 -6t-8.5 -8l-14 -15q-6 -5 -7 -6l-5 -7l-5 -6l-2 -2l2 4q1 2 2 3.5t1 3.5l9 11l8.5 10.5l11 13l17.5 19.5q0 1 2 1
q4 5 10 10t11 10l10.5 8.5t5.5 5.5l2 2l3 6q-3 5 -10 7q-2 1 0 3q1 1 3 1q1 -1 3 -2t3.5 -2t3.5 -2l4 -3h5q1 0 1 -1q7 -2 14 -6q8 -2 10.5 -3t4.5 -3q2 -3 4 -3t4 -2q1 -2 1.5 -8t-3.5 -10l-5 -5t-7 -5l-9 -9q-4 -5 -12 -11t-16 -14q-5 -5 -14 -15.5t-15 -18.5q0 -2 -2 -4
t-10 -13.5l-17.5 -24.5l-17.5 -24.5l-10 -14.5t-5.5 -10l-6.5 -13.5t-4.5 -11t0.5 -4.5q3 1 6 0.5t4 -4.5q0 -2 5.5 1t12.5 8t13 10t8 7l14.5 15l28 28l30.5 29t21 18h1q0 -1 0.5 -2t-1.5 -3q-4 -4 -8.5 -8t-7.5 -9q-2 -3 0 -1.5t5 3.5t6 5t4 3zM153 315q1 1 -3 -1
q-3 -2 -10.5 -5t-21.5 -11v2l17 15q6 6 10.5 9.5t5.5 5.5q2 2 3 2t4 5v1l7 2h3q1 -1 2 -1q5 -1 13 -6q8 -2 10.5 -3t4.5 -3q2 -3 4 -3t4 -2q2 -3 2 -8.5t-4 -9.5l-5 -5l-6 -6q-3 -1 -6 -4l-4 -4q-4 -5 -12 -11t-16 -14q0 -1 -2 -3q-13 -4 -17 2q-5 5 -5 11t-8 14l-2 3l8 7
q2 1 6 4.5t8 7.5t10 9zM-257 -125q11 -3 33 16t51 51q-10 -2 -20 -3.5t-20 -4.5q-10 -2 -19 -5q-8 -3 -14.5 -7t-8.5 -10q-5 -12 -4.5 -22.5t2.5 -14.5z" />
    <glyph glyph-name="k" unicode="k" horiz-adv-x="241" 
d="M220 -61q2 0 4 1t2 -1q0 -5 -7 -7h-2l-2 -2h-1q-1 -1 -1.5 -1t-1.5 -1q-2 -2 -1.5 -2t-3.5 -3q-5 -2 -5.5 -2t-4.5 -2q-4 0 -5 0.5t-4 -0.5q-7 -2 -12 -4.5t-7 -0.5l-1 2q-24 12 -43.5 39.5t-31.5 53.5h-3l13.5 -24.5l11.5 -20.5q6 -11 11 -19q-11 15 -21.5 32l-20.5 34
l-16 27t-5 9q-3 3 -4 5.5t-2 3.5t-2 1q-4 3 -5 6q-1 2 -1 5t-2 4l-1 1h-1q0 1 1 1q-2 3 1.5 15t0.5 22q0 3 2 5l22.5 11.5t20.5 11.5l13 7.5t12 7.5q35 23 50 40t19 23h-2q-2 -2 -10 -4q-6 -2 -8 -3t-3 -1q1 1 1 2q-2 -2 -5 -3.5l-7 -3.5l-17.5 -11.5l-21.5 -14.5
q-13 -9 -26 -20q-23 -18 -40 -35q2 -2 0 -2v1q-1 -1 -1.5 -1t-1.5 -1q-17 -18 -30 -33.5t-21 -26.5q-5 -8 -9.5 -18t-2.5 -12l-1 -2q-2 -6 -2 -9q0 -2 -1.5 -5.5t-0.5 -5.5t0.5 -4t-0.5 -4q1 -1 -0.5 -2t-0.5 -2t2 -1.5t3 -2.5q3 -5 2 -6q-2 -2 -4.5 0t-4.5 4q-1 0 -1 0.5
t-1 0.5l-2 1v1q-1 1 -1.5 1t-1.5 1q-3 1 -2.5 0.5t-4.5 2.5t-5 3.5t-3 3.5q-2 2 -2 3.5t-1 4.5q-5 5 -9.5 8.5t-3.5 5.5v2q1 21 11.5 44.5t24 43.5t26 35.5t17.5 20.5q3 3 5.5 6.5t5.5 6.5q2 6 0 4l-3 -3q-13 -14 -27 -32.5t-25 -35.5q-14 -19 -27 -39q10 18 23.5 38
l26.5 37.5l22.5 30t11.5 16.5q3 6 6 9v2q0 4 3 8q1 1 3.5 2.5t3.5 3.5h-1l1 1v1h1q4 4 16.5 20l29 36.5l34.5 41t33 35.5q-16 -20 -32 -38l-28 -33.5t-25 -28.5q-1 0 -4 -2.5t-3 -3.5q-1 -2 10.5 10.5l27.5 29.5l32 35t24 28q16 19 26 26.5t14 11.5t4.5 5l2.5 5q0 2 1 4l2 4
q-2 2 -5 4t-5 3q-1 1 0 2q1 0 3 1q1 -1 3 -2t3.5 -1.5t3.5 -2.5q2 -1 3.5 -2t3.5 -3l1 -1q3 -2 8 -2.5t7 -3.5q3 -5 10 -8l8.5 -5.5t7.5 -5.5q2 -1 4.5 -2.5t4.5 -3.5l1 -1l1 -1q-2 -2 -3 -2l-2 -2q4 0 3 -1q-6 -8 -10 -11q-5 -5 -9 -11q-1 -2 0 1t2 7q-3 -3 -4.5 -5.5
t-2.5 -3.5q-4 -6 -11 -4l-3 -3q-2 -2 -7.5 -6.5t-12.5 -9.5l-18 -13l5 5q5 5 7 8q2 5 8.5 10t9.5 10v1q-6 2 -7 1q0 -1 -19.5 -21l-46 -49l-54.5 -62t-46 -58q13 12 29 23q49 37 82 54v1q1 3 7 5.5t9 4.5t10.5 4.5t11.5 4.5t13 5t12 1h3l1 -1q7 -2 14 -6q7 -2 10 -3t5 -3
q2 -3 3.5 -3t3.5 -2q2 -4 2 -8l-1 -3q-1 -2 -1.5 -6.5t-2.5 -11.5q-2 -8 -24.5 -28.5t-51.5 -39.5q-1 0 -1 -0.5t-1 -0.5q-12 -8 -25.5 -15t-26.5 -13l-24 -11t-17 -7h-2q4 -8 5.5 -12.5l2.5 -7.5t2.5 -5.5t4.5 -8.5v3q0 3 2 3q4 -2 4.5 1t3.5 -2l4 -8q2 -5 5 -10.5l7 -12.5
l18 -32.5t11 -20.5q2 -3 6 -8.5t8.5 -11t8 -9t4.5 -3.5q1 -1 2 -1q4 -6 7 -7q2 0 4 -3t4 -3t4 -1.5t4 -1.5q1 -1 1 -2.5t2 -1.5q1 3 6 3zM121 31q2 -4 6.5 -11.5t7.5 -11.5q2 -3 7 -11.5t7 -10.5t5.5 -6t5.5 -7t2.5 -6t2.5 -3q1 -1 4 -1.5t1 2.5q-2 4 -4 7t-4 5l-4.5 6.5
l-11 16l-14 20.5t-14.5 20l1 -2v-1z" />
    <glyph glyph-name="l" unicode="l" horiz-adv-x="102" 
d="M109 130q1 0 4.5 3l7 6t6 4.5t1.5 -0.5q-3 -4 -10 -11.5t-11 -12.5q-3 -5 -6 -5.5t-5 -3.5l-2 -4q3 0 -2 -6v-1l-1 -1q-5 -7 -17.5 -20.5l-26.5 -28t-27.5 -27t-19.5 -18.5q-11 -10 -18 -10q-8 -5 -11 -2q-2 5 -6.5 8.5l-10.5 8.5l-12.5 10t-5.5 8q1 0 1 2
q1 21 11.5 44.5t24 43.5t26 35.5t17.5 20.5q3 3 5.5 6.5l4.5 6.5q2 2 2 3.5t-1 0.5l-3 -3q-13 -14 -27 -32.5t-25 -35.5q-14 -19 -27 -39q10 18 22.5 38l24.5 37.5l20.5 30.5t10.5 17q3 6 6 9v2q0 4 3 8q1 1 3.5 2.5t3.5 3.5h-1l1 1v1h1q4 4 17.5 20l31.5 36l36.5 40.5
t33.5 35.5q-16 -20 -32 -38l-28.5 -33.5t-24.5 -28.5q-1 0 -4 -2.5t-4 -3.5q0 -2 11.5 10.5l27.5 29.5l32 35t24 28q16 19 26 26.5t14 11.5t4.5 5l2.5 5q0 3 3 8q-2 2 -5 4t-5 3q-1 1 0 2q1 0 3 1q1 -1 3 -2t3.5 -1.5t3.5 -2.5q2 -1 3.5 -2t3.5 -3q0 -1 1 -1q3 -2 8 -2.5
t7 -3.5q3 -5 10 -8l8.5 -5.5t7.5 -5.5q2 -1 4.5 -2.5t4.5 -3.5l1 -1l1 -1q-2 -2 -3 -2l-2 -2q3 0 2 -1q-3 -7 -9 -11q-3 -2 -5 -5.5t-4 -5.5q-1 -2 -0.5 1t2.5 7q-3 -3 -4.5 -5.5t-2.5 -3.5q-4 -6 -11 -4l-3 -3q-2 -2 -7.5 -6.5t-12.5 -9.5l-18 -13q1 2 4 5l4 4l4 4
q2 5 8.5 10t9.5 10v1q-6 2 -7 1q0 -1 -21 -23l-49.5 -52.5l-57.5 -64.5t-45 -59q1 0 3 1q3 0 3 -1q1 -2 4 -1.5t-1 -4.5q-2 -2 -10 -13.5l-17.5 -24.5l-18 -24.5t-10.5 -14.5t-5 -10l-6 -13.5l-5 -11t0 -4.5t4.5 2.5l5 5l4 4t1.5 -0.5q1 -4 8 1t10 10q1 2 13.5 15l28 28
l30.5 29t22 18h1q0 -2 -2 -5q-3 -4 -7.5 -8t-8.5 -9q-2 -3 0 -1.5t5 3.5t6.5 5t4.5 3z" />
    <glyph glyph-name="m" unicode="m" horiz-adv-x="397" 
d="M408 119q-3 -5 -6.5 -5.5t-5.5 -3.5q0 -2 -2 -4q3 0 -1 -6v-1l-2 -1q-8 -8 -24 -21.5l-33 -28l-32 -27t-20 -17.5q-10 -10 -17 -10q-8 -5 -11 -2q-3 5 -7 8.5l-10 8.5l-12.5 10t-5.5 8l1 2q1 24 14.5 50.5t28.5 48.5q5 10 7 13l3 4.5t2 3.5t3 4t4 5q7 5 8 9q3 3 7 9
q3 5 6.5 8.5l5.5 5.5h1q5 3 10 7.5t8 7.5l6 6q-3 -2 -5.5 -3.5t-4.5 -2.5l-1 -1q-3 -2 -7.5 -6t-8.5 -8t-7 -7.5t-7 -7.5q-4 -3 -7 -6q0 -2 -5 -7q-9 -11 -17 -23l-15 -23q-8 -12 -14 -24l16 31t15.5 25.5t21 27l31.5 36.5l-6 -4t-7 -4l-18 -11.5l-22 -14.5
q-37 -26 -67.5 -54t-47.5 -46q-5 -8 -6 -9q-1 -2 -2 -3t-2 -3q0 -1 -1 -2q0 -1 -1 -2v-1q-1 -1 -1 -2q-1 -1 -1 -2l-1 -1q0 -1 -1 -2v-1l-1 -2q-1 -1 -1 -2v-1q-1 -1 -1 -2q-1 -1 -1 -2v-1l-2 -4q0 -1 -0.5 -1.5t-0.5 -1.5v-3l-1 -2q-2 -6 -2 -9q0 -2 -1.5 -5.5t-0.5 -5.5
t0.5 -4t-0.5 -4q1 -1 -0.5 -2t-0.5 -2t2 -1.5t2 -1.5l1 -1q1 -2 2.5 -3t-0.5 -3t-4.5 0t-4.5 4l-2 1l-1 1h-1v1q-1 1 -1.5 1t-1.5 1q-3 1 -2.5 0.5t-4.5 2.5t-5 3.5t-2 3.5q-3 2 -2.5 3.5t-1.5 4.5q-3 2 -5 3.5t-4 3.5l-1 1v1h-1v1q-1 0 -1 1h-1v1v1v1v2q0 2 0.5 2.5
t0.5 2.5v1v5q1 0 1 1q0 3 1 5q0 2 0.5 3t0.5 3q1 2 1 3t1 3v1q1 2 1 2.5t1 2.5v1q2 2 2 4q0 1 1 1q0 2 2 6q6 14 14.5 27.5t16.5 24.5q2 5 3.5 8t3.5 5l3 4.5t1 3.5q1 2 3.5 4t4.5 5q6 6 8 9q1 1 3 4t4 5q7 10 12 14h1q4 3 9 7.5t8 7.5q3 1 6 6q-2 -2 -5 -3.5l-5 -2.5l-1 -1
q-3 -2 -7 -6l-8 -8l-7.5 -7.5t-6.5 -7.5q-6 -5 -7 -6t-5 -7q-9 -11 -17 -23l-15 -23q-8 -12 -14 -24l15.5 31t15.5 25.5t21 27l31 36.5q-2 -2 -5.5 -4t-7.5 -4l-17.5 -11.5l-21.5 -14.5q-29 -20 -52.5 -42.5t-40.5 -42.5q-20 -23 -37 -46v2q-3 -7 -5 -12.5t-1 -6.5l-1 -2
q-3 -5 -3 -9q0 -2 -1 -5.5t0 -5.5t0.5 -4t-0.5 -4q1 -1 -0.5 -2t-0.5 -2t2 -1.5t2 -2.5q4 -5 3 -6q-2 -2 -4.5 0t-4.5 4q-1 0 -1 0.5t-1 0.5t-1 0.5t-1 0.5v1q-1 1 -1.5 1t-1.5 1q-3 1 -2.5 0.5t-4.5 2.5t-5.5 3.5t-2.5 3.5q-2 2 -2 3.5t-1 4.5h-1q-5 5 -9 8.5t-3 5.5v2
q1 21 11.5 44.5t24 43.5t26 35.5t17.5 20.5q3 3 5.5 6.5l4.5 6.5q2 2 2 3.5t-1 0.5l-3 -3q-13 -14 -27 -32.5t-25 -35.5q-14 -19 -27 -39q10 18 23 38l24.5 37.5l20 30.5t10.5 17q3 6 6 9v2q0 4 3 8q1 1 3.5 2.5t3.5 3.5h-1l1 1v1h1l1 1v1q1 1 1.5 1t1.5 1q2 2 4 4.5l5 6.5
q3 5 5 6q4 4 4.5 5l2.5 5q0 5 3 8q-3 5 -10 7q-1 1 0 2q1 0 3 1q1 0 3 -1t3.5 -2t3.5 -2v-1q1 0 1.5 -1t2.5 -2q1 0 3 -2h1v-1q3 -2 8 -2.5t7 -2.5q3 -5 10 -9q3 -2 8 -5t7 -5q1 0 1 -1q2 -1 4.5 -2.5t4.5 -3.5l1 -1l1 -1q-1 0 -3 -2q-1 -1 -2 -1q4 0 2 -2q-3 -7 -9 -11
q-3 -2 -5 -5t-4 -5q-1 -2 -0.5 0.5t2.5 6.5q-5 -5 -7 -9q-3 -4 -11 -4q-1 -1 -1.5 -1t-1.5 -1q-2 -2 -9 -7.5l-15 -11.5q-5 -8 -10 -14.5l-10 -13.5q48 40 84.5 63t60.5 34q17 8 27 11t12 3h3q1 0 1 -1q7 -2 14 -6q7 -2 10 -3t5 -3q2 -3 3.5 -3t3.5 -2t2.5 -8t-3.5 -10
l-5 -5t-7 -5q-4 -4 -6 -5q-1 -2 -3 -4q-4 -5 -12.5 -11t-15.5 -14q-3 -3 -4 -5q36 28 64.5 45t48.5 26q31 14 38 14h3q1 0 1 -0.5t1 -0.5q5 -1 13 -6q8 -2 10.5 -3t4.5 -3q2 -3 4 -3t4 -2t2.5 -8t-3.5 -10t-5.5 -5t-6.5 -5q-3 -2 -6 -5q-1 -2 -2 -2.5t-2 -1.5q-4 -5 -12 -11
t-16 -14q-5 -5 -13.5 -15.5l-15.5 -18.5q0 -2 -1 -4q-2 -2 -10 -13.5t-18 -24.5t-18 -24.5l-10 -14.5t-5.5 -10l-6.5 -13.5t-4.5 -11t0.5 -4.5q3 1 8.5 8t6.5 3q0 -4 7 1t10 10q2 2 17.5 15l34 28l36.5 29t24 18h1q0 -1 0.5 -2t-1.5 -3q-3 -4 -8 -8t-8 -9q-2 -3 0 -1.5
t5 3.5t6 5t4 3t4.5 3t7.5 6l6 4.5t1 -0.5q-3 -4 -10 -11.5t-10 -12.5z" />
    <glyph glyph-name="n" unicode="n" horiz-adv-x="253" 
d="M261 130q1 0 4.5 3l7 6t5.5 4.5t1 -0.5q-2 -4 -9 -11.5t-11 -12.5q-3 -5 -6 -5.5t-5 -3.5l-2 -4q2 0 -2 -6v-1l-1 -1q-9 -7 -25 -20.5l-32 -28l-29.5 -27t-18.5 -18.5t-10 -8t-8 -2q-8 -5 -11 -2q-2 5 -6.5 8.5l-10.5 8.5l-12.5 10t-5.5 8l1 2q1 24 14.5 50.5t29.5 48.5
q2 5 3.5 8t3.5 5l4 8q1 2 8 9q6 6 8 9q1 1 2.5 4t3.5 5q9 11 13 14h1q4 3 9 7.5t8 7.5l6 6q-2 -2 -5 -3.5l-5 -2.5l-1 -1q-3 -2 -7.5 -6t-8.5 -8q-3 -4 -6.5 -7.5l-7.5 -7.5q-2 -2 -3.5 -3t-2.5 -3q-1 -1 -5 -7q-9 -11 -17 -23l-15 -23q-8 -12 -15 -24l16 31t15.5 25.5
t21 27l31.5 36.5l-6 -4t-7 -4l-17.5 -11.5l-21.5 -14.5q-29 -20 -52.5 -42.5t-40.5 -42.5q-20 -23 -37 -46v2l-5.5 -12.5t-0.5 -6.5q-1 0 -1 -2q-3 -5 -3 -9q0 -2 -1 -5.5t0 -5.5t0 -4t0 -4q0 -1 -1.5 -2t-0.5 -2q4 -2 5 -4t2.5 -3t-0.5 -3t-4 0l-4 4q-1 0 -1 0.5t-1 0.5
t-2 1q0 1 -1 1l-2 2q-3 1 -2.5 0.5t-4.5 2.5t-5.5 3.5t-2.5 3.5q-2 2 -2 3.5t-2 4.5q-5 5 -9.5 8.5t-3.5 5.5l1 2q1 21 11.5 44.5t24 43.5t26 35.5t17.5 20.5q3 3 5.5 6.5l4.5 6.5l1 4q-2 -2 -4 -3q-13 -14 -26.5 -32.5t-24.5 -35.5l-27 -39q10 18 22.5 38l24 37.5l20 30.5
t10.5 17q2 3 3.5 5t3.5 4v2q0 4 2 8q1 1 4 2.5t3 3.5l1 1v1h1l1 1v1l2 2l4.5 4.5t4.5 6.5q2 2 3 3.5t3 2.5q3 4 4 5t2 5q1 2 1.5 4t2.5 4q-6 5 -10 7q-1 1 0 2q1 0 2 1q2 0 4 -1t3.5 -2t3.5 -2v-1q1 0 1.5 -1t2.5 -2q1 0 3 -2l1 -1q3 -2 7.5 -2.5t6.5 -2.5q4 -6 11 -9
q3 -2 5 -3.5t5 -3.5l1 -1q2 -1 4 -2.5t4 -3.5q1 0 1 -1q1 0 2 -1l-4 -2q0 -1 -2 -1q5 0 3 -2l-4 -6t-5 -5q-6 -5 -9 -10q-1 -2 -0.5 0.5t2.5 6.5q-7 -7 -7 -9q-3 -4 -12 -4l-2 -2t-6.5 -9t-12.5 -13l-11 -14.5t-9 -13.5q47 40 84 63t61 34q31 14 38 14h1h3l1 -1q7 -2 14 -6
q7 -2 10 -3t5 -3q2 -3 3.5 -3t3.5 -2t2.5 -8t-3.5 -10t-5.5 -5t-6.5 -5l-3 -3t-3 -2q-1 -2 -3 -4q-4 -5 -12.5 -11t-15.5 -14q-5 -5 -14 -15.5t-15 -18.5l-2 -4q-2 -2 -10 -13.5l-17.5 -24.5l-18 -24.5t-10.5 -14.5t-5 -10l-6 -13.5l-5 -11t0 -4.5q4 1 9 8t6 3t7.5 1
t10.5 10q1 2 16 15l33 28l35 29t24 18h1q0 -2 -2 -5q-3 -4 -1 -3t-2 -4q-3 -5 -1 -3t4 3z" />
    <glyph glyph-name="o" unicode="o" 
d="M135 112q-4 -5 -17.5 -16.5t-31.5 -25.5l-37.5 -28.5t-35.5 -24.5q-22 -17 -27 -19q-8 0 -11.5 3.5t-12.5 11.5t-14.5 25t-4.5 28q0 5 5.5 17.5t13 26t15.5 25.5t14 17l21 21t34 36l-19 -17.5l-16 -15.5q-9 -8 -16 -15q17 21 35.5 40.5t33.5 33.5l34 31v-2q1 0 1 0.5
t1 0.5l1 1q2 1 8 1q3 0 5 -1l6 -8q1 0 3 -1l4 -2t4 -3l2 -2l1 -1q2 -2 5 -5.5t8 -8.5q4 -5 2 -3.5t-1 -4.5t-1 -7q5 1 10.5 -1t7.5 -9q6 -14 4.5 -27.5t-6.5 -22.5l-10 -21t-18 -27zM-13 28q4 0 20.5 11.5t35.5 27.5l37 32.5t27 26.5t13.5 19.5t6.5 18.5l3.5 16t3.5 12
q5 11 1 18q-2 2 -3 4q-2 -1 -3 -0.5t-3 0.5q-2 1 -4 -1.5t-4 -4.5q-2 -1 -10 -7l-21 -21l-16 -18t-21 -22q-46 -48 -59 -80.5t-4 -31.5z" />
    <glyph glyph-name="p" unicode="p" horiz-adv-x="240" 
d="M202 129q-1 -1 2.5 4t1.5 3q-5 -8 -12 -16.5t-11 -11.5q-3 -3 -6 -3q-26 -29 -60 -58t-74 -44q15 8 31 18q14 8 30 20t31 26l1 2q-26 -23 -55.5 -41t-61.5 -26q-4 -2 -10 -4t-10 0q-5 2 -5 3t-6 6t-8 14t-2 11q0 3 -2 9l-2 6q-3 -4 -5 -8q-2 -3 -3.5 -6.5t-2.5 -4.5
q-1 0 -1 -1t-0.5 -2t-0.5 -2l-16.5 -22.5t-12.5 -20.5q2 1 3 2t3 -1q1 -3 3.5 -2t-0.5 -4l-9.5 -14.5l-16.5 -25l-17 -25.5l-10 -15t-4.5 -9.5l-5 -13t-4 -11.5t-0.5 -5q-1 -1 -1 -3q-2 -6 -2 -9q0 -2 -1 -5.5t0 -5.5t0.5 -4t-0.5 -4q1 -1 -0.5 -2t-0.5 -2q2 -1 5 -4
q1 -1 3 -2.5t0 -3.5t-4.5 0t-4.5 4q-2 0 -2 1q-1 0 -2 1l-1 1q-1 1 -3 1q-2 1 -2 0.5t-5 2.5t-5 3.5t-3 3.5q-2 2 -2 3.5t-2 3.5v1l-9.5 7.5t-4.5 5.5q1 1 1 2q0 21 9.5 45t22.5 45t24.5 36.5t16.5 20.5q2 4 4.5 7.5l4.5 6.5q2 2 2 4t-1 0l-3 -3q-13 -15 -25.5 -34.5
l-23.5 -36.5l-25 -40q9 18 20.5 39t22.5 39l19 31.5t10 17.5t6 10v1q0 4 2 8q1 1 3.5 3t3.5 4h-1h1v1h1l17 21.5l29.5 37l34.5 42.5t32 37q-15 -21 -30 -40l-27 -34.5l-24 -29.5l-7 -7q0 -2 11 11l26 31l30 36.5l23 28.5q1 3 4 6q8 13 13 22t7 12q3 6 6 9v1q0 5 2 9
q1 1 3.5 2.5t3.5 3.5h-1l1 1v1h1q0 1 0.5 1t0.5 1q2 2 2 3q2 2 0 0t0 1q4 6 5 7q4 4 4.5 5t1.5 5q1 2 1.5 4t1.5 4q-2 2 -5 3.5t-5 3.5q-2 0 0 2q1 1 3 1q1 0 3 -1t3.5 -2t3.5 -2v-1q2 0 4 -2l3 -3h1h1q2 -2 6 -2q2 0 2.5 -0.5t1.5 -0.5l4 -2q3 -3 11 -9q3 -2 8 -4.5t8 -4.5
h1q2 -1 4 -2.5t4 -3.5q1 0 1 -0.5t1 -0.5l1 -1q-2 -2 -3 -2l-2 -2h2q1 0 1 -1q-4 -6 -7 -9q1 1 1 0l-1 -1q20 11 35.5 12t22.5 -8q8 -10 13 -21q3 -2 6.5 -5t4.5 -7q1 -5 1 -16t-2 -16q0 -1 -1 -1v-2q0 -3 -6 -13q0 -3 -1 -5t-3.5 -4.5t-4.5 -6.5q-1 -1 -1 -2q-1 -3 -5.5 -8
t-6.5 -10zM170 166q3 7 9.5 14.5t7.5 9.5t6 9t5 11q1 4 0.5 6.5t-1.5 5.5q-2 6 -6 6q-1 0 -23.5 -4.5t-48.5 -18.5q-1 -1 -1.5 -2t-1.5 -2q-3 -3 -6 -7q-3 -3 -6 -6.5l-7 -8.5l-3 -3q-4 -4 -7 -8t-7 -8q-2 -2 -3 -3.5t-2 -3.5q-5 -5 -8 -9.5t-5 -6.5l-5 -5t-6 -7q2 5 4.5 10
t4.5 10l-26.5 -31l-29.5 -36q-3 -14 -4.5 -30t5.5 -20q1 -1 4 -1q5 0 10 4q4 2 7 3q7 3 20.5 13.5t29 24l30.5 27.5l26 24q-1 1 0 2.5t1 3.5q-1 4 0.5 4.5t3.5 3.5t4 5t5 8q4 5 7 6t7 6q3 5 5 5t3 2t-0.5 -2t2.5 -1z" />
    <glyph glyph-name="q" unicode="q" horiz-adv-x="233" 
d="M197 152q1 -3 3.5 -2t-0.5 -4q-2 -2 -7 -9l-11.5 -16.5l-14 -19.5l-13.5 -18q-3 -5 -8 -10t-8 -10l-5 -3l-1 -4q-20 -25 -35 -47q-6 -8 -10.5 -15t-9.5 -14q1 1 3 2t4 -1q0 -3 3 -2t-1 -4l-9.5 -14.5l-16.5 -25l-16.5 -25.5t-9.5 -15t-5 -9.5t-5 -13l-3.5 -11.5t-0.5 -5
q-1 -1 -1 -3q-3 -5 -3 -9q1 -2 -0.5 -5.5t-0.5 -5.5q2 -2 1 -4t0 -4q0 -1 -1.5 -2t0.5 -2q1 -1 2 -1.5t3 -2.5l2.5 -2.5t-0.5 -3.5t-4.5 0t-4.5 4l-2 1l-2 1v1q-1 1 -3 1q-3 1 -2.5 0.5t-4.5 2.5t-5.5 3.5t-2.5 3.5q-2 2 -2 3.5t-2 3.5v1q-5 4 -10 7.5t-4 5.5q0 1 1 2
q0 21 9.5 45t22 45t24.5 36.5t17 20.5q2 4 4.5 7.5l4.5 6.5q2 6 0 4q0 -2 -3 -3q-12 -15 -25 -34.5l-24 -36.5l-25 -40q9 18 21 39l23 39l19 31.5t10 17.5q1 3 2.5 5.5t3.5 4.5v1q-1 4 2 8q1 1 3.5 3t2.5 4h1v1q3 3 10 12l17 21l21 26.5l23 29.5l10.5 12.5t8.5 9.5
q3 4 6.5 8t6.5 8q1 1 1 2t-0.5 1t-0.5 1q-4 -3 -10 -6t-6 -5q0 -1 -17 -18l-38 -39.5l-40.5 -44.5t-25.5 -31q-12 -19 -21 -27t-13 -13q-10 -12 -14 -10q-2 2 -2.5 4t-2.5 4q-2 3 -2 4t-5 6t-8 8.5t-8 8.5q-8 8 -8 14q0 1 3 14.5t12 35.5t26 50t45 60q18 19 34 33
q14 12 28 21t24 6q19 -7 21.5 -8t2.5 -4t2 -2.5t4 -1.5t6 -2.5t6 -2.5q1 -1 3 -2.5t4 -3.5q3 -2 5 -4q0 -2 5 -2q-1 -1 -1 -2l2 1t7 6q4 4 6 8v1q1 1 2 1h1l-1 2q-2 2 -4 5t0 2q2 0 4.5 -1.5t6.5 -2.5q7 -2 8 -5q0 -2 2.5 -2.5t4.5 -2.5l3 -3t3 -2t2.5 -0.5t6.5 -1.5t6.5 -2
t3.5 -2t3 -3q0 -2 -1 -3v-1v-2q-1 -1 -1 -3v-1l-2 -4q-7 -8 -11 -14q-5 -5 -8 -10t-3 -6q-1 -1 -8 -9t-10 -12l5.5 8.5l7.5 11.5t6.5 10.5t2.5 6.5l-1 1q-2 -2 -3 -3.5t-3 -3.5q2 -2 4 -1l-16.5 -21l-13.5 -18q2 1 3 1q2 0 3 -1zM166 212q7 8 1.5 7.5t-10.5 0.5t-7 0t-7 -1
q-6 -1 -8.5 -3t-9.5 -7q-6 -4 -8.5 -6.5t-7.5 -5.5q-4 -4 -3.5 -2.5t0.5 6.5q0 4 -6 0q-3 -2 -6 -6q-5 -5 -18.5 -22l-29 -37.5l-29 -40t-17.5 -30.5q-5 -11 -5.5 -15.5t0 -5.5t2.5 0.5t3 3.5q2 4 6.5 3t6.5 3q1 2 6.5 8.5l11.5 14t12 14t8 8.5q4 4 5.5 4.5t5.5 2.5
q3 3 2 -1.5t4 1.5q3 3 18.5 20l33.5 36z" />
    <glyph glyph-name="r" unicode="r" horiz-adv-x="176" 
d="M175 99l-2 -1q-5 -7 -17.5 -20.5l-26.5 -28t-27.5 -27t-19.5 -18.5q-10 -10 -17 -10q-8 -5 -11 -2q-1 2 -5 6q-2 2 -5 4.5t-7 6.5l-12.5 10t-5.5 8l1 2q1 24 14.5 50.5t28.5 48.5q5 10 7 13l3 4.5t2 3.5t3 4t4 5q7 5 8 9q3 3 7 9l1 1q-1 0 -1 0.5t-1 0.5l-3 -3
q-4 -3 -7 -6q-1 -1 -2 -3t-3 -4q-9 -11 -17 -23l-15 -23q-8 -12 -14 -24q7 15 12.5 25.5t12 20.5t14 20t18.5 23h1q-9 7 -12 13l-35.5 -37l-41.5 -43l-39.5 -41l-30.5 -31q-3 -3 -4 -3t-3 -2q-2 -1 -5 0t-8 -3q-4 -3 -6.5 -2t-6.5 1h-5q-1 0 -1 1l7 8l76 80l28 30l25 27
t18.5 19.5l9.5 9.5q-2 5 -1 10q2 10 15 21l2 1q1 1 2.5 1.5t3.5 2.5q4 2 7 5l1 1q7 9 7.5 16t0.5 13q0 4 -1 5q2 4 3 5q-6 5 -10 7q-2 1 0 3q1 1 3 1q1 -1 3 -2t3.5 -2t3.5 -2l4 -4q1 -1 1.5 -1t1.5 -1l1 -1q3 -2 5.5 -1t4.5 -1q4 -6 11 -9l8.5 -5.5t7.5 -5.5q1 0 2 -1
t1.5 -1t1.5 -1l3 -3q1 0 2 -1l1 -1q-1 -1 -1.5 -1t-1.5 -1t-2 -1v-1q2 1 2.5 0.5t-0.5 -1.5q5 -3 6 -5q0 -3 -11 -21.5t-36 -31.5v-1q0 -3 4 -7q8 -6 12 -7t10 -5q4 -3 4 -7q0 -2 0.5 -4.5t-0.5 -5.5h1q0 -1 -0.5 -1t-0.5 -1l-2 -4q-2 -1 -4 -3q0 -1 -1 -2q-1 -2 -5.5 -8.5
t-11 -15t-13 -18l-12.5 -17.5l-8 -11.5t-5 -6.5q-2 -3 -5.5 -10l-6.5 -13.5t-4.5 -11t0.5 -4.5q3 1 8.5 8t6.5 3v-1q2 -2 8 3t9 9l14.5 15l28 28l30.5 29t21 18h1q0 -1 0.5 -2t-1.5 -3q-3 -4 -8 -8t-8 -9q-2 -3 0 -1.5t5 3.5t6 5t4 3t4.5 3t7.5 6l6 4.5t1 -0.5
q-3 -4 -10 -11.5t-10 -12.5t-6.5 -5.5t-5.5 -3.5q0 -2 -2 -4q3 0 -1 -6v-1v0z" />
    <glyph glyph-name="s" unicode="s" horiz-adv-x="180" 
d="M165 131l17.5 6t15.5 6q-8 -6 -20 -12q-11 -5 -28 -11.5t-42 -13.5q-4 -17 -9.5 -32t-11.5 -29q-4 -7 -11.5 -17.5t-19.5 -19.5t-28 -12.5t-37 2.5l-4 4q-6 4 -9 7q-4 5 -6.5 11t-7.5 13q-2 3 -6 8.5l-8 11.5q-5 -5 -8 -7.5t-4 -3.5q-4 -3 -5 -3t-3 -2q-2 -1 -5 0t-7 -3
q-5 -3 -7 -2t-7 1h-4q-1 0 -1 1l6 8l9 9q5 5 11 10t14 13q5 5 9 8.5t3 8.5t-0.5 5t-1.5 4q-3 5 -6 7t2 -1t9.5 -3.5t1.5 2.5t-5 4.5t0 3.5q1 2 5.5 2.5t24.5 -0.5l34 32l31 29.5l23 22t10 9.5q6 13 13 24q6 10 13.5 20t16.5 17q1 2 1.5 4t2.5 4q-2 2 -5 3.5t-5 3.5q-2 0 0 2
q1 1 3 1q1 -1 3 -2t3.5 -1.5t3.5 -2.5q1 -1 2 -1.5t2 -2.5q1 0 3 -2h1q3 -2 8 -3t7 -3q2 -3 10 -9l8.5 -5.5t7.5 -4.5q1 0 1 -0.5t1 -0.5q2 -2 3 -2q2 -2 4 -3q0 -1 1 -1q0 -1 1 -1l-3 -3q-1 0 -1.5 -0.5t-1.5 -0.5q4 0 3 -1q-3 -7 -9 -11q-3 -2 -5 -5.5t-4 -5.5
q-1 -2 -0.5 1t2.5 6q-3 -3 -4.5 -5t-2.5 -3q-2 -4 -5 -4.5t-6 -0.5q-1 0 -3 -2q-1 -1 -4 -3.5t-7 -5.5q-8 -11 -14.5 -23.5t-8.5 -24.5q0 -12 -3 -24q33 7 73 21q-2 -3 -4 -5q-3 -5 -5 -5t-5.5 -2t-5.5 -4zM17 120q0 -1 -5 -6q11 0 23 1t26 3q5 17 9.5 34t6.5 20
q3 4 -5.5 -3t-20 -17.5l-22.5 -20.5t-12 -11zM-5 46q26 2 38.5 14.5t17.5 23.5q1 2 1.5 4t2.5 6l-35.5 -6t-39.5 -5l-9 -9t-9 -8q1 -3 1.5 -6.5t3.5 -6.5t9.5 -5t18.5 -2zM48 17q7 4 15 11q6 6 13.5 16t12.5 26q-7 -9 -11 -16q-5 -6 -8 -11t-4 -6q-2 -2 -7 -9.5t-11 -10.5z
" />
    <glyph glyph-name="t" unicode="t" horiz-adv-x="105" 
d="M262 288q-14 0 -38 -0.5t-41 -1.5h-23l-31 -34l-31 -35.5t-27.5 -34.5l-21.5 -30q2 0 3 1q2 0 3 -1q0 -2 3 -1.5t-1 -4.5q-2 -2 -10 -13.5l-17.5 -24.5l-17.5 -24.5l-10 -14.5t-5.5 -10l-6.5 -13.5t-4.5 -11t0.5 -4.5q3 1 8.5 8t5.5 3q1 -4 8 1t10 10q1 2 13.5 15l28 28
l30.5 29t22 18h1q0 -2 -2 -5q-3 -4 -7.5 -8t-7.5 -9q-2 -3 -0.5 -1.5t4.5 3.5t6.5 5t4.5 3t4.5 3l7 6t6 4.5t1.5 -0.5q-3 -4 -10 -11.5t-10 -12.5q-4 -5 -7 -5.5t-5 -3.5l-2 -4q3 0 -2 -6v-1l-1 -1q-5 -7 -17.5 -20.5l-26.5 -28t-27.5 -27t-19.5 -18.5q-11 -10 -17 -10
q-9 -5 -12 -2q-2 5 -6.5 8.5l-10.5 8.5l-12.5 10t-4.5 8v2q1 21 11.5 44.5t24 43.5t26 35.5t17.5 20.5t11 13q2 6 0 4l-3 -3q-13 -14 -27 -32.5t-25 -35.5q-14 -19 -27 -39q10 18 23 38l24.5 37.5l20 30.5t10.5 17q3 6 6 9v2q0 4 3 8q1 1 3.5 2.5t3.5 3.5h-1l1 1v1h1
q4 5 17.5 20.5l31.5 35.5h-25q-13 -2 -19 -1.5t-13 0.5t-11.5 1t-9.5 -1q-5 -1 -10 4.5t-2 14.5q0 2 2 4q1 1 2 1h1q1 0 1.5 -0.5t2.5 -0.5q5 -1 8.5 1t6.5 2t7.5 0.5t7.5 0.5h24t49 -1l25 27.5t23 23.5l-13 -15l-14 -16.5l-16 -19.5h3q13 14 24 27l18 21q16 19 26 26.5
t14 11.5t4.5 5l2.5 5q0 2 1 4l2 4q-2 2 -5 4t-5 3q-1 1 0 2q1 0 3 1q1 -1 3 -2t3.5 -1.5t3.5 -2.5q2 -1 3.5 -2t3.5 -3l1 -1q3 -2 8 -2.5t7 -3.5q3 -5 10 -8l8.5 -5.5t7.5 -5.5q2 -1 4.5 -2.5t4.5 -3.5l1 -1l1 -1q-2 -2 -3 -2l-2 -2q4 0 3 -1q-6 -8 -10 -11q-5 -5 -9 -11
q-1 -2 0 1t2 7q-3 -3 -4.5 -5.5t-2.5 -3.5q-4 -6 -11 -4l-3 -3q-2 -2 -7.5 -6.5t-12.5 -9.5l-18 -13l5 5q5 5 7 8q2 5 8.5 10t9.5 10q0 1 1 1q-7 2 -8 1q0 -1 -9.5 -10.5t-24.5 -26.5h1q2 0 9 1t14.5 1.5t14 1t7.5 0.5t7.5 0.5t14 1.5t15 1.5t10.5 0.5q7 0 16 1t13 0
q3 0 6.5 1t6.5 0q4 -1 4.5 -0.5t2.5 -3.5q2 -5 6.5 -6t5.5 -4l3.5 -3.5t1.5 -4.5t0.5 -3t-4.5 -2t-6.5 -1.5t-5.5 -2.5t-3 -3.5t-6 -1.5q-7 0 -26 -0.5t-33 0.5zM69 256q0 1 3 3.5t4 2.5l21 24h1l-21.5 -23t-7.5 -7zM201 306q7 -1 20 -1h20q6 1 20.5 1t18.5 1q4 2 12 2.5
t14 1.5q5 0 9.5 -1t6.5 1q2 1 5 4.5t-3 2.5q-6 0 -12 0.5t-9 -0.5q-1 0 -13 -1l-29 -2.5t-37 -3.5t-37 -3l3 -1h2q2 0 3.5 -0.5t5.5 -0.5z" />
    <glyph glyph-name="u" unicode="u" horiz-adv-x="243" 
d="M249 130q1 0 4.5 3t7.5 6l6 4.5t1 -0.5q-3 -4 -10 -11.5t-10 -12.5t-6.5 -5.5t-5.5 -3.5l-2 -4q3 0 -1 -6v-1l-2 -1q-5 -7 -17.5 -20.5l-26.5 -28t-27.5 -27t-19.5 -18.5q-10 -10 -17 -10q-9 -6 -11 -2q-3 5 -7 8.5l-10 8.5l-12.5 10t-5.5 8l1 2q0 13 4.5 27t11.5 28
q-37 -34 -67.5 -57.5t-44.5 -30.5q-5 -3 -6 -3q-2 1 -3 1t-3 1h-1q0 1 -3 3q-5 3 -5 3.5t-2 3.5q-2 2 -2 3.5t-2 4.5q-5 5 -9.5 8.5t-3.5 5.5v2q1 21 11.5 44.5t24 43.5t26.5 35.5t18 20.5q2 3 5 6.5t5 6.5q2 6 0 4l-3 -3q-13 -14 -27 -32.5t-25 -35.5q-14 -19 -27 -39
q10 18 23 38l24.5 37.5l20 30.5t10.5 17q3 6 6 9v2q0 4 3 8q1 1 3.5 2.5t3.5 3.5h-1l1 1v1h1l1 1v1q1 1 1.5 1t1.5 1q2 2 4 4.5l5 6.5q3 5 5 6l5 5t2 5q0 2 1 4l2 4q-3 5 -10 7q-1 1 0 2q1 0 3 1q2 0 4 -1t3 -2t3 -2v-1q1 0 4 -3q1 0 3 -2h1v-1q3 -2 8 -2.5t7 -2.5
q3 -5 10 -9q3 -2 8 -5t8 -5v-1q4 -2 9 -6l1 -1l1 -1q-1 0 -3 -2q-1 -1 -2 -1q5 0 3 -2q-6 -8 -10 -11q-6 -6 -8 -10q-1 -1 1 7q-5 -5 -7 -9q-3 -4 -11 -4q-1 -1 -1.5 -1t-1.5 -1q-1 -2 -8 -7.5l-15 -11.5q-13 -14 -21 -29q2 0 3 1q2 0 3 -1q0 -2 3 -1.5t-1 -4.5
q-2 -2 -10 -13.5l-17.5 -24.5l-17.5 -24.5l-10 -14.5q-1 -2 -2 -3.5t-2 -3.5q-5 -12 0 -13t15.5 5t25 17t29.5 24l29 25t23 21q3 4 5.5 7t4.5 6h-1l2 4q1 2 2 3.5t1 3.5l9 11l8.5 10.5l11 13l17.5 19.5q0 1 2 1q4 5 10 10t11 10l10.5 8.5t5.5 5.5l2 2l3 6q3 0 6 3q0 -1 1 -1
h2h3q1 0 1 -0.5t1 -0.5q5 -1 13 -6q8 -2 10.5 -3t4.5 -3q2 -3 4 -3t4 -2t2 -8t-4 -10l-5 -5t-6 -5q-3 -2 -6 -5l-4 -4q-4 -5 -12 -11t-16 -14q-5 -5 -14 -15.5t-15 -18.5q0 -2 -2 -4t-10 -13.5l-17.5 -24.5l-17.5 -24.5l-10 -14.5t-5.5 -10l-6.5 -13.5t-4.5 -11t0.5 -4.5
q3 1 8.5 8t6.5 3q0 -4 7 1t10 10l14.5 15l28 28l30.5 29t21 18h1q0 -1 0.5 -2t-1.5 -3q-4 -4 -2.5 -3t-1.5 -4t-1 -3t4 3z" />
    <glyph glyph-name="v" unicode="v" horiz-adv-x="246" 
d="M226 188q-1 0 -2 -1q-1 0 -5.5 -3.5t-9.5 -7t-9.5 -7t-5.5 -4.5q-3 -2 -14 -11.5t-26 -19.5q-4 -2 -7 -5q-8 -5 -17.5 -12.5l-18.5 -14.5q-4 -3 -7 -5.5t-6 -4.5l-8 -8q-7 -7 -11 -10l-3 -3q-1 -1 -2 -1l-1 -1q-32 -29 -57.5 -48t-37.5 -25q-5 -3 -6 -3l-6 2h-1q0 1 -3 3
q-5 3 -5.5 3.5t-2.5 3.5q-2 2 -2 3.5t-1 4.5q-5 5 -9.5 8.5t-3.5 5.5v2q1 21 11.5 44.5t24 43.5t26 35.5t17.5 20.5q3 3 5.5 6.5t5.5 6.5q2 6 0 4l-3 -3q-13 -14 -27 -32.5t-25 -35.5q-14 -19 -27 -39q10 18 23 38l24.5 37.5l20 30.5t10.5 17q3 6 6 9v2q0 4 3 8q1 1 3.5 2.5
t3.5 3.5h-1l1 1v1h1l1 1v1q1 1 1.5 1t1.5 1q2 2 4 4.5l5 6.5q3 5 5 6q4 4 4.5 5l2.5 5q0 2 1 4l2 4q-3 5 -10 7q-1 1 0 2q1 0 3 1q1 0 3 -1t3.5 -2t3.5 -2v-1q1 0 4 -3q1 0 3 -2h1v-1q3 -2 8 -2.5t7 -2.5q3 -5 10 -9q3 -2 8 -5t7 -5q1 0 1 -1q2 -1 4.5 -2.5t4.5 -3.5l1 -1
l1 -1q-1 0 -3 -2q-1 -1 -2 -1q3 0 3 -2q-6 -8 -10 -11q-2 -2 -4.5 -5t-4.5 -5q-1 -2 -0.5 0.5t2.5 6.5q-5 -5 -7 -9q-3 -4 -11 -4q-1 -1 -1.5 -1t-1.5 -1q-1 -2 -8 -7.5l-15 -11.5q-7 -8 -12 -15l-10 -14q1 0 3 1q3 0 4 -1q0 -2 3 -1.5t-1 -4.5q-2 -2 -10 -13.5l-17.5 -24.5
l-18 -24.5t-10.5 -14.5q-2 -4 -3 -7q-4 -12 0.5 -13t15 5t25 17t29.5 24l29 25t23 21q6 8 8 12l-20 -17.5l-22 -18.5l-25 -22q3 5 12.5 14.5l21 20.5l23 21.5l19.5 17.5l7.5 9.5t8 9.5l11 12.5l16.5 18.5q0 1 2 1q4 5 10 10t11 10l10.5 8.5t5.5 5.5l2 2q2 4 2 6q4 0 7 3
q0 -1 1 -1h2h3q1 0 1 -1q7 -2 14 -6q8 -2 10.5 -3t4.5 -3q2 -3 4 -3t4 -2q1 -2 1.5 -8t-3.5 -10l-5 -5t-7 -5l-5 -5l-4 -4q-3 -4 -10 -9t-14 -12z" />
    <glyph glyph-name="w" unicode="w" horiz-adv-x="395" 
d="M299 134q-4 -2 -7 -5q-8 -5 -17.5 -12.5l-18.5 -14.5q-4 -3 -7 -5.5t-6 -4.5l-8 -8q-7 -7 -11 -10q-2 -1 -4 -3l-1 -1l-1 -1q-32 -29 -57.5 -48t-37.5 -25q-5 -3 -7 -3q-2 1 -3 1t-2 1h-1l-3 3q-5 3 -5.5 3.5t-2.5 3.5q-2 2 -2 3.5t-1 4.5h-1q-5 5 -9.5 8.5t-3.5 5.5
q1 0 1 2q1 17 7.5 34.5t16.5 34.5q-6 -4 -8 -6v-1q-2 -3 -3.5 -4.5t-2.5 -3.5t-2 -3q2 2 2.5 4.5t2.5 4.5q-5 -5 -6 -5q-4 -6 -10 -10q-2 -1 -4 -3l-1 -1l-1 -1q-32 -29 -58 -48t-37 -25q-5 -3 -7 -3q-2 1 -3 1t-2 1h-1l-3 3q-5 3 -5.5 3.5t-2.5 3.5q-2 2 -2 3.5t-2 4.5
q-5 5 -9.5 8.5t-3.5 5.5l1 2q1 21 11.5 44.5t24 43.5t26 35.5t17.5 20.5q3 3 5.5 6.5l4.5 6.5q2 2 2 3.5t-1 0.5q-2 -2 -4 -3q-13 -14 -26.5 -32.5t-24.5 -35.5l-27 -39q10 18 22.5 38l24.5 37.5l20.5 30.5t10.5 17q3 6 6 9v2q0 4 2 8q1 1 4 2.5t4 3.5h-1l1 1v1h1l1 1v1l2 2
l4.5 4.5t4.5 6.5q2 2 3 3.5t3 2.5q4 4 4.5 5t1.5 5q1 2 1.5 4t2.5 4q-6 5 -10 7q-1 1 0 2q1 0 3 1q1 0 3 -1t3.5 -2t3.5 -2v-1q1 0 1.5 -1t2.5 -2q1 0 3 -2l1 -1q3 -2 7.5 -2.5t6.5 -2.5q4 -6 11 -9l7.5 -5l7.5 -5l1 -1q2 -1 4 -2.5t4 -3.5q1 0 2 -1l1 -1q-1 0 -3 -2
q-1 -1 -3 -1q5 0 3 -2q-3 -7 -9 -11q-6 -5 -9 -10q-1 -2 -0.5 0.5t2.5 6.5q-7 -7 -7 -9q-3 -4 -11 -4q-1 -1 -1.5 -1t-1.5 -1q-2 -2 -9 -7.5l-15 -11.5l-11 -15l-10 -14q1 0 3 1q3 0 3 -1q1 -2 4 -1.5t-1 -4.5q-2 -2 -10 -13.5l-17.5 -24.5l-18 -24.5t-10.5 -14.5
q-2 -4 -4 -7q-7 -18 6.5 -12.5t34.5 21.5t44.5 36.5l37.5 33.5q6 8 8 12l-20.5 -17.5l-22.5 -18.5l-25 -22q3 5 12.5 14.5l21 20.5l23.5 21.5l20 17.5l14.5 18t23.5 27q0 5 3 8q1 1 3.5 2.5t3.5 3.5h-1l1 1v1h1l1 1v1q1 1 1.5 1t1.5 1q2 2 4 4.5t4 6.5q2 2 3 3.5t3 2.5
q4 4 4.5 5t1.5 5q1 2 1.5 4t2.5 4q-3 5 -10 7q-1 1 0 2q1 0 3 1q1 0 3 -1t3.5 -2t3.5 -2v-1q1 0 1.5 -1t2.5 -2q1 0 3 -2q1 0 1 -1q2 -2 6.5 -2t6.5 -2q5 -1 13 -6q7 -2 10 -3t5 -3q2 -3 3.5 -3t3.5 -2q1 -2 2 -4.5t0 -5.5l1 -1l1 -1q-1 0 -2 -1t-1 -2q1 -1 0 -2
q-3 -7 -9 -11q-3 -2 -5 -5t-4 -5q-1 -2 -0.5 0.5t2.5 6.5q-5 -5 -7 -9q-3 -4 -8 -4q-4 -3 -8 -6.5t-8 -7.5q-2 0 -2 -1q-1 0 -9 -6q-6 -9 -17 -27l-22.5 -36l-20.5 -32l-11 -17q-2 -4 -4 -7q-7 -18 6.5 -12.5t34.5 21.5t44.5 36.5l37.5 33.5q6 8 8 12l-20.5 -17.5
l-22.5 -18.5l-25 -22q3 5 12.5 14.5l21 20.5l23.5 21.5l20 17.5l7.5 9.5t8 9.5l11 12.5l16.5 18.5q0 1 2 1q4 5 10 10t11 10l10.5 8.5t5.5 5.5l2 2q1 2 1 3t1 3q4 0 6 3q1 -1 2 -1h2h3q1 0 1 -1q7 -2 14 -6q7 -2 10 -3t5 -3q2 -3 4 -3t3 -2q2 -2 2.5 -8t-3.5 -10l-5 -5
t-7 -5l-5 -5l-4 -4q-3 -4 -10 -9t-14 -12q-2 0 -2 -1q-1 0 -5.5 -3.5t-9.5 -7t-9.5 -7t-5.5 -4.5q-3 -2 -14 -11.5t-26 -19.5z" />
    <glyph glyph-name="x" unicode="x" horiz-adv-x="232" 
d="M109 -17q-3 0 -3 -0.5t-5 0.5q-5 0 -5.5 0.5t-4.5 1.5q-3 2 -4 2.5t-3 2.5v1q-7 2 -12.5 3t-5.5 3l-1 2q-10 20 -11 47t2 53q-1 0 -1.5 -0.5t-1.5 -0.5q-2 -11 -2.5 -20t-1.5 -16q-1 -8 -1 -15q0 11 0.5 24t1.5 26l-33 -19t-23 -15l-20.5 -18l-21.5 -18l-23 -20q3 4 2 6
q-1 1 -5 -1t-16 -13t-18 -16t-9 -9t-4.5 -7.5t-4.5 -9.5q-3 -7 -4.5 -6t-2 5.5t-0.5 10v7.5q-1 2 -0.5 6t1.5 9l2 10q3 10 21 26t44 34.5t57.5 38.5l61.5 39q2 21 3 36.5t1 19.5q0 3 -1.5 0.5t-1.5 -0.5v1q-2 4 -2 8q0 2 2 4.5t1 4.5q1 2 1 5q1 2 2 6.5t2 6.5t1.5 7t2.5 8
q2 2 2.5 3l1.5 3q0 1 1 2l5 5t2 5q0 1 0.5 2t0.5 2q1 1 1 2t1 2q-2 2 -4.5 4t-4.5 3t-1 2q1 0 3 1q2 0 4 -1t3 -2t3 -2l1 -1l3 -3q1 0 3 -2h1q0 -1 1 -1q2 -2 6 -2t6 -2q1 0 2 -1q4 -6 10 -9q3 -2 8 -5t8 -5l1 -1q2 -1 5 -3q1 0 1 -1q1 0 1 -0.5t1 -0.5q-2 -2 -4 -2l-2 -2
q4 0 3 -1l-4 -6t-5 -5q-7 -5 -9 -11q-1 -1 1 5q-1 0 -2 -1q-2 -2 -2.5 -4t-1.5 -3q-2 -5 -3 -6t-4 -7q-2 -8 -2.5 -14.5t-1.5 -12.5l47 28t23 14l17.5 13t16.5 18q7 8 8.5 15t6.5 7t5 -0.5t9 -4.5t12.5 -4.5t8.5 -9.5t-0.5 -16t-9.5 -15q-5 -8 -14.5 -15.5t-29.5 -21.5
l-16.5 -10t-12 -7l-11.5 -6t-15 -8q-5 -2 -15.5 -7.5t-24.5 -11.5q-2 -19 -4.5 -38t-3.5 -24v-11t0.5 -14t1.5 -12t2 -5v-3q1 -2 1 -4.5t1 -4.5q1 -1 1.5 -5t2.5 -5t2.5 -3.5t1.5 -3.5t0 -2.5t1 -1.5q4 0 6 -1l4 -2t1 -3t-4.5 -1.5t-5.5 0.5l-2 1h-2q-1 0 -1 1q-2 0 -3 -1z
M67 163q1 5 1.5 8.5t1.5 7.5q-2 8 -2 4q0 -1 -0.5 -2t-0.5 -2l-4 -18.5l-4 -19.5q1 0 1.5 0.5t1.5 0.5q2 8 3 13t2 8z" />
    <glyph glyph-name="y" unicode="y" horiz-adv-x="256" 
d="M125 -45q2 0 4 -0.5t4 -0.5q23 -3 48.5 -7.5t42.5 -12.5l1 -1q0 -1 1 -1q2 0 2 -2t2 -6q0 -3 3 -4v-5q-1 -2 -2 -3l-1 -1v-1q1 0 -1 -1l1 -1q0 -1 -0.5 -2.5t-2.5 -0.5q-3 -2 -3 2q-2 1 0 3l-2 1h-2q-1 1 -3 1.5t-2 1.5q-1 0 -4 1t-5 1q-2 3 -9 3l-1 1l-5 1.5t-11.5 2.5
t-13 2.5t-9.5 1.5q-3 1 -21 2t-35 3q-7 2 -13.5 2t-11.5 1q-4 1 -8 1q-7 1 -4 1t0 2q-1 0 -0.5 0.5t2.5 0.5q1 0 3 1l-27 3l-32 -35.5t-28 -26.5q0 -1 -0.5 -1t-0.5 -1q-5 -6 -16.5 -15t-25.5 -17t-28 -14t-24 -6q-10 2 -16 7h-1q-4 0 -7.5 2.5t-5.5 4.5t-6.5 8t-5.5 11
t-2.5 7t-3.5 6q-2 2 -2 5v2l4 -2q4 -2 6 -2q1 0 5 -2q1 9 5 21.5t9.5 24t13 20.5t17.5 13q14 5 40.5 8.5t60.5 3.5l46.5 56l43.5 55q-35 -32 -64 -54t-41 -28q-6 -3 -7 -3l-6 2l-4 3q-5 3 -5 3.5t-2 3.5q-2 2 -2 3.5t-2 4.5q-5 5 -9.5 8.5t-3.5 5.5l1 2q1 21 11.5 44.5
t24 43.5t26 35.5t17.5 20.5l10 13q2 5 0 4q0 -2 -3 -3q-12 -13 -24.5 -30l-24 -32.5t-19.5 -27.5t-10 -16q10 18 22.5 38l24 37.5l20 30t10.5 16.5q2 3 3.5 5t3.5 4v2q0 4 2 8q1 1 3.5 2.5t3.5 3.5v1q1 0 1 1q1 0 1 0.5t1 0.5v1l2 2l9 11l5 6l5 5t2 5l3 8q-3 5 -9 7
q-1 1 0 2q1 0 2 1q2 0 4 -1t3.5 -2t3.5 -2v-1l3 -3l4 -2v-1h1q3 -2 7.5 -2.5t6.5 -2.5q4 -6 11 -9q2 -2 7 -5t8 -5l1 -1q4 -2 8 -6q1 0 1 -1q1 0 2 -1q-2 0 -4 -2q0 -1 -1 -1l2 -2l-4 -6t-5 -5q-6 -5 -9 -10q-1 -1 1 7l-7 -9q-2 -4 -11 -4l-2 -2l-24 -19l-11 -15l-10 -14
q2 0 3 1q2 0 3 -1q1 -2 3.5 -1.5t-1.5 -4.5q-2 -2 -10 -13.5l-17.5 -24.5l-17.5 -24.5l-10 -14.5l-4 -7q-5 -12 0 -13t15.5 5t25 17.5l30 24t29.5 25l23 20.5l9 13h-1q2 2 3 4t1.5 3.5t1.5 3.5q4 6 8 11l8.5 10.5l11 13l17.5 19.5q0 1 2 1q4 5 10 10t11 10l17 14q0 1 1 2
l3 6q4 0 6 3q0 -1 1 -1h6l1 -1q7 -2 14 -6q7 -2 9.5 -3t4.5 -3q2 -3 4 -3t4 -2t2.5 -8t-3.5 -10t-5.5 -5t-6.5 -5l-3 -3t-3 -2l-3 -4q-4 -5 -12.5 -11t-15.5 -14q-5 -5 -14 -15.5l-16 -18.5q1 -1 -1 -4q-4 -4 -11 -15l-17 -24l-28 -38q-2 -3 -5 -10l-6 -13.5l-5 -11t0 -4.5
q4 1 9 8t6 3t7.5 1t10.5 10q1 2 16.5 15l34.5 28l37 29t25 18h1q0 -2 -2 -5q-3 -4 -8 -8t-8 -9q-2 -3 0 -1.5t5 3.5t6 5t4 3t4.5 3t7.5 6l6 4.5t1 -0.5q-2 -4 -9 -11.5t-11 -12.5q-3 -5 -6 -5.5t-5 -3.5l-2 -4q-1 0 -5 -6v-1l-1 -1q-9 -9 -25 -22.5l-32.5 -28l-30.5 -26.5
t-19 -17q-5 -6 -10 -8t-8 -2q-8 -5 -11 -2q-3 5 -7 8.5l-10 8.5l-3 3l-8 -10q6 1 6 -1t-2.5 -4.5t-4.5 -5.5q-3 -4 -6 -7l-3 -3q-2 -2 -4 -4.5t-4 -4.5l-6 -7l20 -2t20 -3q7 0 11 -1q17 -3 36.5 -5.5t35.5 -5.5q-7 1 -17 2q-8 1 -19 2t-22 3zM-108 -125q11 -3 33.5 16
t50.5 51q-10 -2 -20 -3.5t-20 -4.5q-10 -2 -19 -5q-8 -3 -14.5 -7t-8.5 -10q-5 -12 -4.5 -22.5t2.5 -14.5zM-49 81l-1 -1z" />
    <glyph glyph-name="z" unicode="z" horiz-adv-x="237" 
d="M213 247q3 1 6.5 2t6.5 2v-9q0 -5 -0.5 -10.5t-1.5 -10.5t-4 -13.5l-4 -11.5q-1 -2 -3.5 -5t-5.5 -8l-51 -38.5l-61 -44.5q-5 -7 -11.5 -11t-10.5 -7t-15.5 -14.5t-16.5 -14.5l-24 -18q17 -2 31 -3.5t18 -1.5h11t13.5 1t12 2t5.5 2h2q7 0 9 2q2 1 5.5 1.5t4.5 2.5
q2 2 4 2.5t3 1.5t2.5 0t2.5 1q-1 2 1 6q1 2 1.5 4.5t2.5 0.5q2 -1 1.5 -4t-0.5 -5v-2v-3q-1 0 -1 -1v-3q1 -3 1.5 -2.5t-0.5 -4.5q0 -6 2 -4t1 -1q-2 -4 0.5 -1.5t0.5 -0.5h-1q-1 -7 -2 -12t-4 -6h-1q-19 -10 -44.5 -12.5t-50 -1t-44 5t-26.5 5.5q-2 1 -5 1t-5 1
q-2 -2 -3 -2.5t-2 -1.5q-1 0 -2 -0.5t-3 -0.5l-6 1.5t-6 5.5t1 7t3 4q-2 3 -0.5 7.5t-1.5 11.5q0 1 -1 2l7.5 5.5l7.5 5.5l40.5 29.5l44.5 32.5q12 9 17.5 14t10 8.5l10.5 8t17 13.5q3 2 9.5 6l14.5 9t16 11t14 12h-18h-13.5t-14 0.5t-17.5 1.5q7 0 17 1q8 0 21 0.5t30 1.5
q0 1 2 3q-27 -2 -57 -2.5t-59 18.5h-2q-2 1 -2.5 6.5t-1.5 12.5q-2 3 -2.5 3.5t-2.5 4.5q-1 3 -1 4v6v5l1 3q1 1 1 2t-0.5 1t-0.5 1v2v2v5.5t2 4.5t2.5 -1.5t1.5 -4.5q1 -3 0 -6q1 -2 2.5 -1t2.5 0q1 -2 3 -2.5t3 -2.5t4.5 -3t5.5 -2q3 -2 9 -3h2q0 -2 -1.5 -2.5t6.5 -0.5
q4 0 18 0.5t30 0.5t30 0.5t17 0.5q7 0 4.5 -1.5t-0.5 -3.5q1 -3 0 -4t-3 -1q8 -1 16.5 -0.5t18.5 1.5q2 0 3 1z" />
    <glyph glyph-name="space" unicode=" " horiz-adv-x="247" 
 />
    <glyph glyph-name="grave" unicode="`" horiz-adv-x="190" 
d="M179 283l-1 -4l-3 -10l-7 -3q-15 2 -31.5 7.5l-30.5 10.5q0 -1 -6 2l-13.5 6.5t-13.5 7l-6 3.5q-27 14 -37.5 22l-15.5 12h-1v3q1 2 0.5 2.5t-0.5 3.5q-1 4 0 6.5t1 7.5q1 6 -1 6.5t0 8.5q2 6 1.5 9t1.5 4q3 2 2 3.5t4 -0.5q3 -1 10 -4.5t13 -7.5l35 -21q-1 0 -7.5 1
t-14.5 5q4 -7 5 -8l12.5 -10l30 -23l35.5 -25.5t30 -18.5q-4 3 -11.5 10t-9.5 9q-2 1 1.5 -0.5t8 -4.5t9.5 -5.5t8 -3.5q1 -1 2 -1q0 1 1 2zM177 283q0 -1 0.5 -1t0.5 -1q0 1 1 2h-2z" />
    <glyph glyph-name="acute" unicode="&#xb4;" horiz-adv-x="214" 
d="M19 367q-1 -3 -2 -5t-2 -3t0 1q1 3 4 3q2 -1 -0.5 1t1.5 0q2 -2 7.5 -4t10.5 -4.5t8.5 -3.5t1.5 -1q-3 0 -14.5 2.5t-14.5 3.5q12 -6 33 -12.5t42 -12l37 -9.5l16 -4q1 -1 10 1q-10 5 -14 9l-5 5q4 -2 9.5 -3.5t28.5 -11.5q7 -2 14.5 -5t9.5 -5q4 -3 2.5 -3t-1.5 -4
q2 -2 -1 -3.5t-7 -6.5q-5 -6 -6.5 -5t-5.5 -4q-5 -3 -6 -5t-5 -4q-2 -2 -2.5 -2t-1.5 -2q-2 -2 -3 -2v1q-6 1 -19 4.5t-41 16.5q2 -1 -4 1.5l-14 6l-14.5 6.5t-6.5 4q-13 8 -27 17.5t-25 20.5l-2 7z" />
    <glyph glyph-name="circumflex" unicode="&#x2c6;" horiz-adv-x="228" 
d="M9 345v-5v1q2 0 0 1t1 1q2 -1 7 -1h9.5t7.5 -0.5t2 -0.5q-2 -2 -11 -4t-13 -3q9 0 22.5 1t28.5 3.5l29 5t22 4.5q0 3 8 1t19 0h2l16 -26l23 -44.5t28 -43.5l-6.5 13l-7.5 15q1 -2 8 -11.5t11 -11.5l1 -3l-1 -3l-5 -10h-6q-12 5 -24 15.5t-22 21.5q0 -1 -5 4.5l-10.5 12
l-9.5 11.5t-2 3q-3 4 -4 5.5l-1 1.5v0.5t-2 2.5q-9 -2 -26 0q2 0 -3 -0.5t-12.5 0t-14 1t-6.5 1.5q-12 2 -26 6t-27 11l-3 7z" />
    <glyph glyph-name="dieresis" unicode="&#xa8;" horiz-adv-x="178" 
d="M46 351q1 1 -3 -1q-3 -2 -10.5 -5t-21.5 -11v2q4 4 8.5 7.5t8.5 7.5q6 6 10.5 9.5t5.5 5.5q2 2 3 2t4 5v1l7 2h3q1 -1 2 -1q5 -1 13 -6q8 -2 10.5 -3t4.5 -3q2 -3 4 -3t4 -2q2 -3 2.5 -8.5t-3.5 -9.5t-5.5 -5t-6.5 -6q-3 -1 -6 -4q-1 -2 -2 -2.5t-1 -1.5q-5 -5 -13 -11
t-16 -14q0 -1 -2 -3q-13 -4 -17 2q-5 5 -5 11t-8 14q-1 1 -1 1.5t-1 1.5q2 2 4.5 3.5t4.5 3.5q2 1 5.5 4.5l7.5 7.5t10 9zM111 326q1 1 -3 -1q-3 -2 -10.5 -5t-21.5 -11v2q4 4 8.5 7.5t8.5 7.5q6 6 10.5 9.5t5.5 5.5q2 2 3 2t4 5v1l7 2h3q1 -1 2 -1q5 -1 13 -6q8 -2 10.5 -3
t4.5 -3q2 -3 4 -3t4 -2q2 -3 2.5 -8.5t-3.5 -9.5t-5.5 -5t-6.5 -6q-3 -1 -6 -4q-1 -2 -2 -2.5t-1 -1.5q-5 -5 -13 -11t-16 -14q0 -1 -2 -3q-13 -4 -17 2q-5 5 -5 11t-8 14q-1 1 -1 1.5t-1 1.5q2 2 4.5 3.5t4.5 3.5q2 1 5.5 4.5l7.5 7.5t10 9z" />
    <glyph glyph-name="tilde" unicode="&#x2dc;" horiz-adv-x="257" 
d="M46 330q-2 1 -3 2q-1 0 -1 1q-2 2 -5.5 6.5t-6.5 11.5q-1 2 -4 9t-4.5 15t1 15.5t12.5 10.5l11 2q2 -1 4 -0.5t4 0.5t3 1q4 -1 6.5 -1h4.5h7q5 0 10 0.5t9 -0.5q7 1 9 -1t7 -4q4 -3 5 -3t3 -3q2 -2 2 -2.5t1 -1.5q1 -2 -2.5 -0.5t-0.5 -0.5l3 -7q2 -2 1.5 -2t3.5 -2l6 -6
q4 -3 3 -4t2 -5q0 -2 0 -1.5t-1 2.5l-24.5 5t-50.5 1q7 2 15 3q14 2 36 0l-2 1q-3 1 -9 1q-2 0 -7.5 1t-7.5 -1q-2 1 -9.5 1t-17.5 1q-2 -2 -4 -3.5t-2 -2.5h1q2 -4 23 -15.5t57 -26.5l52 -17l28 -8l-3 -1q1 -1 2 -1h1q6 -6 12 -18q1 -2 4 -9t4 -15t-1 -15.5t-12 -10.5
l-11 -3q-5 1 -8 0.5t-4 -0.5q-3 0 -6 0.5t-4 -0.5q-4 2 -7 0q-5 0 -10 -0.5t-8 -0.5q-7 1 -9.5 2.5t-7.5 3.5q-4 3 -4.5 3t-2.5 2q-3 2 -3 3t-2 3q-1 1 2.5 0t1.5 1l-3 6q-2 3 -4 4l-7 6q-4 3 -3.5 4t-2.5 6q0 2 1 1t1 -3l24.5 -5t49.5 0q-7 -2 -15 -3q-7 -1 -16 -1.5
t-20 1.5l2 -1h1q3 -2 4.5 -1.5t4.5 0.5q2 -1 7.5 -1.5t7.5 0.5q2 -1 9 -0.5t17 0.5q6 0 6 5q-2 2 -22 13t-55 25l-55 20l-28 8h4z" />
    <glyph glyph-name="ring" unicode="&#x2da;" horiz-adv-x="114" 
d="M47 326q1 1 -3 -1q-3 -2 -10.5 -5t-21.5 -11v2q4 4 8.5 7.5t8.5 7.5q6 6 10.5 9.5t5.5 5.5q2 2 3 2t4 5v1l7 2h3q1 -1 2 -1q5 -1 13 -6q8 -2 10.5 -3t4.5 -3q2 -3 4 -3t4 -2q2 -3 2.5 -8.5t-3.5 -9.5t-5.5 -5t-6.5 -6q-3 -1 -6 -4q-1 -2 -2 -2.5t-1 -1.5q-5 -5 -13 -11
t-16 -14q0 -1 -2 -3q-13 -4 -17 2q-5 5 -5 11t-8 14q-1 1 -1 1.5t-1 1.5q2 2 4.5 3.5t4.5 3.5q2 1 5.5 4.5l7.5 7.5t10 9zM41 307q-2 -1 -1.5 -1.5t-0.5 -1.5q0 -1 1 -2q3 -3 3 -5.5t2 -4.5q1 -3 7 -1q1 0 1 1q3 4 6.5 6.5t5.5 4.5l2 2l2 1q4 3 6 5q3 3 1 8q-1 1 -1.5 0.5
t-2.5 1.5l-6 2q-2 2 -3 2t-2 1h-1h-2h-1q-1 0 -1 -0.5t-1 -0.5q0 -1 -6 -7t-8 -11z" />
    <glyph glyph-name="caron" unicode="&#x2c7;" horiz-adv-x="228" 
d="M219 231v5v-1q-2 0 0 -1t-1 -1q-2 1 -7 1h-9.5t-8 0.5t-1.5 0.5q2 2 11 4t13 3q-9 0 -22.5 -1.5t-28.5 -3.5t-29 -4.5t-22 -4.5q0 -3 -8 -1t-19 0h-2l-16 26l-23 44.5t-28 43.5l6.5 -13l7.5 -15q-1 2 -8 11.5t-11 11.5l-1 3l1 3l5 10h6q12 -5 24 -15.5t22 -21.5
q0 1 5 -4.5l10.5 -12l9.5 -11.5t2 -3q3 -4 4 -5.5l1 -1.5v-0.5t2 -2.5q9 2 26 0q-2 0 3 0.5t12.5 0t14 -1t6.5 -1.5q12 -2 26 -6t27 -11l3 -7z" />
    <glyph glyph-name="equal" unicode="=" horiz-adv-x="280" 
d="M251 113q2 -6 -3 -6q-1 0 -7.5 -0.5t-14 -0.5h-15h-10.5h-9.5t-13 -0.5t-11 -1t-2.5 0.5q2 0 7 1.5t11 3.5l16 4q-16 0 -35.5 -1.5t-37 -3t-29.5 -3t-13 -1.5q-2 0 -3.5 -1l-4.5 -3l20 -3q4 -1 9 -2q-3 0 -5.5 -0.5t-7 -1t-13 -1l-24.5 -1.5q-8 -2 -18 -2h-14
q-5 0 -4 1.5t-1 3.5q-3 3 -1 5.5t3 10.5q0 7 1.5 7t3.5 5q2 6 2 9t2 6t2.5 3.5t-0.5 3.5q0 1 1 2h2q4 0 11 0.5t20.5 1t34.5 0.5h53h4h4q18 0 40 -1t42 -4q7 -2 7 -6v-9v-8v-3q0 -4 1 -5zM30 198q-2 6 3 6q1 0 7.5 0.5t14 0.5h15h10.5h9.5t13 0.5t11 1t2.5 -0.5t-7.5 -2
t-11.5 -3q-7 -2 -15 -4q16 0 35.5 1.5t37 3t29.5 3t13 1.5q2 0 3.5 1l4.5 3q-6 0 -11.5 1t-9.5 2l-8 2q3 0 5.5 0.5t7 1t13 1l24.5 1.5q8 2 18 2h14q5 0 4 -1.5t1 -3.5q3 -3 1 -5.5t-3 -10.5q0 -7 -1.5 -7t-3.5 -5q-2 -6 -2 -9t-2 -6t-2.5 -3.5t0.5 -3.5q0 -1 -1 -2h-2
q-4 0 -11 -0.5t-20.5 -1t-34.5 -0.5h-53h-4h-4q-18 0 -40 1t-42 4q-7 2 -7 6q-1 1 -0.5 3.5t0.5 5.5v8v3q0 4 -1 5z" />
    <glyph glyph-name="hyphen" unicode="-" horiz-adv-x="327" 
d="M45 172q-2 6 3 6q1 0 7.5 0.5t14 0.5h15h10.5h9.5t13 0.5t11 1t2.5 -0.5t-7.5 -2t-11.5 -3q-7 -2 -15 -4q16 0 35.5 1.5t37 3t29.5 3t13 1.5q2 0 3.5 1l4.5 3q-6 0 -11.5 1t-9.5 2l-8 2q3 0 5.5 0.5t7 1t13 1l24.5 1.5q8 2 18 2h14q5 0 4 -1.5t1 -3.5q3 -3 1 -5.5
t-3 -10.5q0 -7 -1.5 -7t-3.5 -5q-2 -6 -2 -9t-2 -6t-2.5 -3.5t0.5 -3.5q0 -1 -1 -2h-2q-4 0 -11 -0.5t-20.5 -1t-34.5 -0.5h-53h-4h-4q-18 0 -40 1t-42 4q-7 2 -7 6q-1 1 -0.5 3.5t0.5 5.5v8v3q0 4 -1 5z" />
    <glyph glyph-name="plus" unicode="+" horiz-adv-x="254" 
d="M9 167q-2 6 3 6q1 0 7.5 0.5t14 0.5h15h10.5h9.5t13 0.5t11 1t2.5 -0.5t-7.5 -2t-11.5 -3q-7 -2 -15 -4q25 0 52 3q2 15 2.5 25.5t1.5 12.5q0 2 -0.5 3.5l-1.5 4.5q-2 -6 -3.5 -11.5t-3.5 -9.5l-4 -8l6 50q0 8 1.5 18t2.5 14q1 5 2 4t4 1q4 3 6 1t10 -3q7 0 6.5 -1.5
t4.5 -3.5t8 -2t6 -2l2.5 -2.5t3.5 0.5q1 0 2 -1v-2q-1 -6 -3 -21.5t-9 -51.5l48 4q8 2 18 2h14q5 0 4 -1.5t1 -3.5q3 -3 1 -5.5t-3 -10.5q0 -7 -1.5 -7t-3.5 -5q-2 -6 -2 -9t-2 -6t-2.5 -3.5t0.5 -3.5q0 -1 -1 -2h-2q-6 -1 -24 -1.5t-56 -0.5v-1l-9 -40t-12 -42q-4 -7 -7 -7
q-2 -1 -4.5 -0.5t-5.5 0.5h-7h-3q-5 0 -6 -1q-5 -2 -5 3q0 1 1 7.5t2.5 14t2.5 15t2 10.5t2 9.5t1.5 13t1.5 11t1 2.5v-7.5t1 -11.5q1 -7 2 -15q2 8 3 18l2 21h-10q-18 0 -40 1t-42 4q-7 2 -7 6q-1 1 -0.5 3.5t0.5 5.5v8v3q0 4 -1 5zM156 183q0 -3 -2 -11q9 1 15 2t7 1
q2 0 3.5 1l4.5 3q-10 1 -17.5 2t-10.5 2z" />
    <glyph glyph-name="comma" unicode="," horiz-adv-x="165" 
d="M7 -70l2 -2q1 0 1 1q3 1 7 5.5t8 8t6.5 6t1.5 1.5q-1 -3 -7 -11.5l-9 -12.5q10 9 24.5 26l28 33.5t23 29.5l9.5 13q2 2 2 4t1 5q-16 -11 -20 -11l28 29l11 10.5t9 7.5q4 2 3 1t3 -3q2 0 2 -3t4 -8q4 -8 2.5 -9t0.5 -6t3.5 -7t1.5 -6q1 -3 0.5 -4t0.5 -2q2 -2 1 -3h-1
q-3 -5 -11 -15.5t-31 -31.5l-5.5 -5l-11.5 -10l-11 -9.5t-5 -3.5l-26.5 -19t-28.5 -15l-8 1l-5 9l-2 4zM9 -72q1 -1 1 -2q0 1 0.5 1t0.5 1h-2z" />
    <glyph glyph-name="period" unicode="." horiz-adv-x="114" 
d="M47 37q1 1 -3 -1q-3 -2 -10.5 -5t-21.5 -11v2q4 4 8.5 7.5t8.5 7.5q6 6 10.5 9.5t5.5 5.5q2 2 3 2t4 5v1l7 2h3q1 -1 2 -1q5 -1 13 -6q8 -2 10.5 -3t4.5 -3q2 -3 4 -3t4 -2q2 -3 2.5 -8.5t-3.5 -9.5t-5.5 -5t-6.5 -6q-3 -1 -6 -4q-1 -2 -2 -2.5t-1 -1.5q-5 -5 -13 -11
t-16 -14q0 -1 -2 -3q-13 -4 -17 2q-5 5 -5 11t-8 14q-1 1 -1 1.5t-1 1.5q2 2 4.5 3.5t4.5 3.5q2 1 5.5 4.5l7.5 7.5t10 9z" />
    <glyph glyph-name="slash" unicode="/" horiz-adv-x="380" 
d="M370 418q1 -4 2.5 -3t-1.5 -4l-6 -9t-9 -12q-10 -11 -16 -16q-7 -5 -12.5 -8.5t-7.5 -5.5l-15.5 -16l-37.5 -39.5l-51.5 -56l-56.5 -65.5l-53.5 -68t-41.5 -63q7 7 13 12q5 5 10 8.5t7 5.5q1 1 -2 -2.5t-7.5 -9.5l-9 -12t-6.5 -9t-5.5 -10t-8 -14.5l-8 -13.5t-4.5 -7
q-3 -5 -7 1q-1 1 -1.5 2t-1.5 2t-3 1q-4 2 -7 4t-5 3.5t-3 2.5q0 1 -0.5 5t-0.5 8t-1 7.5t-2 3.5q-3 0 0.5 5.5t5.5 9.5q1 4 2.5 7.5t3.5 6.5q44 77 89.5 128.5l77.5 89.5q20 23 20 21l25.5 30.5l24.5 28.5l18 20t9 9q2 2 7 6.5l10 9l9 8t5 4.5t-6 5q-4 4 -2 6q2 1 4 1
q5 0 6 -1q2 -2 2.5 -1.5t4.5 0.5q1 -1 3 -1l4 -2t7 -3q6 -2 7 0t8 -2q6 -4 9.5 -3.5t4.5 -4.5z" />
    <glyph glyph-name="exclam" unicode="!" horiz-adv-x="445" 
d="M435 418q1 -4 2.5 -3t-1.5 -4l-6 -9t-9 -12q-10 -11 -16 -16q-7 -5 -12.5 -8.5t-7.5 -5.5l-15.5 -16l-37.5 -39.5l-51.5 -56l-56.5 -65.5l-53.5 -68t-41.5 -63q7 7 13 12q5 5 10 8.5t7 5.5q1 1 -2 -2.5t-7.5 -9.5l-9 -12t-6.5 -9t-5.5 -10t-8 -14.5l-8 -13.5t-4.5 -7
q-3 -5 -7 1q-1 1 -1.5 2t-1.5 2t-3 1q-4 2 -7 4t-5 3.5t-3 2.5q0 1 -0.5 5t-0.5 8t-1 7.5t-2 3.5q-3 0 0.5 5.5t5.5 9.5q1 4 2.5 7.5t3.5 6.5q44 77 89.5 128.5l77.5 89.5q20 23 20 21l25.5 30.5l24.5 28.5l18 20t9 9q2 2 7 6.5l10 9l9 8t5 4.5t-6 5q-4 4 -2 6q2 1 4 1
q5 0 6 -1q2 -2 2.5 -1.5t4.5 0.5q1 -1 3 -1l4 -2t7 -3q6 -2 7 0t8 -2q6 -4 9.5 -3.5t4.5 -4.5zM70 -50q2 2 8.5 7.5t18.5 16.5q1 -1 1 -2q-3 -5 -6.5 -9.5t-6.5 -9.5q-4 -8 -7.5 -12t-3.5 -6q-1 -2 -2 -3t-3 -6v-1l-6 -4q-2 0 -3 -1q-1 1 -2 1q-4 0 -14 2q-8 1 -11 0.5
t-5 1.5q-3 2 -5 1.5t-4 1.5t-4.5 7t0.5 10t4 7t5 7q4 4 4 6l2 4q4 6 10.5 14.5t11.5 17.5q-1 1 1 3q11 7 17 3q5 -3 7 -9.5t12 -11.5q-1 0 3 -2q-2 -2 -3.5 -4.5t-3.5 -4.5t-4.5 -6l-5.5 -9q-4 -5 -7 -12z" />
    <glyph glyph-name="quotesingle" unicode="'" horiz-adv-x="213" 
d="M145 271h1l1 -1q1 0 1 1q2 2 6 6.5t7.5 9l5.5 7t1 1.5q-1 -3 -5.5 -12t-6.5 -14q9 10 21 28.5l23 37t18.5 32.5t7.5 15q2 1 1.5 3t0.5 6q-14 -14 -18 -14l24 33l9 11.5t8 8.5q3 3 3 1.5t3 -2.5q3 0 3 -3t5 -8q5 -6 3.5 -7.5t1.5 -6.5q2 -5 3.5 -7t2.5 -6q2 -2 1.5 -3
t0.5 -2q2 -2 2 -3h-1q-3 -5 -9.5 -17t-26.5 -35l-4.5 -5.5l-9.5 -11.5l-9.5 -11t-5.5 -4q-11 -11 -24 -22t-26 -19h-8l-7 8l-2 4z" />
    <glyph glyph-name="asterisk" unicode="*" horiz-adv-x="358" 
d="M204 488l-0.5 -5.5t-1 -12l-1 -13.5t-1.5 -10l30 36.5t13 17.5q1 1 3 9q-17 -12 -20 -12l29 29q5 5 11 10t9 7q4 3 3.5 1.5t2.5 -2.5t2.5 -4t3.5 -8q4 -7 2.5 -8t0.5 -8q2 -5 3 -6.5t1 -6.5q2 -3 1 -3.5t0 -2.5q1 0 1 -3v1l-12.5 -15.5t-31.5 -31.5q-1 0 -5 -3.5l-9 -8
l-10 -9t-8 -5.5q26 2 47 4.5t22 3.5q2 -1 3.5 0.5t4.5 3.5q-19 3 -22 6h41q16 0 26 -2q5 -1 3 -2t0 -3q2 -3 -0.5 -5t-3.5 -8q-2 -8 -4 -7.5t-5 -5.5q-2 -5 -3 -7t-4 -5q-1 -3 -1.5 -3t-1.5 -2q0 -2 -1 -3v1q-6 -1 -19.5 -2.5t-44.5 0.5l-5.5 0.5t-12 0.5t-13.5 0.5t-10 1.5
q20 -17 36.5 -29.5t17.5 -12.5q1 -1 9 -3q-12 17 -12 20l29 -29q5 -5 10 -11t7 -9q3 -4 1.5 -3.5t-2.5 -2.5t-4 -2.5t-8 -3.5q-7 -4 -8 -2.5t-8 -0.5q-5 -2 -6.5 -3t-6.5 -1q-3 -2 -3.5 -1t-2.5 0q0 -1 -2 -1l-15.5 12.5t-31.5 31.5q0 1 -3.5 5l-8 9l-9 10t-5.5 8
q2 -26 4.5 -47t3.5 -22q-1 -2 0.5 -3.5t3.5 -4.5q3 19 6 22v-41q0 -16 -2 -26q-1 -5 -2 -3t-3 0q-3 -2 -5 0.5t-8 3.5q-8 2 -7.5 4t-5.5 5q-5 2 -7 3t-5 4q-3 1 -3 1.5t-2 1.5q-2 0 -3 1h1q-1 6 -2.5 19.5t0.5 44.5l0.5 5t0.5 12t0.5 13.5t1.5 9.5l-29.5 -36t-12.5 -17
q-1 -1 -3 -9q17 12 20 12l-29 -29q-5 -5 -11 -10t-9 -7q-4 -3 -3.5 -1.5t-2.5 2.5t-2.5 4t-3.5 8q-4 7 -2.5 8t-0.5 8q-2 5 -3 6.5t-1 6.5q-2 3 -1 3.5t0 2.5q-1 0 -1 2l12.5 15.5t31.5 31.5l4 3.5l9.5 8l10.5 8.5t8 5q-26 -2 -47 -4.5t-22 -2.5q-2 1 -3.5 -0.5t-4.5 -3.5
q19 -3 22 -6h-41q-16 0 -26 2q-5 1 -3 2t0 3q-2 3 0.5 5t3.5 8q2 8 4 7.5t5 5.5q2 5 3 7t4 5q1 3 1.5 3t1.5 2q0 2 1 3v-1q6 1 19.5 2.5t44.5 -0.5l5 -0.5t12 -1l13.5 -1t9.5 -1.5l-36 30t-17 13q-1 1 -9 3q12 -17 12 -20l-29 29q-5 5 -10 11t-7 9q-3 4 -1.5 3.5t2.5 2.5
t4 2.5t8 3.5q7 4 8 2.5t8 0.5q5 2 6.5 3t6.5 1q3 2 3.5 1t2.5 0l2 1l15.5 -12.5t31.5 -31.5q0 -1 3.5 -5l8 -9t8.5 -10t5 -8q-2 26 -4.5 47t-2.5 22q1 2 -0.5 3.5t-3.5 4.5q-3 -19 -6 -22v41q0 16 2 26q1 5 2 3t3 0q3 2 5 -0.5t8 -3.5q8 -2 7.5 -4t5.5 -5q5 -2 7 -3t5 -4
q3 -1 3 -1.5t2 -1.5q2 0 3 -1h-1q1 -6 2.5 -19.5t-0.5 -44.5z" />
    <glyph glyph-name="colon" unicode=":" 
d="M44 81q1 1 -3 -1q-3 -2 -10.5 -5t-21.5 -11v2q4 4 8.5 7.5t8.5 7.5q6 6 10.5 9.5t5.5 5.5q2 2 3 2t4 5v1l7 2h3q1 -1 2 -1q5 -1 13 -6q8 -2 10.5 -3t4.5 -3q2 -3 4 -3t4 -2q2 -3 2.5 -8.5t-3.5 -9.5t-5.5 -5t-6.5 -6q-3 -1 -6 -4q-1 -2 -2 -2.5t-1 -1.5q-5 -5 -13 -11
t-16 -14q0 -1 -2 -3q-13 -4 -17 2q-5 5 -5 11t-8 14q-1 1 -1 1.5t-1 1.5q2 2 4.5 3.5t4.5 3.5q2 1 5.5 4.5l7.5 7.5t10 9zM121 204q1 1 -3 -1q-3 -2 -10.5 -5t-21.5 -11v2q4 4 8.5 7.5t8.5 7.5q6 6 10.5 9.5t5.5 5.5q2 2 3 2t4 5v1l7 2h3q1 -1 2 -1q5 -1 13 -6q8 -2 10.5 -3
t4.5 -3q2 -3 4 -3t4 -2q2 -3 2.5 -8.5t-3.5 -9.5t-5.5 -5t-6.5 -6q-3 -1 -6 -4q-1 -2 -2 -2.5t-1 -1.5q-5 -5 -13 -11t-16 -14q0 -1 -2 -3q-13 -4 -17 2q-5 5 -5 11t-8 14q-1 1 -1 1.5t-1 1.5q2 2 4.5 3.5t4.5 3.5q2 1 5.5 4.5l7.5 7.5t10 9z" />
    <glyph glyph-name="semicolon" unicode=";" horiz-adv-x="240" 
d="M176 204q1 1 -3 -1q-3 -2 -10.5 -5t-21.5 -11v2q4 4 8.5 7.5t8.5 7.5q6 6 10.5 9.5t5.5 5.5q2 2 3 2t4 5v1l7 2h3q1 -1 2 -1q5 -1 13 -6q8 -2 10.5 -3t4.5 -3q2 -3 4 -3t4 -2q2 -3 2.5 -8.5t-3.5 -9.5t-5.5 -5t-6.5 -6q-3 -1 -6 -4q-1 -2 -2 -2.5t-1 -1.5q-5 -5 -13 -11
t-16 -14q0 -1 -2 -3q-13 -4 -17 2q-5 5 -5 11t-8 14q-1 1 -1 1.5t-1 1.5q2 2 4.5 3.5t4.5 3.5q2 1 5.5 4.5l7.5 7.5t10 9zM7 -12l2 -2q1 0 1 1q3 1 7 5.5t8 8t6.5 6t1.5 1.5q-1 -3 -7 -11.5l-9 -12.5q10 9 24.5 26l28 33.5t23 29.5l9.5 13q2 2 2 4t1 5q-16 -11 -20 -11
l28 29l11 10.5t9 7.5q4 2 3 1t3 -3q2 0 2 -3t4 -8q4 -8 2.5 -9t0.5 -6t3.5 -7t1.5 -6q1 -3 0.5 -4t0.5 -2q2 -2 1 -3h-1q-3 -5 -11 -15.5t-31 -31.5l-5.5 -5l-11.5 -10l-11 -9.5t-5 -3.5l-26.5 -19t-28.5 -15l-8 1l-5 9l-2 4zM9 -14q1 -1 1 -2q0 1 0.5 1t0.5 1h-2z" />
    <glyph glyph-name="parenleft" unicode="(" horiz-adv-x="310" 
d="M183 337q4 2 9.5 8t7.5 8q1 2 3.5 5t6.5 4q4 2 8.5 5t6.5 5t4.5 6t6.5 6q-5 -3 -14.5 -9.5t-21.5 -16l-25.5 -21l-26.5 -23.5l16 10l11.5 7.5t7.5 5.5zM51 0q-14 7 -21.5 20t-10.5 21q-1 2 -2 5t-2 5t-1 4.5t-1 4.5q-3 20 -2 37v3v1q1 14 3.5 26.5t5.5 22.5q4 11 7 21
q-1 -5 -3 -11q-3 -12 -5 -29q14 38 34 70.5t40 57.5q23 29 47 53q32 32 66 58q29 22 65 39t71 15q5 -1 9.5 -2t5.5 -1.5t-2.5 -0.5t-13.5 2q-1 1 -3 1l-25 -21q2 0 3 -1t3 0h1q-20 -9 -48.5 -32.5t-58.5 -53t-58.5 -61.5t-48.5 -58q0 1 -2 -5q-2 -5 -3.5 -6.5t-2.5 -3.5
q-2 -3 -1.5 -2.5t-1.5 -4.5t-3 -7t-3 -5q-2 -4 -4 -5.5t-4 -4.5q-2 -2 -5.5 -7.5l-6.5 -10.5q-11 -24 -12 -42q-1 -1 -1 -2v-3q-2 -18 1 -30q2 -11 7 -19t10 -13q6 -6 19 -8q-20 -9 -28 -2z" />
    <glyph glyph-name="parenright" unicode=")" horiz-adv-x="366" 
d="M353 358q2 -9 2.5 -18.5t-0.5 -18.5v-3v-1q-2 -14 -4.5 -26.5l-4.5 -22.5l-6 -21q1 5 3 11q1 5 2 12.5t2 16.5q-9 -27 -22.5 -51t-27.5 -45t-27.5 -37.5t-23.5 -27.5q-5 -5 -8.5 -9t-5.5 -6l-5 -5q-28 -32 -60 -57q-27 -22 -60.5 -39.5t-68.5 -17.5h-6l-10 2q-10 2 -17 6
l14 15q8 -7 28 2t48.5 32.5t58.5 53t58 61.5t48 58l2 5t3.5 6.5l3.5 3.5q1 3 0.5 2.5t1.5 4.5l6 12q2 4 4.5 5.5t4.5 4.5q2 2 5 7.5t7 10.5q0 1 0.5 1.5t0.5 2.5q5 11 7 20.5t4 17.5v2q0 1 0.5 1.5t0.5 1.5q1 15 -2 30l-3 12q-2 8 -4.5 14t-6.5 10q-4 3 -9.5 4.5t-11.5 -0.5
h-1q-2 -1 -3 0t-3 1l25 21q2 0 3 -1q10 1 21 -4q7 -5 14 -11q3 -3 5.5 -6.5t4.5 -7.5q3 -5 4.5 -9t3.5 -7q1 -2 1.5 -5t1.5 -5q2 -6 2 -9z" />
    <glyph glyph-name="less" unicode="&#x3c;" horiz-adv-x="347" 
d="M32 113q-1 0 -1 1t-0.5 1t-0.5 1l-4 2q-1 0 -1 1q-2 0 -2 1.5t1 2.5l2 2l1 1l4 4q1 1 1 2l4 6q2 3 5 6t11 2l7 -3l12 5q3 1 9 4.5t12 6.5l10 5t3 1l-28 -23q15 7 33 17.5l33.5 19.5t26.5 16t12 7q2 1 2.5 2.5t3.5 4.5q-12 -5 -22 -7q-5 -1 -9 -2l45 25q8 5 17 10t13 6
q5 3 4.5 1.5t3.5 -2.5t3.5 -4t2.5 -9q5 -5 2.5 -6t-0.5 -6q1 -6 3 -8.5t2 -5.5v-3.5t2 -2.5v-2q-1 -1 -2 -1q-3 -2 -9.5 -5.5l-19.5 -10l-33 -16l-51 -24.5q-2 -2 -3 -2q-2 -2 -5 -2l-22 -10q6 -2 11 -4.5t10 -4.5q1 0 1.5 -0.5t1.5 -0.5q1 -1 2 -1l3 -2l51 -24.5l33 -16
l19.5 -10t9.5 -4.5l2 -2v-2q-2 -2 -1.5 -3t-0.5 -3q0 -4 -1.5 -6.5t-3.5 -7.5t0.5 -6t-2.5 -6q-3 -6 -2.5 -9.5t-4.5 -3.5q-4 -1 -3 -2.5t-4 1.5q-4 1 -13 5.5t-16 9.5l-46 26q4 -1 9 -2q5 -2 10.5 -3.5t11.5 -3.5q-5 6 -6 7q-1 0 -12 6.5l-26.5 16t-33.5 19.5l-33 18
l28 -23q1 -2 -2.5 0.5t-9.5 5.5t-12 6.5t-9 4.5q-2 1 -5 2t-7 3l-7 -3q-10 -2 -10 2q-2 0 -6 6l-4 6v0z" />
    <glyph glyph-name="greater" unicode="&#x3e;" horiz-adv-x="346" 
d="M325 132q1 0 1 -1q0 -2 1 -2q2 -2 4 -2l1 -1q2 0 2 -1.5t-1 -2.5l-2 -2l-1 -1q-2 -1 -2.5 -2t-1.5 -2t-1 -2l-4 -6q-1 -2 -3 -4l-2 -2q-1 -1 -4 -2t-7 0l-7 3l-12 -5q-3 -1 -9 -4.5t-12 -6.5t-10 -5.5t-3 -0.5l28 23l-33 -18l-33.5 -19t-26.5 -16t-12 -7q-2 -1 -2.5 -2.5
t-3.5 -4.5l11.5 4t10.5 3t9 2l-45 -25q-8 -5 -17 -10t-13 -6q-5 -3 -4.5 -1.5t-3.5 2.5t-3.5 4t-2.5 9q-5 5 -2.5 6t0.5 6q-1 6 -3 8.5t-2 5.5v3.5t-2 2.5v2q1 1 2 1q3 2 9.5 5.5l19.5 10l33 16l51 24.5q2 2 3 2q2 2 5 2l22 10q-6 2 -11 4.5t-10 4.5q-2 0 -3 1q-1 0 -2 1
q-3 1 -3 2l-51 24.5l-33 16t-19.5 9.5t-9.5 5l-2 2v2q2 2 1.5 3t0.5 3q0 4 1.5 6.5t3.5 7.5t-0.5 6t2.5 6q3 6 2.5 9.5t4.5 3.5q4 1 3 2.5t4 -1.5q4 -1 13 -5.5t16 -9.5l46 -26q-5 0 -10 2q-5 1 -10 3t-11 4q5 -6 6 -7q1 0 12 -6.5l26.5 -16t33.5 -19.5l33 -18l-28 23
q-2 1 2 -1l10 -5t12 -6.5t9 -4.5q2 -1 5 -2t7 -3l7 3q10 2 10 -2l2.5 -2.5l3.5 -3.5l4 -6v0z" />
    <glyph glyph-name="guilsinglleft" unicode="&#x2039;" horiz-adv-x="346" 
d="M32 113q-1 0 -1 1t-0.5 1t-0.5 1l-4 2q-1 0 -1 1q-2 0 -2 1.5t1 2.5l2 2l1 1l4 4q1 1 1 2l4 6q2 3 5 6t11 2l7 -3l12 5q3 1 9 4.5t12 6.5l10 5t3 1l-28 -23q15 7 33 17.5l33.5 19.5t26.5 16t12 7q2 1 2.5 2.5t3.5 4.5q-12 -5 -22 -7q-5 -1 -9 -2l45 25q8 5 17 10t13 6
q5 3 4.5 1.5t3.5 -2.5t3.5 -4t2.5 -9q5 -5 2.5 -6t-0.5 -6q1 -6 3 -8.5t2 -5.5v-3.5t2 -2.5v-2q-1 -1 -2 -1q-3 -2 -9.5 -5.5l-19.5 -10l-33 -16l-51 -24.5q-2 -2 -3 -2q-2 -2 -5 -2l-22 -10q6 -2 11 -4.5t10 -4.5q1 0 1.5 -0.5t1.5 -0.5q1 -1 2 -1l3 -2l51 -24.5l33 -16
l19.5 -10t9.5 -4.5l2 -2v-2q-2 -2 -1.5 -3t-0.5 -3q0 -4 -1.5 -6.5t-3.5 -7.5t0.5 -6t-2.5 -6q-3 -6 -2.5 -9.5t-4.5 -3.5q-4 -1 -3 -2.5t-4 1.5q-4 1 -13 5.5t-16 9.5l-46 26q4 -1 9 -2q5 -2 10.5 -3.5t11.5 -3.5q-5 6 -6 7q-1 0 -12 6.5l-26.5 16t-33.5 19.5l-33 18
l28 -23q1 -2 -2.5 0.5t-9.5 5.5t-12 6.5t-9 4.5q-2 1 -5 2t-7 3l-7 -3q-10 -2 -10 2q-2 0 -6 6l-4 6v0z" />
    <glyph glyph-name="guillemotleft" unicode="&#xab;" horiz-adv-x="497" 
d="M32 113q-1 0 -1 1t-0.5 1t-0.5 1l-4 2q-1 0 -1 1q-2 0 -2 1.5t1 2.5l2 2l1 1l4 4q1 1 1 2l4 6q2 3 5 6t11 2l7 -3l12 5q3 1 9 4.5t12 6.5l10 5t3 1l-28 -23q15 7 33 17.5l33.5 19.5t26.5 16t12 7q2 1 2.5 2.5t3.5 4.5q-12 -5 -22 -7q-5 -1 -9 -2l45 25q8 5 17 10t13 6
q5 3 4.5 1.5t3.5 -2.5t3.5 -4t2.5 -9q5 -5 2.5 -6t-0.5 -6q1 -6 3 -8.5t2 -5.5v-3.5t2 -2.5v-2q-1 -1 -2 -1q-3 -2 -9.5 -5.5l-19.5 -10l-33 -16l-51 -24.5q-2 -2 -3 -2q-2 -2 -5 -2l-22 -10q6 -2 11 -4.5t10 -4.5q1 0 1.5 -0.5t1.5 -0.5q1 -1 2 -1l3 -2l51 -24.5l33 -16
l19.5 -10t9.5 -4.5l2 -2v-2q-2 -2 -1.5 -3t-0.5 -3q0 -4 -1.5 -6.5t-3.5 -7.5t0.5 -6t-2.5 -6q-3 -6 -2.5 -9.5t-4.5 -3.5q-4 -1 -3 -2.5t-4 1.5q-4 1 -13 5.5t-16 9.5l-46 26q4 -1 9 -2q5 -2 10.5 -3.5t11.5 -3.5q-5 6 -6 7q-1 0 -12 6.5l-26.5 16t-33.5 19.5l-33 18
l28 -23q1 -2 -2.5 0.5t-9.5 5.5t-12 6.5t-9 4.5q-2 1 -5 2t-7 3l-7 -3q-10 -2 -10 2q-2 0 -6 6zM178 113q-1 0 -1 1t-0.5 1t-0.5 1l-4 2q-1 0 -1 1q-2 0 -2 1.5t1 2.5l2 2l1 1l4 4q1 1 1 2l4 6q2 3 5 6t11 2l7 -3l12 5q3 1 9 4.5t12 6.5l10 5t3 1l-28 -23q15 7 33 17.5
l33.5 19.5t26.5 16t12 7q2 1 2.5 2.5t3.5 4.5q-12 -5 -22 -7q-5 -1 -9 -2l45 25q8 5 17 10t13 6q5 3 4.5 1.5t3.5 -2.5t3.5 -4t2.5 -9q5 -5 2.5 -6t-0.5 -6q1 -6 3 -8.5t2 -5.5v-3.5t2 -2.5v-2q-1 -1 -2 -1q-3 -2 -9.5 -5.5l-19.5 -10l-33 -16l-51 -24.5q-2 -2 -3 -2
q-2 -2 -5 -2l-22 -10q6 -2 11 -4.5t10 -4.5q1 0 1.5 -0.5t1.5 -0.5q1 -1 2 -1l3 -2l51 -24.5l33 -16l19.5 -10t9.5 -4.5l2 -2v-2q-2 -2 -1.5 -3t-0.5 -3q0 -4 -1.5 -6.5t-3.5 -7.5t0.5 -6t-2.5 -6q-3 -6 -2.5 -9.5t-4.5 -3.5q-4 -1 -3 -2.5t-4 1.5q-4 1 -13 5.5t-16 9.5
l-46 26q4 -1 9 -2q5 -2 10.5 -3.5t11.5 -3.5q-5 6 -6 7q-1 0 -12 6.5l-26.5 16t-33.5 19.5l-33 18l28 -23q1 -2 -2.5 0.5t-9.5 5.5t-12 6.5t-9 4.5q-2 1 -5 2t-7 3l-7 -3q-10 -2 -10 2q-2 0 -6 6z" />
    <glyph glyph-name="guillemotright" unicode="&#xbb;" horiz-adv-x="496" 
d="M468 107q-4 -6 -6 -6q0 -4 -10 -2l-7 3q-4 -2 -7 -3t-5 -2q-3 -1 -9 -4.5t-12 -6.5t-10 -5.5t-2 -0.5l28 23l-33 -18t-33.5 -19.5l-26.5 -16t-12 -6.5q-1 -1 -6 -7q6 2 11 3.5t10 3.5l10 2l-46 -26q-7 -5 -16 -9.5t-13 -5.5q-5 -3 -4 -1.5t-3 2.5q-5 0 -4.5 3.5t-2.5 9.5
q-5 5 -2.5 6t0.5 6t-3.5 7.5t-1.5 6.5q-1 2 -0.5 3t-1.5 3v2l2 2q3 1 9.5 4.5l19.5 10l33 16l51 24.5l3 2q1 0 2 1q1 0 1.5 0.5t1.5 0.5q5 2 10 4.5t11 4.5l-22 10q-3 0 -5 2q-1 0 -3 2l-51 24.5l-33 16l-19.5 10t-9.5 5.5q-1 0 -2 1v2q2 2 2 2.5v3.5t2 5.5t3 8.5
q2 5 -0.5 6t2.5 6q3 6 2.5 9t3.5 4t3.5 2.5t4.5 -1.5q4 -1 13 -6t17 -10l45 -25q-4 1 -9 2t-10.5 2.5t-11.5 4.5q3 -3 3.5 -4.5t2.5 -2.5q1 0 12 -7t26.5 -16l33.5 -19.5t33 -17.5l-28 23q-1 1 3 -1l10 -5t12 -6.5t9 -4.5l12 -5l7 3q4 1 7 0t4 -2q0 -1 1.5 -2.5l3.5 -3.5
l4 -6q0 -1 1 -2t1.5 -2t2.5 -2l1 -1l2 -2q1 -1 1 -2.5t-2 -1.5q0 -1 -1 -1q-1 -1 -2 -1t-2 -1t-1 -2t-1 -1zM322 107q-4 -6 -6 -6q0 -4 -10 -2l-7 3q-4 -2 -7 -3t-5 -2q-3 -1 -9 -4.5t-12 -6.5t-10 -5.5t-2 -0.5l28 23l-33 -18t-33.5 -19.5l-26.5 -16t-12 -6.5q-1 -1 -6 -7
q6 2 11 3.5t10 3.5l10 2l-46 -26q-7 -5 -16 -9.5t-13 -5.5q-5 -3 -4 -1.5t-3 2.5q-5 0 -4.5 3.5t-2.5 9.5q-5 5 -2.5 6t0.5 6t-3.5 7.5t-1.5 6.5q-1 2 -0.5 3t-1.5 3v2l2 2q3 1 9.5 4.5l19.5 10l33 16l51 24.5l3 2q1 0 2 1q1 0 1.5 0.5t1.5 0.5q5 2 10 4.5t11 4.5l-22 10
q-3 0 -5 2q-1 0 -3 2l-51 24.5l-33 16l-19.5 10t-9.5 5.5q-1 0 -2 1v2q2 2 2 2.5v3.5t2 5.5t3 8.5q2 5 -0.5 6t2.5 6q3 6 2.5 9t3.5 4t3.5 2.5t4.5 -1.5q4 -1 13 -6t17 -10l45 -25q-4 1 -9 2t-10.5 2.5t-11.5 4.5q3 -3 3.5 -4.5t2.5 -2.5q1 0 12 -7t26.5 -16l33.5 -19.5
t33 -17.5l-28 23q-1 1 3 -1l10 -5t12 -6.5t9 -4.5l12 -5l7 3q4 1 7 0t4 -2q0 -1 1.5 -2.5l3.5 -3.5l4 -6q0 -1 1 -2t1.5 -2t2.5 -2l1 -1l2 -2q1 -1 1 -2.5t-2 -1.5q0 -1 -1 -1q-1 -1 -2 -1t-2 -1t-1 -2t-1 -1z" />
    <glyph glyph-name="guilsinglright" unicode="&#x203a;" horiz-adv-x="347" 
d="M322 107q-4 -6 -6 -6q0 -4 -10 -2l-7 3q-4 -2 -7 -3t-5 -2q-3 -1 -9 -4.5t-12 -6.5t-10 -5.5t-2 -0.5l28 23l-33 -18t-33.5 -19.5l-26.5 -16t-12 -6.5q-1 -1 -6 -7q6 2 11 3.5t10 3.5l10 2l-46 -26q-7 -5 -16 -9.5t-13 -5.5q-5 -3 -4 -1.5t-3 2.5q-5 0 -4.5 3.5t-2.5 9.5
q-5 5 -2.5 6t0.5 6t-3.5 7.5t-1.5 6.5q-1 2 -0.5 3t-1.5 3v2l2 2q3 1 9.5 4.5l19.5 10l33 16l51 24.5l3 2q1 0 2 1q1 0 1.5 0.5t1.5 0.5q5 2 10 4.5t11 4.5l-22 10q-3 0 -5 2q-1 0 -3 2l-51 24.5l-33 16l-19.5 10t-9.5 5.5q-1 0 -2 1v2q2 2 2 2.5v3.5t2 5.5t3 8.5
q2 5 -0.5 6t2.5 6q3 6 2.5 9t3.5 4t3.5 2.5t4.5 -1.5q4 -1 13 -6t17 -10l45 -25q-4 1 -9 2t-10.5 2.5t-11.5 4.5q3 -3 3.5 -4.5t2.5 -2.5q1 0 12 -7t26.5 -16l33.5 -19.5t33 -17.5l-28 23q-1 1 3 -1l10 -5t12 -6.5t9 -4.5l12 -5l7 3q4 1 7 0t4 -2q0 -1 1.5 -2.5l3.5 -3.5
l4 -6q0 -1 1 -2t1.5 -2t2.5 -2l1 -1l2 -2q1 -1 1 -2.5t-2 -1.5q0 -1 -1 -1q-1 -1 -2 -1t-2 -1t-1 -2t-1 -1z" />
    <glyph glyph-name="minus" unicode="&#x2212;" horiz-adv-x="267" 
d="M14 172q-2 6 3 6q1 0 7.5 0.5t14 0.5h15h10.5h9.5t13 0.5t11 1t2.5 -0.5t-7.5 -2t-11.5 -3q-7 -2 -15 -4q16 0 35.5 1.5t37 3t29.5 3t13 1.5q2 0 3.5 1l4.5 3q-6 0 -11.5 1t-9.5 2l-8 2q3 0 5.5 0.5t7 1t13 1l24.5 1.5q8 2 18 2h14q5 0 4 -1.5t1 -3.5q3 -3 1 -5.5
t-3 -10.5q0 -7 -1.5 -7t-3.5 -5q-2 -6 -2 -9t-2 -6t-2.5 -3.5t0.5 -3.5q0 -1 -1 -2h-2q-4 0 -11 -0.5t-20.5 -1t-34.5 -0.5h-53h-4h-4q-18 0 -40 1t-42 4q-7 2 -7 6q-1 1 -0.5 3.5t0.5 5.5v8v3q0 4 -1 5z" />
    <glyph glyph-name="endash" unicode="&#x2013;" horiz-adv-x="459" 
d="M115 172q-2 6 3 6q1 0 7.5 0.5t14 0.5h15h10.5h9.5t13 0.5t11 1t2.5 -0.5t-7.5 -2t-11.5 -3q-7 -2 -15 -4q16 0 35.5 1.5t37 3t29.5 3t13 1.5q2 0 3.5 1l4.5 3q-6 0 -11.5 1t-9.5 2l-8 2q3 0 5.5 0.5t7 1t13 1l24.5 1.5q8 2 18 2h14q5 0 4 -1.5t1 -3.5q3 -3 1 -5.5
t-3 -10.5q0 -7 -1.5 -7t-3.5 -5q-2 -6 -2 -9t-2 -6t-2.5 -3.5t0.5 -3.5q0 -1 -1 -2h-2q-4 0 -11 -0.5t-20.5 -1t-34.5 -0.5h-53h-4h-4q-18 0 -40 1t-42 4q-7 2 -7 6q-1 1 -0.5 3.5t0.5 5.5v8v3q0 4 -1 5z" />
    <glyph glyph-name="emdash" unicode="&#x2014;" horiz-adv-x="601" 
d="M118 172q-2 2 0 4t5 2q2 0 12.5 0.5t23 0.5h24.5h17h16t22 0.5t18 1t4 -0.5t-12 -2t-19 -3q-11 -2 -25 -4q27 0 59 1.5t60.5 3t48 3t21.5 1.5q3 0 6 1t8 3q-11 0 -19 1t-15 2q-8 1 -14 2q5 0 8.5 0.5t11.5 1t22 1l40 1.5q14 2 30.5 2h22.5q9 0 6.5 -1.5t1.5 -3.5
q5 -3 2 -5.5t-5 -10.5q0 -6 -3 -6t-5 -5q-4 -6 -4 -9t-3 -6q-2 -3 -3.5 -3.5t0.5 -3.5q0 -1 -2 -2h-3q-6 0 -18 -0.5t-34 -1t-57 -0.5h-88h-6h-7q-29 0 -66 1t-69 4q-12 2 -12 6q-1 1 -0.5 3.5t0.5 5.5v8q1 1 1 3t-2 4z" />
    <glyph glyph-name="quoteright" unicode="&#x2019;" horiz-adv-x="150" 
d="M145 271h1l1 -1q1 0 1 1q2 2 6 6.5t7.5 9l5.5 7t1 1.5q-1 -3 -5.5 -12t-6.5 -14q9 10 21 28.5l23 37t18.5 32.5t7.5 15q2 1 1.5 3t0.5 6q-14 -14 -18 -14l24 33l9 11.5t8 8.5q3 3 3 1.5t3 -2.5q3 0 3 -3t5 -8q5 -6 3.5 -7.5t1.5 -6.5q2 -5 3.5 -7t2.5 -6q2 -2 1.5 -3
t0.5 -2q2 -2 2 -3h-1q-3 -5 -9.5 -17t-26.5 -35l-4.5 -5.5l-9.5 -11.5l-9.5 -11t-5.5 -4q-11 -11 -24 -22t-26 -19h-8l-7 8l-2 4z" />
    <glyph glyph-name="quotedblright" unicode="&#x201d;" horiz-adv-x="241" 
d="M10 271h1l1 -1q1 0 1 1q2 2 6 6.5t7.5 9l5.5 7t1 1.5q-1 -3 -5.5 -12t-6.5 -14q9 10 21 28.5l23 37t18.5 32.5t7.5 15q2 1 1.5 3t0.5 6q-14 -14 -18 -14l24 33l9 11.5t8 8.5q3 3 3 1.5t3 -2.5q3 0 3 -3t5 -8q5 -6 3.5 -7.5t1.5 -6.5q2 -5 3.5 -7t2.5 -6q2 -2 1.5 -3
t0.5 -2q2 -2 2 -3h-1q-3 -5 -9.5 -17t-26.5 -35l-4.5 -5.5l-9.5 -11.5l-9.5 -11t-5.5 -4q-11 -11 -24 -22t-26 -19h-8l-7 8l-2 4zM94 271h1l1 -1q1 0 1 1q2 2 6 6.5t7.5 9l5.5 7t1 1.5q-1 -3 -5.5 -12t-6.5 -14q9 10 21 28.5l23 37t18.5 32.5t7.5 15q2 1 1.5 3t0.5 6
q-14 -14 -18 -14l24 33l9 11.5t8 8.5q3 3 3 1.5t3 -2.5q3 0 3 -3t5 -8q5 -6 3.5 -7.5t1.5 -6.5q2 -5 3.5 -7t2.5 -6q2 -2 1.5 -3t0.5 -2q2 -2 2 -3h-1q-3 -5 -9.5 -17t-26.5 -35l-4.5 -5.5l-9.5 -11.5l-9.5 -11t-5.5 -4q-11 -11 -24 -22t-26 -19h-8l-7 8l-2 4z" />
    <glyph glyph-name="quotedblleft" unicode="&#x201c;" horiz-adv-x="241" 
d="M231 421h-1q-1 0 -1 1q-1 0 -1 -1q-2 -2 -6 -6.5t-7.5 -9t-5.5 -7.5t-1 -1q1 3 5.5 12t6.5 14q-9 -10 -21 -28.5l-23 -37t-18.5 -32.5t-7.5 -15q-2 -1 -1.5 -3t-0.5 -6q14 14 18 14l-24 -33l-9 -11.5t-8 -8.5q-3 -3 -3 -1.5t-3 2.5q-3 0 -3 3t-5 8q-5 6 -3.5 7.5
t-1.5 6.5q-2 5 -3.5 7t-2.5 6q-2 2 -1.5 3t-0.5 2q-2 2 -2 3h1q3 5 9.5 17t26.5 35l4.5 5.5l9.5 11.5l9.5 11t5.5 4q11 11 24 22t26 19h8l7 -8l2 -4zM147 421h-1q-1 0 -1 1q-1 0 -1 -1q-2 -2 -6 -6.5t-7.5 -9t-5.5 -7.5t-1 -1q1 3 5.5 12t6.5 14q-9 -10 -21 -28.5l-23 -37
t-18.5 -32.5t-7.5 -15q-2 -1 -1.5 -3t-0.5 -6q14 14 18 14l-24 -33l-9 -11.5t-8 -8.5q-3 -3 -3 -1.5t-3 2.5q-3 0 -3 3t-5 8q-5 6 -3.5 7.5t-1.5 6.5q-2 5 -3.5 7t-2.5 6q-2 2 -1.5 3t-0.5 2q-2 2 -2 3h1q3 5 9.5 17t26.5 35l4.5 5.5l9.5 11.5l9.5 11t5.5 4q11 11 24 22
t26 19h8l7 -8l2 -4z" />
    <glyph glyph-name="quoteleft" unicode="&#x2018;" horiz-adv-x="151" 
d="M144 421h-1q-1 0 -1 1q-1 0 -1 -1q-2 -2 -6 -6.5t-7.5 -9t-5.5 -7.5t-1 -1q1 3 5.5 12t6.5 14q-9 -10 -21 -28.5l-23 -37t-18.5 -32.5t-7.5 -15q-2 -1 -1.5 -3t-0.5 -6q14 14 18 14l-24 -33l-9 -11.5t-8 -8.5q-3 -3 -3 -1.5t-3 2.5q-3 0 -3 3t-5 8q-5 6 -3.5 7.5
t-1.5 6.5q-2 5 -3.5 7t-2.5 6q-2 2 -1.5 3t-0.5 2q-2 2 -2 3h1q3 5 9.5 17t26.5 35l4.5 5.5l9.5 11.5l9.5 11t5.5 4q11 11 24 22t26 19h8l7 -8l2 -4z" />
    <glyph glyph-name="quotesinglbase" unicode="&#x201a;" horiz-adv-x="165" 
d="M7 -70l2 -2q1 0 1 1q3 1 7 5.5t8 8t6.5 6t1.5 1.5q-1 -3 -7 -11.5l-9 -12.5q10 9 24.5 26l28 33.5t23 29.5l9.5 13q2 2 2 4t1 5q-16 -11 -20 -11l28 29l11 10.5t9 7.5q4 2 3 1t3 -3q2 0 2 -3t4 -8q4 -8 2.5 -9t0.5 -6t3.5 -7t1.5 -6q1 -3 0.5 -4t0.5 -2q2 -2 1 -3h-1
q-3 -5 -11 -15.5t-31 -31.5l-5.5 -5l-11.5 -10l-11 -9.5t-5 -3.5l-26.5 -19t-28.5 -15l-8 1l-5 9l-2 4zM9 -72q1 -1 1 -2q0 1 0.5 1t0.5 1h-2z" />
    <glyph glyph-name="quotedblbase" unicode="&#x201e;" horiz-adv-x="260" 
d="M10 -70l2 -2q1 0 1 1q3 1 7 5.5t8 8t6.5 6t1.5 1.5q-1 -3 -7 -11.5l-9 -12.5q10 9 24.5 26l28 33.5t23 29.5l9.5 13q2 2 2 4t1 5q-16 -11 -20 -11l28 29l11 10.5t9 7.5q4 2 3 1t3 -3q2 0 2 -3t4 -8q4 -8 2.5 -9t0.5 -6t3.5 -7t1.5 -6q1 -3 0.5 -4t0.5 -2q2 -2 1 -3h-1
q-3 -5 -11 -15.5t-31 -31.5l-5.5 -5l-11.5 -10l-11 -9.5t-5 -3.5l-26.5 -19t-28.5 -15l-8 1l-5 9l-2 4zM12 -72q1 -1 1 -2q0 1 0.5 1t0.5 1h-2zM99 -70l2 -2q1 0 1 1q3 1 7 5.5t8 8t6.5 6t1.5 1.5q-1 -3 -7 -11.5l-9 -12.5q10 9 24.5 26l28 33.5t23 29.5l9.5 13q2 2 2 4t1 5
q-16 -11 -20 -11l28 29l11 10.5t9 7.5q4 2 3 1t3 -3q2 0 2 -3t4 -8q4 -8 2.5 -9t0.5 -6t3.5 -7t1.5 -6q1 -3 0.5 -4t0.5 -2q2 -2 1 -3h-1q-3 -5 -11 -15.5t-31 -31.5l-5.5 -5l-11.5 -10l-11 -9.5t-5 -3.5l-26.5 -19t-28.5 -15l-8 1l-5 9l-2 4zM101 -72q1 -1 1 -2q0 1 0.5 1
t0.5 1h-2z" />
    <glyph glyph-name="ellipsis" unicode="&#x2026;" horiz-adv-x="453" 
d="M101 37q1 1 -3 -1q-3 -2 -10.5 -5t-21.5 -11v2q4 4 8.5 7.5t8.5 7.5q6 6 10.5 9.5t5.5 5.5q2 2 3 2t4 5v1l7 2h3q1 -1 2 -1q5 -1 13 -6q8 -2 10.5 -3t4.5 -3q2 -3 4 -3t4 -2q2 -3 2.5 -8.5t-3.5 -9.5t-5.5 -5t-6.5 -6q-3 -1 -6 -4q-1 -2 -2 -2.5t-1 -1.5q-5 -5 -13 -11
t-16 -14q0 -1 -2 -3q-13 -4 -17 2q-5 5 -5 11t-8 14q-1 1 -1 1.5t-1 1.5q2 2 4.5 3.5t4.5 3.5q2 1 5.5 4.5l7.5 7.5t10 9zM215 37q1 1 -3 -1q-3 -2 -10.5 -5t-21.5 -11v2q4 4 8.5 7.5t8.5 7.5q6 6 10.5 9.5t5.5 5.5q2 2 3 2t4 5v1l7 2h3q1 -1 2 -1q5 -1 13 -6q8 -2 10.5 -3
t4.5 -3q2 -3 4 -3t4 -2q2 -3 2.5 -8.5t-3.5 -9.5t-5.5 -5t-6.5 -6q-3 -1 -6 -4q-1 -2 -2 -2.5t-1 -1.5q-5 -5 -13 -11t-16 -14q0 -1 -2 -3q-13 -4 -17 2q-5 5 -5 11t-8 14q-1 1 -1 1.5t-1 1.5q2 2 4.5 3.5t4.5 3.5q2 1 5.5 4.5l7.5 7.5t10 9zM329 37q1 1 -3 -1
q-3 -2 -10.5 -5t-21.5 -11v2q4 4 8.5 7.5t8.5 7.5q6 6 10.5 9.5t5.5 5.5q2 2 3 2t4 5v1l7 2h3q1 -1 2 -1q5 -1 13 -6q8 -2 10.5 -3t4.5 -3q2 -3 4 -3t4 -2q2 -3 2.5 -8.5t-3.5 -9.5t-5.5 -5t-6.5 -6q-3 -1 -6 -4q-1 -2 -2 -2.5t-1 -1.5q-5 -5 -13 -11t-16 -14q0 -1 -2 -3
q-13 -4 -17 2q-5 5 -5 11t-8 14q-1 1 -1 1.5t-1 1.5q2 2 4.5 3.5t4.5 3.5q2 1 5.5 4.5l7.5 7.5t10 9z" />
    <glyph glyph-name="fraction" unicode="&#x2044;" horiz-adv-x="380" 
d="M370 418q1 -4 2.5 -3t-1.5 -4l-6 -9t-9 -12q-10 -11 -16 -16q-7 -5 -12.5 -8.5t-7.5 -5.5l-15.5 -16l-37.5 -39.5l-51.5 -56l-56.5 -65.5l-53.5 -68t-41.5 -63q7 7 13 12q5 5 10 8.5t7 5.5q1 1 -2 -2.5t-7.5 -9.5l-9 -12t-6.5 -9t-5.5 -10t-8 -14.5l-8 -13.5t-4.5 -7
q-3 -5 -7 1q-1 1 -1.5 2t-1.5 2t-3 1q-4 2 -7 4t-5 3.5t-3 2.5q0 1 -0.5 5t-0.5 8t-1 7.5t-2 3.5q-3 0 0.5 5.5t5.5 9.5q1 4 2.5 7.5t3.5 6.5q44 77 89.5 128.5l77.5 89.5q20 23 20 21l25.5 30.5l24.5 28.5l18 20t9 9q2 2 7 6.5l10 9l9 8t5 4.5t-6 5q-4 4 -2 6q2 1 4 1
q5 0 6 -1q2 -2 2.5 -1.5t4.5 0.5q1 -1 3 -1l4 -2t7 -3q6 -2 7 0t8 -2q6 -4 9.5 -3.5t4.5 -4.5z" />
    <glyph glyph-name="multiply" unicode="&#xd7;" horiz-adv-x="209" 
d="M194 81q-2 0 -5 -3l-2 -2q-2 -3 -5 -6q-6 -6 -7 -6q0 -1 -3 -1t-6 2q-16 11 -32 26l-29 28l-7 7q-8 -8 -13.5 -16l-10.5 -15l12 10l8.5 7t5.5 5q1 1 -1.5 -2.5t-6.5 -8.5l-8 -10.5t-5 -8.5q-2 -3 -6.5 -9l-9 -12l-8.5 -11.5t-4 -6.5q-3 -3 -6 2q0 2 -3 5l-2 2q-3 2 -6 5
q-6 6 -6 7q-3 3 0 10q9 19 20.5 38t22.5 35q-27 27 -39 40t-16 18l-1 2q0 1 1 2q2 2 2 2.5t1 3.5q2 3 3.5 5.5t4.5 8.5q2 5 1 6t4 6t5 8.5t5 3.5q3 0 3 2t4 -2l9 -9t12 -15l31 -36l30 42.5t13 17.5l2 1q1 0 2 -1q2 -2 2.5 -2h2.5q4 -2 6 -3.5t7 -3.5q5 -3 6 -1.5t6 -3.5
t8.5 -5t3.5 -5q1 -4 2.5 -3.5t-1.5 -3.5q-2 -4 -8 -12t-12 -14l-31 -39q1 4 3 8l4.5 9l5.5 11q-6 -3 -7 -4q-1 -2 -8 -10.5l-16 -19.5q8 -11 17 -21t17 -18l-8 14l-5.5 9.5t-3.5 6.5t2 -1t7 -8t8.5 -10t6.5 -7q3 -2 8 -7l10.5 -11l9.5 -10.5t5 -5.5t0.5 -3t-2.5 -3zM101 196
q-2 2 -8.5 6.5t-13.5 10.5l2 -8q1 -1 4.5 -6t9.5 -12q3 6 6 9z" />
    <glyph glyph-name="divide" unicode="&#xf7;" horiz-adv-x="309" 
d="M108 92q1 1 -3 -1q-3 -2 -10.5 -5t-21.5 -11v2q4 4 8.5 7.5t8.5 7.5q6 6 10.5 9.5t5.5 5.5q2 2 3 2t4 5v1l7 2h3q1 -1 2 -1q5 -1 13 -6q8 -2 10.5 -3t4.5 -3q2 -3 4 -3t4 -2q2 -3 2.5 -8.5t-3.5 -9.5l-5 -5t-7 -6q-3 -1 -6 -4q-1 -2 -2 -2.5t-1 -1.5q-5 -5 -13 -11
t-16 -14q0 -1 -2 -3q-13 -4 -17 2q-5 5 -5 11t-8 14q-1 1 -1 1.5t-1 1.5q2 2 4.5 3.5t4.5 3.5q2 1 5.5 4.5l7.5 7.5t10 9zM187 262q1 1 -3 -1q-3 -2 -10.5 -5t-21.5 -11v2q4 4 8.5 7.5t8.5 7.5q6 6 10.5 9.5t5.5 5.5q2 2 3 2t4 5v1l7 2h3q1 -1 2 -1q5 -1 13 -6q8 -2 10.5 -3
t4.5 -3q2 -3 4 -3t4 -2q2 -3 2.5 -8.5t-3.5 -9.5t-5.5 -5t-6.5 -6q-3 -1 -6 -4q-1 -2 -2 -2.5t-1 -1.5q-5 -5 -13 -11t-16 -14q0 -1 -2 -3q-13 -4 -17 2q-5 5 -5 11t-8 14q-1 1 -1 1.5t-1 1.5q2 2 4.5 3.5t4.5 3.5q2 1 5.5 4.5l7.5 7.5t10 9zM47 172q-2 6 3 6q1 0 7.5 0.5
t14 0.5h15h10.5h9.5t13 0.5t11 1t2.5 -0.5t-7.5 -2t-11.5 -3q-7 -2 -15 -4q16 0 35.5 1.5t37 3t29.5 3t13 1.5q2 0 3.5 1l4.5 3q-6 0 -11.5 1t-9.5 2l-8 2q3 0 5.5 0.5t7 1t13 1l24.5 1.5q8 2 18 2h14q5 0 4 -1.5t1 -3.5q3 -3 1 -5.5t-3 -10.5q0 -7 -1.5 -7t-3.5 -5
q-2 -6 -2 -9t-2 -6t-2.5 -3.5t0.5 -3.5q0 -1 -1 -2h-2q-4 0 -11 -0.5t-20.5 -1t-34.5 -0.5h-53h-4h-4q-18 0 -40 1t-42 4q-7 2 -7 6q-1 1 -0.5 3.5t0.5 5.5v8v3q0 4 -1 5z" />
    <glyph glyph-name="backslash" unicode="\" horiz-adv-x="381" 
d="M370 18q-1 -5 -4.5 -4.5t-9.5 -3.5q-7 -4 -8 -2t-7 0q-5 -2 -7 -3l-4 -2q-2 0 -3 -1q-4 0 -4.5 0.5t-2.5 -1.5q-1 -1 -6 -1q-2 0 -4 1q-2 2 2 6q7 4 6 5t-5 4.5l-9 8l-10 9t-7 6.5q-2 1 -9 9l-18 20l-24.5 28.5l-25.5 30.5q0 -2 -20 21l-77.5 89.5t-89.5 128.5
q-2 3 -3.5 6.5t-2.5 7.5q-2 4 -5.5 9.5t-0.5 5.5q1 0 2 3.5t1 7.5t0.5 8t0.5 5q1 1 3 2.5t5 3.5t7 4q2 0 3 1q2 2 3 4q4 6 7 1q1 -1 4.5 -7l8 -13.5t8 -14.5t5.5 -10t6.5 -9l9 -12l7.5 -10t2 -2q-2 1 -7 5t-10 9q-6 5 -13 12q16 -29 41.5 -63l53.5 -68l56.5 -65.5l51.5 -56
l37.5 -39.5l15.5 -16q2 -2 7.5 -5.5t12.5 -8.5q6 -5 16 -16q5 -6 9 -12l6 -9q3 -5 1.5 -4t-2.5 -3z" />
    <glyph glyph-name="underscore" unicode="_" horiz-adv-x="540" 
d="M15 -44q-2 2 0.5 4t6.5 2q2 0 15.5 0.5t30 0.5h32.5h22h21.5t28.5 0.5t23 1t5 -0.5t-15.5 -2t-24.5 -3q-15 -2 -33 -4q34 0 76 1.5t79 3t63 3t29 1.5t6.5 1l10.5 3q-13 0 -24.5 1t-19.5 2q-10 1 -18 2q6 0 11 0.5t15 1t28.5 1t52.5 1.5q18 2 39.5 2h29.5q6 0 7 -0.5t1 -1
v-1.5t2 -2q7 -3 2.5 -5.5t-6.5 -10.5q0 -7 -3.5 -7t-7.5 -5q-5 -6 -5 -9t-3 -6q-4 -3 -5.5 -3.5t0.5 -3.5q0 -1 -2 -2h-4q-8 0 -23 -0.5t-44 -1t-74.5 -0.5h-113.5h-9h-9q-38 0 -86 1t-90 4q-6 1 -10.5 3t-4.5 3q-1 1 -1 9q0 4 1 8v3q0 4 -2 5z" />
    <glyph glyph-name="percent" unicode="%" horiz-adv-x="407" 
d="M214 344q-4 -5 -17.5 -16.5t-31.5 -25.5l-37.5 -28.5t-35.5 -24.5q-22 -17 -27 -19q-8 0 -11.5 3.5t-12.5 11.5t-14.5 25t-4.5 28q0 5 5.5 17.5t13 26t15.5 25.5t14 17l21 21t34 36l-19 -17.5l-16 -15.5q-9 -8 -16 -15q17 21 35.5 40.5t33.5 33.5l34 31v-2q1 0 1 0.5
t1 0.5l1 1q2 1 8 1q3 0 5 -1l6 -8q1 0 3 -1l4 -2t4 -3l2 -2l1 -1q2 -2 5 -5.5t8 -8.5q4 -5 2 -3.5t-1 -4.5t-1 -7q5 1 10.5 -1t7.5 -9q6 -14 4.5 -27.5t-6.5 -22.5l-10 -21t-18 -27zM66 260q4 0 20.5 11.5t35.5 27.5l37 32.5t27 26.5t13.5 19.5t6.5 18.5l3.5 16t3.5 12
q5 11 1 18q-2 2 -3 4q-2 -1 -3 -0.5t-3 0.5q-2 1 -4 -1.5t-4 -4.5q-2 -1 -10 -7l-21 -21l-16 -18t-21 -22q-46 -48 -59 -80.5t-4 -31.5zM356 79q-4 -5 -17.5 -16.5t-31.5 -25.5l-37.5 -28.5t-35.5 -24.5q-22 -17 -27 -19q-8 0 -11.5 3.5t-12.5 11.5t-14.5 25t-4.5 28
q0 5 5.5 17.5t13 26t15.5 25.5t14 17l21 21t34 36l-19 -17.5l-16 -15.5q-9 -8 -16 -15q17 21 35.5 40.5t33.5 33.5l34 31v-2q1 0 1 0.5t1 0.5l1 1q2 1 8 1q3 0 5 -1l6 -8q1 0 3 -1l4 -2t4 -3l2 -2l1 -1q2 -2 5 -5.5t8 -8.5q4 -5 2 -3.5t-1 -4.5t-1 -7q5 1 10.5 -1t7.5 -9
q6 -14 4.5 -27.5t-6.5 -22.5l-10 -21t-18 -27zM208 -5q4 0 20.5 11.5t35.5 27.5l37 32.5t27 26.5t13.5 19.5t6.5 18.5l3.5 16t3.5 12q5 11 1 18q-2 2 -3 4q-2 -1 -3 -0.5t-3 0.5q-2 1 -4 -1.5t-4 -4.5q-2 -1 -10 -7l-21 -21l-16 -18t-21 -22q-46 -48 -59 -80.5t-4 -31.5z
M390 418q1 -4 2.5 -3t-1.5 -4l-6 -9t-9 -12q-10 -11 -16 -16q-7 -5 -12.5 -8.5t-7.5 -5.5l-15.5 -16l-37.5 -39.5l-51.5 -56l-56.5 -65.5l-53.5 -68t-41.5 -63q7 7 13 12q5 5 10 8.5t7 5.5q1 1 -2 -2.5t-7.5 -9.5l-9 -12t-6.5 -9t-5.5 -10t-8 -14.5l-8 -13.5t-4.5 -7
q-3 -5 -7 1q-1 1 -1.5 2t-1.5 2t-3 1q-4 2 -7 4t-5 3.5t-3 2.5q0 1 -0.5 5t-0.5 8t-1 7.5t-2 3.5q-3 0 0.5 5.5t5.5 9.5q1 4 2.5 7.5t3.5 6.5q44 77 89.5 128.5l77.5 89.5q20 23 20 21l25.5 30.5l24.5 28.5l18 20t9 9q2 2 7 6.5l10 9l9 8t5 4.5t-6 5q-4 4 -2 6q2 1 4 1
q5 0 6 -1q2 -2 2.5 -1.5t4.5 0.5q1 -1 3 -1l4 -2t7 -3q6 -2 7 0t8 -2q6 -4 9.5 -3.5t4.5 -4.5z" />
    <glyph glyph-name="dollar" unicode="$" horiz-adv-x="416" 
d="M408 418q1 -4 2.5 -3t-1.5 -4l-6 -9t-9 -12q-10 -11 -16 -16l-4 -3q3 -7 6.5 -12.5t5.5 -10.5q4 1 16 -4q5 -3 -2 -14q-4 -5 -8 -11q-15 -11 -34 -21.5t-36 -18.5l-4 -2t-5 -2q-5 -2 -9 -5q-9 -5 -16 -7t-12.5 -4.5t-10.5 -2.5h-4l-43 -48q32 -5 57 -12t31 -15q0 -1 1 -2
q0 -1 2 -5q5 -1 8.5 -4.5t1.5 -15.5q0 -6 -4.5 -19t-19.5 -24q-12 -12 -39.5 -30t-75.5 -34q3 1 11.5 5.5l20 10.5t24 13.5l23.5 14.5q-15 -8 -34.5 -17.5t-40.5 -18.5t-42.5 -16t-42.5 -8l-18 -31q-3 -5 -7 1q-1 1 -1.5 2t-1.5 2t-3 1q-4 2 -7 4t-5 3.5t-3 2.5q-1 2 -1 9.5
t-1 11.5q-4 2 -9 6t-11 14q-7 1 -9 4.5t-3 8.5t1 12q2 13 11 26q7 11 20.5 24t36.5 25q4 1 7 4l11 5q1 0 1.5 0.5t1.5 0.5q3 2 6.5 3t2.5 -1q0 -2 8 -2l11 14q-18 3 -28 3q-12 1 -20.5 4t-13.5 6q-6 4 -11 7l-12 22l-10.5 18.5t-7.5 14.5q-5 10 -5 14q-1 3 0 6q52 41 98 65
t84.5 37t67.5 16.5t48 2.5l7 7l8.5 8.5t8.5 7.5t5 4t-6 5q-4 4 -2 6q2 1 4 1q5 0 6 -1q2 -2 2.5 -1.5t4.5 0.5q1 -1 3 -1l4 -2t7 -3q6 -2 7 0t8 -2q6 -4 9.5 -3.5t4.5 -4.5zM83 230q7 -2 30.5 -5t52.5 -8l46 52q-4 -1 -7 -2t0 1l10 4q4 4 7 7.5t6 7.5q20 23 20 21l38 46
q-23 -3 -54.5 -12t-69.5 -28q-53 -26 -70.5 -41t-18.5 -18v-1q-3 -6 -3 -10t2.5 -8t10.5 -6zM274 155q1 1 -5.5 3.5t-18.5 5t-28 5t-33 5.5q-23 -28 -43 -55t-35 -52q4 0 10 2q7 7 11 9q1 1 -0.5 -1l-4.5 -6q19 5 39.5 13t40 18.5t37 24t30.5 28.5zM247 374q1 1 6 3l11 4.5
l11 4.5t7 3q-33 -6 -62.5 -15.5t-39.5 -13.5h16l16 8q3 2 7.5 2h6.5q2 1 9.5 1.5t11.5 2.5zM55 70q1 -3 4 -4l2 3l12 21t13 20q-15 -11 -25.5 -22t-5.5 -18zM350 352l-20 -21q8 3 13 7q3 2 6 3.5t5 3.5q3 2 5 3zM177 358h1h-1zM178 47h1h-1z" />
    <glyph glyph-name="Euro" unicode="&#x20ac;" horiz-adv-x="414" 
d="M13 208q-2 6 3 6q1 0 7.5 0.5t14 0.5h15h10.5h9.5t13 0.5t11 1t2.5 -0.5t-7.5 -2t-11.5 -3q-7 -2 -15 -4q7 0 15 0.5t16 0.5q2 5 5.5 9.5t6.5 9.5q11 18 28 36l28 29q11 14 17.5 17t8.5 6q2 4 17.5 17t28.5 22q11 7 15.5 9t6.5 6q-20 -10 -41 -25.5l-39 -29.5l-41 -36
q21 22 42 40t38.5 31.5t30.5 22.5t19 12v1l1 2q0 1 2 2q0 1 -2 3q-1 1 -2 1t-3 2t-2 4q-2 1 -1 2.5t2 1.5q0 1 6.5 -3.5t8.5 -4.5l2 -2q2 -1 5 -1.5t6 -2.5q11 -3 16.5 -7t8.5 -6t14 -4.5t13 -15.5q1 -13 -4 -40t-30 -58q-5 -4 -9 -6.5t-18 -2.5q-7 -2 -6.5 -2t-7.5 0
q-8 -1 -7 0.5t-3 -0.5q-4 -1 -5.5 -0.5t-3.5 0.5q-1 0 -0.5 1t1.5 1q8 5 12 7l6 3q0 1 1 2l19 17t17 18q5 8 5 18t-5 10q-4 0 -16 -9.5t-41 -29.5q-15 -10 -31 -25.5t-30 -32.5l23 2q8 2 18 2h14q5 0 4 -1.5t1 -3.5q3 -3 1 -5.5t-3 -10.5q0 -7 -1.5 -7t-3.5 -5q-2 -6 -2 -9
t-2 -6t-2.5 -3.5t0.5 -3.5q0 -1 -1 -2h-2q-7 -1 -26 -1.5t-61 -0.5l-8 -13h1h8q18 0 40 -1t42 -4q7 -2 7 -6v-9v-8v-3q0 -4 1 -5q2 -6 -3 -6q-1 0 -7.5 -0.5t-14 -0.5h-15h-10.5h-9.5t-13 -0.5t-11 -1t-2.5 0.5q2 0 7 1.5t11 3.5l16 4q-15 -1 -33 -1.5t-35 -2.5
q-4 -9 -7.5 -18.5t-4 -17.5t2.5 -14t12 -7q21 -3 52.5 10.5t64.5 35.5t64 49t52 50q14 14 20.5 20t8.5 8t0 -1q-8 -14 -13 -24q-5 -8 -7 -13.5t1 -0.5l8.5 11l10 13t7.5 8.5t1 -3.5q-2 -5 -5.5 -10t-8.5 -11.5t-13 -16l-20 -24.5q-4 -6 -21.5 -21.5t-41 -33.5t-47.5 -34.5
t-41 -24.5q-34 -17 -67 -18.5t-48 8.5q-14 9 -21.5 23.5t-4.5 31.5q0 2 0.5 3.5t0.5 3.5h-11q-8 -2 -18 -2h-14q-5 0 -4 1.5t-1 3.5q-3 3 -1 5.5t3 10.5q0 7 1.5 7t3.5 5q2 6 2 9t2 6t2.5 3.5t-0.5 3.5q0 1 1 2h2q5 0 17 0.5t38 1.5q2 3 6 13q-14 0 -28.5 1.5t-28.5 3.5
q-7 2 -7 6q-1 1 -0.5 3.5t0.5 5.5v8v3q0 4 -1 5zM231 81q14 9 31 22l32 25q18 14 36 30q-6 -5 -17.5 -12.5l-23 -15l-21 -14t-11.5 -7.5q-2 -2 -6 -6.5t-9 -9.5q-5 -6 -11 -12zM181 220q-2 -1 -2.5 -2t-1.5 -2h3q2 0 3.5 1l4.5 3h-7z" />
    <glyph glyph-name="cent" unicode="&#xa2;" horiz-adv-x="368" 
d="M327 197l8.5 11l10 13t7.5 8.5t1 -3.5q-2 -5 -5.5 -10t-8.5 -11.5t-13 -16l-20 -24.5q-4 -6 -21.5 -21.5t-41 -33.5t-47.5 -34.5t-41 -24.5q-20 -10 -40.5 -14.5t-37.5 -4.5l-14 -19q-2 -2 -5 -4q-2 -1 -3 -1q-2 0 -4 8q-2 4 -3 8q0 1 -1 3q-2 4 -3 4q-2 0 -2 2.5t2 4.5
l-4 3q-14 9 -21.5 23.5t-4.5 31.5q3 16 8.5 31t15.5 32l14.5 31.5t21.5 37.5q11 18 28 36l28 29q11 14 17.5 17t8.5 6q2 4 17.5 17t28.5 22q11 7 15.5 9t6.5 6q-20 -10 -41 -25.5l-39 -29.5l-41 -36q21 22 42 40t38.5 31.5t30.5 22.5t19 12v1l1 2q0 1 2 2q0 1 -2 3
q-1 1 -2 1t-3 2t-2 4q-2 1 -1 2.5t2 1.5q0 1 6.5 -3.5t8.5 -4.5l2 -2q2 -1 5 -1.5t6 -2.5l14 20q3 4 4 5t1.5 0.5t0.5 -1.5t1 0q3 1 9.5 2.5t7.5 -4.5q2 -1 0 -6.5t-5.5 -11.5t-6 -11t-1.5 -6q3 -2 14 -4.5t13 -15.5q1 -13 -4 -40t-30 -58q-5 -4 -9 -6.5t-18 -2.5
q-7 -2 -6.5 -2t-7.5 0q-8 -1 -7 0.5t-3 -0.5q-1 0 -2 -1l-29.5 -44l-38.5 -59q-1 -2 -2 -3.5t-1 -3.5q-4 -4 -4 -5l-46 -68q23 3 52.5 18t59.5 36t57.5 45.5t46.5 45.5q14 14 20.5 20t8.5 8t0 -1q-8 -14 -13 -24q-5 -8 -7 -13.5t1 -0.5zM97 107l26.5 43l28 46.5l25.5 42.5
l19 32q-14 -13 -28 -28t-25 -29l-25 -32q-3 -5 -7 -10q-7 -11 -16 -27q-8 -13 -14 -25q-5 -11 -9 -22.5t-3 -20.5q8 11 14 20.5t9 13.5t9.5 14.5l12.5 20.5l10 16.5t2 3.5zM269 323q-4 -8 -13 -22.5l-28 -43.5l6 2q0 1 1 2l19 17t17 18q5 8 5 18t-5 10h-1q0 -1 -1 -1z
M198 81q14 9 31 22l32 25q18 14 36 30q-6 -5 -17.5 -12.5l-23 -15l-21 -14t-11.5 -7.5q-2 -2 -6 -6.5t-9 -9.5q-5 -6 -11 -12z" />
    <glyph glyph-name="fi" unicode="&#xfb01;" horiz-adv-x="288" 
d="M110 27l1 2q1 24 14 50.5t29 48.5l7 13l5 8l5 6h-5l-1 -1l1 1h-32.5t-29.5 1q-1 -11 -3 -24t-6 -23q-6 -17 -17 -39l-19 -39l-12 -23.5t-20 -30.5l-8 -13l-14 -19q-8 -11 -12.5 -15.5t-6.5 -7.5l-4 -4l-12 -12l-8 -9l-3.5 -3.5l-3.5 -3.5l-31 -31.5t-22 -20.5
q-11 -10 -17 -10q-9 -6 -11 -2q-3 5 -7.5 8.5t-9.5 8.5q-3 3 -9 7q0 1 -0.5 1t-0.5 1l-4 3l-2 2q-2 2 -2 3v3q0 2 0.5 2.5t0.5 2.5q2 21 13 43.5t24 42t25 34t17 19.5l6 8l4 5q0 1 0.5 1.5t0.5 1.5q0 2 -1 1q0 -1 -0.5 -1t-0.5 -1h-1l-1 -1q-14 -16 -29.5 -36.5l-27.5 -37.5
l-11 -17l-9 -13l19 31l19.5 30.5l18 27t13.5 21.5q2 2 2 4l4 6q0 2 1 2q1 3 5 7v6l1 1q0 1 1 2l1 1q1 1 3.5 2.5t3.5 3.5v1l1 1l7 8l3 3l3 4q1 2 2 2.5t3 2.5q0 1 2 3l26 29l33 36l3 4q-3 0 -3.5 0.5t-5.5 -0.5q-6 -1 -10.5 4.5t-2.5 13.5q1 2 3 4q1 1 1 2h1q1 0 2 -0.5
t3 -0.5q3 0 4 1q1 0 1 1t2 1q3 -1 8 0t7 1h3.5t6.5 -1q1 1 5 1l23 26l18 20l19 20.5t17 19.5l9 9q8 10 16 18t15 16l17 19l-13 -16l-76 -86l-40 -45q2 0 3 1l42 45l36 40l8 9l39 43l10 11l9 11q1 2 5 6l12 12q3 4 7 7l6 6l8 7l7 5q1 2 2 2.5t2 1.5l6 5q2 2 3.5 3t2.5 3
q0 1 1 3v3l3 6q-1 0 -1 0.5t-1 0.5l-7 5h-1l-1 1v1l3 2h1q1 0 2 -1t3 -2l5 -3h1q0 -1 2 -3l1 -1q2 -2 3 -2h2q2 -2 4 -2q1 -1 3 -1l6 -2q0 -1 1 -1q2 -3 10 -9l1 -1l5 -3l6 -4t5 -2l5 -4l2 -2h1v-1h1l1 -1l-3 -3q-1 0 -1 -0.5t-1 -0.5q2 0 3 -1v-1l-5 -5l-4 -6q-1 0 -1 -1
l-4 -3l-3 -4q-1 -1 -1 -2q-1 -1 -1 0t2 7l-7 -8l-2 -2q0 -1 -1 -1q0 -1 -1 -1t-1 -1h-6q-2 0 -2 -2l-1 -1q-1 0 -1 -0.5t-1 -0.5l-10 -8l-6 -4t-5 -4l-3 -3l-3 -2l-4 -3l-1 -1q0 1 0.5 1t0.5 1l3 3q2 2 4 6l1 1q0 1 1 2q2 2 9 8l3.5 3.5l3.5 3.5q0 1 1 2h-2q-5 2 -6 1
q0 -1 -5 -6l-13 -13q-4 -7 -9 -10q-2 -3 -4.5 -6t-5.5 -6l-31 -32l-14 -15l-21 -23q-7 -8 -14 -15t-14 -15l-16 -17h1h-1l-1 -1q2 0 2.5 0.5t-0.5 0.5q3 0 11.5 0.5t17.5 0.5h17h10q6 -1 6 -2l26 29q0 1 2 1q4 5 10 10t11 10l10.5 8.5t5.5 5.5l2 2l3 6q-3 5 -10 7q-2 1 0 3
q1 1 3 1q1 -1 3 -2t3.5 -2t3.5 -2l4 -3h5q1 0 1 -0.5t1 -0.5q7 -2 13 -6q8 -2 10.5 -3t4.5 -3q2 -3 4 -3t4 -2q1 -2 1.5 -8t-3.5 -10l-5 -5t-6 -5l-6 -5l-4 -4q-4 -5 -12 -11t-16 -14q-5 -5 -14 -15.5t-15 -18.5q0 -2 -2 -4t-10 -13.5l-17.5 -24.5l-17.5 -24.5l-10 -14.5
t-5.5 -10l-6.5 -13.5t-4.5 -11t0.5 -4.5q3 1 10 6t8 1q0 -2 6 1.5t13 8.5t13.5 10.5t8.5 7.5t13.5 12.5t26 22.5l28.5 23t20 15h1q0 -1 0.5 -2t-1.5 -3q-4 -4 -8.5 -8t-7.5 -9q-2 -3 0 -1.5t5 3.5t6 5t4 3t4.5 3t7.5 6l6 4.5t1 -0.5q-3 -4 -10 -11.5t-10 -12.5t-6.5 -5.5
t-5.5 -3.5l-2 -4q3 0 -1 -6v-1l-2 -1l-27 -21.5l-34 -27l-31.5 -25t-19.5 -16.5q-10 -10 -17 -10q-9 -6 -11 -2q-3 5 -7 8.5l-10 8.5l-12.5 10t-5.5 8zM-82 -114q0 1 3 4q0 2 2 2l4 4l5 5q13 15 28 35l28.5 38.5l24 34t14.5 22.5l12 21.5t15.5 29.5l13.5 28t8 18l2 10
l-9 -10l-22 -24l-43 -49l-3 -4q-4 -4 -10 -12q-5 -5 -9.5 -10.5l-8.5 -10.5q-9 -10 -12 -16l-6 -7q-5 -5 -6 -9q2 0 3 1q2 0 3 -1v-1q1 -1 2.5 -0.5t1.5 -0.5l-2 -4q-2 -2 -7 -8.5t-12 -16.5l-5 -7l-4 -5l-7 -11l-13 -18q-3 -4 -4.5 -6.5t-2.5 -4.5q-4 -4 -7 -12l-2 -4
q-4 -8 -7 -15t-1 -8h1q3 2 8.5 8.5t5.5 2.5q0 -3 5 0l3 2l8 6zM327 315q1 1 -3 -1q-3 -2 -10.5 -5t-21.5 -11v2l17 15q6 6 10.5 9.5t5.5 5.5q2 2 3 2t4 5v1l7 2h3q1 -1 2 -1q5 -1 13 -6q8 -2 10.5 -3t4.5 -3q2 -3 4 -3t4 -2q2 -3 2.5 -8.5t-3.5 -9.5l-12 -11q-3 -1 -6 -4
q-1 -2 -2 -2.5t-1 -1.5q-5 -5 -13 -11t-16 -14q0 -1 -2 -3q-13 -4 -17 2q-5 5 -5 11t-8 14l-2 3l9 7q2 1 5.5 4.5l7.5 7.5t10 9zM120 186q2 -1 4 -1q1 0 1 -0.5t-4 -0.5l-9 -9h3q4 2 3.5 2.5t4.5 1.5q3 0 10.5 -0.5t16.5 -0.5h17.5h12.5l7 8h-2h-13h-21h-20.5h-10.5z
M193 185q0 -1 1 -1l6 6h1q5 3 10 7.5t8 7.5l6 6l-10 -6l-1 -1q-3 -2 -7.5 -6t-8.5 -8zM31 155q-1 1 -2 1l-7 -7l-13 -15l-4 -5q-2 -1 -2.5 -2t-1.5 -2l-6 -7l-3 -4l8 8l2 3l24 25zM-27 93l1 1l-5 -4q1 0 2 1zM194 343q-2 -2 -5 -5.5t-6 -6.5l16 17zM254 317q0 -2 -2 -2z
M-151 -83q-1 -1 -1 -2t-1 -1zM255 317h-1h1zM251 314l1 1z" />
    <glyph glyph-name="fl" unicode="&#xfb02;" horiz-adv-x="273" 
d="M280 130q1 0 4.5 3l7 6t6 4.5t1.5 -0.5l-21 -24q-3 -5 -6 -5.5t-5 -3.5l-2 -4q3 0 -2 -6v-1l-1 -1q-5 -7 -17.5 -20.5l-26.5 -28t-27.5 -27t-19.5 -18.5q-11 -10 -18 -10q-8 -5 -11 -2q-2 5 -6.5 8.5l-10.5 8.5l-12.5 10t-5.5 8q1 0 1 2q0 16 7 34t16.5 35t20.5 31.5
l20 25.5h-3q-19 -24 -34 -46.5t-19 -27.5q10 18 22.5 37.5l23.5 36.5h-31t-27 1q-1 -11 -3 -24t-6 -23q-6 -17 -17 -39l-19 -39l-12 -23.5t-20 -30.5l-8 -13l-14 -19q-8 -11 -12.5 -15.5t-6.5 -7.5l-4 -4l-12 -12l-8 -9l-3.5 -3.5l-3.5 -3.5l-31 -31.5t-22 -20.5
q-11 -10 -17 -10q-9 -6 -11 -2q-3 5 -7.5 8.5t-9.5 8.5q-3 3 -9 7q0 1 -0.5 1t-0.5 1l-4 3l-2 2q-2 2 -2 3v3q0 2 0.5 2.5t0.5 2.5q2 21 13 43.5t24 42t25 34t17 19.5l6 8l4 5q0 1 0.5 1.5t0.5 1.5q0 2 -1 1q0 -1 -0.5 -1t-0.5 -1h-1l-1 -1q-14 -16 -29.5 -36.5l-27.5 -37.5
l-11 -17l-9 -13l19 31l19.5 30.5l18 27t13.5 21.5q2 2 2 4l4 6q0 2 1 2q1 3 5 7v6l1 1q0 1 1 2l1 1q1 1 3.5 2.5t3.5 3.5v1l1 1l7 8l3 3l3 4q1 2 2 2.5t3 2.5q0 1 2 3l26 29l33 36l3 4q-3 0 -3.5 0.5t-5.5 -0.5q-6 -1 -10.5 4.5t-2.5 13.5q1 2 3 4q1 1 1 2h1q1 0 2 -0.5
t3 -0.5q3 0 4 1q1 0 1 1t2 1q3 -1 8 0t7 1h3.5t6.5 -1q1 1 5 1l23 26l18 20l19 20.5t17 19.5l9 9q8 10 16 18t15 16l17 19l-13 -16l-76 -86l-40 -45q2 0 3 1l42 45l36 40l8 9l39 43l10 11l9 11q1 2 5 6l12 12q3 4 7 7l6 6l8 7l7 5q1 2 2 2.5t2 1.5l6 5q2 2 3.5 3t2.5 3
q0 1 1 3v3l3 6q-1 0 -1 0.5t-1 0.5l-7 5h-1l-1 1v1l3 2h1q1 0 2 -1t3 -2l5 -3h1q0 -1 2 -3l1 -1q2 -2 3 -2h2q2 -2 4 -2q1 -1 3 -1l6 -2q0 -1 1 -1q2 -3 10 -9l1 -1l5 -3l6 -4t5 -2l5 -4l2 -2h1v-1h1l1 -1l-3 -3q-1 0 -1 -0.5t-1 -0.5q2 0 3 -1v-1l-5 -5l-4 -6q-1 0 -1 -1
l-4 -3l-3 -4q-1 -1 -1 -2q-1 -1 -1 0t2 7l-7 -8l-2 -2q0 -1 -1 -1q0 -1 -1 -1t-1 -1h-6q-2 0 -2 -2l-1 -1q-1 0 -1 -0.5t-1 -0.5l-10 -8l-6 -4t-5 -4l-3 -3l-3 -2l-4 -3l-1 -1q0 1 0.5 1t0.5 1l3 3q2 2 4 6l1 1q0 1 1 2q2 2 9 8l3.5 3.5l3.5 3.5q0 1 1 2h-2q-5 2 -6 1
q0 -1 -5 -6l-13 -13q-4 -7 -9 -10q-2 -3 -4.5 -6t-5.5 -6l-31 -32l-14 -15l-21 -23q-7 -8 -14 -15t-14 -15l-16 -17h1h-1l-1 -1q2 0 2.5 0.5t-0.5 0.5q3 0 11.5 0.5t17.5 0.5h17h10q2 -1 3 -1l7 12q3 6 6 9v2q0 4 3 8q1 1 3.5 2.5t3.5 3.5h-1l1 1v1h1q4 4 17.5 20l31.5 36
l36.5 40.5t33.5 35.5l-28 -33l-25 -30t-24 -28l19 21l22.5 24.5l21.5 24l16 18.5q16 19 26 26.5t14 11.5t4.5 5l2.5 5q0 3 3 8q-2 2 -5 4t-5 3q-1 1 0 2q1 0 3 1q1 -1 3 -2t3.5 -1.5t3.5 -2.5l7 -5q0 -1 1 -1q3 -2 8 -2.5t7 -3.5q3 -5 10 -8l16 -11l9 -6l1 -1l1 -1
q-2 -2 -3 -2l-2 -2q3 0 2 -1q-3 -7 -9 -11q-3 -2 -5 -5.5t-4 -5.5q-1 -2 -0.5 1t2.5 7q-3 -3 -4.5 -5.5t-2.5 -3.5q-4 -6 -11 -4l-3 -3q-2 -2 -7.5 -6.5t-12.5 -9.5l-18 -13q1 2 4 5l4 4l4 4q2 5 8.5 10t9.5 10v1q-6 2 -7 1q0 -1 -21 -23l-49.5 -52.5l-57.5 -64.5t-45 -59
q1 0 3 1q3 0 3 -1q1 -2 4 -1.5t-1 -4.5q-2 -2 -10 -13.5l-17.5 -24.5l-18 -24.5t-10.5 -14.5t-5 -10l-6 -13.5l-5 -11t0 -4.5t4.5 2.5l5 5l4 4t1.5 -0.5q1 -4 8 1t10 10q1 2 13.5 15l28 28l30.5 29t22 18h1q0 -2 -2 -5q-3 -4 -7.5 -8t-8.5 -9q-2 -3 0 -1.5t5 3.5t6.5 5
t4.5 3zM-82 -114q0 1 3 4q0 2 2 2l4 4l5 5q13 15 28 35l28.5 38.5l24 34t14.5 22.5l12 21.5t15.5 29.5l13.5 28t8 18l2 10l-9 -10l-22 -24l-43 -49l-3 -4q-4 -4 -10 -12q-5 -5 -9.5 -10.5l-8.5 -10.5q-9 -10 -12 -16l-6 -7q-5 -5 -6 -9q2 0 3 1q2 0 3 -1v-1q1 -1 2.5 -0.5
t1.5 -0.5l-2 -4q-2 -2 -7 -8.5t-12 -16.5l-5 -7l-4 -5l-7 -11l-13 -18q-3 -4 -4.5 -6.5t-2.5 -4.5q-4 -4 -7 -12l-2 -4q-4 -8 -7 -15t-1 -8h1q3 2 8.5 8.5t5.5 2.5q0 -3 5 0l3 2l8 6zM120 186q2 -1 4 -1q1 0 1 -0.5t-4 -0.5l-9 -9h3q4 2 3.5 2.5t4.5 1.5q2 0 9 -0.5
t15.5 -0.5h17h13.5l5 8h-14.5h-20h-19h-9.5zM31 155q-1 1 -2 1l-7 -7l-13 -15l-4 -5q-2 -1 -2.5 -2t-1.5 -2l-6 -7l-3 -4l8 8l2 3l24 25zM193 185l2 -2q0 1 2 3t2 3.5t-1 0.5l-3 -3zM237 256q0 -1 2.5 1t4.5 4zM-27 93l1 1l-5 -4q1 0 2 1zM194 343q-2 -2 -5 -5.5t-6 -6.5
l16 17zM254 317q0 -2 -2 -2zM-151 -83q-1 -1 -1 -2t-1 -1zM251 314l1 1zM255 317h-1h1zM116 80v1v-1z" />
    <glyph glyph-name="Lslash" unicode="&#x141;" horiz-adv-x="415" 
d="M577 -14q0 -2 -0.5 -5t-0.5 -5l-1 -1v-3l-1 -2q0 -2 -0.5 -3.5t-0.5 -3.5q-1 -1 -0.5 -1.5t-0.5 -2.5v-2q-1 -3 -1 -6.5v-6.5v-2q0 -1 -1 -2l-2 -4q-1 -2 -2 -3t-1 -3v-4q-1 -3 -1 -7t-2 -8q0 -1 -1 -2v-1h-1l-1 -1h-2v1q0 2 0.5 3t0.5 3q0 1 0.5 1.5t0.5 1.5v3l-8 3
l-3 2q-2 1 -3.5 0.5t-5.5 -0.5q-2 0 -4.5 -0.5t-6.5 -0.5q-10 -2 -21 -2q-5 -1 -11 -0.5t-13 0.5q-2 0 -2.5 0.5t-2.5 0.5q-5 0 -13 0.5t-18 0.5q-5 1 -10 1h-10q-12 1 -25 1.5t-27 0.5q-3 0 -5.5 0.5t-5.5 0.5h-17t-16 1h-20q5 0 8 -1h8q4 -1 13 -1l38 -3q6 -1 11.5 -1.5
t10.5 -0.5q3 -1 8 -1q5 -1 7.5 -1h4.5q1 0 1 -0.5t1 -0.5h1h-18q-4 0 -7.5 0.5t-7.5 0.5l-72 3q-5 1 -9 1h-8q-2 0 -4.5 0.5t-5.5 0.5q-8 0 -16 0.5t-14 1.5q-3 0 -5.5 0.5t-4.5 0.5h-10v-1l-1 1h-1q-1 0 -1 0.5t-1 0.5q-2 0 -6 -2h-1q-2 1 -4 1l-3 2l-1 1l-1 1q-4 0 -7 1
q-2 0 -2.5 0.5t-1.5 0.5t-1 1h-3q-2 1 -6 1h-2l-2 1q-2 0 -4 0.5t-5 0.5q-1 1 -4 1l-12 2q-6 2 -8 2l-13 -15q-3 -2 -8.5 -7.5l-11.5 -11.5l-10.5 -10.5l-5.5 -5.5h-1l-3 -2q-4 0 -7 3q-3 0 -6.5 1t-7.5 2q-2 -1 -3 -0.5l-5 2.5q-7 4 -10.5 3.5t-4.5 3.5q-2 2 -5.5 8.5
t-7 14t-6.5 15t-4 10.5q0 1 -0.5 1.5t-0.5 1.5q-5 1 -6 4.5t-1 5.5t-2.5 5t-4.5 8q-3 7 -3 12v1l-2 4l16 7q4 6 11 12t17 2q1 -1 6 -2t10 -3q6 -2 14 -3q2 0 6 -0.5t9 -1.5q1 0 1 -0.5t1 -0.5h5q1 0 1.5 -0.5t1.5 -0.5q7 -1 14 -1.5t15 -2.5l65 72q-11 -2 -21 -3t-19 -2
q-4 1 -6 2.5t-3 2.5t-1 3.5t-1 5.5q-1 4 -1 7v3q0 2 -3 5q-2 6 2 6q1 0 7.5 2t14 4t14.5 3.5t10 1.5t9.5 2l12.5 4t10 3t3 0l-32 -16q10 2 21.5 5t23.5 7l57.5 67.5l56 67.5l48 62t34.5 52v1q0 2 1 3l-29.5 -18.5l-25 -16.5l-17 -11t-5.5 -3t8 6t12.5 9.5t6.5 6t-9 -4.5
l-32 -19q-2 -3 -6 -6q-5 -4 -6 -4.5t-4 -1.5t-4.5 -3t-6.5 -4l-5 -2h-3q-8 -5 -14 -8l-8 -4q-3 -2 -0.5 0.5l6 6t5.5 6t-1 1.5q-5 -2 -2 1t7 8q0 2 0.5 3.5t0.5 4.5q0 5 0.5 6.5t0.5 4.5t1 4q0 1 1 2l2 2q1 1 3 6q1 3 3 5l4 7q3 5 8.5 9t13.5 9l8 5.5t10 6.5q5 4 12 7
q11 7 16 9t7 2t2.5 -1t3.5 0q5 2 10 6t9 6l8 4l14 1q1 0 5 0.5t10 0.5q3 2 5 0q7 -1 14 -4t12 -10q6 -8 6.5 -15.5t-2.5 -14t-6.5 -11.5t-4.5 -6q0 -1 -1 -1q-2 -6 -4 -8q-35 -64 -69.5 -109t-64.5 -80l20 5q5 2 4.5 0.5t1.5 -3.5q4 -2 2 -5t0 -11q1 -7 -0.5 -7.5t-2.5 -5.5
q-1 -7 0 -9.5t-1 -6.5q-1 -3 -1.5 -3.5t1.5 -3.5q0 -1 -1 -2q-1 0 -2 -1q-6 -2 -25.5 -7t-69.5 -16l-86 -102q53 -6 100 -9q26 -2 50.5 -3t46.5 -2q14 -1 27 -1h25h39h31l1 1h1q1 1 1 2t2 3h-1q-1 0 -1 0.5t-1 0.5q-5 1 -12 0t-12 0h-1q-1 0 -2 1h-16l2 1q2 0 5 0.5t8 1.5
q2 0 4.5 0.5t4.5 0.5l10 2h4q1 0 1.5 0.5t1.5 0.5h10q0 1 1 2l2 2q2 2 5 2q1 0 1.5 -0.5t1.5 -0.5h3q1 0 1.5 -0.5t2.5 -0.5h4q-3 2 -5.5 3.5t-0.5 0.5h3q2 0 5 -0.5t6 -0.5q4 1 14 -1l-1 -2h1h5v-3zM97 -49q4 2 6 4l-11 2q-1 0 -1 0.5t-1 0.5l-20 4q2 -4 2 -6q3 -6 4.5 -10
t5.5 -10q8 10 15 15zM106 -43q1 0 2 1q-1 0 -2 1q-10 2 -19 4.5t-18 5.5q0 -2 0.5 -3t0.5 -3h4l1 -1q5 -1 11 -2t14 -2q2 -1 6 -1zM167 -52q6 0 9 -1h6q2 0 4 -0.5t4 -0.5h13q2 0 1 1l-4 2h-5q-3 1 -11 1q-7 0 -12 1h-2zM283 -71q1 0 1.5 0.5t1.5 0.5q-2 0 -3.5 -0.5
t-2.5 -0.5h-2h5z" />
    <glyph glyph-name="lslash" unicode="&#x142;" horiz-adv-x="102" 
d="M109 130q1 0 4.5 3l7 6t6 4.5t1.5 -0.5l-21 -24q-3 -5 -6 -5.5t-5 -3.5l-2 -4q3 0 -2 -6v-1l-1 -1q-5 -7 -17.5 -20.5l-26.5 -28t-27.5 -27t-19.5 -18.5q-11 -10 -18 -10q-8 -5 -11 -2q-2 5 -6.5 8.5l-10.5 8.5l-12.5 10t-5.5 8q1 0 1 2q1 26 15.5 53t30.5 50
q-1 -1 -3 -1l-22.5 -31.5t-11.5 -18.5q6 11 13.5 23.5t15.5 24.5q-8 -2 -15.5 -3.5t-15.5 -3.5q-3 0 -5 1.5t-3 2.5q-1 0 -3 7q-1 3 -1 7q-1 2 -1 3q-1 1 -1 1.5t-1 1.5t-1 4q0 1 1 2q1 0 6 2.5t11 4.5t12 4.5t8 2.5q3 0 8 2.5t10 4.5t8.5 3t2.5 0q-2 -1 -5.5 -3l-8.5 -5
q-5 -4 -11 -8q8 2 16.5 5.5l17.5 7.5l19 30q3 6 6 9v2q0 4 3 8q1 1 3.5 2.5t3.5 3.5h-1l1 1v1h1q4 4 17.5 20l31.5 36l36.5 40.5t33.5 35.5l-28 -33l-25 -30t-24 -28l19 21l22.5 24.5l21.5 24l16 18.5q16 19 26 26.5t14 11.5t4.5 5l2.5 5q0 3 3 8q-2 2 -5 4t-5 3q-1 1 0 2
q1 0 3 1q1 -1 3 -2t3.5 -1.5t3.5 -2.5l7 -5q0 -1 1 -1q3 -2 8 -2.5t7 -3.5q3 -5 10 -8l16 -11l9 -6l1 -1l1 -1q-2 -2 -3 -2l-2 -2q3 0 2 -1q-3 -7 -9 -11q-3 -2 -5 -5.5t-4 -5.5q-1 -2 -0.5 1t2.5 7q-3 -3 -4.5 -5.5t-2.5 -3.5q-4 -6 -11 -4l-3 -3q-2 -2 -7.5 -6.5
t-12.5 -9.5l-18 -13q1 2 4 5l4 4l4 4q2 5 8.5 10t9.5 10v1q-6 2 -7 1q0 -1 -10.5 -12l-27 -28.5l-36.5 -39.5l-39 -44l2 -1q2 -2 1.5 -5t1.5 -9q2 -5 0 -5.5t-1 -5.5q0 -5 0.5 -8t-0.5 -5q0 -3 -0.5 -4t1.5 -3v-2h-2l-18 -7.5t-43 -16.5q0 -1 -2 -3q1 1 3.5 1.5t2.5 -1.5
q1 -2 4 -1.5t-1 -4.5q-2 -2 -10 -13.5l-17.5 -24.5l-18 -24.5t-10.5 -14.5t-5 -10l-6 -13.5l-5 -11t0 -4.5t4.5 2.5l5 5l4 4t1.5 -0.5q1 -4 8 1t10 10q1 2 13.5 15l28 28l30.5 29t22 18h1q0 -2 -2 -5q-3 -4 -7.5 -8t-8.5 -9q-2 -3 0 -1.5t5 3.5t6.5 5t4.5 3zM23 182l3 4
q2 2 2 3.5t-1 0.5l-3 -3l-7 -8zM66 256q0 -1 2.5 1t4.5 4zM-55 80l1 1z" />
    <glyph glyph-name="Zcaron" unicode="&#x17d;" horiz-adv-x="339" 
d="M-42 -24q0 1 -0.5 1.5t-0.5 1.5q0 2 0.5 3.5t0.5 3.5q1 1 1 3l3 5q3 6 7 10.5t6 6.5l43 33.5l54.5 43l56 44.5l47.5 37h-5q-13 -1 -19 -1h-13q-7 1 -11.5 2t-9.5 -1q-6 -1 -10.5 4.5t-2.5 13.5q3 6 5 6q0 -1 1 -1h4q5 -1 8.5 1t6.5 2q3 -1 7.5 0t6.5 1h10.5t20 -0.5
t20 -1t11.5 -0.5h1l64.5 51.5l58.5 48.5l48.5 42t35.5 33l-101 -4.5t-125 6.5q-10 -1 -17.5 -1h-13.5q-7 0 -13 -1q4 2 8 3q8 2 11 1q2 0 5 -0.5t7 -0.5l-20 3q-3 1 -7 1.5t-8 2.5t-10.5 2t-4.5 3q1 1 -1 3.5t-5.5 5.5l-6.5 5.5t-3 3.5v10q0 4 1 8q1 1 1 3q0 3 -1 5t0.5 4.5
t3.5 1.5q1 0 8 -1t15.5 -2.5t17 -2.5t11.5 -2q3 0 10.5 -0.5t15 -0.5h12.5t3 -1t-8.5 -1.5t-13.5 -1.5q-8 -1 -18 -3q28 -5 63 -6.5t72 -1.5t74 1.5t70 3.5h1q5 5 7 -2q0 -2 2 -4q1 -1 3 -2q2 -3 5 -6q2 -2 3.5 -4.5t2.5 -3.5q0 -1 -0.5 -5l-1 -8t-1 -7.5t1.5 -3.5
q3 -1 -2 -5.5t-7 -7.5q-2 -4 -5 -7l-5 -5q-29 -31 -66.5 -67.5l-75.5 -71.5h12q3 0 0 0.5t-8 0.5h-9t-2 0q3 0 6 0.5t7 -0.5q4 0 4.5 0.5t2.5 -4.5q2 -4 6.5 -5.5t5.5 -3.5l3.5 -3.5t1.5 -4.5t0.5 -3t-4.5 -2t-6.5 -1.5t-5.5 -2.5t-3 -3.5t-6 -1.5h-11q-12 2 -31 0
l-39 -33.5l-45.5 -38.5l-41.5 -34.5t-27 -21.5q-21 -15 -23 -16t3.5 3.5l14 11.5t9.5 9q1 1 2.5 2t2.5 3t2 3l-96 -70q62 -4 108.5 -3.5t69.5 1.5h18h1q2 0 2 4q0 1 0.5 1t0.5 1h-2q-5 1 -12 0t-12 0l-1 1h-4h-9h-5h2l2 1h3l8 2l20 3q1 0 1.5 0.5t1.5 0.5h4q1 0 1.5 0.5
t1.5 0.5h3h3v1l2 2q2 2 3 2t1 1h5l1 -1h10q-4 2 -6 2l-1 1l-1 1h1l1 -1h2q1 0 2 -0.5t2 -0.5h4q1 0 1.5 0.5t1.5 0.5q4 1 12 -1h3q0 -1 -0.5 -1.5t-0.5 -1.5l2 1h4v-3q0 -2 -0.5 -5t-0.5 -5q0 -1 -1 -1q0 -3 -1 -5q0 -3 -1 -5q0 -2 -0.5 -4t-0.5 -4q-1 -2 -1 -6v-8
q0 -3 -1 -4l-2.5 -5t-1.5 -5q0 -1 -1 -1v-9v-2q0 -1 -0.5 -1t-0.5 -1q0 -3 -2 -7v-1h-1q-1 -1 -3 -1v2v1q1 2 1 5v5l-7 0.5t-15 0.5t-16 0.5t-10 0.5h-27q-2 0 -2.5 0.5t-2.5 0.5l-85 3h-24q-20 1 -38.5 1h-31.5q7 0 15 -0.5t17 -0.5l26 -2h6.5t6.5 -1q6 0 12 -0.5t11 -0.5
q2 0 3.5 -0.5t3.5 -0.5q6 0 11 -0.5t8 -0.5q1 0 1.5 -0.5t1.5 -0.5h1q-17 -1 -40.5 -0.5t-47 1.5l-45 2t-34.5 2h-2q-2 5 -3.5 10.5t-2.5 12.5q0 1 -0.5 1t-0.5 1q0 4 -1 6v4zM295 201q-2 -1 -17.5 -3.5t-50.5 -5.5l3 -2h2q2 0 3.5 -0.5t5.5 -0.5q7 -1 20 -1t19 1t21 1t19 1
q2 0 -2.5 0.5t-9.5 1t-9 0.5t-1 0q5 1 9.5 0t6.5 1q2 1 5 4t-3 3q-6 -1 -12 -0.5t-9 0.5zM313 401q4 -1 10 0l12 2q7 1 14 3q-22 -2 -45 -2t-43 1q-23 1 -44 3q14 -5 26.5 -5t21.5 -2q4 0 6 -1t3.5 -1h4.5t9 1q13 2 15 1.5t10 -0.5zM458 445v5v-1q-2 0 0 -1t-1 -1q-2 1 -7 1
h-9.5t-8 0.5t-1.5 0.5q2 2 11 4t13 3q-9 0 -22.5 -1.5t-28.5 -3.5t-29 -4.5t-22 -4.5q0 -3 -8 -1t-19 0h-2l-16 26l-23 44.5t-28 43.5l6.5 -13l7.5 -15q-1 2 -8 11.5t-11 11.5l-1 3l1 3l5 10h6q12 -5 24 -15.5t22 -21.5q0 1 5 -4.5l10.5 -12l9.5 -11.5t2 -3q3 -4 4 -5.5
l1 -1.5v-0.5t2 -2.5q9 2 26 0q-2 0 3 0.5t12.5 0t14 -1t6.5 -1.5q12 -2 26 -6t27 -11l3 -7z" />
    <glyph glyph-name="zcaron" unicode="&#x17e;" horiz-adv-x="237" 
d="M213 247q3 1 6.5 2t6.5 2v-9q0 -5 -0.5 -10.5t-1.5 -10.5t-4 -13.5l-4 -11.5q-1 -2 -3.5 -5t-5.5 -8l-51 -38.5l-61 -44.5q-5 -7 -11.5 -11t-10.5 -7t-15.5 -14.5t-16.5 -14.5l-24 -18q17 -2 31 -3.5t18 -1.5h11t13.5 1t12 2t5.5 2h2q7 0 9 2q2 1 5.5 1.5t4.5 2.5
q2 2 4 2.5t3 1.5t2.5 0t2.5 1q-1 2 1 6q1 2 1.5 4.5t2.5 0.5q2 -1 1.5 -4t-0.5 -5v-2v-3q-1 0 -1 -1v-3q1 -3 1.5 -2.5t-0.5 -4.5q0 -6 2 -4t1 -1q-2 -4 0.5 -1.5t0.5 -0.5h-1q-1 -7 -2 -12t-4 -6h-1q-19 -10 -44.5 -12.5t-50 -1t-44 5t-26.5 5.5q-2 1 -5 1t-5 1
q-2 -2 -3 -2.5t-2 -1.5q-1 0 -2 -0.5t-3 -0.5l-6 1.5t-6 5.5t1 7t3 4q-2 3 -0.5 7.5t-1.5 11.5q0 1 -1 2l7.5 5.5l7.5 5.5l40.5 29.5l44.5 32.5q12 9 17.5 14t10 8.5l10.5 8t17 13.5q3 2 9.5 6l14.5 9t16 11t14 12h-18h-13.5t-14 0.5t-17.5 1.5q7 0 17 1q8 0 21 0.5t30 1.5
q0 1 2 3q-27 -2 -57 -2.5t-59 18.5h-2q-2 1 -2.5 6.5t-1.5 12.5q-2 3 -2.5 3.5t-2.5 4.5q-1 3 -1 4v6v5l1 3q1 1 1 2t-0.5 1t-0.5 1v2v2v5.5t2 4.5t2.5 -1.5t1.5 -4.5q1 -3 0 -6q1 -2 2.5 -1t2.5 0q1 -2 3 -2.5t3 -2.5t4.5 -3t5.5 -2q3 -2 9 -3h2q0 -2 -1.5 -2.5t6.5 -0.5
q4 0 18 0.5t30 0.5t30 0.5t17 0.5q7 0 4.5 -1.5t-0.5 -3.5q1 -3 0 -4t-3 -1q8 -1 16.5 -0.5t18.5 1.5q2 0 3 1zM271 293v5v-1q-2 0 0 -1t-1 -1q-2 1 -7 1h-9.5t-8 0.5t-1.5 0.5q2 2 11 4t13 3q-9 0 -22.5 -1.5t-28.5 -3.5t-29 -4.5t-22 -4.5q0 -3 -8 -1t-19 0h-2l-16 26
l-23 44.5t-28 43.5l6.5 -13l7.5 -15q-1 2 -8 11.5t-11 11.5l-1 3l1 3l5 10h6q12 -5 24 -15.5t22 -21.5q0 1 5 -4.5l10.5 -12l9.5 -11.5t2 -3q3 -4 4 -5.5l1 -1.5v-0.5t2 -2.5q9 2 26 0q-2 0 3 0.5t12.5 0t14 -1t6.5 -1.5q12 -2 26 -6t27 -11l3 -7z" />
    <glyph glyph-name="Scaron" unicode="&#x160;" horiz-adv-x="416" 
d="M470 343q4 -2 2.5 -7t-4.5 -10q-4 -6 -10 -14q-19 -14 -42 -26.5l-45 -23.5q-2 -1 -4.5 -2t-6.5 -3q-6 -3 -11 -6q-10 -5 -20 -9q-8 -2 -15 -5t-13 -3q-3 0 -5 0.5t-4 0.5h-2.5t-3.5 2h-5q-2 0 -3 -1h-2q-2 0 -4 2q-4 1 -10 5q-2 2 -3.5 2t-3.5 2q-6 0 -10.5 -0.5
t0.5 2.5q3 2 -0.5 2t-9 -1t-9 -2t-0.5 0q5 2 24 12q2 3 1.5 3t4.5 2q5 4 7 3.5t4 1.5q3 3 4.5 4t7.5 3q3 1 9 1q9 4 17 8.5t16 8.5q11 6 11 7t-5 -0.5l-11.5 -3.5t-7.5 -2t8.5 3.5t23.5 9.5l30 13t27 13q4 2 7.5 4.5l6.5 4.5q4 2 6 4q-4 3 -21.5 6.5t-48 2t-74.5 -13
t-100 -38.5q-33 -16 -54 -28.5t-33 -21.5t-17 -15t-6 -8v-1q-3 -6 -3 -12q0 -5 2.5 -10.5t12.5 -7.5q7 -2 29 -5t51 -7.5l61.5 -9.5t60.5 -11t48.5 -13t25.5 -14q0 -1 1 -3l3 -6q5 -1 9.5 -5.5t2.5 -18.5q1 -8 -4.5 -24t-24.5 -30q-15 -15 -49.5 -37t-95.5 -42q18 8 36 18
l32.5 17.5t31.5 19.5l-55.5 -28t-65.5 -28.5t-68 -17.5t-62 5q-5 0 -10 4q-5 3 -10 8t-11 15q-8 1 -10.5 6t-3.5 10q-1 6 1 14q3 15 14 32q9 14 25 30.5t45 30.5q4 1 8 5q4 2 14 6q1 0 1.5 0.5t2.5 0.5l8 4t3 -1q0 -2 3.5 -2.5t8 -0.5t8 -0.5t4.5 -0.5q3 -3 6 -9l4 -8
q0 -2 1 -3q1 -3 4 -4q2 -1 2 -4t-2 -4q-1 0 -7.5 -3.5l-14 -7.5l-14.5 -8t-10 -5l-9.5 -6.5l-12.5 -9t-10.5 -7.5t-2.5 -1q1 1 5 5.5t8.5 9t8 8.5t5.5 6l-24 -17t-22.5 -18.5t-15 -18t-1.5 -14.5q5 -11 37.5 -8t75 17t86.5 39t72 58q2 2 -10 5.5t-31.5 7.5t-44 8t-48 7
t-43 5t-28.5 3q-14 1 -24.5 4.5t-17.5 7.5q-8 4 -13 9l-15 28l-12.5 22t-9.5 18q-6 10 -6 18q-1 4 0 6q83 66 153.5 98t123 43.5t85 9.5t40.5 -4q5 -2 10.5 -8.5t11 -15.5t10 -18l7.5 -15q4 1 8.5 -1t11.5 -4zM323 398q-20 -3 -40.5 -8.5t-37.5 -10.5t-30 -9.5t-19 -7.5
l-4 -2h1q1 0 3 2q5 1 11 1h8q3 1 9 3.5t11 5.5q4 2 9.5 2.5t7.5 0.5q2 1 11.5 2t14.5 3zM476 424v5v-1q-2 0 0 -1t-1 -1q-2 1 -7 1h-9.5t-8 0.5t-1.5 0.5q2 2 11 4t13 3q-9 0 -22.5 -1.5t-28.5 -3.5t-29 -4.5t-22 -4.5q0 -3 -8 -1t-19 0h-2l-16 26l-23 44.5t-28 43.5
l6.5 -13l7.5 -15q-1 2 -8 11.5t-11 11.5l-1 3l1 3l5 10h6q12 -5 24 -15.5t22 -21.5q0 1 5 -4.5l10.5 -12l9.5 -11.5t2 -3q3 -4 4 -5.5l1 -1.5v-0.5t2 -2.5q9 2 26 0q-2 0 3 0.5t12.5 0t14 -1t6.5 -1.5q12 -2 26 -6t27 -11l3 -7z" />
    <glyph glyph-name="OE" unicode="&#x152;" horiz-adv-x="616" 
d="M834 364q-2 -2 -1 -3t-4 -2q-4 -1 -13.5 -1t-17.5 1q-16 0 -24.5 0.5t-13.5 0.5h-7.5h-5.5q2 1 6 2q3 1 6 1.5t8 1.5q-21 2 -69.5 0.5t-131.5 -18.5l-37 -8q-3 -2 -3 -4q0 -1 -9.5 -11t-24.5 -27.5l-35 -40.5t-41 -50q15 2 30.5 4.5t28 4l20.5 2.5t9 1l-9 -3t-9.5 -3.5
t-2.5 -2t13 1.5l35 5l9 3q5 2 6.5 2h4.5q4 -1 5.5 0.5t6.5 1.5h5l3 -2q9 2 16 2.5t9 2.5q3 0 0 -1.5t-7.5 -3.5l-8 -3.5t0.5 -1.5q5 0 1.5 -2.5t-8.5 -4.5l-5 -8l-4 -10q-2 -4 -3 -5t-2 -1t-2 -1t-2.5 -1.5t-2.5 -2.5q-2 -3 -4 -3l-7 -6q-5 -5 -12 -6t-15 -3q-5 -2 -11 -2.5
t-11 -1.5q-6 -1 -12 -1q-18 -3 -40 -3q-17 -2 -36 -4t-36 -3q-26 -33 -48 -66.5t-38 -62.5l13 13q5 5 10 9t7 6q1 1 -2 -3l-7.5 -10l-9 -12.5t-5.5 -9.5q7 2 14 3t15 2l36 5t49.5 5.5t59 4t64.5 0.5q2 0 4 -0.5t1 -2.5q-1 -3 0.5 -3t3.5 -5q2 -4 2 -7.5t3 -11.5q3 -6 4.5 -6
t3.5 -8q2 -10 4.5 -13t-0.5 -8q-2 -3 -1 -4t-5 -2q-5 -1 -16.5 -1.5t-22.5 0.5h-27.5t-17 0.5t-10.5 1t-8 0.5l12 2q5 1 11.5 2t14.5 3q-8 6 -9 5h-22t-48 -0.5t-57 -1.5t-48 -2h-1q-2 -1 -7.5 -1t-7.5 -2q-2 0 -7.5 -1t-7.5 -1l-7 -2h-1l-4 -2q-5 -1 -7.5 -1h-4.5
q-2 -1 -3.5 -0.5t-3.5 0.5v4v2q-1 3 -1 6q0 2 -0.5 5t-0.5 5q0 1 -0.5 5t-0.5 8.5t-1 8t-2 3.5h-1l-27.5 -17l-26.5 -16q0 -1 -1 -1q-9 -4 -17 -7t-16 -8q-14 -6 -25 -10t-19 -5h-5q-20 -2 -35 2.5t-26 10.5q-12 2 -20.5 9t-13.5 15.5t-8 17.5t-4 15q-1 2 -1 5v2h1
q0 2 -0.5 2.5t-0.5 2.5q-1 3 -1 9q0 7 1 14t1 14q2 10 2 12q0 1 0.5 1t0.5 1v1v1q2 6 4.5 12t5.5 11q8 20 14.5 34.5t8.5 17.5q0 -1 -3 -8.5t-7 -18.5q14 27 29 44q-1 2 -1 3t-1 2q-2 2 -3 4t3 7l2 5v2t1.5 4t2.5 7q0 2 2 4q5 27 17 62.5t36 67.5t62 55.5t95 26.5
q16 2 34 -1q15 -2 33 -8.5t35 -19.5q5 -1 11 -5t12 -15q3 -7 5.5 -13.5t4.5 -13.5q0 -2 2 -4q21 10 47.5 20.5t58.5 20.5l14 14t10 9q2 2 -4.5 5.5t-3.5 6.5q2 1 4 1q5 0 6 -1q2 -2 2.5 -1.5t4.5 0.5q4 -1 6.5 -3t8.5 -4t6.5 0.5t7.5 -2.5q5 -4 8 -4t5 -2q43 10 91.5 15
t100.5 4h46h3t2 -2q-1 -3 0 -3t3 -5q2 -3 2 -6t2 -8q2 -6 3.5 -6t2.5 -7q2 -8 3.5 -11t-0.5 -6zM180 26q27 18 58 45t68 78q-6 3 -10.5 7t-1.5 8q11 17 16 17h4q-1 9 -1 21v25q-6 8 -7 18t1.5 20t6 18t5.5 11q0 1 0.5 1.5t0.5 1.5q5 7 44 28q-5 30 -23 48t-42 18
q-45 0 -79 -17t-59 -42.5t-41.5 -54.5t-26.5 -52l12 9l3 2q7 4 18 14t13 12q1 2 -5 5.5t-3 6.5h5q4 0 6 -2t2.5 -1t4.5 -1q0 -1 1 -1q3 -1 5.5 -2.5t8.5 -3.5t7 -1t7 -4q5 -5 9 -4.5t3 -4.5q0 -3 1.5 -3.5t1.5 -1.5q1 0 -3 -4q-4 -5 -15.5 -18t-19.5 -18q-5 -3 -10.5 -3.5
t-8.5 -2.5l-3 -2q-1 0 -6.5 -5.5t-14.5 -13.5q-12 -11 -19 -18t-12 -13t-9 -11.5t-9 -14.5q-11 -19 -18.5 -33.5t-11.5 -26.5q0 -2 -1 -2v-4q-7 -14 -5 -30q3 -25 10 -34q2 -2 7 -8t16 -9q5 0 7 -1q19 -4 45 5q-8 -2 -15.5 -2h-12.5q-6 0 -12 1q24 2 48.5 15t34.5 20
q8 4 14 8t10 7h1zM441 309q-53 -23 -79.5 -42.5t-28.5 -26.5q-3 -9 -3 -17q0 -7 3.5 -13.5t14.5 -9.5l51 66q16 20 18 22t-2 -4.5t-10.5 -16t-7.5 -11.5q-2 -3 -4 -7l-2 -4zM698 411q-6 -1 -19.5 -2.5l-31 -3.5t-37.5 -6t-40 -9q12 0 23 1q9 1 17 1.5t10 0.5q4 0 13 2.5
t11 3.5q2 2 6.5 3.5t9.5 0.5t11.5 -0.5t9.5 1.5q2 1 7 3zM263 414q7 0 13 2q-20 -1 -37.5 -3.5t-31.5 -6.5q-16 -4 -29 -10q5 2 8.5 2t6.5 1q5 1 8.5 2t8.5 1t10.5 2.5t7.5 4.5q3 1 7.5 0.5t9.5 0.5q7 -1 10 0.5t8 3.5z" />
    <glyph glyph-name="trademark" unicode="&#x2122;" horiz-adv-x="713" 
d="M619 420q-22 1 -26 1h-9q1 0 4 1q2 1 4.5 1t5.5 1q-7 1 -34 -1.5t-61.5 -6t-70 -8.5t-59.5 -9l-3 -3q-5 -3 -9 -5t-5 -4l-16.5 -16l-38 -38.5t-46.5 -53t-41 -58.5q5 4 9 8q4 3 7 5.5t5 3.5q1 1 -1 -1.5l-5 -6.5l-6 -8t-4 -6q-2 -5 -9.5 -17t-8.5 -14q-3 -3 -5 0l-3 3
q-1 1 -2 1q-2 1 -4 3q-5 5 -5 4q-1 2 -1 9t-2 7t0.5 4t3.5 6t2 5t2 5l22.5 38.5t12.5 20t11 13.5t17 19t12.5 14.5t-1.5 -2.5l-7.5 -10t-5.5 -7q-1 -2 -1 -3.5t-1 -2.5q-1 -2 -2 -2l23 27l21.5 24l21.5 24q-33 -9 -62.5 -19.5t-51 -20.5t-34.5 -17.5t-14 -9.5q0 -3 5 -5
q7 -2 12 -3t6 -1h10q2 0 3.5 -0.5t3.5 0.5h2q-8 0 -14.5 1t-11.5 3q-6 2 -11 4q22 -6 35 -4.5t16 3.5q1 2 1.5 2t-0.5 -2q-1 -3 -1 -4t-2 -3q-2 -3 -4 -5q-2 -1 -1.5 -1.5t-1.5 -2.5q-1 -3 -2 -5t1.5 -1t1.5 -1q-1 -1 -2 -5q-1 -2 -1.5 -1.5t-3.5 -1.5q-4 -2 -5 -3.5
t-6 -0.5q-6 0 -12 2q-2 1 -6 1t-7 2q-4 0 -8 1q-2 1 -3.5 1.5t-3.5 1.5q-7 4 -9 11t-2 14.5t2 13.5t2 8q3 10 8 15v2q2 3 19.5 11.5t46 19t66 22t80.5 20.5l2 2q1 0 1 1q2 2 -2.5 4t-2.5 4q1 1 3 1q3 0 4 -1q2 -2 2.5 -1.5t2.5 0.5q2 -1 3.5 -2t5.5 -2t5 0t4 -1l43.5 6.5
t64.5 9t65 7.5t46 3h31q3 0 3 -1q0 -2 0.5 -2t1.5 -2q2 -3 2 -5t1 -6q2 -3 3 -3t2 -5q0 -5 2 -7t0 -4t-1 -2t-3 -1q-2 0 -9 -0.5t-12 0.5zM306 409q2 1 5 3t6 3h2l1 1q-1 0 -1.5 -0.5t-1.5 -0.5l-33.5 -8.5t-51.5 -17.5q8 1 15 3q6 2 11 2.5t7 1.5q3 1 9 3.5t8 2.5q4 4 10 4
q4 0 8 1t6 2zM625 455h-3q-8 0 -34 -2t-54 -7h34q3 0 9 1.5t8 2.5t5 2t6 0t7.5 -1h6.5l5 2.5t7 1.5h3zM513 195q3 -5 2.5 -4.5t-2.5 0.5q-5 -3 -8 -2q-2 3 -4.5 5.5l-6.5 6.5l-9 7t-3 5v2q1 16 10 34t20 33l4 8l4 6l4 6q4 3 6 6q1 1 2 2.5t3 3.5q2 3 4 5.5t4 4.5q3 2 7 5
t6 5l4 4q-2 -1 -3.5 -2t-3.5 -2l-1 -1q-2 -1 -5 -4t-6 -5q-3 -4 -9 -10q-4 -3 -5 -5q-1 0 -1 -1q-1 -1 -1 -1.5t-1 -1.5q-6 -8 -11.5 -16.5t-10.5 -15.5l-9 -16l10.5 21t10.5 17.5t14.5 18.5l21.5 25l-9 -6l-12.5 -8l-14.5 -9q-26 -17 -46.5 -36.5t-31.5 -31.5q-2 -4 -3 -5
l-1 -1q-1 -2 -2 -2.5t-1 -1.5t-1 -2l-1 -1v-1v-1q-1 -1 -1 -2h-1v-2l-1 -2q-1 0 -1 -1v-1v-1l-1 -1v-1q-1 -1 -1 -3l-1 -2v-2l-1 -1q0 -2 -0.5 -3.5t-0.5 -2.5q0 -2 -1 -4t0 -4v-5q0 -1 -1 -1.5t0 -1.5t1.5 -1t1.5 -1v-1q3 -3 2 -4q-2 -1 -3.5 0.5l-2.5 2.5l-2 1h-1v1
q-1 1 -2 1q-2 1 -2 0.5t-3 1.5t-3 2.5t-2 2.5t-1.5 3t-0.5 3q-3 2 -7 4v1v1h-1q-1 0 -1 1v1v1v2v3v1v3q1 0 1 1v1q0 1 1 2v4q1 1 1 2t1 2v1q1 1 1 3v1q2 2 2 3q0 2 2 4q4 10 9.5 19t11.5 17q1 3 2 4.5t2 3.5q3 4 3 6l6 6q4 4 5 6q1 1 2 2.5t3 3.5q3 7 8 10q3 2 6.5 5t5.5 5
q1 1 2 1.5t2 2.5q-2 -1 -3.5 -2t-3.5 -2v-1q-2 -1 -5 -4t-6 -5q-3 -4 -9 -10q-4 -3 -5 -5l-1 -1q-2 -2 -2 -3q-6 -8 -11.5 -16.5t-10.5 -15.5l-9 -16l10.5 21t10 17.5t14 18.5l21.5 25q-2 -2 -4.5 -3t-4.5 -3q-5 -4 -11.5 -8l-14.5 -9q-20 -14 -36 -29t-28 -29
q-14 -16 -25 -31v1q-2 -5 -3 -8.5t-1 -4.5v-1q-2 -2 -2 -6q0 -2 -1 -4t0 -4q1 -1 0.5 -2.5t-0.5 -2.5q1 -1 0 -1.5t-1 -1.5q1 -1 1.5 -1t1.5 -2q3 -3 2 -4q-2 -1 -3.5 0.5l-2.5 2.5q-1 0 -1 1h-2v1q0 1 -2 1q-2 1 -1.5 0.5t-3.5 1.5q-3 2 -3 2.5t-2 2.5t-1.5 3t-0.5 3h-1
q-3 3 -5.5 5t-2.5 4v2q1 14 8.5 30t16.5 29.5t17.5 24t11.5 13.5t7 9q1 3 0 3q0 -2 -2 -2q-9 -10 -18 -22.5l-17 -23.5l-18 -27l15.5 26l16.5 26l13.5 20.5l7.5 11.5q2 4 4 6v1q0 3 2 5q0 1 2 1.5t2 2.5v1v1h1l1 1l2 2q1 2 6 7q1 2 3 4q4 3 5 7q0 3 2 5q-1 2 -3 3l-4 2
q-1 0 -1 0.5t1 0.5t2 1q1 -1 2 -1q1 -1 2 -1t3 -1v-1q-1 0 3 -2l2 -1h1v-1q2 -1 5 -1t5 -2q1 -2 2.5 -3.5l3.5 -3.5q2 -1 5.5 -3t5.5 -3v-1q4 -2 6 -4l1 -1h1q-2 0 -2 -2h-2q2 0 2 -2q-2 -3 -6 -7q-2 -2 -3.5 -4t-2.5 -3l1 5q-2 -2 -3 -3.5t-2 -2.5q-2 -3 -7 -3l-2 -2
q-2 -1 -6.5 -4.5t-10.5 -7.5q-3 -5 -6.5 -9.5t-6.5 -9.5q32 27 56.5 42t41.5 23q11 5 18 7.5t9 2.5h2v-1q2 0 10 -4q10 -3 10 -4q1 -2 2 -1.5t3 -1.5q1 -2 1 -6t-2 -7l-3 -3t-5 -3q-1 -2 -2 -2.5t-2 -1.5l-2 -2q-3 -3 -8.5 -7.5t-10.5 -9.5q-2 -2 -3 -4q25 19 44 30.5
t33 17.5q21 10 26 10h2l1 -1q2 0 4 -1t5 -3q9 -3 10 -4q2 -2 3 -1.5t2 -1.5q2 -2 2 -6t-2 -7l-8 -6q-3 -2 -5 -4q0 -1 -1 -1t-1 -1q-3 -3 -8.5 -7.5t-10.5 -9.5q-3 -4 -9 -11t-11 -12q0 -2 -1 -3q-1 -2 -6.5 -9.5l-12 -16.5t-12.5 -16.5t-7 -9.5q-3 -5 -7.5 -16t-2.5 -11
q2 1 0 1.5t-1 -1.5v-20zM108 204q-1 0 2 -1q2 -1 8 -3t19 -5h-2q-4 -1 -8 -0.5t-9 0.5h-17q-2 0 -2.5 0.5t-4.5 -0.5l-1 -1q-2 1 -3 2t-2 1l-2 1v2q-2 2 -4 10q-3 5 -4.5 7t-1.5 4q1 3 -0.5 4t-0.5 3t3 5.5t7 3.5q4 1 5.5 1t6.5 -1q2 -1 6 -1l3 1q5 0 13.5 -0.5t16.5 -0.5h2
q10 -4 8 -9q0 -5 -3 -9t-2 -12q0 -2 -0.5 -2t-0.5 -1q-3 1 -8 1h-24zM593 228q1 0 -2 1q-2 1 -8.5 2.5t-18.5 5.5h2q4 1 8 0.5t9 -0.5h17q2 0 2.5 -0.5t4.5 0.5l1 1q2 -1 3 -2t2 -1l2 -1v-2q2 -2 4 -10q3 -5 4.5 -7t1.5 -4q-1 -3 0.5 -4t0.5 -3t-3 -5.5t-7 -3.5
q-4 -1 -5.5 -1t-6.5 1q-2 1 -6 1q-3 -2 -3 -1q-5 0 -13.5 0.5t-16.5 0.5h-2q-10 4 -8 9q0 5 3 9t2 12q0 2 0.5 2t0.5 1q3 -1 8 -1h24z" />
    <glyph glyph-name="scaron" unicode="&#x161;" horiz-adv-x="180" 
d="M165 131l17.5 6t15.5 6q-8 -6 -20 -12q-11 -5 -28 -11.5t-42 -13.5q-4 -17 -9.5 -32t-11.5 -29q-4 -7 -11.5 -17.5t-19.5 -19.5t-28 -12.5t-37 2.5l-4 4q-6 4 -9 7q-4 5 -6.5 11t-7.5 13q-2 3 -6 8.5l-8 11.5q-5 -5 -8 -7.5t-4 -3.5q-4 -3 -5 -3t-3 -2q-2 -1 -5 0t-7 -3
q-5 -3 -7 -2t-7 1h-4q-1 0 -1 1l6 8l9 9q5 5 11 10t14 13q5 5 9 8.5t3 8.5t-0.5 5t-1.5 4q-3 5 -6 7t2 -1t9.5 -3.5t1.5 2.5t-5 4.5t0 3.5q1 2 5.5 2.5t24.5 -0.5l34 32l31 29.5l23 22t10 9.5q6 13 13 24q6 10 13.5 20t16.5 17q1 2 1.5 4t2.5 4q-2 2 -5 3.5t-5 3.5q-2 0 0 2
q1 1 3 1q1 -1 3 -2t3.5 -1.5t3.5 -2.5q1 -1 2 -1.5t2 -2.5q1 0 3 -2h1q3 -2 8 -3t7 -3q2 -3 10 -9l8.5 -5.5t7.5 -4.5q1 0 1 -0.5t1 -0.5q2 -2 3 -2q2 -2 4 -3q0 -1 1 -1q0 -1 1 -1l-3 -3q-1 0 -1.5 -0.5t-1.5 -0.5q4 0 3 -1q-3 -7 -9 -11q-3 -2 -5 -5.5t-4 -5.5
q-1 -2 -0.5 1t2.5 6q-3 -3 -4.5 -5t-2.5 -3q-2 -4 -5 -4.5t-6 -0.5q-1 0 -3 -2q-1 -1 -4 -3.5t-7 -5.5q-8 -11 -14.5 -23.5t-8.5 -24.5q0 -12 -3 -24q33 7 73 21q-2 -3 -4 -5q-3 -5 -5 -5t-5.5 -2t-5.5 -4zM17 120q0 -1 -5 -6q11 0 23 1t26 3q5 17 9.5 34t6.5 20
q3 4 -5.5 -3t-20 -17.5l-22.5 -20.5t-12 -11zM-5 46q26 2 38.5 14.5t17.5 23.5q1 2 1.5 4t2.5 6l-35.5 -6t-39.5 -5l-9 -9t-9 -8q1 -3 1.5 -6.5t3.5 -6.5t9.5 -5t18.5 -2zM48 17q7 4 15 11q6 6 13.5 16t12.5 26q-7 -9 -11 -16q-5 -6 -8 -11t-4 -6q-2 -2 -7 -9.5t-11 -10.5z
M288 290v5v-1q-2 0 0 -1t-1 -1q-2 1 -7 1h-9.5t-8 0.5t-1.5 0.5q2 2 11 4t13 3q-9 0 -22.5 -1.5t-28.5 -3.5t-29 -4.5t-22 -4.5q0 -3 -8 -1t-19 0h-2l-16 26l-23 44.5t-28 43.5l6.5 -13l7.5 -15q-1 2 -8 11.5t-11 11.5l-1 3l1 3l5 10h6q12 -5 24 -15.5t22 -21.5q0 1 5 -4.5
l10.5 -12l9.5 -11.5t2 -3q3 -4 4 -5.5l1 -1.5v-0.5t2 -2.5q9 2 26 0q-2 0 3 0.5t12.5 0t14 -1t6.5 -1.5q12 -2 26 -6t27 -11l3 -7z" />
    <glyph glyph-name="oe" unicode="&#x153;" horiz-adv-x="301" 
d="M296 91q-3 -4 -16 -16t-30.5 -25.5t-35.5 -25.5t-31 -18q-26 -12 -46.5 -13.5t-33.5 5.5q-12 8 -19 19t-5 22q1 15 8 31l-37.5 -28.5t-36.5 -24.5q-22 -17 -27 -19q-8 0 -11.5 3.5t-12.5 11.5t-14.5 25t-4.5 28q0 5 5.5 17.5t13 26t15.5 25.5t14 17l21 21t34 36
l-19 -17.5l-16 -15.5q-9 -8 -16 -15q17 21 35.5 40.5t33.5 33.5l34 31v-2q1 0 1 0.5t1 0.5l1 1q2 1 8 1q3 0 5 -1l6 -8q1 0 3 -1l4 -2t4 -3l3 -3l13 -14q4 -5 2 -3.5t-1 -4.5t-1 -7q5 1 10.5 -1t7.5 -9l2 -6q23 22 42.5 35t26.5 18l2 2v2l-2 2q-1 0 -1 1l-5 4q-2 2 -1 3t2 1
l6 -4q4 -3 7 -3h1l9 -3q9 -2 14 -5.5t7 -5.5q1 -1 4.5 -1.5t7 -2t6.5 -4t4 -7.5q2 -9 0 -29.5t-21 -44.5q-9 -12 -24.5 -23.5t-31 -21l-28.5 -17l-18 -10.5q-10 -5 -22 -9q-6 -2 -13 -3q-9 -20 -13 -34q-4 -13 -3.5 -22t11.5 -7t33 13t46.5 27t48.5 34t39 35q11 11 14 14.5
t4 2.5q0 -1 -2 -6q-1 -5 -2 -8q-2 -7 2 -2q4 7 6.5 8.5t-0.5 -6.5q-1 -4 -2.5 -6t-4 -5t-7.5 -8.5t-13 -16.5zM-13 28q4 0 20.5 11.5t35.5 27.5l37 32.5t27 26.5t13.5 19.5t6.5 18.5l3.5 16t3.5 12q5 11 1 18l-3 4q-2 -1 -3 -0.5t-3 0.5q-2 1 -4 -1.5t-4 -4.5q-2 -1 -10 -7
l-21 -21l-16 -18t-21 -22q-46 -48 -59 -80.5t-4 -31.5zM225 182q-11 -8 -23 -20.5t-23 -25.5l-24 -31q17 7 32 16t27 18l20 15.5t11 9.5q5 6 13 13t12 14q5 6 3.5 13.5t-4.5 7.5t-12 -7t-32 -23zM213 30q11 6 24 16l24 19l27 22q-5 -3 -13 -9t-17 -11.5t-16 -10.5t-9 -6z
M167 202q1 -1 1 -5q5 4 7.5 5.5t3.5 3.5t13 12t21 16q8 5 11.5 7.5t5.5 5.5q-16 -8 -32.5 -21z" />
    <glyph glyph-name="Ydieresis" unicode="&#x178;" horiz-adv-x="510" 
d="M672 372q0 -4 2 -3t-2 -4l-5.5 -8l-8 -11t-9.5 -11t-8 -7q-6 -5 -12 -8.5t-8 -5.5q0 -1 -11 -12l-29 -30l-41 -43.5l-47 -52.5l-32 -38l-37 -44l-64 -75l-12 -14q-3 -3 -5.5 -6.5l-5.5 -7.5q-5 -5 -9.5 -11t-9.5 -11q-4 -4 -7.5 -8t-6.5 -8q45 -2 93 -7.5t99 -17.5
q4 1 5.5 1.5t3.5 -0.5q2 0 4 -0.5t5 -1.5q6 0 11 -1q7 0 8 -2q2 -1 2 -0.5t2 -1.5q1 -2 4 -1.5t3 -1.5v-2q2 0 4 -0.5t1 -2.5q-2 -2 -1 -2.5t2 -4.5q2 -3 1 -6t0 -9t3 -5.5t1 -7.5t0.5 -11t-0.5 -5q-3 -2 -2.5 -3.5t-4.5 -0.5q-4 1 -13.5 2.5t-17.5 4.5q-31 8 -44 10.5
t-19 4.5q7 -1 13 -1q5 -1 10.5 -1h10.5q-20 7 -68.5 16.5t-134.5 11.5h-30l-37.5 -44t-19.5 -22q-3 -2 -7.5 -6.5t-9.5 -9l-9 -8t-5 -4.5q-2 -2 4.5 -4.5t3.5 -6.5q-2 -1 -4 -1t-3.5 -0.5t-2.5 1.5q-2 2 -3 1.5t-5 0.5h-1q-68 5 -98.5 17.5t-41.5 23.5q-16 15 -16.5 27.5
t6 21.5t15 14.5t10.5 6.5l35 13.5t87 18.5l-32 -8l-30.5 -8.5t-30.5 -9.5q26 7 71.5 17.5t103.5 13.5l36 39.5l38 44.5v-1l12 14l-42.5 -32.5l-33.5 -24.5q-14 -9 -26 -16l-21 -11l-14 -7q-9 -4 -18.5 -1t-15.5 3q-5 0 -8.5 3.5t-1.5 7.5l-7 4.5t-5 4.5q-1 1 -1 4.5t-0.5 8
t-1 8t-2.5 3.5q-3 0 1 5t5 9q4 10 7 14q21 39 47 76t52 69.5t49.5 59t41.5 44.5q7 7 4.5 3t-9 -12.5l-14 -18l-10.5 -13.5l26 28l32.5 35l32.5 35.5l27 29.5q-13 2 -39 1.5t-72 -6.5q-61 -8 -103 -22.5t-68.5 -29.5t-39.5 -28t-14 -17h22q13 1 29.5 4l31.5 6l24.5 5t8.5 2
q-1 -1 -7.5 -3l-11 -3.5t-3.5 -2.5t13 1q8 2 17 3t19 2q2 2 9 4q5 2 6.5 2t4.5 -1q3 0 5 1.5t8 1.5h5l3 -2q18 3 25 3q3 1 0 -0.5t-7.5 -3.5l-8 -3.5t0.5 -1.5q5 1 1 -1.5t-9 -4.5q-1 -2 -1.5 -3.5t-2.5 -4.5q-2 -4 -2.5 -5.5t-2.5 -3.5q-1 -2 -3 -4q-1 -1 -2 -1t-2 -1
t-2.5 -1.5t-2.5 -2.5q-2 -2 -5 -4q-3 -3 -6 -5q-5 -4 -12 -5t-15 -3q-5 -2 -11 -2.5t-11 -1.5q-6 -1 -13 -2q-13 -2 -18.5 -2t-7.5 1t-2 2t-3 1q-5 -1 -11.5 -2t-11.5 -2h-8l-18 17l-1 -1l-38 2q-3 17 -4 32q-1 13 0 25.5t6 18.5t31 24.5t75.5 37.5t124.5 31t178 5
q1 1 -5.5 4t-3.5 7q2 1 4 1q5 0 7 -1q2 -2 2.5 -1.5t4.5 -0.5t6 -2.5t8 -3.5t7 0t8 -2q6 -4 9.5 -3.5t4.5 -3.5t2.5 -3.5t-1.5 -4.5l-14.5 -18.5t-16.5 -18.5l-13 -7.5t-8 -5.5q-1 -2 -23 -21t-58.5 -55.5t-83 -90.5t-95.5 -125v-10q0 -2 2 -3t0 -3q2 1 0 -1t-5 -7
q-2 -6 -4 -9q-4 -4 -9 -13t-5 -11l-2 -6l77 50t107 78l32.5 26l31.5 27q14 18 28 33.5l26 29.5q16 19 18.5 21t-2 -4l-11 -14.5t-7.5 -10.5t-2 -3.5t-2 -3.5l-2 -4l54 63l20 23.5l18.5 21l14 15.5t6.5 7q3 2 7.5 6.5t9.5 9l9 8t5 4.5q2 2 -4.5 5t-3.5 6q2 1 4 1q5 0 6 -1
q2 -2 2.5 -1.5t4.5 0.5q4 -1 6.5 -2.5t8.5 -3.5t7 0t7 -2q7 -4 10.5 -3.5t4.5 -4.5zM401 413h-5q-6 0 -19.5 -0.5t-31 -2t-38 -4t-41.5 -6.5h50q5 0 14 2t11 3t7 2.5t10 0.5q5 -2 11 -2t9 1t8 3t10 3h5zM165 -123q0 1 7 8t18 19q-76 -8 -115 -23.5t-43 -21.5l-1 -1
q-2 -5 6.5 -8t22 -5t30.5 -3l33 -2q5 7 11 14t10 10l13 7.5t8 5.5zM579 551q1 1 -3 -1q-3 -2 -10.5 -5t-21.5 -11v2q4 4 8.5 7.5t8.5 7.5q6 6 10.5 9.5t5.5 5.5q2 2 3 2t4 5v1l7 2h3q1 -1 2 -1q5 -1 13 -6q8 -2 10.5 -3t4.5 -3q2 -3 4 -3t4 -2q2 -3 2.5 -8.5t-3.5 -9.5
t-5.5 -5t-6.5 -6q-3 -1 -6 -4q-1 -2 -2 -2.5t-1 -1.5q-5 -5 -13 -11t-16 -14q0 -1 -2 -3q-13 -4 -17 2q-5 5 -5 11t-8 14q-1 1 -1 1.5t-1 1.5q2 2 4.5 3.5t4.5 3.5q2 1 5.5 4.5l7.5 7.5t10 9zM644 526q1 1 -3 -1q-3 -2 -10.5 -5t-21.5 -11v2q4 4 8.5 7.5t8.5 7.5
q6 6 10.5 9.5t5.5 5.5q2 2 3 2t4 5v1l7 2h3q1 -1 2 -1q5 -1 13 -6q8 -2 10.5 -3t4.5 -3q2 -3 4 -3t4 -2q2 -3 2.5 -8.5t-3.5 -9.5t-5.5 -5t-6.5 -6q-3 -1 -6 -4q-1 -2 -2 -2.5t-1 -1.5q-5 -5 -13 -11t-16 -14q0 -1 -2 -3q-13 -4 -17 2q-5 5 -5 11t-8 14q-1 1 -1 1.5t-1 1.5
q2 2 4.5 3.5t4.5 3.5q2 1 5.5 4.5l7.5 7.5t10 9z" />
    <glyph glyph-name="exclamdown" unicode="&#xa1;" horiz-adv-x="445" 
d="M16.0264 -145.975q-1 4 -2.5 3t1.5 4l6 8.99902q4 6 8.99902 11.999q10 11 15.999 15.999q7 5 12.5 8.5q5.49902 3.5 7.49902 5.49902l15.499 16l37.498 39.4971l51.4971 55.9971l56.4961 65.4951l53.4971 67.9961q25.498 33.998 41.4971 62.9961
q-7 -6.99902 -12.999 -11.999q-5 -5 -9.99902 -8.49902q-5 -3.5 -7 -5.5q-1 -1 2 2.5q3 3.49902 7.49902 9.49902l9 11.999q4.49902 6 6.49902 9t5.5 9.99902q3.5 7 8 14.499l7.99902 13.499q3.5 6 4.5 7q3 5 6.99902 -1q1 -1 1.5 -2t1.5 -2t3 -1q4 -2 7 -3.99902
q2.99902 -2 4.99902 -3.5t3 -2.5q0 -1 0.5 -5q0.5 -3.99902 0.5 -7.99902t1 -7.5t2 -3.5q3 0 -0.5 -5.49902q-3.5 -5.5 -5.5 -9.5q-1 -3.99902 -2.5 -7.49902t-3.49902 -6.5q-43.998 -76.9951 -89.4951 -128.492l-77.4951 -89.4941q-19.999 -22.999 -19.999 -20.999
l-25.498 -30.498l-24.499 -28.498l-17.999 -19.999q-6.99902 -7.99902 -8.99902 -8.99902q-2 -2 -7 -6.5l-9.99902 -8.99902l-8.99902 -8q-4 -3.5 -5 -4.5q-1 -0.999023 6 -4.99902q3.99902 -4 1.99902 -6q-1.99902 -1 -3.99902 -1q-5 0 -6 1q-2 2 -2.5 1.5t-4.5 -0.5
q-0.999023 1 -2.99902 1l-4 2t-7 3q-5.99902 2 -6.99902 0t-8 2q-5.99902 3.99902 -9.49902 3.49902t-4.5 4.5zM381.004 321.997q-2 -2 -8.49902 -7.5q-6.5 -5.49902 -18.499 -16.499q-1 1 -1 2q3 5 6.5 9.5q3.5 4.49902 6.49902 9.49902q4 8 7.5 11.999q3.5 4 3.5 6
q1 2 1.99902 3q1 1 3 5.99902v1l6 4q2 0 3 1q1 -1 2 -1q3.99902 0 13.999 -2q7.99902 -1 10.999 -0.5t5 -1.5q3 -2 4.99902 -1.5q2 0.5 4 -1.49902q2 -2 4.5 -7t-0.5 -9.99902q-3 -5 -4 -7t-4.99902 -7q-4 -3.99902 -4 -5.99902l-2 -4q-4 -6 -10.499 -14.499
q-6.5 -8.49902 -11.5 -17.499q1 -1 -1 -3q-10.999 -6.99902 -16.999 -3q-4.99902 3 -6.99902 9.5q-2 6.49902 -11.999 11.499q1 0 -3 2q2 2 3.5 4.5q1.49902 2.5 3.49902 4.49902q2 2 4.5 6l5.5 9q3.99902 4.99902 6.99902 11.999z" />
    <glyph glyph-name="Agrave" unicode="&#xc0;" horiz-adv-x="431" 
d="M665 280q-1 1 -1.5 2t-2.5 2l-2 1q-1 0 -4 3q-4 2 -7 3q-5 0 -10 -1.5t-10 -0.5t-6.5 2t-6.5 0q-4 0 -12.5 1t-14.5 2q-3 -1 -6.5 -1t-6.5 -1h-3q-14 -3 -43.5 -8.5t-61.5 -12.5l-1 -1q28 6 60 11.5t55 7.5q4 1 8 1t8 -0.5t9 -1.5h-10.5t-24 -2.5t-44 -8.5t-70.5 -17
l-48.5 -56.5l-48.5 -57.5l-42 -53t-29 -41q7 7 13 12q5 5 10 8.5t7 5.5q2 1 -1 -2.5t-7.5 -9.5t-9.5 -12t-6 -9q-2 -3 -6 -10l-8.5 -14.5l-8 -13.5t-3.5 -7q-1 -2 -3.5 -1.5t-3.5 2.5l-4 4q-2 1 -3 1q-4 2 -7 4q-2 2 -4.5 3.5t-2.5 2.5q-1 1 -1 5v8t-1 7.5t-2 3.5
q-4 0 0 5.5t5 9.5q2 4 3.5 7.5t3.5 6.5q1 1 10.5 17t27 41t41 55.5t51.5 61.5l-42.5 -9.5t-24.5 -6.5q-11 -3 -19 -6t-19 -10q-7 -4 -22 -8l-28 -28.5l-23 -24l-16 -16.5t-5 -5q0 1 5.5 7.5l14.5 16.5l19.5 22.5l21.5 24.5q-4 -2 -8 -2l-47.5 -53l-45 -52l-34.5 -39.5
t-15 -16.5q-2 -2 -3.5 -5t-5.5 -9q-4 -5 -4 -7t-3 -8q-2 -5 -4.5 -13t-4.5 -12q-2 -5 -0.5 -8.5t0.5 -6.5q-1 -2 -0.5 -3.5t0.5 -2.5v-2l4 -7q-3 0 -6 1q-4 0 -8 2t-9.5 2.5t-7.5 2.5t-7 4t-10 6q-5 5 -9 12.5t-4 17.5q0 8 5 20q0 2 2 4q5 11 8 16q1 3 16 19l29 34.5
l32.5 36.5l32.5 34.5l28 28.5v1l9 9h-2q-5 2 -13.5 2.5t-10.5 2.5t-9 10t-13 19q-11 19 -8 35t13.5 30.5t27 27l34.5 26.5q46 36 90 49.5t84 21.5q14 3 31.5 4.5t33.5 2t29 0t19 -1.5h9h3q1 0 3 1l2 2q-3 3 -1 3l15 -3.5l33.5 -7.5t34 -8t17.5 -4q2 -1 1.5 -2l-1.5 -3l1 -1
q0 -4 2 -3.5t-2 -4.5l-5.5 -8l-8 -11t-9.5 -11t-8 -7q-6 -5 -12.5 -6.5t-8.5 -3.5q-3 -3 -27 -30q28 8 51 12t37 6q31 3 50 -3q17 -5 24.5 -19.5t-9.5 -46.5zM265 369q-15 -8 -29 -21l-28 -27q25 21 53.5 38t54 30t46.5 21t33 12q-5 0 -8 -1q-22 -5 -48 -17.5t-40 -18.5
q-14 -7 -17.5 -9l-8.5 -5q-3 -3 -6 -3q-1 0 -2 1zM223 250l52 43.5l59 46t59.5 42.5t54.5 32h1l1 1q7 3 13.5 5.5t12.5 4.5h-8q-7 0 -21.5 -1t-21.5 -1q-7 -1 -11 -2t-9 -1h-3h-1q-64 -23 -106 -46.5t-68 -44.5t-38.5 -36.5l-18.5 -22.5l-5.5 -11.5t-3.5 -15.5
q1 -9 7.5 -12.5t31.5 2.5l4 2l9.5 7.5zM439 305l24 29.5l22 26l17 19t8 8.5q5 4 14.5 13l14.5 14h-1q-2 2 -8 2.5t-11 0.5q-5 1 -12 -1.5t-12 -3.5q-2 -1 -8 -5l-15 -10l-35 -27l-41.5 -33.5l-42.5 -35.5t-37 -34l60 18.5zM616 483l-1 -4l-3 -10l-7 -3q-15 2 -31.5 7.5
l-30.5 10.5q0 -1 -6 2l-13.5 6.5t-13.5 7l-6 3.5q-27 14 -37.5 22l-15.5 12h-1v3q1 2 0.5 2.5t-0.5 3.5q-1 4 0 6.5t1 7.5q1 6 -1 6.5t0 8.5q2 6 1.5 9t1.5 4q3 2 2 3.5t4 -0.5q3 -1 10 -4.5t13 -7.5l35 -21q-1 0 -7.5 1t-14.5 5q4 -7 5 -8l12.5 -10l30 -23l35.5 -25.5
t30 -18.5q-4 3 -11.5 10t-9.5 9q-2 1 1.5 -0.5t8 -4.5t9.5 -5.5t8 -3.5q1 -1 2 -1q0 1 1 2zM614 483q0 -1 0.5 -1t0.5 -1q0 1 1 2h-2z" />
    <glyph glyph-name="Aacute" unicode="&#xc1;" horiz-adv-x="431" 
d="M665 280q-1 1 -1.5 2t-2.5 2l-2 1q-1 0 -4 3q-4 2 -7 3q-5 0 -10 -1.5t-10 -0.5t-6.5 2t-6.5 0q-4 0 -12.5 1t-14.5 2q-3 -1 -6.5 -1t-6.5 -1h-3q-14 -3 -43.5 -8.5t-61.5 -12.5l-1 -1q28 6 60 11.5t55 7.5q4 1 8 1t8 -0.5t9 -1.5h-10.5t-24 -2.5t-44 -8.5t-70.5 -17
l-48.5 -56.5l-48.5 -57.5l-42 -53t-29 -41q7 7 13 12q5 5 10 8.5t7 5.5q2 1 -1 -2.5t-7.5 -9.5t-9.5 -12t-6 -9q-2 -3 -6 -10l-8.5 -14.5l-8 -13.5t-3.5 -7q-1 -2 -3.5 -1.5t-3.5 2.5l-4 4q-2 1 -3 1q-4 2 -7 4q-2 2 -4.5 3.5t-2.5 2.5q-1 1 -1 5v8t-1 7.5t-2 3.5
q-4 0 0 5.5t5 9.5q2 4 3.5 7.5t3.5 6.5q1 1 10.5 17t27 41t41 55.5t51.5 61.5l-42.5 -9.5t-24.5 -6.5q-11 -3 -19 -6t-19 -10q-7 -4 -22 -8l-28 -28.5l-23 -24l-16 -16.5t-5 -5q0 1 5.5 7.5l14.5 16.5l19.5 22.5l21.5 24.5q-4 -2 -8 -2l-47.5 -53l-45 -52l-34.5 -39.5
t-15 -16.5q-2 -2 -3.5 -5t-5.5 -9q-4 -5 -4 -7t-3 -8q-2 -5 -4.5 -13t-4.5 -12q-2 -5 -0.5 -8.5t0.5 -6.5q-1 -2 -0.5 -3.5t0.5 -2.5v-2l4 -7q-3 0 -6 1q-4 0 -8 2t-9.5 2.5t-7.5 2.5t-7 4t-10 6q-5 5 -9 12.5t-4 17.5q0 8 5 20q0 2 2 4q5 11 8 16q1 3 16 19l29 34.5
l32.5 36.5l32.5 34.5l28 28.5v1l9 9h-2q-5 2 -13.5 2.5t-10.5 2.5t-9 10t-13 19q-11 19 -8 35t13.5 30.5t27 27l34.5 26.5q46 36 90 49.5t84 21.5q14 3 31.5 4.5t33.5 2t29 0t19 -1.5h9h3q1 0 3 1l2 2q-3 3 -1 3l15 -3.5l33.5 -7.5t34 -8t17.5 -4q2 -1 1.5 -2l-1.5 -3l1 -1
q0 -4 2 -3.5t-2 -4.5l-5.5 -8l-8 -11t-9.5 -11t-8 -7q-6 -5 -12.5 -6.5t-8.5 -3.5q-3 -3 -27 -30q28 8 51 12t37 6q31 3 50 -3q17 -5 24.5 -19.5t-9.5 -46.5zM265 369q-15 -8 -29 -21l-28 -27q25 21 53.5 38t54 30t46.5 21t33 12q-5 0 -8 -1q-22 -5 -48 -17.5t-40 -18.5
q-14 -7 -17.5 -9l-8.5 -5q-3 -3 -6 -3q-1 0 -2 1zM223 250l52 43.5l59 46t59.5 42.5t54.5 32h1l1 1q7 3 13.5 5.5t12.5 4.5h-8q-7 0 -21.5 -1t-21.5 -1q-7 -1 -11 -2t-9 -1h-3h-1q-64 -23 -106 -46.5t-68 -44.5t-38.5 -36.5l-18.5 -22.5l-5.5 -11.5t-3.5 -15.5
q1 -9 7.5 -12.5t31.5 2.5l4 2l9.5 7.5zM439 305l24 29.5l22 26l17 19t8 8.5q5 4 14.5 13l14.5 14h-1q-2 2 -8 2.5t-11 0.5q-5 1 -12 -1.5t-12 -3.5q-2 -1 -8 -5l-15 -10l-35 -27l-41.5 -33.5l-42.5 -35.5t-37 -34l60 18.5zM465 567q-1 -3 -2 -5t-2 -3t0 1q1 3 4 3
q2 -1 -0.5 1t1.5 0q2 -2 7.5 -4t10.5 -4.5t8.5 -3.5t1.5 -1q-3 0 -14.5 2.5t-14.5 3.5q12 -6 33 -12.5t42 -12l37 -9.5l16 -4q1 -1 10 1q-10 5 -14 9l-5 5q4 -2 9.5 -3.5t28.5 -11.5q7 -2 14.5 -5t9.5 -5q4 -3 2.5 -3t-1.5 -4q2 -2 -1 -3.5t-7 -6.5q-5 -6 -6.5 -5t-5.5 -4
q-5 -3 -6 -5t-5 -4q-2 -2 -2.5 -2t-1.5 -2q-2 -2 -3 -2v1q-6 1 -19 4.5t-41 16.5q2 -1 -4 1.5l-14 6l-14.5 6.5t-6.5 4q-13 8 -27 17.5t-25 20.5l-2 7z" />
    <glyph glyph-name="Acircumflex" unicode="&#xc2;" horiz-adv-x="431" 
d="M665 280q-1 1 -1.5 2t-2.5 2l-2 1q-1 0 -4 3q-4 2 -7 3q-5 0 -10 -1.5t-10 -0.5t-6.5 2t-6.5 0q-4 0 -12.5 1t-14.5 2q-3 -1 -6.5 -1t-6.5 -1h-3q-14 -3 -43.5 -8.5t-61.5 -12.5l-1 -1q28 6 60 11.5t55 7.5q4 1 8 1t8 -0.5t9 -1.5h-10.5t-24 -2.5t-44 -8.5t-70.5 -17
l-48.5 -56.5l-48.5 -57.5l-42 -53t-29 -41q7 7 13 12q5 5 10 8.5t7 5.5q2 1 -1 -2.5t-7.5 -9.5t-9.5 -12t-6 -9q-2 -3 -6 -10l-8.5 -14.5l-8 -13.5t-3.5 -7q-1 -2 -3.5 -1.5t-3.5 2.5l-4 4q-2 1 -3 1q-4 2 -7 4q-2 2 -4.5 3.5t-2.5 2.5q-1 1 -1 5v8t-1 7.5t-2 3.5
q-4 0 0 5.5t5 9.5q2 4 3.5 7.5t3.5 6.5q1 1 10.5 17t27 41t41 55.5t51.5 61.5l-42.5 -9.5t-24.5 -6.5q-11 -3 -19 -6t-19 -10q-7 -4 -22 -8l-28 -28.5l-23 -24l-16 -16.5t-5 -5q0 1 5.5 7.5l14.5 16.5l19.5 22.5l21.5 24.5q-4 -2 -8 -2l-47.5 -53l-45 -52l-34.5 -39.5
t-15 -16.5q-2 -2 -3.5 -5t-5.5 -9q-4 -5 -4 -7t-3 -8q-2 -5 -4.5 -13t-4.5 -12q-2 -5 -0.5 -8.5t0.5 -6.5q-1 -2 -0.5 -3.5t0.5 -2.5v-2l4 -7q-3 0 -6 1q-4 0 -8 2t-9.5 2.5t-7.5 2.5t-7 4t-10 6q-5 5 -9 12.5t-4 17.5q0 8 5 20q0 2 2 4q5 11 8 16q1 3 16 19l29 34.5
l32.5 36.5l32.5 34.5l28 28.5v1l9 9h-2q-5 2 -13.5 2.5t-10.5 2.5t-9 10t-13 19q-11 19 -8 35t13.5 30.5t27 27l34.5 26.5q46 36 90 49.5t84 21.5q14 3 31.5 4.5t33.5 2t29 0t19 -1.5h9h3q1 0 3 1l2 2q-3 3 -1 3l15 -3.5l33.5 -7.5t34 -8t17.5 -4q2 -1 1.5 -2l-1.5 -3l1 -1
q0 -4 2 -3.5t-2 -4.5l-5.5 -8l-8 -11t-9.5 -11t-8 -7q-6 -5 -12.5 -6.5t-8.5 -3.5q-3 -3 -27 -30q28 8 51 12t37 6q31 3 50 -3q17 -5 24.5 -19.5t-9.5 -46.5zM265 369q-15 -8 -29 -21l-28 -27q25 21 53.5 38t54 30t46.5 21t33 12q-5 0 -8 -1q-22 -5 -48 -17.5t-40 -18.5
q-14 -7 -17.5 -9l-8.5 -5q-3 -3 -6 -3q-1 0 -2 1zM223 250l52 43.5l59 46t59.5 42.5t54.5 32h1l1 1q7 3 13.5 5.5t12.5 4.5h-8q-7 0 -21.5 -1t-21.5 -1q-7 -1 -11 -2t-9 -1h-3h-1q-64 -23 -106 -46.5t-68 -44.5t-38.5 -36.5l-18.5 -22.5l-5.5 -11.5t-3.5 -15.5
q1 -9 7.5 -12.5t31.5 2.5l4 2l9.5 7.5zM439 305l24 29.5l22 26l17 19t8 8.5q5 4 14.5 13l14.5 14h-1q-2 2 -8 2.5t-11 0.5q-5 1 -12 -1.5t-12 -3.5q-2 -1 -8 -5l-15 -10l-35 -27l-41.5 -33.5l-42.5 -35.5t-37 -34l60 18.5zM449 548v-5v1q2 0 0 1t1 1q2 -1 7 -1h9.5t7.5 -0.5
t2 -0.5q-2 -2 -11 -4t-13 -3q9 0 22.5 1t28.5 3.5l29 5t22 4.5q0 3 8 1t19 0h2l16 -26l23 -44.5t28 -43.5l-6.5 13l-7.5 15q1 -2 8 -11.5t11 -11.5l1 -3l-1 -3l-5 -10h-6q-12 5 -24 15.5t-22 21.5q0 -1 -5 4.5l-10.5 12l-9.5 11.5t-2 3q-3 4 -4 5.5l-1 1.5v0.5t-2 2.5
q-9 -2 -26 0q2 0 -3 -0.5t-12.5 0t-14 1t-6.5 1.5q-12 2 -26 6t-27 11l-3 7z" />
    <glyph glyph-name="Atilde" unicode="&#xc3;" horiz-adv-x="431" 
d="M665 280q-1 1 -1.5 2t-2.5 2l-2 1q-1 0 -4 3q-4 2 -7 3q-5 0 -10 -1.5t-10 -0.5t-6.5 2t-6.5 0q-4 0 -12.5 1t-14.5 2q-3 -1 -6.5 -1t-6.5 -1h-3q-14 -3 -43.5 -8.5t-61.5 -12.5l-1 -1q28 6 60 11.5t55 7.5q4 1 8 1t8 -0.5t9 -1.5h-10.5t-24 -2.5t-44 -8.5t-70.5 -17
l-48.5 -56.5l-48.5 -57.5l-42 -53t-29 -41q7 7 13 12q5 5 10 8.5t7 5.5q2 1 -1 -2.5t-7.5 -9.5t-9.5 -12t-6 -9q-2 -3 -6 -10l-8.5 -14.5l-8 -13.5t-3.5 -7q-1 -2 -3.5 -1.5t-3.5 2.5l-4 4q-2 1 -3 1q-4 2 -7 4q-2 2 -4.5 3.5t-2.5 2.5q-1 1 -1 5v8t-1 7.5t-2 3.5
q-4 0 0 5.5t5 9.5q2 4 3.5 7.5t3.5 6.5q1 1 10.5 17t27 41t41 55.5t51.5 61.5l-42.5 -9.5t-24.5 -6.5q-11 -3 -19 -6t-19 -10q-7 -4 -22 -8l-28 -28.5l-23 -24l-16 -16.5t-5 -5q0 1 5.5 7.5l14.5 16.5l19.5 22.5l21.5 24.5q-4 -2 -8 -2l-47.5 -53l-45 -52l-34.5 -39.5
t-15 -16.5q-2 -2 -3.5 -5t-5.5 -9q-4 -5 -4 -7t-3 -8q-2 -5 -4.5 -13t-4.5 -12q-2 -5 -0.5 -8.5t0.5 -6.5q-1 -2 -0.5 -3.5t0.5 -2.5v-2l4 -7q-3 0 -6 1q-4 0 -8 2t-9.5 2.5t-7.5 2.5t-7 4t-10 6q-5 5 -9 12.5t-4 17.5q0 8 5 20q0 2 2 4q5 11 8 16q1 3 16 19l29 34.5
l32.5 36.5l32.5 34.5l28 28.5v1l9 9h-2q-5 2 -13.5 2.5t-10.5 2.5t-9 10t-13 19q-11 19 -8 35t13.5 30.5t27 27l34.5 26.5q46 36 90 49.5t84 21.5q14 3 31.5 4.5t33.5 2t29 0t19 -1.5h9h3q1 0 3 1l2 2q-3 3 -1 3l15 -3.5l33.5 -7.5t34 -8t17.5 -4q2 -1 1.5 -2l-1.5 -3l1 -1
q0 -4 2 -3.5t-2 -4.5l-5.5 -8l-8 -11t-9.5 -11t-8 -7q-6 -5 -12.5 -6.5t-8.5 -3.5q-3 -3 -27 -30q28 8 51 12t37 6q31 3 50 -3q17 -5 24.5 -19.5t-9.5 -46.5zM265 369q-15 -8 -29 -21l-28 -27q25 21 53.5 38t54 30t46.5 21t33 12q-5 0 -8 -1q-22 -5 -48 -17.5t-40 -18.5
q-14 -7 -17.5 -9l-8.5 -5q-3 -3 -6 -3q-1 0 -2 1zM223 250l52 43.5l59 46t59.5 42.5t54.5 32h1l1 1q7 3 13.5 5.5t12.5 4.5h-8q-7 0 -21.5 -1t-21.5 -1q-7 -1 -11 -2t-9 -1h-3h-1q-64 -23 -106 -46.5t-68 -44.5t-38.5 -36.5l-18.5 -22.5l-5.5 -11.5t-3.5 -15.5
q1 -9 7.5 -12.5t31.5 2.5l4 2l9.5 7.5zM439 305l24 29.5l22 26l17 19t8 8.5q5 4 14.5 13l14.5 14h-1q-2 2 -8 2.5t-11 0.5q-5 1 -12 -1.5t-12 -3.5q-2 -1 -8 -5l-15 -10l-35 -27l-41.5 -33.5l-42.5 -35.5t-37 -34l60 18.5zM515 522q-2 1 -3 2q-1 0 -1 1q-2 2 -5.5 6.5
t-6.5 11.5q-1 2 -4 9t-4.5 15t1 15.5t12.5 10.5l11 2q2 -1 4 -0.5t4 0.5t3 1q4 -1 6.5 -1h4.5h7q5 0 10 0.5t9 -0.5q7 1 9 -1t7 -4q4 -3 5 -3t3 -3q2 -2 2 -2.5t1 -1.5q1 -2 -2.5 -0.5t-0.5 -0.5l3 -7q2 -2 1.5 -2t3.5 -2l6 -6q4 -3 3 -4t2 -5q0 -2 0 -1.5t-1 2.5l-24.5 5
t-50.5 1q7 2 15 3q14 2 36 0l-2 1q-3 1 -9 1q-2 0 -7.5 1t-7.5 -1q-2 1 -9.5 1t-17.5 1q-2 -2 -4 -3.5t-2 -2.5h1q2 -4 23 -15.5t57 -26.5l52 -17l28 -8l-3 -1q1 -1 2 -1h1q6 -6 12 -18q1 -2 4 -9t4 -15t-1 -15.5t-12 -10.5l-11 -3q-5 1 -8 0.5t-4 -0.5q-3 0 -6 0.5t-4 -0.5
q-4 2 -7 0q-5 0 -10 -0.5t-8 -0.5q-7 1 -9.5 2.5t-7.5 3.5q-4 3 -4.5 3t-2.5 2q-3 2 -3 3t-2 3q-1 1 2.5 0t1.5 1l-3 6q-2 3 -4 4l-7 6q-4 3 -3.5 4t-2.5 6q0 2 1 1t1 -3l24.5 -5t49.5 0q-7 -2 -15 -3q-7 -1 -16 -1.5t-20 1.5l2 -1h1q3 -2 4.5 -1.5t4.5 0.5q2 -1 7.5 -1.5
t7.5 0.5q2 -1 9 -0.5t17 0.5q6 0 6 5q-2 2 -22 13t-55 25l-55 20l-28 8h4z" />
    </font>
</defs>
</svg>
