<svg width="25" height="25" viewBox="0 0 25 25" fill="none" xmlns="http://www.w3.org/2000/svg">
<g clip-path="url(#clip0)">
<path d="M23.6202 25.0001C24.3821 25.0001 25 24.3823 25 23.6203V1.37979C25 0.617676 24.3821 0 23.6202 0H1.37979C0.617578 0 0 0.617676 0 1.37979V23.6203C0 24.3823 0.617578 25.0001 1.37979 25.0001H23.6202Z" fill="#395185"/>
<path d="M17.2495 25.0001V15.3188H20.4992L20.9858 11.5458H17.2495V9.13683C17.2495 8.04445 17.553 7.30001 19.1195 7.30001L21.1174 7.29913V3.92462C20.7717 3.87863 19.5858 3.77589 18.2061 3.77589C15.3254 3.77589 13.3533 5.53419 13.3533 8.76329V11.5458H10.0953V15.3188H13.3533V25.0001H17.2495Z" fill="white"/>
</g>
<defs>
<clipPath id="clip0">
<rect width="25" height="25" fill="white"/>
</clipPath>
</defs>
</svg>
