<svg width="25" height="25" viewBox="0 0 25 25" fill="none" xmlns="http://www.w3.org/2000/svg">
<g clip-path="url(#clip0)">
<path d="M12.5001 0C5.59736 0 0 5.59639 0 12.5001C0 18.0229 3.58164 22.7086 8.54834 24.3614C9.17305 24.4771 9.40244 24.0902 9.40244 23.7601C9.40244 23.462 9.39072 22.4773 9.38545 21.4329C5.90791 22.189 5.17412 19.958 5.17412 19.958C4.60547 18.5132 3.78613 18.1289 3.78613 18.1289C2.65205 17.3531 3.87168 17.3691 3.87168 17.3691C5.12686 17.4572 5.78779 18.6572 5.78779 18.6572C6.90273 20.5682 8.71211 20.0157 9.42539 19.6963C9.5376 18.8885 9.86152 18.3369 10.219 18.0248C7.44258 17.7088 4.52393 16.6369 4.52393 11.8473C4.52393 10.4825 5.01221 9.36738 5.81182 8.49199C5.68203 8.17715 5.2542 6.90586 5.93291 5.18398C5.93291 5.18398 6.98262 4.84805 9.37139 6.46533C10.3685 6.18838 11.4378 6.04951 12.5001 6.04473C13.5624 6.04951 14.6326 6.18828 15.6315 6.46533C18.0174 4.84814 19.0656 5.18408 19.0656 5.18408C19.746 6.90576 19.318 8.17725 19.1882 8.49199C19.9896 9.36738 20.4746 10.4825 20.4746 11.8473C20.4746 16.6483 17.5504 17.7055 14.7669 18.0149C15.2152 18.4028 15.6147 19.1636 15.6147 20.3298C15.6147 22.0022 15.6003 23.3483 15.6003 23.7601C15.6003 24.0928 15.8253 24.4825 16.4589 24.3597C21.4229 22.7051 25 18.0212 25 12.5002C25 5.59639 19.4034 0 12.5001 0ZM4.68174 17.8066C4.6542 17.8687 4.55645 17.8874 4.46748 17.8447C4.37676 17.804 4.32588 17.7193 4.35518 17.657C4.38213 17.5931 4.48008 17.5752 4.57051 17.6181C4.66133 17.6589 4.71309 17.7443 4.68174 17.8066ZM5.29658 18.3553C5.23701 18.4105 5.12041 18.3849 5.04131 18.2976C4.95957 18.2104 4.94424 18.0938 5.00469 18.0378C5.06621 17.9825 5.1792 18.0084 5.26113 18.0955C5.34297 18.1837 5.35879 18.2994 5.29658 18.3553ZM5.71846 19.0572C5.6418 19.1104 5.5166 19.0605 5.43916 18.9494C5.3626 18.8383 5.3626 18.705 5.44082 18.6516C5.51846 18.5981 5.6418 18.6462 5.72021 18.7565C5.79658 18.8695 5.79658 19.0028 5.71836 19.0573L5.71846 19.0572ZM6.43174 19.8702C6.36328 19.9458 6.21729 19.9255 6.11045 19.8224C6.00117 19.7216 5.9708 19.5786 6.03955 19.503C6.10889 19.4272 6.25566 19.4485 6.36328 19.5509C6.47168 19.6515 6.50488 19.7955 6.43174 19.8702ZM7.35381 20.1446C7.32354 20.2426 7.18291 20.2871 7.04141 20.2455C6.9 20.2026 6.80752 20.088 6.83604 19.9891C6.86543 19.8904 7.00664 19.8441 7.14922 19.8887C7.29043 19.9312 7.3832 20.0451 7.35381 20.1447V20.1446ZM8.40303 20.2611C8.40654 20.3642 8.28652 20.4496 8.13789 20.4516C7.98848 20.4549 7.86748 20.3715 7.86582 20.2699C7.86582 20.1659 7.9832 20.0813 8.13272 20.0787C8.28135 20.0758 8.40303 20.1586 8.40303 20.2611ZM9.43379 20.2216C9.45156 20.3222 9.34834 20.4255 9.20068 20.453C9.05566 20.4795 8.92129 20.4174 8.90283 20.3177C8.88486 20.2146 8.99004 20.1112 9.13486 20.0846C9.28271 20.0589 9.41494 20.1193 9.43379 20.2216Z" fill="#161614"/>
</g>
<defs>
<clipPath id="clip0">
<rect width="25" height="24.4141" fill="white"/>
</clipPath>
</defs>
</svg>
