<svg width="25" height="19" viewBox="0 0 25 19" fill="none" xmlns="http://www.w3.org/2000/svg">
<g clip-path="url(#clip0)">
<path d="M5.68184 18.7549V9.09571L2.68623 6.35518L0 4.83438V17.0503C0 17.9935 0.76416 18.7549 1.70459 18.7549H5.68184Z" fill="#4285F4"/>
<path d="M19.3182 18.7549H23.2954C24.2387 18.7549 25 17.9906 25 17.0503V4.83447L21.9574 6.57636L19.3182 9.0957V18.7549Z" fill="#34A853"/>
<path d="M5.68185 9.0957L5.27423 5.32158L5.68185 1.70937L12.5 6.82305L19.3182 1.70937L19.7742 5.12656L19.3182 9.0957L12.5 14.2094L5.68185 9.0957Z" fill="#EA4335"/>
<path d="M19.3182 1.70938V9.0957L25 4.83437V2.56162C25 0.453711 22.5938 -0.747949 20.9092 0.516211L19.3182 1.70938Z" fill="#FBBC04"/>
<path d="M0 4.83424L2.61318 6.7942L5.68184 9.09556V1.70924L4.09082 0.516073C2.40332 -0.748185 0 0.453573 0 2.56139V4.83414V4.83424Z" fill="#C5221F"/>
</g>
<defs>
<clipPath id="clip0">
<rect width="25" height="18.8477" fill="white"/>
</clipPath>
</defs>
</svg>
