<svg width="25" height="25" viewBox="0 0 25 25" fill="none" xmlns="http://www.w3.org/2000/svg">
<g clip-path="url(#clip0)">
<path d="M21.3002 21.3009H17.596V15.4998C17.596 14.1165 17.5713 12.3358 15.6694 12.3358C13.7401 12.3358 13.4449 13.843 13.4449 15.3991V21.3005H9.74082V9.37121H13.2968V11.0015H13.3466C13.7025 10.393 14.2167 9.89241 14.8346 9.55306C15.4524 9.21371 16.1507 9.04829 16.8552 9.07443C20.6096 9.07443 21.3018 11.544 21.3018 14.7567L21.3002 21.3009ZM5.56113 7.74064C4.37393 7.74083 3.41133 6.77853 3.41113 5.59132C3.41094 4.40412 4.37314 3.44152 5.56035 3.44132C6.74756 3.44103 7.71016 4.40333 7.71035 5.59054C7.71046 6.16066 7.48408 6.70748 7.08103 7.11069C6.67797 7.51391 6.13125 7.74051 5.56113 7.74064ZM7.41328 21.301H3.70518V9.37121H7.41318V21.3009L7.41328 21.301ZM23.1469 0.00118628H1.84385C0.837012 -0.0101418 0.0113281 0.796401 -0.000976562 1.80324V23.1951C0.0109375 24.2025 0.836523 25.0098 1.84375 24.9992H23.1469C24.1563 25.0117 24.9851 24.2044 24.999 23.1951V1.80158C24.9847 0.792788 24.1558 -0.0136575 23.1469 -0.000473875" fill="#0A66C2"/>
</g>
<defs>
<clipPath id="clip0">
<rect width="25" height="25" fill="white"/>
</clipPath>
</defs>
</svg>
