<svg width="25" height="21" viewBox="0 0 25 21" fill="none" xmlns="http://www.w3.org/2000/svg">
<g clip-path="url(#clip0)">
<path d="M25 2.48535C24.0801 2.89326 23.0916 3.16894 22.0541 3.29296C23.1132 2.6582 23.9264 1.65302 24.3093 0.455367C23.3025 1.05281 22.201 1.47375 21.0523 1.7C20.1167 0.703218 18.7838 0.0802689 17.3085 0.0802689C14.4759 0.0802689 12.1793 2.37675 12.1793 5.20918C12.1793 5.61123 12.2247 6.00263 12.3121 6.37812C8.04941 6.16416 4.27012 4.12226 1.74033 1.01914C1.29893 1.77666 1.046 2.65781 1.046 3.59765C1.046 5.37714 1.95156 6.94697 3.32773 7.86679C2.51323 7.84128 1.71665 7.62129 1.00449 7.22519C1.0042 7.24668 1.0042 7.26816 1.0042 7.28974C1.0042 9.7748 2.77217 11.8478 5.11846 12.319C4.36317 12.5245 3.57093 12.5545 2.80225 12.4069C3.45488 14.4446 5.34912 15.9274 7.59346 15.9689C5.83809 17.3445 3.62646 18.1645 1.22354 18.1645C0.809473 18.1645 0.40127 18.1402 0 18.0929C2.26982 19.5481 4.96582 20.3973 7.8623 20.3973C17.2966 20.3973 22.4555 12.5817 22.4555 5.804C22.4555 5.58154 22.4506 5.36035 22.4406 5.14043C23.4448 4.41453 24.3114 3.51544 25 2.48535Z" fill="#55ACEE"/>
</g>
<defs>
<clipPath id="clip0">
<rect width="25" height="20.4102" fill="white"/>
</clipPath>
</defs>
</svg>
